G04 #@! TF.FileFunction,Soldermask,Top*
%FSLAX46Y46*%
G04 Gerber Fmt 4.6, Leading zero omitted, Abs format (unit mm)*
G04 Created by KiCad (PCBNEW 4.0.7-e2-6376~58~ubuntu16.04.1) date Mon Nov  6 19:58:44 2017*
%MOMM*%
%LPD*%
G01*
G04 APERTURE LIST*
%ADD10C,0.100000*%
%ADD11R,1.600000X1.000000*%
%ADD12R,1.000000X1.600000*%
%ADD13R,6.851600X6.851600*%
%ADD14O,3.956000X2.178000*%
%ADD15R,2.000000X2.000000*%
%ADD16C,2.000000*%
%ADD17R,1.650000X1.900000*%
%ADD18R,1.900000X1.650000*%
%ADD19R,2.100000X2.100000*%
%ADD20O,2.100000X2.100000*%
%ADD21O,3.900000X3.900000*%
%ADD22R,2.200000X2.200000*%
%ADD23O,2.200000X2.200000*%
%ADD24R,1.700000X1.900000*%
%ADD25R,2.400000X4.200000*%
%ADD26R,2.400000X1.900000*%
%ADD27C,1.400000*%
%ADD28C,2.940000*%
%ADD29R,1.900000X1.700000*%
G04 APERTURE END LIST*
D10*
D11*
X144750000Y-89200000D03*
X144750000Y-90000000D03*
X144750000Y-90800000D03*
X144750000Y-91600000D03*
X144750000Y-92400000D03*
X144750000Y-93200000D03*
X144750000Y-94000000D03*
X144750000Y-94800000D03*
D12*
X146200000Y-96250000D03*
X147000000Y-96250000D03*
X147800000Y-96250000D03*
X148600000Y-96250000D03*
X149400000Y-96250000D03*
X150200000Y-96250000D03*
X151000000Y-96250000D03*
X151800000Y-96250000D03*
D11*
X153250000Y-94800000D03*
X153250000Y-94000000D03*
X153250000Y-93200000D03*
X153250000Y-92400000D03*
X153250000Y-91600000D03*
X153250000Y-90800000D03*
X153250000Y-90000000D03*
X153250000Y-89200000D03*
D12*
X151800000Y-87750000D03*
X151000000Y-87750000D03*
X150200000Y-87750000D03*
X149400000Y-87750000D03*
X148600000Y-87750000D03*
X147800000Y-87750000D03*
X147000000Y-87750000D03*
X146200000Y-87750000D03*
D13*
X119000000Y-94080000D03*
X119000000Y-83920000D03*
D14*
X126493000Y-91540000D03*
X126493000Y-89000000D03*
X126493000Y-86460000D03*
X111380000Y-91540000D03*
X111380000Y-86460000D03*
D15*
X96500000Y-83000000D03*
D16*
X99000000Y-83000000D03*
D17*
X141000000Y-91750000D03*
X141000000Y-94250000D03*
D18*
X139250000Y-84000000D03*
X136750000Y-84000000D03*
D17*
X138000000Y-91750000D03*
X138000000Y-94250000D03*
D15*
X96000000Y-97000000D03*
D16*
X98500000Y-97000000D03*
D17*
X143000000Y-85250000D03*
X143000000Y-82750000D03*
D18*
X153250000Y-99000000D03*
X150750000Y-99000000D03*
D19*
X155500000Y-67880000D03*
D20*
X155500000Y-70420000D03*
X155500000Y-72960000D03*
X155500000Y-75500000D03*
X155500000Y-78040000D03*
D21*
X85460000Y-97660000D03*
D22*
X88000000Y-81000000D03*
D23*
X85460000Y-81000000D03*
X82920000Y-81000000D03*
D24*
X146000000Y-85350000D03*
X146000000Y-82650000D03*
D25*
X101150000Y-90000000D03*
D26*
X94850000Y-90000000D03*
X94850000Y-92300000D03*
X94850000Y-87700000D03*
D27*
X141000000Y-87000000D03*
X141000000Y-88900000D03*
D19*
X129000000Y-75500000D03*
D20*
X131540000Y-75500000D03*
X134080000Y-75500000D03*
X136620000Y-75500000D03*
D19*
X142500000Y-65380000D03*
D20*
X142500000Y-67920000D03*
X142500000Y-70460000D03*
X142500000Y-73000000D03*
X142500000Y-75540000D03*
X142500000Y-78080000D03*
D28*
X89000000Y-74000000D03*
X84001280Y-74000000D03*
X114000000Y-74000000D03*
X109001280Y-74000000D03*
X124000000Y-74000000D03*
X119001280Y-74000000D03*
X104000000Y-74000000D03*
X99001280Y-74000000D03*
X94000020Y-74000000D03*
D29*
X106050000Y-96750000D03*
X108750000Y-96750000D03*
M02*
