G04 #@! TF.FileFunction,Legend,Top*
%FSLAX46Y46*%
G04 Gerber Fmt 4.6, Leading zero omitted, Abs format (unit mm)*
G04 Created by KiCad (PCBNEW 4.0.7-e2-6376~58~ubuntu16.04.1) date Mon Nov  6 19:58:44 2017*
%MOMM*%
%LPD*%
G01*
G04 APERTURE LIST*
%ADD10C,0.100000*%
%ADD11C,0.300000*%
%ADD12C,0.200000*%
%ADD13C,0.150000*%
%ADD14C,0.120000*%
%ADD15C,0.127000*%
%ADD16C,0.101600*%
%ADD17C,0.050800*%
G04 APERTURE END LIST*
D10*
D11*
X112357143Y-65607143D02*
X112571429Y-65678571D01*
X112928572Y-65678571D01*
X113071429Y-65607143D01*
X113142858Y-65535714D01*
X113214286Y-65392857D01*
X113214286Y-65250000D01*
X113142858Y-65107143D01*
X113071429Y-65035714D01*
X112928572Y-64964286D01*
X112642858Y-64892857D01*
X112500000Y-64821429D01*
X112428572Y-64750000D01*
X112357143Y-64607143D01*
X112357143Y-64464286D01*
X112428572Y-64321429D01*
X112500000Y-64250000D01*
X112642858Y-64178571D01*
X113000000Y-64178571D01*
X113214286Y-64250000D01*
X113857143Y-64892857D02*
X114357143Y-64892857D01*
X114571429Y-65678571D02*
X113857143Y-65678571D01*
X113857143Y-64178571D01*
X114571429Y-64178571D01*
X115214286Y-65678571D02*
X115214286Y-64178571D01*
X116071429Y-65678571D01*
X116071429Y-64178571D01*
X116714286Y-65607143D02*
X116928572Y-65678571D01*
X117285715Y-65678571D01*
X117428572Y-65607143D01*
X117500001Y-65535714D01*
X117571429Y-65392857D01*
X117571429Y-65250000D01*
X117500001Y-65107143D01*
X117428572Y-65035714D01*
X117285715Y-64964286D01*
X117000001Y-64892857D01*
X116857143Y-64821429D01*
X116785715Y-64750000D01*
X116714286Y-64607143D01*
X116714286Y-64464286D01*
X116785715Y-64321429D01*
X116857143Y-64250000D01*
X117000001Y-64178571D01*
X117357143Y-64178571D01*
X117571429Y-64250000D01*
X118500000Y-64178571D02*
X118785714Y-64178571D01*
X118928572Y-64250000D01*
X119071429Y-64392857D01*
X119142857Y-64678571D01*
X119142857Y-65178571D01*
X119071429Y-65464286D01*
X118928572Y-65607143D01*
X118785714Y-65678571D01*
X118500000Y-65678571D01*
X118357143Y-65607143D01*
X118214286Y-65464286D01*
X118142857Y-65178571D01*
X118142857Y-64678571D01*
X118214286Y-64392857D01*
X118357143Y-64250000D01*
X118500000Y-64178571D01*
X120642858Y-65678571D02*
X120142858Y-64964286D01*
X119785715Y-65678571D02*
X119785715Y-64178571D01*
X120357143Y-64178571D01*
X120500001Y-64250000D01*
X120571429Y-64321429D01*
X120642858Y-64464286D01*
X120642858Y-64678571D01*
X120571429Y-64821429D01*
X120500001Y-64892857D01*
X120357143Y-64964286D01*
X119785715Y-64964286D01*
X123428572Y-68607143D02*
X124571429Y-68607143D01*
X118428572Y-68607143D02*
X119571429Y-68607143D01*
X119000000Y-69178571D02*
X119000000Y-68035714D01*
X112964286Y-69178571D02*
X112964286Y-67678571D01*
X113321429Y-67678571D01*
X113535714Y-67750000D01*
X113678572Y-67892857D01*
X113750000Y-68035714D01*
X113821429Y-68321429D01*
X113821429Y-68535714D01*
X113750000Y-68821429D01*
X113678572Y-68964286D01*
X113535714Y-69107143D01*
X113321429Y-69178571D01*
X112964286Y-69178571D01*
X114392857Y-68750000D02*
X115107143Y-68750000D01*
X114250000Y-69178571D02*
X114750000Y-67678571D01*
X115250000Y-69178571D01*
X108857143Y-69035714D02*
X108785714Y-69107143D01*
X108571428Y-69178571D01*
X108428571Y-69178571D01*
X108214286Y-69107143D01*
X108071428Y-68964286D01*
X108000000Y-68821429D01*
X107928571Y-68535714D01*
X107928571Y-68321429D01*
X108000000Y-68035714D01*
X108071428Y-67892857D01*
X108214286Y-67750000D01*
X108428571Y-67678571D01*
X108571428Y-67678571D01*
X108785714Y-67750000D01*
X108857143Y-67821429D01*
X110214286Y-69178571D02*
X109500000Y-69178571D01*
X109500000Y-67678571D01*
X99678571Y-69428571D02*
X98178571Y-69428571D01*
X98178571Y-68857143D01*
X98250000Y-68714285D01*
X98321429Y-68642857D01*
X98464286Y-68571428D01*
X98678571Y-68571428D01*
X98821429Y-68642857D01*
X98892857Y-68714285D01*
X98964286Y-68857143D01*
X98964286Y-69428571D01*
X98178571Y-68071428D02*
X99678571Y-67714285D01*
X98607143Y-67428571D01*
X99678571Y-67142857D01*
X98178571Y-66785714D01*
X99678571Y-65357142D02*
X98964286Y-65857142D01*
X99678571Y-66214285D02*
X98178571Y-66214285D01*
X98178571Y-65642857D01*
X98250000Y-65499999D01*
X98321429Y-65428571D01*
X98464286Y-65357142D01*
X98678571Y-65357142D01*
X98821429Y-65428571D01*
X98892857Y-65499999D01*
X98964286Y-65642857D01*
X98964286Y-66214285D01*
X99107143Y-64714285D02*
X99107143Y-63571428D01*
X104535714Y-68392857D02*
X104607143Y-68464286D01*
X104678571Y-68678572D01*
X104678571Y-68821429D01*
X104607143Y-69035714D01*
X104464286Y-69178572D01*
X104321429Y-69250000D01*
X104035714Y-69321429D01*
X103821429Y-69321429D01*
X103535714Y-69250000D01*
X103392857Y-69178572D01*
X103250000Y-69035714D01*
X103178571Y-68821429D01*
X103178571Y-68678572D01*
X103250000Y-68464286D01*
X103321429Y-68392857D01*
X103178571Y-67464286D02*
X103178571Y-67178572D01*
X103250000Y-67035714D01*
X103392857Y-66892857D01*
X103678571Y-66821429D01*
X104178571Y-66821429D01*
X104464286Y-66892857D01*
X104607143Y-67035714D01*
X104678571Y-67178572D01*
X104678571Y-67464286D01*
X104607143Y-67607143D01*
X104464286Y-67750000D01*
X104178571Y-67821429D01*
X103678571Y-67821429D01*
X103392857Y-67750000D01*
X103250000Y-67607143D01*
X103178571Y-67464286D01*
X104678571Y-66178571D02*
X103178571Y-66178571D01*
X104250000Y-65678571D01*
X103178571Y-65178571D01*
X104678571Y-65178571D01*
X104607143Y-64535714D02*
X104678571Y-64321428D01*
X104678571Y-63964285D01*
X104607143Y-63821428D01*
X104535714Y-63749999D01*
X104392857Y-63678571D01*
X104250000Y-63678571D01*
X104107143Y-63749999D01*
X104035714Y-63821428D01*
X103964286Y-63964285D01*
X103892857Y-64249999D01*
X103821429Y-64392857D01*
X103750000Y-64464285D01*
X103607143Y-64535714D01*
X103464286Y-64535714D01*
X103321429Y-64464285D01*
X103250000Y-64392857D01*
X103178571Y-64249999D01*
X103178571Y-63892857D01*
X103250000Y-63678571D01*
X94678571Y-69428571D02*
X93178571Y-69428571D01*
X93178571Y-68857143D01*
X93250000Y-68714285D01*
X93321429Y-68642857D01*
X93464286Y-68571428D01*
X93678571Y-68571428D01*
X93821429Y-68642857D01*
X93892857Y-68714285D01*
X93964286Y-68857143D01*
X93964286Y-69428571D01*
X93178571Y-68071428D02*
X94678571Y-67714285D01*
X93607143Y-67428571D01*
X94678571Y-67142857D01*
X93178571Y-66785714D01*
X94678571Y-65357142D02*
X93964286Y-65857142D01*
X94678571Y-66214285D02*
X93178571Y-66214285D01*
X93178571Y-65642857D01*
X93250000Y-65499999D01*
X93321429Y-65428571D01*
X93464286Y-65357142D01*
X93678571Y-65357142D01*
X93821429Y-65428571D01*
X93892857Y-65499999D01*
X93964286Y-65642857D01*
X93964286Y-66214285D01*
X94107143Y-64714285D02*
X94107143Y-63571428D01*
X94678571Y-64142857D02*
X93535714Y-64142857D01*
X83428572Y-68107143D02*
X84571429Y-68107143D01*
X88428572Y-68107143D02*
X89571429Y-68107143D01*
X89000000Y-68678571D02*
X89000000Y-67535714D01*
X85535715Y-66178571D02*
X84821429Y-66178571D01*
X84821429Y-64678571D01*
X86035715Y-65392857D02*
X86535715Y-65392857D01*
X86750001Y-66178571D02*
X86035715Y-66178571D01*
X86035715Y-64678571D01*
X86750001Y-64678571D01*
X87392858Y-66178571D02*
X87392858Y-64678571D01*
X87750001Y-64678571D01*
X87964286Y-64750000D01*
X88107144Y-64892857D01*
X88178572Y-65035714D01*
X88250001Y-65321429D01*
X88250001Y-65535714D01*
X88178572Y-65821429D01*
X88107144Y-65964286D01*
X87964286Y-66107143D01*
X87750001Y-66178571D01*
X87392858Y-66178571D01*
D12*
X137238095Y-78571429D02*
X138000000Y-78571429D01*
X137619048Y-78952381D02*
X137619048Y-78190476D01*
X138380952Y-77952381D02*
X139000000Y-77952381D01*
X138666666Y-78333333D01*
X138809524Y-78333333D01*
X138904762Y-78380952D01*
X138952381Y-78428571D01*
X139000000Y-78523810D01*
X139000000Y-78761905D01*
X138952381Y-78857143D01*
X138904762Y-78904762D01*
X138809524Y-78952381D01*
X138523809Y-78952381D01*
X138428571Y-78904762D01*
X138380952Y-78857143D01*
X139285714Y-77952381D02*
X139619047Y-78952381D01*
X139952381Y-77952381D01*
X140190476Y-77952381D02*
X140809524Y-77952381D01*
X140476190Y-78333333D01*
X140619048Y-78333333D01*
X140714286Y-78380952D01*
X140761905Y-78428571D01*
X140809524Y-78523810D01*
X140809524Y-78761905D01*
X140761905Y-78857143D01*
X140714286Y-78904762D01*
X140619048Y-78952381D01*
X140333333Y-78952381D01*
X140238095Y-78904762D01*
X140190476Y-78857143D01*
D11*
X139571429Y-76178571D02*
X139571429Y-74678571D01*
X140428572Y-76178571D01*
X140428572Y-74678571D01*
X140107143Y-72892857D02*
X140321429Y-72964286D01*
X140392857Y-73035714D01*
X140464286Y-73178571D01*
X140464286Y-73392857D01*
X140392857Y-73535714D01*
X140321429Y-73607143D01*
X140178571Y-73678571D01*
X139607143Y-73678571D01*
X139607143Y-72178571D01*
X140107143Y-72178571D01*
X140250000Y-72250000D01*
X140321429Y-72321429D01*
X140392857Y-72464286D01*
X140392857Y-72607143D01*
X140321429Y-72750000D01*
X140250000Y-72821429D01*
X140107143Y-72892857D01*
X139607143Y-72892857D01*
X140464286Y-71178571D02*
X139964286Y-70464286D01*
X139607143Y-71178571D02*
X139607143Y-69678571D01*
X140178571Y-69678571D01*
X140321429Y-69750000D01*
X140392857Y-69821429D01*
X140464286Y-69964286D01*
X140464286Y-70178571D01*
X140392857Y-70321429D01*
X140321429Y-70392857D01*
X140178571Y-70464286D01*
X139607143Y-70464286D01*
X139571429Y-67178571D02*
X140428572Y-67178571D01*
X140000001Y-68678571D02*
X140000001Y-67178571D01*
X140392857Y-64750000D02*
X140250000Y-64678571D01*
X140035714Y-64678571D01*
X139821429Y-64750000D01*
X139678571Y-64892857D01*
X139607143Y-65035714D01*
X139535714Y-65321429D01*
X139535714Y-65535714D01*
X139607143Y-65821429D01*
X139678571Y-65964286D01*
X139821429Y-66107143D01*
X140035714Y-66178571D01*
X140178571Y-66178571D01*
X140392857Y-66107143D01*
X140464286Y-66035714D01*
X140464286Y-65535714D01*
X140178571Y-65535714D01*
X137107143Y-72821428D02*
X137178571Y-72607142D01*
X137178571Y-72249999D01*
X137107143Y-72107142D01*
X137035714Y-72035713D01*
X136892857Y-71964285D01*
X136750000Y-71964285D01*
X136607143Y-72035713D01*
X136535714Y-72107142D01*
X136464286Y-72249999D01*
X136392857Y-72535713D01*
X136321429Y-72678571D01*
X136250000Y-72749999D01*
X136107143Y-72821428D01*
X135964286Y-72821428D01*
X135821429Y-72749999D01*
X135750000Y-72678571D01*
X135678571Y-72535713D01*
X135678571Y-72178571D01*
X135750000Y-71964285D01*
X137178571Y-71321428D02*
X135678571Y-71321428D01*
X135678571Y-70964285D01*
X135750000Y-70750000D01*
X135892857Y-70607142D01*
X136035714Y-70535714D01*
X136321429Y-70464285D01*
X136535714Y-70464285D01*
X136821429Y-70535714D01*
X136964286Y-70607142D01*
X137107143Y-70750000D01*
X137178571Y-70964285D01*
X137178571Y-71321428D01*
X136750000Y-69892857D02*
X136750000Y-69178571D01*
X137178571Y-70035714D02*
X135678571Y-69535714D01*
X137178571Y-69035714D01*
X134607143Y-72785714D02*
X134678571Y-72571428D01*
X134678571Y-72214285D01*
X134607143Y-72071428D01*
X134535714Y-71999999D01*
X134392857Y-71928571D01*
X134250000Y-71928571D01*
X134107143Y-71999999D01*
X134035714Y-72071428D01*
X133964286Y-72214285D01*
X133892857Y-72499999D01*
X133821429Y-72642857D01*
X133750000Y-72714285D01*
X133607143Y-72785714D01*
X133464286Y-72785714D01*
X133321429Y-72714285D01*
X133250000Y-72642857D01*
X133178571Y-72499999D01*
X133178571Y-72142857D01*
X133250000Y-71928571D01*
X134535714Y-70428571D02*
X134607143Y-70500000D01*
X134678571Y-70714286D01*
X134678571Y-70857143D01*
X134607143Y-71071428D01*
X134464286Y-71214286D01*
X134321429Y-71285714D01*
X134035714Y-71357143D01*
X133821429Y-71357143D01*
X133535714Y-71285714D01*
X133392857Y-71214286D01*
X133250000Y-71071428D01*
X133178571Y-70857143D01*
X133178571Y-70714286D01*
X133250000Y-70500000D01*
X133321429Y-70428571D01*
X134678571Y-69071428D02*
X134678571Y-69785714D01*
X133178571Y-69785714D01*
X130750000Y-72142857D02*
X130678571Y-72285714D01*
X130678571Y-72500000D01*
X130750000Y-72714285D01*
X130892857Y-72857143D01*
X131035714Y-72928571D01*
X131321429Y-73000000D01*
X131535714Y-73000000D01*
X131821429Y-72928571D01*
X131964286Y-72857143D01*
X132107143Y-72714285D01*
X132178571Y-72500000D01*
X132178571Y-72357143D01*
X132107143Y-72142857D01*
X132035714Y-72071428D01*
X131535714Y-72071428D01*
X131535714Y-72357143D01*
X132178571Y-71428571D02*
X130678571Y-71428571D01*
X132178571Y-70571428D01*
X130678571Y-70571428D01*
X132178571Y-69857142D02*
X130678571Y-69857142D01*
X130678571Y-69499999D01*
X130750000Y-69285714D01*
X130892857Y-69142856D01*
X131035714Y-69071428D01*
X131321429Y-68999999D01*
X131535714Y-68999999D01*
X131821429Y-69071428D01*
X131964286Y-69142856D01*
X132107143Y-69285714D01*
X132178571Y-69499999D01*
X132178571Y-69857142D01*
X129107143Y-73142856D02*
X129107143Y-71999999D01*
X129678571Y-72571428D02*
X128535714Y-72571428D01*
X128178571Y-71428570D02*
X128178571Y-70499999D01*
X128750000Y-70999999D01*
X128750000Y-70785713D01*
X128821429Y-70642856D01*
X128892857Y-70571427D01*
X129035714Y-70499999D01*
X129392857Y-70499999D01*
X129535714Y-70571427D01*
X129607143Y-70642856D01*
X129678571Y-70785713D01*
X129678571Y-71214285D01*
X129607143Y-71357142D01*
X129535714Y-71428570D01*
X128178571Y-70071428D02*
X129678571Y-69571428D01*
X128178571Y-69071428D01*
X128178571Y-68714285D02*
X128178571Y-67785714D01*
X128750000Y-68285714D01*
X128750000Y-68071428D01*
X128821429Y-67928571D01*
X128892857Y-67857142D01*
X129035714Y-67785714D01*
X129392857Y-67785714D01*
X129535714Y-67857142D01*
X129607143Y-67928571D01*
X129678571Y-68071428D01*
X129678571Y-68500000D01*
X129607143Y-68642857D01*
X129535714Y-68714285D01*
X130821428Y-78403571D02*
X131107142Y-78403571D01*
X131250000Y-78475000D01*
X131392857Y-78617857D01*
X131464285Y-78903571D01*
X131464285Y-79403571D01*
X131392857Y-79689286D01*
X131250000Y-79832143D01*
X131107142Y-79903571D01*
X130821428Y-79903571D01*
X130678571Y-79832143D01*
X130535714Y-79689286D01*
X130464285Y-79403571D01*
X130464285Y-78903571D01*
X130535714Y-78617857D01*
X130678571Y-78475000D01*
X130821428Y-78403571D01*
X132821429Y-79903571D02*
X132107143Y-79903571D01*
X132107143Y-78403571D01*
X133321429Y-79117857D02*
X133821429Y-79117857D01*
X134035715Y-79903571D02*
X133321429Y-79903571D01*
X133321429Y-78403571D01*
X134035715Y-78403571D01*
X134678572Y-79903571D02*
X134678572Y-78403571D01*
X135035715Y-78403571D01*
X135250000Y-78475000D01*
X135392858Y-78617857D01*
X135464286Y-78760714D01*
X135535715Y-79046429D01*
X135535715Y-79260714D01*
X135464286Y-79546429D01*
X135392858Y-79689286D01*
X135250000Y-79832143D01*
X135035715Y-79903571D01*
X134678572Y-79903571D01*
X130785715Y-82453571D02*
X130785715Y-80953571D01*
X131142858Y-80953571D01*
X131357143Y-81025000D01*
X131500001Y-81167857D01*
X131571429Y-81310714D01*
X131642858Y-81596429D01*
X131642858Y-81810714D01*
X131571429Y-82096429D01*
X131500001Y-82239286D01*
X131357143Y-82382143D01*
X131142858Y-82453571D01*
X130785715Y-82453571D01*
X132285715Y-82453571D02*
X132285715Y-80953571D01*
X132928572Y-82382143D02*
X133142858Y-82453571D01*
X133500001Y-82453571D01*
X133642858Y-82382143D01*
X133714287Y-82310714D01*
X133785715Y-82167857D01*
X133785715Y-82025000D01*
X133714287Y-81882143D01*
X133642858Y-81810714D01*
X133500001Y-81739286D01*
X133214287Y-81667857D01*
X133071429Y-81596429D01*
X133000001Y-81525000D01*
X132928572Y-81382143D01*
X132928572Y-81239286D01*
X133000001Y-81096429D01*
X133071429Y-81025000D01*
X133214287Y-80953571D01*
X133571429Y-80953571D01*
X133785715Y-81025000D01*
X134428572Y-82453571D02*
X134428572Y-80953571D01*
X135000000Y-80953571D01*
X135142858Y-81025000D01*
X135214286Y-81096429D01*
X135285715Y-81239286D01*
X135285715Y-81453571D01*
X135214286Y-81596429D01*
X135142858Y-81667857D01*
X135000000Y-81739286D01*
X134428572Y-81739286D01*
X147857144Y-78107143D02*
X149000001Y-78107143D01*
X148428572Y-78678571D02*
X148428572Y-77535714D01*
X149571430Y-77178571D02*
X150500001Y-77178571D01*
X150000001Y-77750000D01*
X150214287Y-77750000D01*
X150357144Y-77821429D01*
X150428573Y-77892857D01*
X150500001Y-78035714D01*
X150500001Y-78392857D01*
X150428573Y-78535714D01*
X150357144Y-78607143D01*
X150214287Y-78678571D01*
X149785715Y-78678571D01*
X149642858Y-78607143D01*
X149571430Y-78535714D01*
X150928572Y-77178571D02*
X151428572Y-78678571D01*
X151928572Y-77178571D01*
X152285715Y-77178571D02*
X153214286Y-77178571D01*
X152714286Y-77750000D01*
X152928572Y-77750000D01*
X153071429Y-77821429D01*
X153142858Y-77892857D01*
X153214286Y-78035714D01*
X153214286Y-78392857D01*
X153142858Y-78535714D01*
X153071429Y-78607143D01*
X152928572Y-78678571D01*
X152500000Y-78678571D01*
X152357143Y-78607143D01*
X152285715Y-78535714D01*
X147321428Y-76107143D02*
X147535714Y-76178571D01*
X147892857Y-76178571D01*
X148035714Y-76107143D01*
X148107143Y-76035714D01*
X148178571Y-75892857D01*
X148178571Y-75750000D01*
X148107143Y-75607143D01*
X148035714Y-75535714D01*
X147892857Y-75464286D01*
X147607143Y-75392857D01*
X147464285Y-75321429D01*
X147392857Y-75250000D01*
X147321428Y-75107143D01*
X147321428Y-74964286D01*
X147392857Y-74821429D01*
X147464285Y-74750000D01*
X147607143Y-74678571D01*
X147964285Y-74678571D01*
X148178571Y-74750000D01*
X148678571Y-74678571D02*
X149035714Y-76178571D01*
X149321428Y-75107143D01*
X149607142Y-76178571D01*
X149964285Y-74678571D01*
X150535714Y-76178571D02*
X150535714Y-74678571D01*
X150892857Y-74678571D01*
X151107142Y-74750000D01*
X151250000Y-74892857D01*
X151321428Y-75035714D01*
X151392857Y-75321429D01*
X151392857Y-75535714D01*
X151321428Y-75821429D01*
X151250000Y-75964286D01*
X151107142Y-76107143D01*
X150892857Y-76178571D01*
X150535714Y-76178571D01*
X152035714Y-76178571D02*
X152035714Y-74678571D01*
X153035714Y-74678571D02*
X153321428Y-74678571D01*
X153464286Y-74750000D01*
X153607143Y-74892857D01*
X153678571Y-75178571D01*
X153678571Y-75678571D01*
X153607143Y-75964286D01*
X153464286Y-76107143D01*
X153321428Y-76178571D01*
X153035714Y-76178571D01*
X152892857Y-76107143D01*
X152750000Y-75964286D01*
X152678571Y-75678571D01*
X152678571Y-75178571D01*
X152750000Y-74892857D01*
X152892857Y-74750000D01*
X153035714Y-74678571D01*
X147107143Y-73607143D02*
X147321429Y-73678571D01*
X147678572Y-73678571D01*
X147821429Y-73607143D01*
X147892858Y-73535714D01*
X147964286Y-73392857D01*
X147964286Y-73250000D01*
X147892858Y-73107143D01*
X147821429Y-73035714D01*
X147678572Y-72964286D01*
X147392858Y-72892857D01*
X147250000Y-72821429D01*
X147178572Y-72750000D01*
X147107143Y-72607143D01*
X147107143Y-72464286D01*
X147178572Y-72321429D01*
X147250000Y-72250000D01*
X147392858Y-72178571D01*
X147750000Y-72178571D01*
X147964286Y-72250000D01*
X148464286Y-72178571D02*
X148821429Y-73678571D01*
X149107143Y-72607143D01*
X149392857Y-73678571D01*
X149750000Y-72178571D01*
X151178572Y-73535714D02*
X151107143Y-73607143D01*
X150892857Y-73678571D01*
X150750000Y-73678571D01*
X150535715Y-73607143D01*
X150392857Y-73464286D01*
X150321429Y-73321429D01*
X150250000Y-73035714D01*
X150250000Y-72821429D01*
X150321429Y-72535714D01*
X150392857Y-72392857D01*
X150535715Y-72250000D01*
X150750000Y-72178571D01*
X150892857Y-72178571D01*
X151107143Y-72250000D01*
X151178572Y-72321429D01*
X152535715Y-73678571D02*
X151821429Y-73678571D01*
X151821429Y-72178571D01*
X153035715Y-73678571D02*
X153035715Y-72178571D01*
X153892858Y-73678571D02*
X153250001Y-72821429D01*
X153892858Y-72178571D02*
X153035715Y-73035714D01*
X148535715Y-71178571D02*
X148535715Y-69678571D01*
X149392858Y-71178571D01*
X149392858Y-69678571D01*
X150964287Y-71178571D02*
X150464287Y-70464286D01*
X150107144Y-71178571D02*
X150107144Y-69678571D01*
X150678572Y-69678571D01*
X150821430Y-69750000D01*
X150892858Y-69821429D01*
X150964287Y-69964286D01*
X150964287Y-70178571D01*
X150892858Y-70321429D01*
X150821430Y-70392857D01*
X150678572Y-70464286D01*
X150107144Y-70464286D01*
X151535715Y-71107143D02*
X151750001Y-71178571D01*
X152107144Y-71178571D01*
X152250001Y-71107143D01*
X152321430Y-71035714D01*
X152392858Y-70892857D01*
X152392858Y-70750000D01*
X152321430Y-70607143D01*
X152250001Y-70535714D01*
X152107144Y-70464286D01*
X151821430Y-70392857D01*
X151678572Y-70321429D01*
X151607144Y-70250000D01*
X151535715Y-70107143D01*
X151535715Y-69964286D01*
X151607144Y-69821429D01*
X151678572Y-69750000D01*
X151821430Y-69678571D01*
X152178572Y-69678571D01*
X152392858Y-69750000D01*
X152821429Y-69678571D02*
X153678572Y-69678571D01*
X153250001Y-71178571D02*
X153250001Y-69678571D01*
X150357143Y-67250000D02*
X150214286Y-67178571D01*
X150000000Y-67178571D01*
X149785715Y-67250000D01*
X149642857Y-67392857D01*
X149571429Y-67535714D01*
X149500000Y-67821429D01*
X149500000Y-68035714D01*
X149571429Y-68321429D01*
X149642857Y-68464286D01*
X149785715Y-68607143D01*
X150000000Y-68678571D01*
X150142857Y-68678571D01*
X150357143Y-68607143D01*
X150428572Y-68535714D01*
X150428572Y-68035714D01*
X150142857Y-68035714D01*
X151071429Y-68678571D02*
X151071429Y-67178571D01*
X151928572Y-68678571D01*
X151928572Y-67178571D01*
X152642858Y-68678571D02*
X152642858Y-67178571D01*
X153000001Y-67178571D01*
X153214286Y-67250000D01*
X153357144Y-67392857D01*
X153428572Y-67535714D01*
X153500001Y-67821429D01*
X153500001Y-68035714D01*
X153428572Y-68321429D01*
X153357144Y-68464286D01*
X153214286Y-68607143D01*
X153000001Y-68678571D01*
X152642858Y-68678571D01*
D13*
X145375000Y-88375000D02*
X145375000Y-88600000D01*
X152625000Y-88375000D02*
X152625000Y-88675000D01*
X152625000Y-95625000D02*
X152625000Y-95325000D01*
X145375000Y-95625000D02*
X145375000Y-95325000D01*
X145375000Y-88375000D02*
X145675000Y-88375000D01*
X145375000Y-95625000D02*
X145675000Y-95625000D01*
X152625000Y-95625000D02*
X152325000Y-95625000D01*
X152625000Y-88375000D02*
X152325000Y-88375000D01*
X145375000Y-88600000D02*
X144150000Y-88600000D01*
D14*
X100055722Y-81820277D02*
G75*
G03X95444420Y-81820000I-2305722J-1179723D01*
G01*
X100055722Y-84179723D02*
G75*
G02X95444420Y-84180000I-2305722J1179723D01*
G01*
X100055722Y-84179723D02*
G75*
G03X100055580Y-81820000I-2305722J1179723D01*
G01*
X97750000Y-80450000D02*
X97750000Y-85550000D01*
X97790000Y-80450000D02*
X97790000Y-85550000D01*
X97830000Y-80451000D02*
X97830000Y-85549000D01*
X97870000Y-80452000D02*
X97870000Y-85548000D01*
X97910000Y-80454000D02*
X97910000Y-85546000D01*
X97950000Y-80457000D02*
X97950000Y-85543000D01*
X97990000Y-80461000D02*
X97990000Y-85539000D01*
X98030000Y-80465000D02*
X98030000Y-82020000D01*
X98030000Y-83980000D02*
X98030000Y-85535000D01*
X98070000Y-80469000D02*
X98070000Y-82020000D01*
X98070000Y-83980000D02*
X98070000Y-85531000D01*
X98110000Y-80475000D02*
X98110000Y-82020000D01*
X98110000Y-83980000D02*
X98110000Y-85525000D01*
X98150000Y-80481000D02*
X98150000Y-82020000D01*
X98150000Y-83980000D02*
X98150000Y-85519000D01*
X98190000Y-80487000D02*
X98190000Y-82020000D01*
X98190000Y-83980000D02*
X98190000Y-85513000D01*
X98230000Y-80494000D02*
X98230000Y-82020000D01*
X98230000Y-83980000D02*
X98230000Y-85506000D01*
X98270000Y-80502000D02*
X98270000Y-82020000D01*
X98270000Y-83980000D02*
X98270000Y-85498000D01*
X98310000Y-80511000D02*
X98310000Y-82020000D01*
X98310000Y-83980000D02*
X98310000Y-85489000D01*
X98350000Y-80520000D02*
X98350000Y-82020000D01*
X98350000Y-83980000D02*
X98350000Y-85480000D01*
X98390000Y-80530000D02*
X98390000Y-82020000D01*
X98390000Y-83980000D02*
X98390000Y-85470000D01*
X98430000Y-80540000D02*
X98430000Y-82020000D01*
X98430000Y-83980000D02*
X98430000Y-85460000D01*
X98471000Y-80552000D02*
X98471000Y-82020000D01*
X98471000Y-83980000D02*
X98471000Y-85448000D01*
X98511000Y-80564000D02*
X98511000Y-82020000D01*
X98511000Y-83980000D02*
X98511000Y-85436000D01*
X98551000Y-80576000D02*
X98551000Y-82020000D01*
X98551000Y-83980000D02*
X98551000Y-85424000D01*
X98591000Y-80590000D02*
X98591000Y-82020000D01*
X98591000Y-83980000D02*
X98591000Y-85410000D01*
X98631000Y-80604000D02*
X98631000Y-82020000D01*
X98631000Y-83980000D02*
X98631000Y-85396000D01*
X98671000Y-80618000D02*
X98671000Y-82020000D01*
X98671000Y-83980000D02*
X98671000Y-85382000D01*
X98711000Y-80634000D02*
X98711000Y-82020000D01*
X98711000Y-83980000D02*
X98711000Y-85366000D01*
X98751000Y-80650000D02*
X98751000Y-82020000D01*
X98751000Y-83980000D02*
X98751000Y-85350000D01*
X98791000Y-80667000D02*
X98791000Y-82020000D01*
X98791000Y-83980000D02*
X98791000Y-85333000D01*
X98831000Y-80685000D02*
X98831000Y-82020000D01*
X98831000Y-83980000D02*
X98831000Y-85315000D01*
X98871000Y-80704000D02*
X98871000Y-82020000D01*
X98871000Y-83980000D02*
X98871000Y-85296000D01*
X98911000Y-80724000D02*
X98911000Y-82020000D01*
X98911000Y-83980000D02*
X98911000Y-85276000D01*
X98951000Y-80744000D02*
X98951000Y-82020000D01*
X98951000Y-83980000D02*
X98951000Y-85256000D01*
X98991000Y-80766000D02*
X98991000Y-82020000D01*
X98991000Y-83980000D02*
X98991000Y-85234000D01*
X99031000Y-80788000D02*
X99031000Y-82020000D01*
X99031000Y-83980000D02*
X99031000Y-85212000D01*
X99071000Y-80811000D02*
X99071000Y-82020000D01*
X99071000Y-83980000D02*
X99071000Y-85189000D01*
X99111000Y-80835000D02*
X99111000Y-82020000D01*
X99111000Y-83980000D02*
X99111000Y-85165000D01*
X99151000Y-80860000D02*
X99151000Y-82020000D01*
X99151000Y-83980000D02*
X99151000Y-85140000D01*
X99191000Y-80887000D02*
X99191000Y-82020000D01*
X99191000Y-83980000D02*
X99191000Y-85113000D01*
X99231000Y-80914000D02*
X99231000Y-82020000D01*
X99231000Y-83980000D02*
X99231000Y-85086000D01*
X99271000Y-80942000D02*
X99271000Y-82020000D01*
X99271000Y-83980000D02*
X99271000Y-85058000D01*
X99311000Y-80972000D02*
X99311000Y-82020000D01*
X99311000Y-83980000D02*
X99311000Y-85028000D01*
X99351000Y-81003000D02*
X99351000Y-82020000D01*
X99351000Y-83980000D02*
X99351000Y-84997000D01*
X99391000Y-81035000D02*
X99391000Y-82020000D01*
X99391000Y-83980000D02*
X99391000Y-84965000D01*
X99431000Y-81068000D02*
X99431000Y-82020000D01*
X99431000Y-83980000D02*
X99431000Y-84932000D01*
X99471000Y-81103000D02*
X99471000Y-82020000D01*
X99471000Y-83980000D02*
X99471000Y-84897000D01*
X99511000Y-81139000D02*
X99511000Y-82020000D01*
X99511000Y-83980000D02*
X99511000Y-84861000D01*
X99551000Y-81177000D02*
X99551000Y-82020000D01*
X99551000Y-83980000D02*
X99551000Y-84823000D01*
X99591000Y-81217000D02*
X99591000Y-82020000D01*
X99591000Y-83980000D02*
X99591000Y-84783000D01*
X99631000Y-81258000D02*
X99631000Y-82020000D01*
X99631000Y-83980000D02*
X99631000Y-84742000D01*
X99671000Y-81301000D02*
X99671000Y-82020000D01*
X99671000Y-83980000D02*
X99671000Y-84699000D01*
X99711000Y-81346000D02*
X99711000Y-82020000D01*
X99711000Y-83980000D02*
X99711000Y-84654000D01*
X99751000Y-81394000D02*
X99751000Y-82020000D01*
X99751000Y-83980000D02*
X99751000Y-84606000D01*
X99791000Y-81444000D02*
X99791000Y-82020000D01*
X99791000Y-83980000D02*
X99791000Y-84556000D01*
X99831000Y-81496000D02*
X99831000Y-82020000D01*
X99831000Y-83980000D02*
X99831000Y-84504000D01*
X99871000Y-81552000D02*
X99871000Y-82020000D01*
X99871000Y-83980000D02*
X99871000Y-84448000D01*
X99911000Y-81610000D02*
X99911000Y-82020000D01*
X99911000Y-83980000D02*
X99911000Y-84390000D01*
X99951000Y-81673000D02*
X99951000Y-82020000D01*
X99951000Y-83980000D02*
X99951000Y-84327000D01*
X99991000Y-81739000D02*
X99991000Y-84261000D01*
X100031000Y-81811000D02*
X100031000Y-84189000D01*
X100071000Y-81888000D02*
X100071000Y-84112000D01*
X100111000Y-81972000D02*
X100111000Y-84028000D01*
X100151000Y-82066000D02*
X100151000Y-83934000D01*
X100191000Y-82171000D02*
X100191000Y-83829000D01*
X100231000Y-82293000D02*
X100231000Y-83707000D01*
X100271000Y-82441000D02*
X100271000Y-83559000D01*
X100311000Y-82646000D02*
X100311000Y-83354000D01*
X94300000Y-83000000D02*
X95500000Y-83000000D01*
X94900000Y-82350000D02*
X94900000Y-83650000D01*
X141850000Y-93500000D02*
X141850000Y-92500000D01*
X140150000Y-92500000D02*
X140150000Y-93500000D01*
X137500000Y-84850000D02*
X138500000Y-84850000D01*
X138500000Y-83150000D02*
X137500000Y-83150000D01*
X138850000Y-93500000D02*
X138850000Y-92500000D01*
X137150000Y-92500000D02*
X137150000Y-93500000D01*
X99555722Y-95820277D02*
G75*
G03X94944420Y-95820000I-2305722J-1179723D01*
G01*
X99555722Y-98179723D02*
G75*
G02X94944420Y-98180000I-2305722J1179723D01*
G01*
X99555722Y-98179723D02*
G75*
G03X99555580Y-95820000I-2305722J1179723D01*
G01*
X97250000Y-94450000D02*
X97250000Y-99550000D01*
X97290000Y-94450000D02*
X97290000Y-99550000D01*
X97330000Y-94451000D02*
X97330000Y-99549000D01*
X97370000Y-94452000D02*
X97370000Y-99548000D01*
X97410000Y-94454000D02*
X97410000Y-99546000D01*
X97450000Y-94457000D02*
X97450000Y-99543000D01*
X97490000Y-94461000D02*
X97490000Y-99539000D01*
X97530000Y-94465000D02*
X97530000Y-96020000D01*
X97530000Y-97980000D02*
X97530000Y-99535000D01*
X97570000Y-94469000D02*
X97570000Y-96020000D01*
X97570000Y-97980000D02*
X97570000Y-99531000D01*
X97610000Y-94475000D02*
X97610000Y-96020000D01*
X97610000Y-97980000D02*
X97610000Y-99525000D01*
X97650000Y-94481000D02*
X97650000Y-96020000D01*
X97650000Y-97980000D02*
X97650000Y-99519000D01*
X97690000Y-94487000D02*
X97690000Y-96020000D01*
X97690000Y-97980000D02*
X97690000Y-99513000D01*
X97730000Y-94494000D02*
X97730000Y-96020000D01*
X97730000Y-97980000D02*
X97730000Y-99506000D01*
X97770000Y-94502000D02*
X97770000Y-96020000D01*
X97770000Y-97980000D02*
X97770000Y-99498000D01*
X97810000Y-94511000D02*
X97810000Y-96020000D01*
X97810000Y-97980000D02*
X97810000Y-99489000D01*
X97850000Y-94520000D02*
X97850000Y-96020000D01*
X97850000Y-97980000D02*
X97850000Y-99480000D01*
X97890000Y-94530000D02*
X97890000Y-96020000D01*
X97890000Y-97980000D02*
X97890000Y-99470000D01*
X97930000Y-94540000D02*
X97930000Y-96020000D01*
X97930000Y-97980000D02*
X97930000Y-99460000D01*
X97971000Y-94552000D02*
X97971000Y-96020000D01*
X97971000Y-97980000D02*
X97971000Y-99448000D01*
X98011000Y-94564000D02*
X98011000Y-96020000D01*
X98011000Y-97980000D02*
X98011000Y-99436000D01*
X98051000Y-94576000D02*
X98051000Y-96020000D01*
X98051000Y-97980000D02*
X98051000Y-99424000D01*
X98091000Y-94590000D02*
X98091000Y-96020000D01*
X98091000Y-97980000D02*
X98091000Y-99410000D01*
X98131000Y-94604000D02*
X98131000Y-96020000D01*
X98131000Y-97980000D02*
X98131000Y-99396000D01*
X98171000Y-94618000D02*
X98171000Y-96020000D01*
X98171000Y-97980000D02*
X98171000Y-99382000D01*
X98211000Y-94634000D02*
X98211000Y-96020000D01*
X98211000Y-97980000D02*
X98211000Y-99366000D01*
X98251000Y-94650000D02*
X98251000Y-96020000D01*
X98251000Y-97980000D02*
X98251000Y-99350000D01*
X98291000Y-94667000D02*
X98291000Y-96020000D01*
X98291000Y-97980000D02*
X98291000Y-99333000D01*
X98331000Y-94685000D02*
X98331000Y-96020000D01*
X98331000Y-97980000D02*
X98331000Y-99315000D01*
X98371000Y-94704000D02*
X98371000Y-96020000D01*
X98371000Y-97980000D02*
X98371000Y-99296000D01*
X98411000Y-94724000D02*
X98411000Y-96020000D01*
X98411000Y-97980000D02*
X98411000Y-99276000D01*
X98451000Y-94744000D02*
X98451000Y-96020000D01*
X98451000Y-97980000D02*
X98451000Y-99256000D01*
X98491000Y-94766000D02*
X98491000Y-96020000D01*
X98491000Y-97980000D02*
X98491000Y-99234000D01*
X98531000Y-94788000D02*
X98531000Y-96020000D01*
X98531000Y-97980000D02*
X98531000Y-99212000D01*
X98571000Y-94811000D02*
X98571000Y-96020000D01*
X98571000Y-97980000D02*
X98571000Y-99189000D01*
X98611000Y-94835000D02*
X98611000Y-96020000D01*
X98611000Y-97980000D02*
X98611000Y-99165000D01*
X98651000Y-94860000D02*
X98651000Y-96020000D01*
X98651000Y-97980000D02*
X98651000Y-99140000D01*
X98691000Y-94887000D02*
X98691000Y-96020000D01*
X98691000Y-97980000D02*
X98691000Y-99113000D01*
X98731000Y-94914000D02*
X98731000Y-96020000D01*
X98731000Y-97980000D02*
X98731000Y-99086000D01*
X98771000Y-94942000D02*
X98771000Y-96020000D01*
X98771000Y-97980000D02*
X98771000Y-99058000D01*
X98811000Y-94972000D02*
X98811000Y-96020000D01*
X98811000Y-97980000D02*
X98811000Y-99028000D01*
X98851000Y-95003000D02*
X98851000Y-96020000D01*
X98851000Y-97980000D02*
X98851000Y-98997000D01*
X98891000Y-95035000D02*
X98891000Y-96020000D01*
X98891000Y-97980000D02*
X98891000Y-98965000D01*
X98931000Y-95068000D02*
X98931000Y-96020000D01*
X98931000Y-97980000D02*
X98931000Y-98932000D01*
X98971000Y-95103000D02*
X98971000Y-96020000D01*
X98971000Y-97980000D02*
X98971000Y-98897000D01*
X99011000Y-95139000D02*
X99011000Y-96020000D01*
X99011000Y-97980000D02*
X99011000Y-98861000D01*
X99051000Y-95177000D02*
X99051000Y-96020000D01*
X99051000Y-97980000D02*
X99051000Y-98823000D01*
X99091000Y-95217000D02*
X99091000Y-96020000D01*
X99091000Y-97980000D02*
X99091000Y-98783000D01*
X99131000Y-95258000D02*
X99131000Y-96020000D01*
X99131000Y-97980000D02*
X99131000Y-98742000D01*
X99171000Y-95301000D02*
X99171000Y-96020000D01*
X99171000Y-97980000D02*
X99171000Y-98699000D01*
X99211000Y-95346000D02*
X99211000Y-96020000D01*
X99211000Y-97980000D02*
X99211000Y-98654000D01*
X99251000Y-95394000D02*
X99251000Y-96020000D01*
X99251000Y-97980000D02*
X99251000Y-98606000D01*
X99291000Y-95444000D02*
X99291000Y-96020000D01*
X99291000Y-97980000D02*
X99291000Y-98556000D01*
X99331000Y-95496000D02*
X99331000Y-96020000D01*
X99331000Y-97980000D02*
X99331000Y-98504000D01*
X99371000Y-95552000D02*
X99371000Y-96020000D01*
X99371000Y-97980000D02*
X99371000Y-98448000D01*
X99411000Y-95610000D02*
X99411000Y-96020000D01*
X99411000Y-97980000D02*
X99411000Y-98390000D01*
X99451000Y-95673000D02*
X99451000Y-96020000D01*
X99451000Y-97980000D02*
X99451000Y-98327000D01*
X99491000Y-95739000D02*
X99491000Y-98261000D01*
X99531000Y-95811000D02*
X99531000Y-98189000D01*
X99571000Y-95888000D02*
X99571000Y-98112000D01*
X99611000Y-95972000D02*
X99611000Y-98028000D01*
X99651000Y-96066000D02*
X99651000Y-97934000D01*
X99691000Y-96171000D02*
X99691000Y-97829000D01*
X99731000Y-96293000D02*
X99731000Y-97707000D01*
X99771000Y-96441000D02*
X99771000Y-97559000D01*
X99811000Y-96646000D02*
X99811000Y-97354000D01*
X93800000Y-97000000D02*
X95000000Y-97000000D01*
X94400000Y-96350000D02*
X94400000Y-97650000D01*
X142150000Y-83500000D02*
X142150000Y-84500000D01*
X143850000Y-84500000D02*
X143850000Y-83500000D01*
X151500000Y-99850000D02*
X152500000Y-99850000D01*
X152500000Y-98150000D02*
X151500000Y-98150000D01*
X154170000Y-79370000D02*
X156830000Y-79370000D01*
X154170000Y-69150000D02*
X154170000Y-79370000D01*
X156830000Y-69150000D02*
X156830000Y-79370000D01*
X154170000Y-69150000D02*
X156830000Y-69150000D01*
X154170000Y-67880000D02*
X154170000Y-66550000D01*
X154170000Y-66550000D02*
X155500000Y-66550000D01*
X90580000Y-84690000D02*
X80340000Y-84690000D01*
X90580000Y-100580000D02*
X80340000Y-100580000D01*
X90580000Y-100580000D02*
X90580000Y-84690000D01*
X80340000Y-100580000D02*
X80340000Y-84690000D01*
X88000000Y-84690000D02*
X88000000Y-82050000D01*
X85460000Y-84690000D02*
X85460000Y-82066000D01*
X82920000Y-84690000D02*
X82920000Y-82066000D01*
X146880000Y-83400000D02*
X146880000Y-84600000D01*
X145120000Y-84600000D02*
X145120000Y-83400000D01*
X99910000Y-93410000D02*
X99910000Y-92150000D01*
X99910000Y-86590000D02*
X99910000Y-87850000D01*
X96150000Y-93410000D02*
X99910000Y-93410000D01*
X93900000Y-86590000D02*
X99910000Y-86590000D01*
X138700000Y-86250000D02*
X130300000Y-86250000D01*
X130300000Y-86250000D02*
X130300000Y-89650000D01*
X130300000Y-89650000D02*
X138700000Y-89650000D01*
X138700000Y-89650000D02*
X138700000Y-86250000D01*
X138700000Y-87405000D02*
X139850000Y-87000000D01*
X139850000Y-87000000D02*
X140300000Y-87000000D01*
X138700000Y-88495000D02*
X139850000Y-88900000D01*
X139850000Y-88900000D02*
X140300000Y-88900000D01*
X137950000Y-76830000D02*
X137950000Y-74170000D01*
X130270000Y-76830000D02*
X137950000Y-76830000D01*
X130270000Y-74170000D02*
X137950000Y-74170000D01*
X130270000Y-76830000D02*
X130270000Y-74170000D01*
X129000000Y-76830000D02*
X127670000Y-76830000D01*
X127670000Y-76830000D02*
X127670000Y-75500000D01*
X141170000Y-79410000D02*
X143830000Y-79410000D01*
X141170000Y-66650000D02*
X141170000Y-79410000D01*
X143830000Y-66650000D02*
X143830000Y-79410000D01*
X141170000Y-66650000D02*
X143830000Y-66650000D01*
X141170000Y-65380000D02*
X141170000Y-64050000D01*
X141170000Y-64050000D02*
X142500000Y-64050000D01*
D15*
X91499360Y-70002040D02*
X91499360Y-78998720D01*
X91499360Y-78998720D02*
X81501920Y-78998720D01*
X81501920Y-78998720D02*
X81501920Y-70002040D01*
X81501920Y-70002040D02*
X83500900Y-70002040D01*
X83500900Y-70002040D02*
X84501660Y-70002040D01*
X84501660Y-70002040D02*
X88502160Y-70002040D01*
X88502160Y-70002040D02*
X89497840Y-70002040D01*
X89497840Y-70002040D02*
X91499360Y-70002040D01*
X89497840Y-70002040D02*
X89497840Y-71500640D01*
X89497840Y-71500640D02*
X88502160Y-71500640D01*
X88502160Y-71500640D02*
X88502160Y-70002040D01*
X84501660Y-70002040D02*
X84501660Y-71500640D01*
X84501660Y-71500640D02*
X83500900Y-71500640D01*
X83500900Y-71500640D02*
X83500900Y-70002040D01*
X89299720Y-71602240D02*
X89299720Y-72300740D01*
X89099060Y-71602240D02*
X89099060Y-72300740D01*
X88900940Y-71602240D02*
X88900940Y-72300740D01*
X88700280Y-71602240D02*
X88700280Y-72300740D01*
X89299720Y-72300740D02*
X88700280Y-72300740D01*
X84301000Y-71602240D02*
X84301000Y-72300740D01*
X84301000Y-72300740D02*
X84100340Y-72300740D01*
X84100340Y-72300740D02*
X84100340Y-71602240D01*
X84100340Y-72300740D02*
X83902220Y-72300740D01*
X83902220Y-72300740D02*
X83902220Y-71602240D01*
X83902220Y-72300740D02*
X83701560Y-72300740D01*
X83701560Y-72300740D02*
X83701560Y-71602240D01*
X116499360Y-70002040D02*
X116499360Y-78998720D01*
X116499360Y-78998720D02*
X106501920Y-78998720D01*
X106501920Y-78998720D02*
X106501920Y-70002040D01*
X106501920Y-70002040D02*
X108500900Y-70002040D01*
X108500900Y-70002040D02*
X109501660Y-70002040D01*
X109501660Y-70002040D02*
X113502160Y-70002040D01*
X113502160Y-70002040D02*
X114497840Y-70002040D01*
X114497840Y-70002040D02*
X116499360Y-70002040D01*
X114497840Y-70002040D02*
X114497840Y-71500640D01*
X114497840Y-71500640D02*
X113502160Y-71500640D01*
X113502160Y-71500640D02*
X113502160Y-70002040D01*
X109501660Y-70002040D02*
X109501660Y-71500640D01*
X109501660Y-71500640D02*
X108500900Y-71500640D01*
X108500900Y-71500640D02*
X108500900Y-70002040D01*
X114299720Y-71602240D02*
X114299720Y-72300740D01*
X114099060Y-71602240D02*
X114099060Y-72300740D01*
X113900940Y-71602240D02*
X113900940Y-72300740D01*
X113700280Y-71602240D02*
X113700280Y-72300740D01*
X114299720Y-72300740D02*
X113700280Y-72300740D01*
X109301000Y-71602240D02*
X109301000Y-72300740D01*
X109301000Y-72300740D02*
X109100340Y-72300740D01*
X109100340Y-72300740D02*
X109100340Y-71602240D01*
X109100340Y-72300740D02*
X108902220Y-72300740D01*
X108902220Y-72300740D02*
X108902220Y-71602240D01*
X108902220Y-72300740D02*
X108701560Y-72300740D01*
X108701560Y-72300740D02*
X108701560Y-71602240D01*
X126499360Y-70002040D02*
X126499360Y-78998720D01*
X126499360Y-78998720D02*
X116501920Y-78998720D01*
X116501920Y-78998720D02*
X116501920Y-70002040D01*
X116501920Y-70002040D02*
X118500900Y-70002040D01*
X118500900Y-70002040D02*
X119501660Y-70002040D01*
X119501660Y-70002040D02*
X123502160Y-70002040D01*
X123502160Y-70002040D02*
X124497840Y-70002040D01*
X124497840Y-70002040D02*
X126499360Y-70002040D01*
X124497840Y-70002040D02*
X124497840Y-71500640D01*
X124497840Y-71500640D02*
X123502160Y-71500640D01*
X123502160Y-71500640D02*
X123502160Y-70002040D01*
X119501660Y-70002040D02*
X119501660Y-71500640D01*
X119501660Y-71500640D02*
X118500900Y-71500640D01*
X118500900Y-71500640D02*
X118500900Y-70002040D01*
X124299720Y-71602240D02*
X124299720Y-72300740D01*
X124099060Y-71602240D02*
X124099060Y-72300740D01*
X123900940Y-71602240D02*
X123900940Y-72300740D01*
X123700280Y-71602240D02*
X123700280Y-72300740D01*
X124299720Y-72300740D02*
X123700280Y-72300740D01*
X119301000Y-71602240D02*
X119301000Y-72300740D01*
X119301000Y-72300740D02*
X119100340Y-72300740D01*
X119100340Y-72300740D02*
X119100340Y-71602240D01*
X119100340Y-72300740D02*
X118902220Y-72300740D01*
X118902220Y-72300740D02*
X118902220Y-71602240D01*
X118902220Y-72300740D02*
X118701560Y-72300740D01*
X118701560Y-72300740D02*
X118701560Y-71602240D01*
X106499360Y-70002040D02*
X106499360Y-78998720D01*
X106499360Y-78998720D02*
X91500660Y-78998720D01*
X91500660Y-78998720D02*
X91500660Y-70002040D01*
X91500660Y-70002040D02*
X93502180Y-70002040D01*
X98500900Y-70002040D02*
X99501660Y-70002040D01*
X99501660Y-70002040D02*
X103502160Y-70002040D01*
X103502160Y-70002040D02*
X104497840Y-70002040D01*
X104497840Y-70002040D02*
X106499360Y-70002040D01*
X104497840Y-70002040D02*
X104497840Y-71500640D01*
X104497840Y-71500640D02*
X103502160Y-71500640D01*
X103502160Y-71500640D02*
X103502160Y-70002040D01*
X99501660Y-70002040D02*
X99501660Y-71500640D01*
X99501660Y-71500640D02*
X98500900Y-71500640D01*
X98500900Y-71500640D02*
X98500900Y-70002040D01*
X104299720Y-71602240D02*
X104299720Y-72300740D01*
X104099060Y-71602240D02*
X104099060Y-72300740D01*
X103900940Y-71602240D02*
X103900940Y-72300740D01*
X103700280Y-71602240D02*
X103700280Y-72300740D01*
X104299720Y-72300740D02*
X103700280Y-72300740D01*
X99301000Y-71602240D02*
X99301000Y-72300740D01*
X99301000Y-72300740D02*
X99100340Y-72300740D01*
X99100340Y-72300740D02*
X99100340Y-71602240D01*
X99100340Y-72300740D02*
X98902220Y-72300740D01*
X98902220Y-72300740D02*
X98902220Y-71602240D01*
X98902220Y-72300740D02*
X98701560Y-72300740D01*
X98701560Y-72300740D02*
X98701560Y-71602240D01*
X93502180Y-70002040D02*
X94500400Y-70002040D01*
X94500400Y-70002040D02*
X98500900Y-70002040D01*
X94500400Y-70002040D02*
X94500400Y-71500640D01*
X94500400Y-71500640D02*
X93502180Y-71500640D01*
X93502180Y-71500640D02*
X93502180Y-70002040D01*
X94302280Y-71602240D02*
X94302280Y-72300740D01*
X94302280Y-72300740D02*
X94101620Y-72300740D01*
X94101620Y-72300740D02*
X94101620Y-71602240D01*
X94101620Y-72300740D02*
X93900960Y-72300740D01*
X93900960Y-72300740D02*
X93900960Y-71602240D01*
X93900960Y-72300740D02*
X93700300Y-72300740D01*
X93700300Y-72300740D02*
X93700300Y-71602240D01*
D14*
X108000000Y-97630000D02*
X106800000Y-97630000D01*
X106800000Y-95870000D02*
X108000000Y-95870000D01*
D13*
X148238095Y-85602381D02*
X148238095Y-86411905D01*
X148285714Y-86507143D01*
X148333333Y-86554762D01*
X148428571Y-86602381D01*
X148619048Y-86602381D01*
X148714286Y-86554762D01*
X148761905Y-86507143D01*
X148809524Y-86411905D01*
X148809524Y-85602381D01*
X149238095Y-85697619D02*
X149285714Y-85650000D01*
X149380952Y-85602381D01*
X149619048Y-85602381D01*
X149714286Y-85650000D01*
X149761905Y-85697619D01*
X149809524Y-85792857D01*
X149809524Y-85888095D01*
X149761905Y-86030952D01*
X149190476Y-86602381D01*
X149809524Y-86602381D01*
X101333334Y-83357143D02*
X101285715Y-83404762D01*
X101142858Y-83452381D01*
X101047620Y-83452381D01*
X100904762Y-83404762D01*
X100809524Y-83309524D01*
X100761905Y-83214286D01*
X100714286Y-83023810D01*
X100714286Y-82880952D01*
X100761905Y-82690476D01*
X100809524Y-82595238D01*
X100904762Y-82500000D01*
X101047620Y-82452381D01*
X101142858Y-82452381D01*
X101285715Y-82500000D01*
X101333334Y-82547619D01*
X102285715Y-83452381D02*
X101714286Y-83452381D01*
X102000000Y-83452381D02*
X102000000Y-82452381D01*
X101904762Y-82595238D01*
X101809524Y-82690476D01*
X101714286Y-82738095D01*
X143107143Y-93166666D02*
X143154762Y-93214285D01*
X143202381Y-93357142D01*
X143202381Y-93452380D01*
X143154762Y-93595238D01*
X143059524Y-93690476D01*
X142964286Y-93738095D01*
X142773810Y-93785714D01*
X142630952Y-93785714D01*
X142440476Y-93738095D01*
X142345238Y-93690476D01*
X142250000Y-93595238D01*
X142202381Y-93452380D01*
X142202381Y-93357142D01*
X142250000Y-93214285D01*
X142297619Y-93166666D01*
X142297619Y-92785714D02*
X142250000Y-92738095D01*
X142202381Y-92642857D01*
X142202381Y-92404761D01*
X142250000Y-92309523D01*
X142297619Y-92261904D01*
X142392857Y-92214285D01*
X142488095Y-92214285D01*
X142630952Y-92261904D01*
X143202381Y-92833333D01*
X143202381Y-92214285D01*
X137833334Y-82357143D02*
X137785715Y-82404762D01*
X137642858Y-82452381D01*
X137547620Y-82452381D01*
X137404762Y-82404762D01*
X137309524Y-82309524D01*
X137261905Y-82214286D01*
X137214286Y-82023810D01*
X137214286Y-81880952D01*
X137261905Y-81690476D01*
X137309524Y-81595238D01*
X137404762Y-81500000D01*
X137547620Y-81452381D01*
X137642858Y-81452381D01*
X137785715Y-81500000D01*
X137833334Y-81547619D01*
X138166667Y-81452381D02*
X138785715Y-81452381D01*
X138452381Y-81833333D01*
X138595239Y-81833333D01*
X138690477Y-81880952D01*
X138738096Y-81928571D01*
X138785715Y-82023810D01*
X138785715Y-82261905D01*
X138738096Y-82357143D01*
X138690477Y-82404762D01*
X138595239Y-82452381D01*
X138309524Y-82452381D01*
X138214286Y-82404762D01*
X138166667Y-82357143D01*
X136357143Y-93666666D02*
X136404762Y-93714285D01*
X136452381Y-93857142D01*
X136452381Y-93952380D01*
X136404762Y-94095238D01*
X136309524Y-94190476D01*
X136214286Y-94238095D01*
X136023810Y-94285714D01*
X135880952Y-94285714D01*
X135690476Y-94238095D01*
X135595238Y-94190476D01*
X135500000Y-94095238D01*
X135452381Y-93952380D01*
X135452381Y-93857142D01*
X135500000Y-93714285D01*
X135547619Y-93666666D01*
X135785714Y-92809523D02*
X136452381Y-92809523D01*
X135404762Y-93047619D02*
X136119048Y-93285714D01*
X136119048Y-92666666D01*
X100833334Y-97357143D02*
X100785715Y-97404762D01*
X100642858Y-97452381D01*
X100547620Y-97452381D01*
X100404762Y-97404762D01*
X100309524Y-97309524D01*
X100261905Y-97214286D01*
X100214286Y-97023810D01*
X100214286Y-96880952D01*
X100261905Y-96690476D01*
X100309524Y-96595238D01*
X100404762Y-96500000D01*
X100547620Y-96452381D01*
X100642858Y-96452381D01*
X100785715Y-96500000D01*
X100833334Y-96547619D01*
X101738096Y-96452381D02*
X101261905Y-96452381D01*
X101214286Y-96928571D01*
X101261905Y-96880952D01*
X101357143Y-96833333D01*
X101595239Y-96833333D01*
X101690477Y-96880952D01*
X101738096Y-96928571D01*
X101785715Y-97023810D01*
X101785715Y-97261905D01*
X101738096Y-97357143D01*
X101690477Y-97404762D01*
X101595239Y-97452381D01*
X101357143Y-97452381D01*
X101261905Y-97404762D01*
X101214286Y-97357143D01*
X141607143Y-84166666D02*
X141654762Y-84214285D01*
X141702381Y-84357142D01*
X141702381Y-84452380D01*
X141654762Y-84595238D01*
X141559524Y-84690476D01*
X141464286Y-84738095D01*
X141273810Y-84785714D01*
X141130952Y-84785714D01*
X140940476Y-84738095D01*
X140845238Y-84690476D01*
X140750000Y-84595238D01*
X140702381Y-84452380D01*
X140702381Y-84357142D01*
X140750000Y-84214285D01*
X140797619Y-84166666D01*
X140702381Y-83309523D02*
X140702381Y-83500000D01*
X140750000Y-83595238D01*
X140797619Y-83642857D01*
X140940476Y-83738095D01*
X141130952Y-83785714D01*
X141511905Y-83785714D01*
X141607143Y-83738095D01*
X141654762Y-83690476D01*
X141702381Y-83595238D01*
X141702381Y-83404761D01*
X141654762Y-83309523D01*
X141607143Y-83261904D01*
X141511905Y-83214285D01*
X141273810Y-83214285D01*
X141178571Y-83261904D01*
X141130952Y-83309523D01*
X141083333Y-83404761D01*
X141083333Y-83595238D01*
X141130952Y-83690476D01*
X141178571Y-83738095D01*
X141273810Y-83785714D01*
X151833334Y-101107143D02*
X151785715Y-101154762D01*
X151642858Y-101202381D01*
X151547620Y-101202381D01*
X151404762Y-101154762D01*
X151309524Y-101059524D01*
X151261905Y-100964286D01*
X151214286Y-100773810D01*
X151214286Y-100630952D01*
X151261905Y-100440476D01*
X151309524Y-100345238D01*
X151404762Y-100250000D01*
X151547620Y-100202381D01*
X151642858Y-100202381D01*
X151785715Y-100250000D01*
X151833334Y-100297619D01*
X152166667Y-100202381D02*
X152833334Y-100202381D01*
X152404762Y-101202381D01*
X155166667Y-65002381D02*
X155166667Y-65716667D01*
X155119047Y-65859524D01*
X155023809Y-65954762D01*
X154880952Y-66002381D01*
X154785714Y-66002381D01*
X155547619Y-65002381D02*
X156166667Y-65002381D01*
X155833333Y-65383333D01*
X155976191Y-65383333D01*
X156071429Y-65430952D01*
X156119048Y-65478571D01*
X156166667Y-65573810D01*
X156166667Y-65811905D01*
X156119048Y-65907143D01*
X156071429Y-65954762D01*
X155976191Y-66002381D01*
X155690476Y-66002381D01*
X155595238Y-65954762D01*
X155547619Y-65907143D01*
X89404762Y-84047619D02*
X89309524Y-84000000D01*
X89214286Y-83904762D01*
X89071429Y-83761905D01*
X88976190Y-83714286D01*
X88880952Y-83714286D01*
X88928571Y-83952381D02*
X88833333Y-83904762D01*
X88738095Y-83809524D01*
X88690476Y-83619048D01*
X88690476Y-83285714D01*
X88738095Y-83095238D01*
X88833333Y-83000000D01*
X88928571Y-82952381D01*
X89119048Y-82952381D01*
X89214286Y-83000000D01*
X89309524Y-83095238D01*
X89357143Y-83285714D01*
X89357143Y-83619048D01*
X89309524Y-83809524D01*
X89214286Y-83904762D01*
X89119048Y-83952381D01*
X88928571Y-83952381D01*
X90309524Y-83952381D02*
X89738095Y-83952381D01*
X90023809Y-83952381D02*
X90023809Y-82952381D01*
X89928571Y-83095238D01*
X89833333Y-83190476D01*
X89738095Y-83238095D01*
X148452381Y-83666666D02*
X147976190Y-84000000D01*
X148452381Y-84238095D02*
X147452381Y-84238095D01*
X147452381Y-83857142D01*
X147500000Y-83761904D01*
X147547619Y-83714285D01*
X147642857Y-83666666D01*
X147785714Y-83666666D01*
X147880952Y-83714285D01*
X147928571Y-83761904D01*
X147976190Y-83857142D01*
X147976190Y-84238095D01*
X148452381Y-82714285D02*
X148452381Y-83285714D01*
X148452381Y-83000000D02*
X147452381Y-83000000D01*
X147595238Y-83095238D01*
X147690476Y-83190476D01*
X147738095Y-83285714D01*
X97238095Y-84952381D02*
X97238095Y-85761905D01*
X97285714Y-85857143D01*
X97333333Y-85904762D01*
X97428571Y-85952381D01*
X97619048Y-85952381D01*
X97714286Y-85904762D01*
X97761905Y-85857143D01*
X97809524Y-85761905D01*
X97809524Y-84952381D01*
X98809524Y-85952381D02*
X98238095Y-85952381D01*
X98523809Y-85952381D02*
X98523809Y-84952381D01*
X98428571Y-85095238D01*
X98333333Y-85190476D01*
X98238095Y-85238095D01*
X131023809Y-90476190D02*
X131023809Y-90952381D01*
X130690476Y-89952381D02*
X131023809Y-90476190D01*
X131357143Y-89952381D01*
X132214286Y-90952381D02*
X131642857Y-90952381D01*
X131928571Y-90952381D02*
X131928571Y-89952381D01*
X131833333Y-90095238D01*
X131738095Y-90190476D01*
X131642857Y-90238095D01*
X127122381Y-76309524D02*
X126122381Y-76309524D01*
X126836667Y-75976190D01*
X126122381Y-75642857D01*
X127122381Y-75642857D01*
X126217619Y-75214286D02*
X126170000Y-75166667D01*
X126122381Y-75071429D01*
X126122381Y-74833333D01*
X126170000Y-74738095D01*
X126217619Y-74690476D01*
X126312857Y-74642857D01*
X126408095Y-74642857D01*
X126550952Y-74690476D01*
X127122381Y-75261905D01*
X127122381Y-74642857D01*
X145166667Y-64952381D02*
X145166667Y-65666667D01*
X145119047Y-65809524D01*
X145023809Y-65904762D01*
X144880952Y-65952381D01*
X144785714Y-65952381D01*
X146071429Y-65285714D02*
X146071429Y-65952381D01*
X145833333Y-64904762D02*
X145595238Y-65619048D01*
X146214286Y-65619048D01*
D16*
X87397381Y-79019524D02*
X88123096Y-79019524D01*
X87760239Y-80289524D02*
X87760239Y-79019524D01*
X88485953Y-79140476D02*
X88546429Y-79080000D01*
X88667381Y-79019524D01*
X88969762Y-79019524D01*
X89090715Y-79080000D01*
X89151191Y-79140476D01*
X89211667Y-79261429D01*
X89211667Y-79382381D01*
X89151191Y-79563810D01*
X88425477Y-80289524D01*
X89211667Y-80289524D01*
D17*
X85377235Y-71723434D02*
X85348206Y-71752463D01*
X85261120Y-71781491D01*
X85203063Y-71781491D01*
X85115978Y-71752463D01*
X85057920Y-71694406D01*
X85028892Y-71636349D01*
X84999863Y-71520234D01*
X84999863Y-71433149D01*
X85028892Y-71317034D01*
X85057920Y-71258977D01*
X85115978Y-71200920D01*
X85203063Y-71171891D01*
X85261120Y-71171891D01*
X85348206Y-71200920D01*
X85377235Y-71229949D01*
X85609463Y-71607320D02*
X85899749Y-71607320D01*
X85551406Y-71781491D02*
X85754606Y-71171891D01*
X85957806Y-71781491D01*
X86364206Y-71462177D02*
X86451292Y-71491206D01*
X86480320Y-71520234D01*
X86509349Y-71578291D01*
X86509349Y-71665377D01*
X86480320Y-71723434D01*
X86451292Y-71752463D01*
X86393234Y-71781491D01*
X86161006Y-71781491D01*
X86161006Y-71171891D01*
X86364206Y-71171891D01*
X86422263Y-71200920D01*
X86451292Y-71229949D01*
X86480320Y-71288006D01*
X86480320Y-71346063D01*
X86451292Y-71404120D01*
X86422263Y-71433149D01*
X86364206Y-71462177D01*
X86161006Y-71462177D01*
X87060892Y-71781491D02*
X86770606Y-71781491D01*
X86770606Y-71171891D01*
X87264092Y-71462177D02*
X87467292Y-71462177D01*
X87554378Y-71781491D02*
X87264092Y-71781491D01*
X87264092Y-71171891D01*
X87554378Y-71171891D01*
X85283254Y-70853303D02*
X85370340Y-70882331D01*
X85515483Y-70882331D01*
X85573540Y-70853303D01*
X85602569Y-70824274D01*
X85631597Y-70766217D01*
X85631597Y-70708160D01*
X85602569Y-70650103D01*
X85573540Y-70621074D01*
X85515483Y-70592046D01*
X85399369Y-70563017D01*
X85341311Y-70533989D01*
X85312283Y-70504960D01*
X85283254Y-70446903D01*
X85283254Y-70388846D01*
X85312283Y-70330789D01*
X85341311Y-70301760D01*
X85399369Y-70272731D01*
X85544511Y-70272731D01*
X85631597Y-70301760D01*
X85892854Y-70882331D02*
X85892854Y-70272731D01*
X86183140Y-70882331D02*
X86183140Y-70272731D01*
X86328283Y-70272731D01*
X86415368Y-70301760D01*
X86473426Y-70359817D01*
X86502454Y-70417874D01*
X86531483Y-70533989D01*
X86531483Y-70621074D01*
X86502454Y-70737189D01*
X86473426Y-70795246D01*
X86415368Y-70853303D01*
X86328283Y-70882331D01*
X86183140Y-70882331D01*
X86792740Y-70563017D02*
X86995940Y-70563017D01*
X87083026Y-70882331D02*
X86792740Y-70882331D01*
X86792740Y-70272731D01*
X87083026Y-70272731D01*
D16*
X89362857Y-77749524D02*
X88637143Y-77749524D01*
X89000000Y-77749524D02*
X89000000Y-76479524D01*
X88879048Y-76660952D01*
X88758095Y-76781905D01*
X88637143Y-76842381D01*
X83557143Y-76600476D02*
X83617619Y-76540000D01*
X83738571Y-76479524D01*
X84040952Y-76479524D01*
X84161905Y-76540000D01*
X84222381Y-76600476D01*
X84282857Y-76721429D01*
X84282857Y-76842381D01*
X84222381Y-77023810D01*
X83496667Y-77749524D01*
X84282857Y-77749524D01*
X112397381Y-79019524D02*
X113123096Y-79019524D01*
X112760239Y-80289524D02*
X112760239Y-79019524D01*
X114090715Y-79442857D02*
X114090715Y-80289524D01*
X113788334Y-78959048D02*
X113485953Y-79866190D01*
X114272143Y-79866190D01*
D17*
X110377235Y-71723434D02*
X110348206Y-71752463D01*
X110261120Y-71781491D01*
X110203063Y-71781491D01*
X110115978Y-71752463D01*
X110057920Y-71694406D01*
X110028892Y-71636349D01*
X109999863Y-71520234D01*
X109999863Y-71433149D01*
X110028892Y-71317034D01*
X110057920Y-71258977D01*
X110115978Y-71200920D01*
X110203063Y-71171891D01*
X110261120Y-71171891D01*
X110348206Y-71200920D01*
X110377235Y-71229949D01*
X110609463Y-71607320D02*
X110899749Y-71607320D01*
X110551406Y-71781491D02*
X110754606Y-71171891D01*
X110957806Y-71781491D01*
X111364206Y-71462177D02*
X111451292Y-71491206D01*
X111480320Y-71520234D01*
X111509349Y-71578291D01*
X111509349Y-71665377D01*
X111480320Y-71723434D01*
X111451292Y-71752463D01*
X111393234Y-71781491D01*
X111161006Y-71781491D01*
X111161006Y-71171891D01*
X111364206Y-71171891D01*
X111422263Y-71200920D01*
X111451292Y-71229949D01*
X111480320Y-71288006D01*
X111480320Y-71346063D01*
X111451292Y-71404120D01*
X111422263Y-71433149D01*
X111364206Y-71462177D01*
X111161006Y-71462177D01*
X112060892Y-71781491D02*
X111770606Y-71781491D01*
X111770606Y-71171891D01*
X112264092Y-71462177D02*
X112467292Y-71462177D01*
X112554378Y-71781491D02*
X112264092Y-71781491D01*
X112264092Y-71171891D01*
X112554378Y-71171891D01*
X110283254Y-70853303D02*
X110370340Y-70882331D01*
X110515483Y-70882331D01*
X110573540Y-70853303D01*
X110602569Y-70824274D01*
X110631597Y-70766217D01*
X110631597Y-70708160D01*
X110602569Y-70650103D01*
X110573540Y-70621074D01*
X110515483Y-70592046D01*
X110399369Y-70563017D01*
X110341311Y-70533989D01*
X110312283Y-70504960D01*
X110283254Y-70446903D01*
X110283254Y-70388846D01*
X110312283Y-70330789D01*
X110341311Y-70301760D01*
X110399369Y-70272731D01*
X110544511Y-70272731D01*
X110631597Y-70301760D01*
X110892854Y-70882331D02*
X110892854Y-70272731D01*
X111183140Y-70882331D02*
X111183140Y-70272731D01*
X111328283Y-70272731D01*
X111415368Y-70301760D01*
X111473426Y-70359817D01*
X111502454Y-70417874D01*
X111531483Y-70533989D01*
X111531483Y-70621074D01*
X111502454Y-70737189D01*
X111473426Y-70795246D01*
X111415368Y-70853303D01*
X111328283Y-70882331D01*
X111183140Y-70882331D01*
X111792740Y-70563017D02*
X111995940Y-70563017D01*
X112083026Y-70882331D02*
X111792740Y-70882331D01*
X111792740Y-70272731D01*
X112083026Y-70272731D01*
D16*
X114362857Y-77749524D02*
X113637143Y-77749524D01*
X114000000Y-77749524D02*
X114000000Y-76479524D01*
X113879048Y-76660952D01*
X113758095Y-76781905D01*
X113637143Y-76842381D01*
X108557143Y-76600476D02*
X108617619Y-76540000D01*
X108738571Y-76479524D01*
X109040952Y-76479524D01*
X109161905Y-76540000D01*
X109222381Y-76600476D01*
X109282857Y-76721429D01*
X109282857Y-76842381D01*
X109222381Y-77023810D01*
X108496667Y-77749524D01*
X109282857Y-77749524D01*
X122397381Y-79019524D02*
X123123096Y-79019524D01*
X122760239Y-80289524D02*
X122760239Y-79019524D01*
X123425477Y-79019524D02*
X124211667Y-79019524D01*
X123788334Y-79503333D01*
X123969762Y-79503333D01*
X124090715Y-79563810D01*
X124151191Y-79624286D01*
X124211667Y-79745238D01*
X124211667Y-80047619D01*
X124151191Y-80168571D01*
X124090715Y-80229048D01*
X123969762Y-80289524D01*
X123606905Y-80289524D01*
X123485953Y-80229048D01*
X123425477Y-80168571D01*
D17*
X120377235Y-71723434D02*
X120348206Y-71752463D01*
X120261120Y-71781491D01*
X120203063Y-71781491D01*
X120115978Y-71752463D01*
X120057920Y-71694406D01*
X120028892Y-71636349D01*
X119999863Y-71520234D01*
X119999863Y-71433149D01*
X120028892Y-71317034D01*
X120057920Y-71258977D01*
X120115978Y-71200920D01*
X120203063Y-71171891D01*
X120261120Y-71171891D01*
X120348206Y-71200920D01*
X120377235Y-71229949D01*
X120609463Y-71607320D02*
X120899749Y-71607320D01*
X120551406Y-71781491D02*
X120754606Y-71171891D01*
X120957806Y-71781491D01*
X121364206Y-71462177D02*
X121451292Y-71491206D01*
X121480320Y-71520234D01*
X121509349Y-71578291D01*
X121509349Y-71665377D01*
X121480320Y-71723434D01*
X121451292Y-71752463D01*
X121393234Y-71781491D01*
X121161006Y-71781491D01*
X121161006Y-71171891D01*
X121364206Y-71171891D01*
X121422263Y-71200920D01*
X121451292Y-71229949D01*
X121480320Y-71288006D01*
X121480320Y-71346063D01*
X121451292Y-71404120D01*
X121422263Y-71433149D01*
X121364206Y-71462177D01*
X121161006Y-71462177D01*
X122060892Y-71781491D02*
X121770606Y-71781491D01*
X121770606Y-71171891D01*
X122264092Y-71462177D02*
X122467292Y-71462177D01*
X122554378Y-71781491D02*
X122264092Y-71781491D01*
X122264092Y-71171891D01*
X122554378Y-71171891D01*
X120283254Y-70853303D02*
X120370340Y-70882331D01*
X120515483Y-70882331D01*
X120573540Y-70853303D01*
X120602569Y-70824274D01*
X120631597Y-70766217D01*
X120631597Y-70708160D01*
X120602569Y-70650103D01*
X120573540Y-70621074D01*
X120515483Y-70592046D01*
X120399369Y-70563017D01*
X120341311Y-70533989D01*
X120312283Y-70504960D01*
X120283254Y-70446903D01*
X120283254Y-70388846D01*
X120312283Y-70330789D01*
X120341311Y-70301760D01*
X120399369Y-70272731D01*
X120544511Y-70272731D01*
X120631597Y-70301760D01*
X120892854Y-70882331D02*
X120892854Y-70272731D01*
X121183140Y-70882331D02*
X121183140Y-70272731D01*
X121328283Y-70272731D01*
X121415368Y-70301760D01*
X121473426Y-70359817D01*
X121502454Y-70417874D01*
X121531483Y-70533989D01*
X121531483Y-70621074D01*
X121502454Y-70737189D01*
X121473426Y-70795246D01*
X121415368Y-70853303D01*
X121328283Y-70882331D01*
X121183140Y-70882331D01*
X121792740Y-70563017D02*
X121995940Y-70563017D01*
X122083026Y-70882331D02*
X121792740Y-70882331D01*
X121792740Y-70272731D01*
X122083026Y-70272731D01*
D16*
X124362857Y-77749524D02*
X123637143Y-77749524D01*
X124000000Y-77749524D02*
X124000000Y-76479524D01*
X123879048Y-76660952D01*
X123758095Y-76781905D01*
X123637143Y-76842381D01*
X118557143Y-76600476D02*
X118617619Y-76540000D01*
X118738571Y-76479524D01*
X119040952Y-76479524D01*
X119161905Y-76540000D01*
X119222381Y-76600476D01*
X119282857Y-76721429D01*
X119282857Y-76842381D01*
X119222381Y-77023810D01*
X118496667Y-77749524D01*
X119282857Y-77749524D01*
X102397381Y-79019524D02*
X103123096Y-79019524D01*
X102760239Y-80289524D02*
X102760239Y-79019524D01*
X104211667Y-80289524D02*
X103485953Y-80289524D01*
X103848810Y-80289524D02*
X103848810Y-79019524D01*
X103727858Y-79200952D01*
X103606905Y-79321905D01*
X103485953Y-79382381D01*
D17*
X100377235Y-70722674D02*
X100348206Y-70751703D01*
X100261120Y-70780731D01*
X100203063Y-70780731D01*
X100115978Y-70751703D01*
X100057920Y-70693646D01*
X100028892Y-70635589D01*
X99999863Y-70519474D01*
X99999863Y-70432389D01*
X100028892Y-70316274D01*
X100057920Y-70258217D01*
X100115978Y-70200160D01*
X100203063Y-70171131D01*
X100261120Y-70171131D01*
X100348206Y-70200160D01*
X100377235Y-70229189D01*
X100609463Y-70606560D02*
X100899749Y-70606560D01*
X100551406Y-70780731D02*
X100754606Y-70171131D01*
X100957806Y-70780731D01*
X101364206Y-70461417D02*
X101451292Y-70490446D01*
X101480320Y-70519474D01*
X101509349Y-70577531D01*
X101509349Y-70664617D01*
X101480320Y-70722674D01*
X101451292Y-70751703D01*
X101393234Y-70780731D01*
X101161006Y-70780731D01*
X101161006Y-70171131D01*
X101364206Y-70171131D01*
X101422263Y-70200160D01*
X101451292Y-70229189D01*
X101480320Y-70287246D01*
X101480320Y-70345303D01*
X101451292Y-70403360D01*
X101422263Y-70432389D01*
X101364206Y-70461417D01*
X101161006Y-70461417D01*
X102060892Y-70780731D02*
X101770606Y-70780731D01*
X101770606Y-70171131D01*
X102264092Y-70461417D02*
X102467292Y-70461417D01*
X102554378Y-70780731D02*
X102264092Y-70780731D01*
X102264092Y-70171131D01*
X102554378Y-70171131D01*
X95281994Y-70853303D02*
X95369080Y-70882331D01*
X95514223Y-70882331D01*
X95572280Y-70853303D01*
X95601309Y-70824274D01*
X95630337Y-70766217D01*
X95630337Y-70708160D01*
X95601309Y-70650103D01*
X95572280Y-70621074D01*
X95514223Y-70592046D01*
X95398109Y-70563017D01*
X95340051Y-70533989D01*
X95311023Y-70504960D01*
X95281994Y-70446903D01*
X95281994Y-70388846D01*
X95311023Y-70330789D01*
X95340051Y-70301760D01*
X95398109Y-70272731D01*
X95543251Y-70272731D01*
X95630337Y-70301760D01*
X95891594Y-70882331D02*
X95891594Y-70272731D01*
X96181880Y-70882331D02*
X96181880Y-70272731D01*
X96327023Y-70272731D01*
X96414108Y-70301760D01*
X96472166Y-70359817D01*
X96501194Y-70417874D01*
X96530223Y-70533989D01*
X96530223Y-70621074D01*
X96501194Y-70737189D01*
X96472166Y-70795246D01*
X96414108Y-70853303D01*
X96327023Y-70882331D01*
X96181880Y-70882331D01*
X96791480Y-70563017D02*
X96994680Y-70563017D01*
X97081766Y-70882331D02*
X96791480Y-70882331D01*
X96791480Y-70272731D01*
X97081766Y-70272731D01*
D16*
X104362857Y-77749524D02*
X103637143Y-77749524D01*
X104000000Y-77749524D02*
X104000000Y-76479524D01*
X103879048Y-76660952D01*
X103758095Y-76781905D01*
X103637143Y-76842381D01*
X98557143Y-76600476D02*
X98617619Y-76540000D01*
X98738571Y-76479524D01*
X99040952Y-76479524D01*
X99161905Y-76540000D01*
X99222381Y-76600476D01*
X99282857Y-76721429D01*
X99282857Y-76842381D01*
X99222381Y-77023810D01*
X98496667Y-77749524D01*
X99282857Y-77749524D01*
X93497947Y-76479524D02*
X94284137Y-76479524D01*
X93860804Y-76963333D01*
X94042232Y-76963333D01*
X94163185Y-77023810D01*
X94223661Y-77084286D01*
X94284137Y-77205238D01*
X94284137Y-77507619D01*
X94223661Y-77628571D01*
X94163185Y-77689048D01*
X94042232Y-77749524D01*
X93679375Y-77749524D01*
X93558423Y-77689048D01*
X93497947Y-77628571D01*
D13*
X107233334Y-95502381D02*
X106900000Y-95026190D01*
X106661905Y-95502381D02*
X106661905Y-94502381D01*
X107042858Y-94502381D01*
X107138096Y-94550000D01*
X107185715Y-94597619D01*
X107233334Y-94692857D01*
X107233334Y-94835714D01*
X107185715Y-94930952D01*
X107138096Y-94978571D01*
X107042858Y-95026190D01*
X106661905Y-95026190D01*
X107614286Y-94597619D02*
X107661905Y-94550000D01*
X107757143Y-94502381D01*
X107995239Y-94502381D01*
X108090477Y-94550000D01*
X108138096Y-94597619D01*
X108185715Y-94692857D01*
X108185715Y-94788095D01*
X108138096Y-94930952D01*
X107566667Y-95502381D01*
X108185715Y-95502381D01*
M02*
