G04 #@! TF.FileFunction,Legend,Bot*
%FSLAX46Y46*%
G04 Gerber Fmt 4.6, Leading zero omitted, Abs format (unit mm)*
G04 Created by KiCad (PCBNEW 4.0.7-e2-6376~58~ubuntu16.04.1) date Mon Nov  6 19:58:44 2017*
%MOMM*%
%LPD*%
G01*
G04 APERTURE LIST*
%ADD10C,0.100000*%
%ADD11C,0.127000*%
%ADD12C,0.101600*%
G04 APERTURE END LIST*
D10*
D11*
X112650000Y-94080000D02*
X116460000Y-94080000D01*
X112650000Y-83920000D02*
X116460000Y-83920000D01*
X121540000Y-83920000D02*
X125350000Y-83920000D01*
X125350000Y-83920000D02*
X125350000Y-85190000D01*
X121540000Y-94080000D02*
X125350000Y-94080000D01*
X125350000Y-94080000D02*
X125350000Y-92810000D01*
X119000000Y-90270000D02*
X119000000Y-87730000D01*
X117730000Y-89000000D02*
X120270000Y-89000000D01*
X122175000Y-89000000D02*
G75*
G03X122175000Y-89000000I-3175000J0D01*
G01*
D12*
X127013095Y-96559524D02*
X127013095Y-95289524D01*
X126589762Y-96196667D01*
X126166428Y-95289524D01*
X126166428Y-96559524D01*
X124896428Y-96559524D02*
X125622142Y-96559524D01*
X125259285Y-96559524D02*
X125259285Y-95289524D01*
X125380237Y-95470952D01*
X125501190Y-95591905D01*
X125622142Y-95652381D01*
X134270238Y-82589524D02*
X134693571Y-81984762D01*
X134995952Y-82589524D02*
X134995952Y-81319524D01*
X134512143Y-81319524D01*
X134391190Y-81380000D01*
X134330714Y-81440476D01*
X134270238Y-81561429D01*
X134270238Y-81742857D01*
X134330714Y-81863810D01*
X134391190Y-81924286D01*
X134512143Y-81984762D01*
X134995952Y-81984762D01*
X133484047Y-81319524D02*
X133242143Y-81319524D01*
X133121190Y-81380000D01*
X133000238Y-81500952D01*
X132939762Y-81742857D01*
X132939762Y-82166190D01*
X133000238Y-82408095D01*
X133121190Y-82529048D01*
X133242143Y-82589524D01*
X133484047Y-82589524D01*
X133605000Y-82529048D01*
X133725952Y-82408095D01*
X133786428Y-82166190D01*
X133786428Y-81742857D01*
X133725952Y-81500952D01*
X133605000Y-81380000D01*
X133484047Y-81319524D01*
X132576905Y-81319524D02*
X131851190Y-81319524D01*
X132214047Y-82589524D02*
X132214047Y-81319524D01*
X131488333Y-82226667D02*
X130883571Y-82226667D01*
X131609286Y-82589524D02*
X131185952Y-81319524D01*
X130762619Y-82589524D01*
X129613572Y-82589524D02*
X130036905Y-81984762D01*
X130339286Y-82589524D02*
X130339286Y-81319524D01*
X129855477Y-81319524D01*
X129734524Y-81380000D01*
X129674048Y-81440476D01*
X129613572Y-81561429D01*
X129613572Y-81742857D01*
X129674048Y-81863810D01*
X129734524Y-81924286D01*
X129855477Y-81984762D01*
X130339286Y-81984762D01*
X128827381Y-81984762D02*
X128827381Y-82589524D01*
X129250715Y-81319524D02*
X128827381Y-81984762D01*
X128404048Y-81319524D01*
X127980715Y-82105714D02*
X127013096Y-82105714D01*
X126408334Y-81924286D02*
X125985001Y-81924286D01*
X125803572Y-82589524D02*
X126408334Y-82589524D01*
X126408334Y-81319524D01*
X125803572Y-81319524D01*
X125259286Y-82589524D02*
X125259286Y-81319524D01*
X124533572Y-82589524D01*
X124533572Y-81319524D01*
X123203096Y-82468571D02*
X123263572Y-82529048D01*
X123445001Y-82589524D01*
X123565953Y-82589524D01*
X123747381Y-82529048D01*
X123868334Y-82408095D01*
X123928810Y-82287143D01*
X123989286Y-82045238D01*
X123989286Y-81863810D01*
X123928810Y-81621905D01*
X123868334Y-81500952D01*
X123747381Y-81380000D01*
X123565953Y-81319524D01*
X123445001Y-81319524D01*
X123263572Y-81380000D01*
X123203096Y-81440476D01*
X122416905Y-81319524D02*
X122175001Y-81319524D01*
X122054048Y-81380000D01*
X121933096Y-81500952D01*
X121872620Y-81742857D01*
X121872620Y-82166190D01*
X121933096Y-82408095D01*
X122054048Y-82529048D01*
X122175001Y-82589524D01*
X122416905Y-82589524D01*
X122537858Y-82529048D01*
X122658810Y-82408095D01*
X122719286Y-82166190D01*
X122719286Y-81742857D01*
X122658810Y-81500952D01*
X122537858Y-81380000D01*
X122416905Y-81319524D01*
X121328334Y-82589524D02*
X121328334Y-81319524D01*
X121025953Y-81319524D01*
X120844525Y-81380000D01*
X120723572Y-81500952D01*
X120663096Y-81621905D01*
X120602620Y-81863810D01*
X120602620Y-82045238D01*
X120663096Y-82287143D01*
X120723572Y-82408095D01*
X120844525Y-82529048D01*
X121025953Y-82589524D01*
X121328334Y-82589524D01*
X120058334Y-81924286D02*
X119635001Y-81924286D01*
X119453572Y-82589524D02*
X120058334Y-82589524D01*
X120058334Y-81319524D01*
X119453572Y-81319524D01*
X118183572Y-82589524D02*
X118606905Y-81984762D01*
X118909286Y-82589524D02*
X118909286Y-81319524D01*
X118425477Y-81319524D01*
X118304524Y-81380000D01*
X118244048Y-81440476D01*
X118183572Y-81561429D01*
X118183572Y-81742857D01*
X118244048Y-81863810D01*
X118304524Y-81924286D01*
X118425477Y-81984762D01*
X118909286Y-81984762D01*
M02*
