M48
METRIC,TZ
T1C0.400
T2C0.500
T3C0.800
T4C0.998
T5C1.000
T6C1.298
T7C2.799
%
G90
G05
T1
X103750Y-96750
X135210Y-92050
X136130Y-91240
X141000Y-97000
X142000Y-98000
X142750Y-87500
X144500Y-97100
X145000Y-98100
X147550Y-94000
X148000Y-90000
X149900Y-93200
X151500Y-84000
X151630Y-92400
X155000Y-82500
X155830Y-84870
X156000Y-95000
T2
X141000Y-87000
X141000Y-88900
T3
X96000Y-97000
X96500Y-83000
X98500Y-97000
X99000Y-83000
T4
X111380Y-86460
X111380Y-91540
X126493Y-86460
X126493Y-89000
X126493Y-91540
T5
X82920Y-81000
X85460Y-81000
X88000Y-81000
X129000Y-75500
X131540Y-75500
X134080Y-75500
X136620Y-75500
X142500Y-65380
X142500Y-67920
X142500Y-70460
X142500Y-73000
X142500Y-75540
X142500Y-78080
X155500Y-67880
X155500Y-70420
X155500Y-72960
X155500Y-75500
X155500Y-78040
T6
X84001Y-74000
X89000Y-74000
X94000Y-74000
X99001Y-74000
X104000Y-74000
X109001Y-74000
X114000Y-74000
X119001Y-74000
X124000Y-74000
T7
X119000Y-83920
X119000Y-94080
T0
M30
