G04 #@! TF.FileFunction,Copper,L1,Top,Signal*
%FSLAX46Y46*%
G04 Gerber Fmt 4.6, Leading zero omitted, Abs format (unit mm)*
G04 Created by KiCad (PCBNEW 4.0.7-e2-6376~58~ubuntu16.04.1) date Mon Nov  6 19:58:44 2017*
%MOMM*%
%LPD*%
G01*
G04 APERTURE LIST*
%ADD10C,0.100000*%
%ADD11R,1.200000X0.600000*%
%ADD12R,0.600000X1.200000*%
%ADD13R,6.451600X6.451600*%
%ADD14O,3.556000X1.778000*%
%ADD15R,1.600000X1.600000*%
%ADD16C,1.600000*%
%ADD17R,1.250000X1.500000*%
%ADD18R,1.500000X1.250000*%
%ADD19R,1.700000X1.700000*%
%ADD20O,1.700000X1.700000*%
%ADD21R,1.800000X1.800000*%
%ADD22O,1.800000X1.800000*%
%ADD23R,1.300000X1.500000*%
%ADD24R,2.000000X3.800000*%
%ADD25R,2.000000X1.500000*%
%ADD26C,1.000000*%
%ADD27C,2.540000*%
%ADD28R,1.500000X1.300000*%
%ADD29C,0.600000*%
%ADD30C,0.600000*%
%ADD31C,0.500000*%
%ADD32C,0.254000*%
G04 APERTURE END LIST*
D10*
D11*
X144750000Y-89200000D03*
X144750000Y-90000000D03*
X144750000Y-90800000D03*
X144750000Y-91600000D03*
X144750000Y-92400000D03*
X144750000Y-93200000D03*
X144750000Y-94000000D03*
X144750000Y-94800000D03*
D12*
X146200000Y-96250000D03*
X147000000Y-96250000D03*
X147800000Y-96250000D03*
X148600000Y-96250000D03*
X149400000Y-96250000D03*
X150200000Y-96250000D03*
X151000000Y-96250000D03*
X151800000Y-96250000D03*
D11*
X153250000Y-94800000D03*
X153250000Y-94000000D03*
X153250000Y-93200000D03*
X153250000Y-92400000D03*
X153250000Y-91600000D03*
X153250000Y-90800000D03*
X153250000Y-90000000D03*
X153250000Y-89200000D03*
D12*
X151800000Y-87750000D03*
X151000000Y-87750000D03*
X150200000Y-87750000D03*
X149400000Y-87750000D03*
X148600000Y-87750000D03*
X147800000Y-87750000D03*
X147000000Y-87750000D03*
X146200000Y-87750000D03*
D13*
X119000000Y-94080000D03*
X119000000Y-83920000D03*
D14*
X126493000Y-91540000D03*
X126493000Y-89000000D03*
X126493000Y-86460000D03*
X111380000Y-91540000D03*
X111380000Y-86460000D03*
D15*
X96500000Y-83000000D03*
D16*
X99000000Y-83000000D03*
D17*
X141000000Y-91750000D03*
X141000000Y-94250000D03*
D18*
X139250000Y-84000000D03*
X136750000Y-84000000D03*
D17*
X138000000Y-91750000D03*
X138000000Y-94250000D03*
D15*
X96000000Y-97000000D03*
D16*
X98500000Y-97000000D03*
D17*
X143000000Y-85250000D03*
X143000000Y-82750000D03*
D18*
X153250000Y-99000000D03*
X150750000Y-99000000D03*
D19*
X155500000Y-67880000D03*
D20*
X155500000Y-70420000D03*
X155500000Y-72960000D03*
X155500000Y-75500000D03*
X155500000Y-78040000D03*
D21*
X88000000Y-81000000D03*
D22*
X85460000Y-81000000D03*
X82920000Y-81000000D03*
D23*
X146000000Y-85350000D03*
X146000000Y-82650000D03*
D24*
X101150000Y-90000000D03*
D25*
X94850000Y-90000000D03*
X94850000Y-92300000D03*
X94850000Y-87700000D03*
D26*
X141000000Y-87000000D03*
X141000000Y-88900000D03*
D19*
X129000000Y-75500000D03*
D20*
X131540000Y-75500000D03*
X134080000Y-75500000D03*
X136620000Y-75500000D03*
D19*
X142500000Y-65380000D03*
D20*
X142500000Y-67920000D03*
X142500000Y-70460000D03*
X142500000Y-73000000D03*
X142500000Y-75540000D03*
X142500000Y-78080000D03*
D27*
X89000000Y-74000000D03*
X84001280Y-74000000D03*
X114000000Y-74000000D03*
X109001280Y-74000000D03*
X124000000Y-74000000D03*
X119001280Y-74000000D03*
X104000000Y-74000000D03*
X99001280Y-74000000D03*
X94000020Y-74000000D03*
D28*
X106050000Y-96750000D03*
X108750000Y-96750000D03*
D29*
X151500000Y-84000000D03*
X148000000Y-90000000D03*
X142750000Y-87500000D03*
X147550000Y-94000000D03*
X141000000Y-97000000D03*
X156000000Y-95000000D03*
X142000000Y-98000000D03*
X149900000Y-93200000D03*
X135210000Y-92050000D03*
X151630000Y-92400000D03*
X136130000Y-91240000D03*
X103750000Y-96750000D03*
X145000000Y-98100000D03*
X144500000Y-97100000D03*
X155000000Y-82500000D03*
X155830000Y-84870000D03*
D30*
X96500000Y-83000000D02*
X96500000Y-86050000D01*
X96500000Y-86050000D02*
X94850000Y-87700000D01*
X144500000Y-82900000D02*
X144350000Y-82750000D01*
X144350000Y-82750000D02*
X143000000Y-82750000D01*
X144500000Y-86950000D02*
X144500000Y-82900000D01*
X146200000Y-87750000D02*
X145300000Y-87750000D01*
X145300000Y-87750000D02*
X144500000Y-86950000D01*
X151550000Y-97700000D02*
X150825000Y-97700000D01*
X150750000Y-97775000D02*
X150750000Y-99000000D01*
X150825000Y-97700000D02*
X150750000Y-97775000D01*
X151800000Y-96250000D02*
X151800000Y-97450000D01*
X151800000Y-97450000D02*
X151550000Y-97700000D01*
X151500000Y-84000000D02*
X151500000Y-73000000D01*
X151500000Y-73000000D02*
X154080000Y-70420000D01*
X154080000Y-70420000D02*
X154297919Y-70420000D01*
X154297919Y-70420000D02*
X155500000Y-70420000D01*
X144750000Y-91600000D02*
X146400000Y-91600000D01*
X146400000Y-91600000D02*
X148000000Y-90000000D01*
X144750000Y-91600000D02*
X141150000Y-91600000D01*
X141150000Y-91600000D02*
X141000000Y-91750000D01*
X141000000Y-87000000D02*
X141000000Y-85750000D01*
X141000000Y-85750000D02*
X139250000Y-84000000D01*
X141000000Y-87000000D02*
X141499999Y-87499999D01*
X141499999Y-87499999D02*
X141499999Y-87949999D01*
X143550000Y-90000000D02*
X144750000Y-90000000D01*
X141499999Y-87949999D02*
X143550000Y-90000000D01*
X141000000Y-88900000D02*
X140850000Y-88900000D01*
X140850000Y-88900000D02*
X138000000Y-91750000D01*
X141000000Y-88900000D02*
X142900000Y-90800000D01*
X142900000Y-90800000D02*
X144750000Y-90800000D01*
X143000000Y-85250000D02*
X143000000Y-87250000D01*
X143000000Y-87250000D02*
X142750000Y-87500000D01*
X147550000Y-94000000D02*
X145950000Y-92400000D01*
X148300000Y-94750000D02*
X147550000Y-94000000D01*
X148300000Y-94800000D02*
X148300000Y-94750000D01*
X145950000Y-92400000D02*
X144750000Y-92400000D01*
X153250000Y-94800000D02*
X148300000Y-94800000D01*
X142750000Y-87500000D02*
X144450000Y-89200000D01*
X144450000Y-89200000D02*
X144750000Y-89200000D01*
X153250000Y-94800000D02*
X153250000Y-99000000D01*
X94850000Y-92300000D02*
X94850000Y-95850000D01*
X94850000Y-95850000D02*
X96000000Y-97000000D01*
X153250000Y-89200000D02*
X153250000Y-86381384D01*
X153250000Y-86381384D02*
X152699990Y-85831374D01*
X152699990Y-85831374D02*
X152699990Y-74300010D01*
X152699990Y-74300010D02*
X154040000Y-72960000D01*
X154040000Y-72960000D02*
X155500000Y-72960000D01*
X153500000Y-85500000D02*
X153500000Y-77500000D01*
X153500000Y-77500000D02*
X155500000Y-75500000D01*
X155000000Y-87000000D02*
X153500000Y-85500000D01*
X155000000Y-87000000D02*
X155000000Y-90000000D01*
X155000000Y-90000000D02*
X153250000Y-90000000D01*
X149500000Y-85650000D02*
X149500000Y-70500000D01*
X149500000Y-70500000D02*
X149100020Y-70100020D01*
X148600000Y-86550000D02*
X149500000Y-85650000D01*
X146920000Y-67920000D02*
X149100020Y-70100020D01*
X142500000Y-67920000D02*
X146920000Y-67920000D01*
X148600000Y-87750000D02*
X148600000Y-86550000D01*
X148600000Y-86550000D02*
X149100020Y-86049980D01*
X147800000Y-87750000D02*
X147800000Y-85600000D01*
X147800000Y-85600000D02*
X148500000Y-84900000D01*
X148500000Y-84900000D02*
X148500000Y-72000000D01*
X148500000Y-72000000D02*
X146960000Y-70460000D01*
X146960000Y-70460000D02*
X142500000Y-70460000D01*
X147500000Y-84000000D02*
X147500000Y-75500000D01*
X146150000Y-85350000D02*
X147500000Y-84000000D01*
X146000000Y-85350000D02*
X146150000Y-85350000D01*
X142500000Y-73000000D02*
X145000000Y-73000000D01*
X145000000Y-73000000D02*
X147500000Y-75500000D01*
X146000000Y-85350000D02*
X146000000Y-85550000D01*
X146000000Y-85550000D02*
X147000000Y-86550000D01*
X147000000Y-86550000D02*
X147000000Y-87750000D01*
X141000000Y-97000000D02*
X141000000Y-98600000D01*
X149400000Y-97700000D02*
X149400000Y-96250000D01*
X141000000Y-98600000D02*
X142200010Y-99800010D01*
X142200010Y-99800010D02*
X147299988Y-99800010D01*
X147299988Y-99800010D02*
X149400000Y-97700000D01*
X153250000Y-94000000D02*
X154999999Y-93999999D01*
X154999999Y-93999999D02*
X156000000Y-95000000D01*
X146968614Y-99000000D02*
X148600000Y-97368614D01*
X142000000Y-98000000D02*
X143000000Y-99000000D01*
X143000000Y-99000000D02*
X146968614Y-99000000D01*
X148600000Y-97368614D02*
X148600000Y-96250000D01*
X133290000Y-76790000D02*
X134080000Y-76000000D01*
X134080000Y-76000000D02*
X134080000Y-75500000D01*
X134080000Y-75500000D02*
X134080000Y-76000000D01*
X134080000Y-76000000D02*
X134000000Y-76080000D01*
X149900000Y-93200000D02*
X153250000Y-93200000D01*
X133230001Y-90070001D02*
X135210000Y-92050000D01*
X134080000Y-76000000D02*
X134000000Y-76080000D01*
X134000000Y-76080000D02*
X133290000Y-76790000D01*
X133290000Y-76790000D02*
X133230001Y-76849999D01*
X133230001Y-76849999D02*
X133230001Y-90070001D01*
X136620000Y-76500000D02*
X136620000Y-75500000D01*
X151630000Y-92400000D02*
X153250000Y-92400000D01*
X134130000Y-89838616D02*
X135531384Y-91240000D01*
X135531384Y-91240000D02*
X136130000Y-91240000D01*
X136620000Y-76000000D02*
X136620000Y-76500000D01*
X136620000Y-76500000D02*
X136620000Y-77202081D01*
X136620000Y-77202081D02*
X134130000Y-79692081D01*
X134130000Y-79692081D02*
X134130000Y-89838616D01*
X103750000Y-96750000D02*
X106050000Y-96750000D01*
X143300000Y-97500000D02*
X143900000Y-98100000D01*
X143900000Y-98100000D02*
X145000000Y-98100000D01*
X143300000Y-94250000D02*
X143300000Y-97500000D01*
X144750000Y-94000000D02*
X143550000Y-94000000D01*
X143550000Y-94000000D02*
X143300000Y-94250000D01*
X144500000Y-97100000D02*
X144500000Y-95050000D01*
X144500000Y-95050000D02*
X144750000Y-94800000D01*
D31*
X144500000Y-95050000D02*
X144699999Y-94850001D01*
D30*
X153250000Y-90800000D02*
X155768616Y-90800000D01*
X155800011Y-90768605D02*
X155800011Y-86668625D01*
X155768616Y-90800000D02*
X155800011Y-90768605D01*
X155800011Y-86668625D02*
X155000000Y-85868614D01*
X155000000Y-85868614D02*
X155000000Y-82500000D01*
X156600000Y-91600000D02*
X156100000Y-91600000D01*
X156100000Y-91600000D02*
X153250000Y-91600000D01*
X156600000Y-91100000D02*
X156600000Y-91600000D01*
X156600021Y-85640021D02*
X156600021Y-91099979D01*
X156600021Y-91099979D02*
X156600000Y-91100000D01*
X156600021Y-85640021D02*
X155830000Y-84870000D01*
D32*
G36*
X157290000Y-85022029D02*
X157261166Y-84978876D01*
X156491436Y-84209146D01*
X156360327Y-84077808D01*
X156016799Y-83935162D01*
X155935000Y-83935091D01*
X155935000Y-82500816D01*
X155935162Y-82314833D01*
X155793117Y-81971057D01*
X155530327Y-81707808D01*
X155186799Y-81565162D01*
X154814833Y-81564838D01*
X154471057Y-81706883D01*
X154435000Y-81742877D01*
X154435000Y-79099507D01*
X154902622Y-79411961D01*
X155470907Y-79525000D01*
X155529093Y-79525000D01*
X156097378Y-79411961D01*
X156579147Y-79090054D01*
X156901054Y-78608285D01*
X157014093Y-78040000D01*
X156901054Y-77471715D01*
X156579147Y-76989946D01*
X156249974Y-76770000D01*
X156579147Y-76550054D01*
X156901054Y-76068285D01*
X157014093Y-75500000D01*
X156901054Y-74931715D01*
X156579147Y-74449946D01*
X156249974Y-74230000D01*
X156579147Y-74010054D01*
X156901054Y-73528285D01*
X157014093Y-72960000D01*
X156901054Y-72391715D01*
X156579147Y-71909946D01*
X156249974Y-71690000D01*
X156579147Y-71470054D01*
X156901054Y-70988285D01*
X157014093Y-70420000D01*
X156901054Y-69851715D01*
X156579147Y-69369946D01*
X156535223Y-69340597D01*
X156709698Y-69268327D01*
X156888327Y-69089699D01*
X156985000Y-68856310D01*
X156985000Y-68165750D01*
X156826250Y-68007000D01*
X155627000Y-68007000D01*
X155627000Y-68027000D01*
X155373000Y-68027000D01*
X155373000Y-68007000D01*
X154173750Y-68007000D01*
X154015000Y-68165750D01*
X154015000Y-68856310D01*
X154111673Y-69089699D01*
X154290302Y-69268327D01*
X154464777Y-69340597D01*
X154420853Y-69369946D01*
X154343977Y-69485000D01*
X154080000Y-69485000D01*
X153722191Y-69556173D01*
X153418855Y-69758855D01*
X150838855Y-72338855D01*
X150636173Y-72642191D01*
X150565000Y-73000000D01*
X150565000Y-83999184D01*
X150564838Y-84185167D01*
X150706883Y-84528943D01*
X150969673Y-84792192D01*
X151313201Y-84934838D01*
X151685167Y-84935162D01*
X151764990Y-84902180D01*
X151764990Y-85831374D01*
X151836163Y-86189183D01*
X152038845Y-86492519D01*
X152048886Y-86502560D01*
X151500000Y-86502560D01*
X151396329Y-86522067D01*
X151300000Y-86502560D01*
X150700000Y-86502560D01*
X150596329Y-86522067D01*
X150500000Y-86502560D01*
X149969730Y-86502560D01*
X150161145Y-86311145D01*
X150363827Y-86007809D01*
X150435000Y-85650000D01*
X150435000Y-70500000D01*
X150363827Y-70142191D01*
X150161145Y-69838855D01*
X147581145Y-67258855D01*
X147277809Y-67056173D01*
X146920000Y-66985000D01*
X143656023Y-66985000D01*
X143601694Y-66903690D01*
X154015000Y-66903690D01*
X154015000Y-67594250D01*
X154173750Y-67753000D01*
X155373000Y-67753000D01*
X155373000Y-66553750D01*
X155627000Y-66553750D01*
X155627000Y-67753000D01*
X156826250Y-67753000D01*
X156985000Y-67594250D01*
X156985000Y-66903690D01*
X156888327Y-66670301D01*
X156709698Y-66491673D01*
X156476309Y-66395000D01*
X155785750Y-66395000D01*
X155627000Y-66553750D01*
X155373000Y-66553750D01*
X155214250Y-66395000D01*
X154523691Y-66395000D01*
X154290302Y-66491673D01*
X154111673Y-66670301D01*
X154015000Y-66903690D01*
X143601694Y-66903690D01*
X143579147Y-66869946D01*
X143535223Y-66840597D01*
X143709698Y-66768327D01*
X143888327Y-66589699D01*
X143985000Y-66356310D01*
X143985000Y-65665750D01*
X143826250Y-65507000D01*
X142627000Y-65507000D01*
X142627000Y-65527000D01*
X142373000Y-65527000D01*
X142373000Y-65507000D01*
X141173750Y-65507000D01*
X141015000Y-65665750D01*
X141015000Y-66356310D01*
X141111673Y-66589699D01*
X141290302Y-66768327D01*
X141464777Y-66840597D01*
X141420853Y-66869946D01*
X141098946Y-67351715D01*
X140985907Y-67920000D01*
X141098946Y-68488285D01*
X141420853Y-68970054D01*
X141750026Y-69190000D01*
X141420853Y-69409946D01*
X141098946Y-69891715D01*
X140985907Y-70460000D01*
X141098946Y-71028285D01*
X141420853Y-71510054D01*
X141750026Y-71730000D01*
X141420853Y-71949946D01*
X141098946Y-72431715D01*
X140985907Y-73000000D01*
X141098946Y-73568285D01*
X141420853Y-74050054D01*
X141750026Y-74270000D01*
X141420853Y-74489946D01*
X141098946Y-74971715D01*
X140985907Y-75540000D01*
X141098946Y-76108285D01*
X141420853Y-76590054D01*
X141750026Y-76810000D01*
X141420853Y-77029946D01*
X141098946Y-77511715D01*
X140985907Y-78080000D01*
X141098946Y-78648285D01*
X141420853Y-79130054D01*
X141902622Y-79451961D01*
X142470907Y-79565000D01*
X142529093Y-79565000D01*
X143097378Y-79451961D01*
X143579147Y-79130054D01*
X143901054Y-78648285D01*
X144014093Y-78080000D01*
X143901054Y-77511715D01*
X143579147Y-77029946D01*
X143249974Y-76810000D01*
X143579147Y-76590054D01*
X143901054Y-76108285D01*
X144014093Y-75540000D01*
X143901054Y-74971715D01*
X143579147Y-74489946D01*
X143249974Y-74270000D01*
X143579147Y-74050054D01*
X143656023Y-73935000D01*
X144612710Y-73935000D01*
X146565000Y-75887290D01*
X146565000Y-81265000D01*
X146285750Y-81265000D01*
X146127000Y-81423750D01*
X146127000Y-82523000D01*
X146147000Y-82523000D01*
X146147000Y-82777000D01*
X146127000Y-82777000D01*
X146127000Y-82797000D01*
X145873000Y-82797000D01*
X145873000Y-82777000D01*
X144873750Y-82777000D01*
X144715000Y-82935750D01*
X144715000Y-83526309D01*
X144811673Y-83759698D01*
X144990301Y-83938327D01*
X145126287Y-83994654D01*
X145114683Y-83996838D01*
X144898559Y-84135910D01*
X144753569Y-84348110D01*
X144702560Y-84600000D01*
X144702560Y-86100000D01*
X144746838Y-86335317D01*
X144885910Y-86551441D01*
X145098110Y-86696431D01*
X145350000Y-86747440D01*
X145404535Y-86747440D01*
X145361673Y-86790302D01*
X145265000Y-87023691D01*
X145265000Y-87464250D01*
X145423750Y-87623000D01*
X146052560Y-87623000D01*
X146052560Y-87877000D01*
X145423750Y-87877000D01*
X145265000Y-88035750D01*
X145265000Y-88252560D01*
X144824850Y-88252560D01*
X143916300Y-87344010D01*
X143935000Y-87250000D01*
X143935000Y-86555105D01*
X144076441Y-86464090D01*
X144221431Y-86251890D01*
X144272440Y-86000000D01*
X144272440Y-84500000D01*
X144228162Y-84264683D01*
X144089090Y-84048559D01*
X144020994Y-84002031D01*
X144163327Y-83859698D01*
X144260000Y-83626309D01*
X144260000Y-83035750D01*
X144101250Y-82877000D01*
X143127000Y-82877000D01*
X143127000Y-82897000D01*
X142873000Y-82897000D01*
X142873000Y-82877000D01*
X141898750Y-82877000D01*
X141740000Y-83035750D01*
X141740000Y-83626309D01*
X141836673Y-83859698D01*
X141977910Y-84000936D01*
X141923559Y-84035910D01*
X141778569Y-84248110D01*
X141727560Y-84500000D01*
X141727560Y-85188252D01*
X141661145Y-85088855D01*
X140647440Y-84075150D01*
X140647440Y-83375000D01*
X140603162Y-83139683D01*
X140464090Y-82923559D01*
X140251890Y-82778569D01*
X140000000Y-82727560D01*
X138500000Y-82727560D01*
X138264683Y-82771838D01*
X138048559Y-82910910D01*
X138002031Y-82979006D01*
X137859698Y-82836673D01*
X137626309Y-82740000D01*
X137035750Y-82740000D01*
X136877000Y-82898750D01*
X136877000Y-83873000D01*
X136897000Y-83873000D01*
X136897000Y-84127000D01*
X136877000Y-84127000D01*
X136877000Y-85101250D01*
X137035750Y-85260000D01*
X137626309Y-85260000D01*
X137859698Y-85163327D01*
X138000936Y-85022090D01*
X138035910Y-85076441D01*
X138248110Y-85221431D01*
X138500000Y-85272440D01*
X139200150Y-85272440D01*
X140065000Y-86137290D01*
X140065000Y-86329636D01*
X140038355Y-86356235D01*
X139865197Y-86773244D01*
X139864803Y-87224775D01*
X140037233Y-87642086D01*
X140344867Y-87950257D01*
X140038355Y-88256235D01*
X139943827Y-88483883D01*
X138075150Y-90352560D01*
X137375000Y-90352560D01*
X137139683Y-90396838D01*
X136923559Y-90535910D01*
X136852334Y-90640151D01*
X136660327Y-90447808D01*
X136316799Y-90305162D01*
X135944833Y-90304838D01*
X135944441Y-90305000D01*
X135918674Y-90305000D01*
X135065000Y-89451326D01*
X135065000Y-84285750D01*
X135365000Y-84285750D01*
X135365000Y-84751310D01*
X135461673Y-84984699D01*
X135640302Y-85163327D01*
X135873691Y-85260000D01*
X136464250Y-85260000D01*
X136623000Y-85101250D01*
X136623000Y-84127000D01*
X135523750Y-84127000D01*
X135365000Y-84285750D01*
X135065000Y-84285750D01*
X135065000Y-83248690D01*
X135365000Y-83248690D01*
X135365000Y-83714250D01*
X135523750Y-83873000D01*
X136623000Y-83873000D01*
X136623000Y-82898750D01*
X136464250Y-82740000D01*
X135873691Y-82740000D01*
X135640302Y-82836673D01*
X135461673Y-83015301D01*
X135365000Y-83248690D01*
X135065000Y-83248690D01*
X135065000Y-81873691D01*
X141740000Y-81873691D01*
X141740000Y-82464250D01*
X141898750Y-82623000D01*
X142873000Y-82623000D01*
X142873000Y-81523750D01*
X143127000Y-81523750D01*
X143127000Y-82623000D01*
X144101250Y-82623000D01*
X144260000Y-82464250D01*
X144260000Y-81873691D01*
X144218579Y-81773691D01*
X144715000Y-81773691D01*
X144715000Y-82364250D01*
X144873750Y-82523000D01*
X145873000Y-82523000D01*
X145873000Y-81423750D01*
X145714250Y-81265000D01*
X145223690Y-81265000D01*
X144990301Y-81361673D01*
X144811673Y-81540302D01*
X144715000Y-81773691D01*
X144218579Y-81773691D01*
X144163327Y-81640302D01*
X143984699Y-81461673D01*
X143751310Y-81365000D01*
X143285750Y-81365000D01*
X143127000Y-81523750D01*
X142873000Y-81523750D01*
X142714250Y-81365000D01*
X142248690Y-81365000D01*
X142015301Y-81461673D01*
X141836673Y-81640302D01*
X141740000Y-81873691D01*
X135065000Y-81873691D01*
X135065000Y-80079371D01*
X137281145Y-77863226D01*
X137483827Y-77559890D01*
X137555000Y-77202081D01*
X137555000Y-76656023D01*
X137670054Y-76579147D01*
X137991961Y-76097378D01*
X138105000Y-75529093D01*
X138105000Y-75470907D01*
X137991961Y-74902622D01*
X137670054Y-74420853D01*
X137188285Y-74098946D01*
X136620000Y-73985907D01*
X136051715Y-74098946D01*
X135569946Y-74420853D01*
X135350000Y-74750026D01*
X135130054Y-74420853D01*
X134648285Y-74098946D01*
X134080000Y-73985907D01*
X133511715Y-74098946D01*
X133029946Y-74420853D01*
X132802298Y-74761553D01*
X132735183Y-74618642D01*
X132306924Y-74228355D01*
X131896890Y-74058524D01*
X131667000Y-74179845D01*
X131667000Y-75373000D01*
X131687000Y-75373000D01*
X131687000Y-75627000D01*
X131667000Y-75627000D01*
X131667000Y-76820155D01*
X131896890Y-76941476D01*
X132306924Y-76771645D01*
X132311398Y-76767568D01*
X132295001Y-76849999D01*
X132295001Y-90070001D01*
X132366174Y-90427810D01*
X132568856Y-90731146D01*
X134548564Y-92710854D01*
X134679673Y-92842192D01*
X135023201Y-92984838D01*
X135395167Y-92985162D01*
X135738943Y-92843117D01*
X136002192Y-92580327D01*
X136144838Y-92236799D01*
X136144892Y-92175014D01*
X136315167Y-92175162D01*
X136658943Y-92033117D01*
X136727560Y-91964620D01*
X136727560Y-92500000D01*
X136771838Y-92735317D01*
X136910910Y-92951441D01*
X136979006Y-92997969D01*
X136836673Y-93140302D01*
X136740000Y-93373691D01*
X136740000Y-93964250D01*
X136898750Y-94123000D01*
X137873000Y-94123000D01*
X137873000Y-94103000D01*
X138127000Y-94103000D01*
X138127000Y-94123000D01*
X139101250Y-94123000D01*
X139260000Y-93964250D01*
X139260000Y-93373691D01*
X139163327Y-93140302D01*
X139022090Y-92999064D01*
X139076441Y-92964090D01*
X139221431Y-92751890D01*
X139272440Y-92500000D01*
X139272440Y-91799850D01*
X139727560Y-91344730D01*
X139727560Y-92500000D01*
X139771838Y-92735317D01*
X139910910Y-92951441D01*
X139979006Y-92997969D01*
X139836673Y-93140302D01*
X139740000Y-93373691D01*
X139740000Y-93964250D01*
X139898750Y-94123000D01*
X140873000Y-94123000D01*
X140873000Y-94103000D01*
X141127000Y-94103000D01*
X141127000Y-94123000D01*
X142101250Y-94123000D01*
X142260000Y-93964250D01*
X142260000Y-93373691D01*
X142163327Y-93140302D01*
X142022090Y-92999064D01*
X142076441Y-92964090D01*
X142221431Y-92751890D01*
X142265352Y-92535000D01*
X143502560Y-92535000D01*
X143502560Y-92700000D01*
X143522067Y-92803671D01*
X143502560Y-92900000D01*
X143502560Y-93074436D01*
X143192191Y-93136173D01*
X142888855Y-93338855D01*
X142638855Y-93588855D01*
X142436173Y-93892191D01*
X142365000Y-94250000D01*
X142365000Y-97139158D01*
X142186799Y-97065162D01*
X141935000Y-97064943D01*
X141935000Y-97000816D01*
X141935162Y-96814833D01*
X141793117Y-96471057D01*
X141530327Y-96207808D01*
X141186799Y-96065162D01*
X140814833Y-96064838D01*
X140471057Y-96206883D01*
X140207808Y-96469673D01*
X140065162Y-96813201D01*
X140064838Y-97185167D01*
X140065000Y-97185559D01*
X140065000Y-98600000D01*
X140136173Y-98957809D01*
X140338855Y-99261145D01*
X141538865Y-100461155D01*
X141842201Y-100663837D01*
X142200010Y-100735010D01*
X147299988Y-100735010D01*
X147657797Y-100663837D01*
X147961133Y-100461155D01*
X149365000Y-99057289D01*
X149365000Y-99127002D01*
X149523748Y-99127002D01*
X149365000Y-99285750D01*
X149365000Y-99751310D01*
X149461673Y-99984699D01*
X149640302Y-100163327D01*
X149873691Y-100260000D01*
X150464250Y-100260000D01*
X150623000Y-100101250D01*
X150623000Y-99127000D01*
X150603000Y-99127000D01*
X150603000Y-98873000D01*
X150623000Y-98873000D01*
X150623000Y-97898750D01*
X150464250Y-97740000D01*
X150327043Y-97740000D01*
X150335000Y-97700000D01*
X150335000Y-97497440D01*
X150500000Y-97497440D01*
X150603671Y-97477933D01*
X150700000Y-97497440D01*
X151300000Y-97497440D01*
X151371323Y-97484020D01*
X151373690Y-97485000D01*
X151514250Y-97485000D01*
X151565529Y-97433721D01*
X151751441Y-97314090D01*
X151896431Y-97101890D01*
X151927000Y-96950936D01*
X151927000Y-97326250D01*
X152085750Y-97485000D01*
X152226310Y-97485000D01*
X152315000Y-97448263D01*
X152315000Y-97762370D01*
X152264683Y-97771838D01*
X152048559Y-97910910D01*
X152002031Y-97979006D01*
X151859698Y-97836673D01*
X151626309Y-97740000D01*
X151035750Y-97740000D01*
X150877000Y-97898750D01*
X150877000Y-98873000D01*
X150897000Y-98873000D01*
X150897000Y-99127000D01*
X150877000Y-99127000D01*
X150877000Y-100101250D01*
X151035750Y-100260000D01*
X151626309Y-100260000D01*
X151859698Y-100163327D01*
X152000936Y-100022090D01*
X152035910Y-100076441D01*
X152248110Y-100221431D01*
X152500000Y-100272440D01*
X154000000Y-100272440D01*
X154235317Y-100228162D01*
X154451441Y-100089090D01*
X154596431Y-99876890D01*
X154647440Y-99625000D01*
X154647440Y-98375000D01*
X154603162Y-98139683D01*
X154464090Y-97923559D01*
X154251890Y-97778569D01*
X154185000Y-97765023D01*
X154185000Y-95639018D01*
X154301441Y-95564090D01*
X154446431Y-95351890D01*
X154497440Y-95100000D01*
X154497440Y-94934999D01*
X154612709Y-94934999D01*
X155338564Y-95660854D01*
X155469673Y-95792192D01*
X155813201Y-95934838D01*
X156185167Y-95935162D01*
X156528943Y-95793117D01*
X156792192Y-95530327D01*
X156934838Y-95186799D01*
X156935162Y-94814833D01*
X156793117Y-94471057D01*
X156530327Y-94207808D01*
X156529935Y-94207645D01*
X155661144Y-93338854D01*
X155357808Y-93136172D01*
X154999999Y-93064999D01*
X154497440Y-93064999D01*
X154497440Y-92900000D01*
X154477933Y-92796329D01*
X154497440Y-92700000D01*
X154497440Y-92535000D01*
X156600000Y-92535000D01*
X156957809Y-92463827D01*
X157261145Y-92261145D01*
X157290000Y-92217960D01*
X157290000Y-101290000D01*
X78710000Y-101290000D01*
X78710000Y-97660000D01*
X83028275Y-97660000D01*
X83209822Y-98572700D01*
X83726825Y-99346450D01*
X84500575Y-99863453D01*
X85413275Y-100045000D01*
X85506725Y-100045000D01*
X86419425Y-99863453D01*
X87193175Y-99346450D01*
X87710178Y-98572700D01*
X87891725Y-97660000D01*
X87710178Y-96747300D01*
X87193175Y-95973550D01*
X86419425Y-95456547D01*
X85506725Y-95275000D01*
X85413275Y-95275000D01*
X84500575Y-95456547D01*
X83726825Y-95973550D01*
X83209822Y-96747300D01*
X83028275Y-97660000D01*
X78710000Y-97660000D01*
X78710000Y-91550000D01*
X93202560Y-91550000D01*
X93202560Y-93050000D01*
X93246838Y-93285317D01*
X93385910Y-93501441D01*
X93598110Y-93646431D01*
X93850000Y-93697440D01*
X93915000Y-93697440D01*
X93915000Y-95850000D01*
X93986173Y-96207809D01*
X94188855Y-96511145D01*
X94552560Y-96874850D01*
X94552560Y-97800000D01*
X94596838Y-98035317D01*
X94735910Y-98251441D01*
X94948110Y-98396431D01*
X95200000Y-98447440D01*
X96800000Y-98447440D01*
X97035317Y-98403162D01*
X97251441Y-98264090D01*
X97396431Y-98051890D01*
X97405370Y-98007745D01*
X97671861Y-98007745D01*
X97745995Y-98253864D01*
X98283223Y-98446965D01*
X98853454Y-98419778D01*
X99254005Y-98253864D01*
X99328139Y-98007745D01*
X98500000Y-97179605D01*
X97671861Y-98007745D01*
X97405370Y-98007745D01*
X97444646Y-97813799D01*
X97492255Y-97828139D01*
X98320395Y-97000000D01*
X98679605Y-97000000D01*
X99507745Y-97828139D01*
X99753864Y-97754005D01*
X99946965Y-97216777D01*
X99933539Y-96935167D01*
X102814838Y-96935167D01*
X102956883Y-97278943D01*
X103219673Y-97542192D01*
X103563201Y-97684838D01*
X103935167Y-97685162D01*
X103935559Y-97685000D01*
X104728808Y-97685000D01*
X104835910Y-97851441D01*
X105048110Y-97996431D01*
X105300000Y-98047440D01*
X106800000Y-98047440D01*
X107035317Y-98003162D01*
X107251441Y-97864090D01*
X107396431Y-97651890D01*
X107403191Y-97618510D01*
X107461673Y-97759699D01*
X107640302Y-97938327D01*
X107873691Y-98035000D01*
X108464250Y-98035000D01*
X108623000Y-97876250D01*
X108623000Y-96877000D01*
X108877000Y-96877000D01*
X108877000Y-97876250D01*
X109035750Y-98035000D01*
X109626309Y-98035000D01*
X109859698Y-97938327D01*
X110038327Y-97759699D01*
X110135000Y-97526310D01*
X110135000Y-97035750D01*
X109976250Y-96877000D01*
X108877000Y-96877000D01*
X108623000Y-96877000D01*
X108603000Y-96877000D01*
X108603000Y-96623000D01*
X108623000Y-96623000D01*
X108623000Y-95623750D01*
X108877000Y-95623750D01*
X108877000Y-96623000D01*
X109976250Y-96623000D01*
X110135000Y-96464250D01*
X110135000Y-95973690D01*
X110038327Y-95740301D01*
X109859698Y-95561673D01*
X109626309Y-95465000D01*
X109035750Y-95465000D01*
X108877000Y-95623750D01*
X108623000Y-95623750D01*
X108464250Y-95465000D01*
X107873691Y-95465000D01*
X107640302Y-95561673D01*
X107461673Y-95740301D01*
X107405346Y-95876287D01*
X107403162Y-95864683D01*
X107264090Y-95648559D01*
X107051890Y-95503569D01*
X106800000Y-95452560D01*
X105300000Y-95452560D01*
X105064683Y-95496838D01*
X104848559Y-95635910D01*
X104726192Y-95815000D01*
X103750816Y-95815000D01*
X103564833Y-95814838D01*
X103221057Y-95956883D01*
X102957808Y-96219673D01*
X102815162Y-96563201D01*
X102814838Y-96935167D01*
X99933539Y-96935167D01*
X99919778Y-96646546D01*
X99753864Y-96245995D01*
X99507745Y-96171861D01*
X98679605Y-97000000D01*
X98320395Y-97000000D01*
X97492255Y-96171861D01*
X97444833Y-96186145D01*
X97408351Y-95992255D01*
X97671861Y-95992255D01*
X98500000Y-96820395D01*
X99328139Y-95992255D01*
X99254005Y-95746136D01*
X98716777Y-95553035D01*
X98146546Y-95580222D01*
X97745995Y-95746136D01*
X97671861Y-95992255D01*
X97408351Y-95992255D01*
X97403162Y-95964683D01*
X97264090Y-95748559D01*
X97051890Y-95603569D01*
X96800000Y-95552560D01*
X95874850Y-95552560D01*
X95785000Y-95462710D01*
X95785000Y-93697440D01*
X95850000Y-93697440D01*
X96085317Y-93653162D01*
X96301441Y-93514090D01*
X96446431Y-93301890D01*
X96497440Y-93050000D01*
X96497440Y-91550000D01*
X96453162Y-91314683D01*
X96347518Y-91150508D01*
X96388327Y-91109699D01*
X96485000Y-90876310D01*
X96485000Y-90285750D01*
X99515000Y-90285750D01*
X99515000Y-92026310D01*
X99611673Y-92259699D01*
X99790302Y-92438327D01*
X100023691Y-92535000D01*
X100864250Y-92535000D01*
X101023000Y-92376250D01*
X101023000Y-90127000D01*
X101277000Y-90127000D01*
X101277000Y-92376250D01*
X101435750Y-92535000D01*
X102276309Y-92535000D01*
X102509698Y-92438327D01*
X102688327Y-92259699D01*
X102785000Y-92026310D01*
X102785000Y-91903013D01*
X109010866Y-91903013D01*
X109034407Y-92005878D01*
X109323567Y-92527829D01*
X109790458Y-92899392D01*
X110364000Y-93064000D01*
X111253000Y-93064000D01*
X111253000Y-91667000D01*
X111507000Y-91667000D01*
X111507000Y-93064000D01*
X112396000Y-93064000D01*
X112969542Y-92899392D01*
X113436433Y-92527829D01*
X113725593Y-92005878D01*
X113749134Y-91903013D01*
X113628330Y-91667000D01*
X111507000Y-91667000D01*
X111253000Y-91667000D01*
X109131670Y-91667000D01*
X109010866Y-91903013D01*
X102785000Y-91903013D01*
X102785000Y-91176987D01*
X109010866Y-91176987D01*
X109131670Y-91413000D01*
X111253000Y-91413000D01*
X111253000Y-90016000D01*
X111507000Y-90016000D01*
X111507000Y-91413000D01*
X113628330Y-91413000D01*
X113749134Y-91176987D01*
X113725593Y-91074122D01*
X113603757Y-90854200D01*
X115126760Y-90854200D01*
X115126760Y-97305800D01*
X115171038Y-97541117D01*
X115310110Y-97757241D01*
X115522310Y-97902231D01*
X115774200Y-97953240D01*
X122225800Y-97953240D01*
X122461117Y-97908962D01*
X122677241Y-97769890D01*
X122822231Y-97557690D01*
X122873240Y-97305800D01*
X122873240Y-94535750D01*
X136740000Y-94535750D01*
X136740000Y-95126309D01*
X136836673Y-95359698D01*
X137015301Y-95538327D01*
X137248690Y-95635000D01*
X137714250Y-95635000D01*
X137873000Y-95476250D01*
X137873000Y-94377000D01*
X138127000Y-94377000D01*
X138127000Y-95476250D01*
X138285750Y-95635000D01*
X138751310Y-95635000D01*
X138984699Y-95538327D01*
X139163327Y-95359698D01*
X139260000Y-95126309D01*
X139260000Y-94535750D01*
X139740000Y-94535750D01*
X139740000Y-95126309D01*
X139836673Y-95359698D01*
X140015301Y-95538327D01*
X140248690Y-95635000D01*
X140714250Y-95635000D01*
X140873000Y-95476250D01*
X140873000Y-94377000D01*
X141127000Y-94377000D01*
X141127000Y-95476250D01*
X141285750Y-95635000D01*
X141751310Y-95635000D01*
X141984699Y-95538327D01*
X142163327Y-95359698D01*
X142260000Y-95126309D01*
X142260000Y-94535750D01*
X142101250Y-94377000D01*
X141127000Y-94377000D01*
X140873000Y-94377000D01*
X139898750Y-94377000D01*
X139740000Y-94535750D01*
X139260000Y-94535750D01*
X139101250Y-94377000D01*
X138127000Y-94377000D01*
X137873000Y-94377000D01*
X136898750Y-94377000D01*
X136740000Y-94535750D01*
X122873240Y-94535750D01*
X122873240Y-91540000D01*
X124032727Y-91540000D01*
X124148735Y-92123210D01*
X124479096Y-92617631D01*
X124973517Y-92947992D01*
X125556727Y-93064000D01*
X127429273Y-93064000D01*
X128012483Y-92947992D01*
X128506904Y-92617631D01*
X128837265Y-92123210D01*
X128953273Y-91540000D01*
X128837265Y-90956790D01*
X128506904Y-90462369D01*
X128205884Y-90261234D01*
X128549433Y-89987829D01*
X128838593Y-89465878D01*
X128862134Y-89363013D01*
X128741330Y-89127000D01*
X126620000Y-89127000D01*
X126620000Y-89147000D01*
X126366000Y-89147000D01*
X126366000Y-89127000D01*
X124244670Y-89127000D01*
X124123866Y-89363013D01*
X124147407Y-89465878D01*
X124436567Y-89987829D01*
X124780116Y-90261234D01*
X124479096Y-90462369D01*
X124148735Y-90956790D01*
X124032727Y-91540000D01*
X122873240Y-91540000D01*
X122873240Y-90854200D01*
X122828962Y-90618883D01*
X122689890Y-90402759D01*
X122477690Y-90257769D01*
X122225800Y-90206760D01*
X115774200Y-90206760D01*
X115538883Y-90251038D01*
X115322759Y-90390110D01*
X115177769Y-90602310D01*
X115126760Y-90854200D01*
X113603757Y-90854200D01*
X113436433Y-90552171D01*
X112969542Y-90180608D01*
X112396000Y-90016000D01*
X111507000Y-90016000D01*
X111253000Y-90016000D01*
X110364000Y-90016000D01*
X109790458Y-90180608D01*
X109323567Y-90552171D01*
X109034407Y-91074122D01*
X109010866Y-91176987D01*
X102785000Y-91176987D01*
X102785000Y-90285750D01*
X102626250Y-90127000D01*
X101277000Y-90127000D01*
X101023000Y-90127000D01*
X99673750Y-90127000D01*
X99515000Y-90285750D01*
X96485000Y-90285750D01*
X96326250Y-90127000D01*
X94977000Y-90127000D01*
X94977000Y-90147000D01*
X94723000Y-90147000D01*
X94723000Y-90127000D01*
X93373750Y-90127000D01*
X93215000Y-90285750D01*
X93215000Y-90876310D01*
X93311673Y-91109699D01*
X93353634Y-91151660D01*
X93253569Y-91298110D01*
X93202560Y-91550000D01*
X78710000Y-91550000D01*
X78710000Y-86950000D01*
X93202560Y-86950000D01*
X93202560Y-88450000D01*
X93246838Y-88685317D01*
X93352482Y-88849492D01*
X93311673Y-88890301D01*
X93215000Y-89123690D01*
X93215000Y-89714250D01*
X93373750Y-89873000D01*
X94723000Y-89873000D01*
X94723000Y-89853000D01*
X94977000Y-89853000D01*
X94977000Y-89873000D01*
X96326250Y-89873000D01*
X96485000Y-89714250D01*
X96485000Y-89123690D01*
X96388327Y-88890301D01*
X96346366Y-88848340D01*
X96446431Y-88701890D01*
X96497440Y-88450000D01*
X96497440Y-87973690D01*
X99515000Y-87973690D01*
X99515000Y-89714250D01*
X99673750Y-89873000D01*
X101023000Y-89873000D01*
X101023000Y-87623750D01*
X101277000Y-87623750D01*
X101277000Y-89873000D01*
X102626250Y-89873000D01*
X102785000Y-89714250D01*
X102785000Y-87973690D01*
X102688327Y-87740301D01*
X102509698Y-87561673D01*
X102276309Y-87465000D01*
X101435750Y-87465000D01*
X101277000Y-87623750D01*
X101023000Y-87623750D01*
X100864250Y-87465000D01*
X100023691Y-87465000D01*
X99790302Y-87561673D01*
X99611673Y-87740301D01*
X99515000Y-87973690D01*
X96497440Y-87973690D01*
X96497440Y-87374850D01*
X97161145Y-86711145D01*
X97328954Y-86460000D01*
X108919727Y-86460000D01*
X109035735Y-87043210D01*
X109366096Y-87537631D01*
X109860517Y-87867992D01*
X110443727Y-87984000D01*
X112316273Y-87984000D01*
X112899483Y-87867992D01*
X113393904Y-87537631D01*
X113724265Y-87043210D01*
X113840273Y-86460000D01*
X113724265Y-85876790D01*
X113393904Y-85382369D01*
X112899483Y-85052008D01*
X112316273Y-84936000D01*
X110443727Y-84936000D01*
X109860517Y-85052008D01*
X109366096Y-85382369D01*
X109035735Y-85876790D01*
X108919727Y-86460000D01*
X97328954Y-86460000D01*
X97363827Y-86407809D01*
X97435000Y-86050000D01*
X97435000Y-84422038D01*
X97535317Y-84403162D01*
X97751441Y-84264090D01*
X97896431Y-84051890D01*
X97905370Y-84007745D01*
X98171861Y-84007745D01*
X98245995Y-84253864D01*
X98783223Y-84446965D01*
X99353454Y-84419778D01*
X99754005Y-84253864D01*
X99828139Y-84007745D01*
X99000000Y-83179605D01*
X98171861Y-84007745D01*
X97905370Y-84007745D01*
X97944646Y-83813799D01*
X97992255Y-83828139D01*
X98820395Y-83000000D01*
X99179605Y-83000000D01*
X100007745Y-83828139D01*
X100253864Y-83754005D01*
X100446965Y-83216777D01*
X100419778Y-82646546D01*
X100253864Y-82245995D01*
X100007745Y-82171861D01*
X99179605Y-83000000D01*
X98820395Y-83000000D01*
X97992255Y-82171861D01*
X97944833Y-82186145D01*
X97908351Y-81992255D01*
X98171861Y-81992255D01*
X99000000Y-82820395D01*
X99828139Y-81992255D01*
X99754005Y-81746136D01*
X99216777Y-81553035D01*
X98646546Y-81580222D01*
X98245995Y-81746136D01*
X98171861Y-81992255D01*
X97908351Y-81992255D01*
X97903162Y-81964683D01*
X97764090Y-81748559D01*
X97551890Y-81603569D01*
X97300000Y-81552560D01*
X95700000Y-81552560D01*
X95464683Y-81596838D01*
X95248559Y-81735910D01*
X95103569Y-81948110D01*
X95052560Y-82200000D01*
X95052560Y-83800000D01*
X95096838Y-84035317D01*
X95235910Y-84251441D01*
X95448110Y-84396431D01*
X95565000Y-84420102D01*
X95565000Y-85662710D01*
X94925150Y-86302560D01*
X93850000Y-86302560D01*
X93614683Y-86346838D01*
X93398559Y-86485910D01*
X93253569Y-86698110D01*
X93202560Y-86950000D01*
X78710000Y-86950000D01*
X78710000Y-81364740D01*
X81428964Y-81364740D01*
X81607760Y-81796417D01*
X82012424Y-82237966D01*
X82555258Y-82491046D01*
X82793000Y-82370997D01*
X82793000Y-81127000D01*
X81549622Y-81127000D01*
X81428964Y-81364740D01*
X78710000Y-81364740D01*
X78710000Y-80635260D01*
X81428964Y-80635260D01*
X81549622Y-80873000D01*
X82793000Y-80873000D01*
X82793000Y-79629003D01*
X83047000Y-79629003D01*
X83047000Y-80873000D01*
X83067000Y-80873000D01*
X83067000Y-81127000D01*
X83047000Y-81127000D01*
X83047000Y-82370997D01*
X83284742Y-82491046D01*
X83827576Y-82237966D01*
X84185499Y-81847418D01*
X84344519Y-82085409D01*
X84842509Y-82418155D01*
X85429928Y-82535000D01*
X85490072Y-82535000D01*
X86077491Y-82418155D01*
X86498026Y-82137163D01*
X86635910Y-82351441D01*
X86848110Y-82496431D01*
X87100000Y-82547440D01*
X88900000Y-82547440D01*
X89135317Y-82503162D01*
X89351441Y-82364090D01*
X89496431Y-82151890D01*
X89547440Y-81900000D01*
X89547440Y-80694200D01*
X115126760Y-80694200D01*
X115126760Y-87145800D01*
X115171038Y-87381117D01*
X115310110Y-87597241D01*
X115522310Y-87742231D01*
X115774200Y-87793240D01*
X122225800Y-87793240D01*
X122461117Y-87748962D01*
X122677241Y-87609890D01*
X122822231Y-87397690D01*
X122873240Y-87145800D01*
X122873240Y-86460000D01*
X124032727Y-86460000D01*
X124148735Y-87043210D01*
X124479096Y-87537631D01*
X124780116Y-87738766D01*
X124436567Y-88012171D01*
X124147407Y-88534122D01*
X124123866Y-88636987D01*
X124244670Y-88873000D01*
X126366000Y-88873000D01*
X126366000Y-88853000D01*
X126620000Y-88853000D01*
X126620000Y-88873000D01*
X128741330Y-88873000D01*
X128862134Y-88636987D01*
X128838593Y-88534122D01*
X128549433Y-88012171D01*
X128205884Y-87738766D01*
X128506904Y-87537631D01*
X128837265Y-87043210D01*
X128953273Y-86460000D01*
X128837265Y-85876790D01*
X128506904Y-85382369D01*
X128012483Y-85052008D01*
X127429273Y-84936000D01*
X125556727Y-84936000D01*
X124973517Y-85052008D01*
X124479096Y-85382369D01*
X124148735Y-85876790D01*
X124032727Y-86460000D01*
X122873240Y-86460000D01*
X122873240Y-80694200D01*
X122828962Y-80458883D01*
X122689890Y-80242759D01*
X122477690Y-80097769D01*
X122225800Y-80046760D01*
X115774200Y-80046760D01*
X115538883Y-80091038D01*
X115322759Y-80230110D01*
X115177769Y-80442310D01*
X115126760Y-80694200D01*
X89547440Y-80694200D01*
X89547440Y-80100000D01*
X89503162Y-79864683D01*
X89364090Y-79648559D01*
X89151890Y-79503569D01*
X88900000Y-79452560D01*
X87100000Y-79452560D01*
X86864683Y-79496838D01*
X86648559Y-79635910D01*
X86503569Y-79848110D01*
X86500281Y-79864344D01*
X86077491Y-79581845D01*
X85490072Y-79465000D01*
X85429928Y-79465000D01*
X84842509Y-79581845D01*
X84344519Y-79914591D01*
X84185499Y-80152582D01*
X83827576Y-79762034D01*
X83284742Y-79508954D01*
X83047000Y-79629003D01*
X82793000Y-79629003D01*
X82555258Y-79508954D01*
X82012424Y-79762034D01*
X81607760Y-80203583D01*
X81428964Y-80635260D01*
X78710000Y-80635260D01*
X78710000Y-74377265D01*
X82095950Y-74377265D01*
X82385358Y-75077686D01*
X82920775Y-75614039D01*
X83620690Y-75904668D01*
X84378545Y-75905330D01*
X85078966Y-75615922D01*
X85615319Y-75080505D01*
X85905948Y-74380590D01*
X85905950Y-74377265D01*
X87094670Y-74377265D01*
X87384078Y-75077686D01*
X87919495Y-75614039D01*
X88619410Y-75904668D01*
X89377265Y-75905330D01*
X90077686Y-75615922D01*
X90614039Y-75080505D01*
X90904668Y-74380590D01*
X90904670Y-74377265D01*
X92094690Y-74377265D01*
X92384098Y-75077686D01*
X92919515Y-75614039D01*
X93619430Y-75904668D01*
X94377285Y-75905330D01*
X95077706Y-75615922D01*
X95346319Y-75347777D01*
X97833108Y-75347777D01*
X97964800Y-75642657D01*
X98672316Y-75914261D01*
X99429912Y-75894436D01*
X100037760Y-75642657D01*
X100169452Y-75347777D01*
X99001280Y-74179605D01*
X97833108Y-75347777D01*
X95346319Y-75347777D01*
X95614059Y-75080505D01*
X95904688Y-74380590D01*
X95905307Y-73671036D01*
X97087019Y-73671036D01*
X97106844Y-74428632D01*
X97358623Y-75036480D01*
X97653503Y-75168172D01*
X98821675Y-74000000D01*
X99180885Y-74000000D01*
X100349057Y-75168172D01*
X100643937Y-75036480D01*
X100896999Y-74377265D01*
X102094670Y-74377265D01*
X102384078Y-75077686D01*
X102919495Y-75614039D01*
X103619410Y-75904668D01*
X104377265Y-75905330D01*
X105077686Y-75615922D01*
X105614039Y-75080505D01*
X105904668Y-74380590D01*
X105904670Y-74377265D01*
X107095950Y-74377265D01*
X107385358Y-75077686D01*
X107920775Y-75614039D01*
X108620690Y-75904668D01*
X109378545Y-75905330D01*
X110078966Y-75615922D01*
X110615319Y-75080505D01*
X110905948Y-74380590D01*
X110905950Y-74377265D01*
X112094670Y-74377265D01*
X112384078Y-75077686D01*
X112919495Y-75614039D01*
X113619410Y-75904668D01*
X114377265Y-75905330D01*
X115077686Y-75615922D01*
X115614039Y-75080505D01*
X115904668Y-74380590D01*
X115904670Y-74377265D01*
X117095950Y-74377265D01*
X117385358Y-75077686D01*
X117920775Y-75614039D01*
X118620690Y-75904668D01*
X119378545Y-75905330D01*
X120078966Y-75615922D01*
X120347579Y-75347777D01*
X122831828Y-75347777D01*
X122963520Y-75642657D01*
X123671036Y-75914261D01*
X124428632Y-75894436D01*
X125036480Y-75642657D01*
X125168172Y-75347777D01*
X124000000Y-74179605D01*
X122831828Y-75347777D01*
X120347579Y-75347777D01*
X120615319Y-75080505D01*
X120905948Y-74380590D01*
X120906567Y-73671036D01*
X122085739Y-73671036D01*
X122105564Y-74428632D01*
X122357343Y-75036480D01*
X122652223Y-75168172D01*
X123820395Y-74000000D01*
X124179605Y-74000000D01*
X125347777Y-75168172D01*
X125642657Y-75036480D01*
X125791020Y-74650000D01*
X127502560Y-74650000D01*
X127502560Y-76350000D01*
X127546838Y-76585317D01*
X127685910Y-76801441D01*
X127898110Y-76946431D01*
X128150000Y-76997440D01*
X129850000Y-76997440D01*
X130085317Y-76953162D01*
X130301441Y-76814090D01*
X130446431Y-76601890D01*
X130468301Y-76493893D01*
X130773076Y-76771645D01*
X131183110Y-76941476D01*
X131413000Y-76820155D01*
X131413000Y-75627000D01*
X131393000Y-75627000D01*
X131393000Y-75373000D01*
X131413000Y-75373000D01*
X131413000Y-74179845D01*
X131183110Y-74058524D01*
X130773076Y-74228355D01*
X130470063Y-74504501D01*
X130453162Y-74414683D01*
X130314090Y-74198559D01*
X130101890Y-74053569D01*
X129850000Y-74002560D01*
X128150000Y-74002560D01*
X127914683Y-74046838D01*
X127698559Y-74185910D01*
X127553569Y-74398110D01*
X127502560Y-74650000D01*
X125791020Y-74650000D01*
X125914261Y-74328964D01*
X125894436Y-73571368D01*
X125642657Y-72963520D01*
X125347777Y-72831828D01*
X124179605Y-74000000D01*
X123820395Y-74000000D01*
X122652223Y-72831828D01*
X122357343Y-72963520D01*
X122085739Y-73671036D01*
X120906567Y-73671036D01*
X120906610Y-73622735D01*
X120617202Y-72922314D01*
X120347583Y-72652223D01*
X122831828Y-72652223D01*
X124000000Y-73820395D01*
X125168172Y-72652223D01*
X125036480Y-72357343D01*
X124328964Y-72085739D01*
X123571368Y-72105564D01*
X122963520Y-72357343D01*
X122831828Y-72652223D01*
X120347583Y-72652223D01*
X120081785Y-72385961D01*
X119381870Y-72095332D01*
X118624015Y-72094670D01*
X117923594Y-72384078D01*
X117387241Y-72919495D01*
X117096612Y-73619410D01*
X117095950Y-74377265D01*
X115904670Y-74377265D01*
X115905330Y-73622735D01*
X115615922Y-72922314D01*
X115080505Y-72385961D01*
X114380590Y-72095332D01*
X113622735Y-72094670D01*
X112922314Y-72384078D01*
X112385961Y-72919495D01*
X112095332Y-73619410D01*
X112094670Y-74377265D01*
X110905950Y-74377265D01*
X110906610Y-73622735D01*
X110617202Y-72922314D01*
X110081785Y-72385961D01*
X109381870Y-72095332D01*
X108624015Y-72094670D01*
X107923594Y-72384078D01*
X107387241Y-72919495D01*
X107096612Y-73619410D01*
X107095950Y-74377265D01*
X105904670Y-74377265D01*
X105905330Y-73622735D01*
X105615922Y-72922314D01*
X105080505Y-72385961D01*
X104380590Y-72095332D01*
X103622735Y-72094670D01*
X102922314Y-72384078D01*
X102385961Y-72919495D01*
X102095332Y-73619410D01*
X102094670Y-74377265D01*
X100896999Y-74377265D01*
X100915541Y-74328964D01*
X100895716Y-73571368D01*
X100643937Y-72963520D01*
X100349057Y-72831828D01*
X99180885Y-74000000D01*
X98821675Y-74000000D01*
X97653503Y-72831828D01*
X97358623Y-72963520D01*
X97087019Y-73671036D01*
X95905307Y-73671036D01*
X95905350Y-73622735D01*
X95615942Y-72922314D01*
X95346323Y-72652223D01*
X97833108Y-72652223D01*
X99001280Y-73820395D01*
X100169452Y-72652223D01*
X100037760Y-72357343D01*
X99330244Y-72085739D01*
X98572648Y-72105564D01*
X97964800Y-72357343D01*
X97833108Y-72652223D01*
X95346323Y-72652223D01*
X95080525Y-72385961D01*
X94380610Y-72095332D01*
X93622755Y-72094670D01*
X92922334Y-72384078D01*
X92385981Y-72919495D01*
X92095352Y-73619410D01*
X92094690Y-74377265D01*
X90904670Y-74377265D01*
X90905330Y-73622735D01*
X90615922Y-72922314D01*
X90080505Y-72385961D01*
X89380590Y-72095332D01*
X88622735Y-72094670D01*
X87922314Y-72384078D01*
X87385961Y-72919495D01*
X87095332Y-73619410D01*
X87094670Y-74377265D01*
X85905950Y-74377265D01*
X85906610Y-73622735D01*
X85617202Y-72922314D01*
X85081785Y-72385961D01*
X84381870Y-72095332D01*
X83624015Y-72094670D01*
X82923594Y-72384078D01*
X82387241Y-72919495D01*
X82096612Y-73619410D01*
X82095950Y-74377265D01*
X78710000Y-74377265D01*
X78710000Y-64403690D01*
X141015000Y-64403690D01*
X141015000Y-65094250D01*
X141173750Y-65253000D01*
X142373000Y-65253000D01*
X142373000Y-64053750D01*
X142627000Y-64053750D01*
X142627000Y-65253000D01*
X143826250Y-65253000D01*
X143985000Y-65094250D01*
X143985000Y-64403690D01*
X143888327Y-64170301D01*
X143709698Y-63991673D01*
X143476309Y-63895000D01*
X142785750Y-63895000D01*
X142627000Y-64053750D01*
X142373000Y-64053750D01*
X142214250Y-63895000D01*
X141523691Y-63895000D01*
X141290302Y-63991673D01*
X141111673Y-64170301D01*
X141015000Y-64403690D01*
X78710000Y-64403690D01*
X78710000Y-62710000D01*
X157290000Y-62710000D01*
X157290000Y-85022029D01*
X157290000Y-85022029D01*
G37*
X157290000Y-85022029D02*
X157261166Y-84978876D01*
X156491436Y-84209146D01*
X156360327Y-84077808D01*
X156016799Y-83935162D01*
X155935000Y-83935091D01*
X155935000Y-82500816D01*
X155935162Y-82314833D01*
X155793117Y-81971057D01*
X155530327Y-81707808D01*
X155186799Y-81565162D01*
X154814833Y-81564838D01*
X154471057Y-81706883D01*
X154435000Y-81742877D01*
X154435000Y-79099507D01*
X154902622Y-79411961D01*
X155470907Y-79525000D01*
X155529093Y-79525000D01*
X156097378Y-79411961D01*
X156579147Y-79090054D01*
X156901054Y-78608285D01*
X157014093Y-78040000D01*
X156901054Y-77471715D01*
X156579147Y-76989946D01*
X156249974Y-76770000D01*
X156579147Y-76550054D01*
X156901054Y-76068285D01*
X157014093Y-75500000D01*
X156901054Y-74931715D01*
X156579147Y-74449946D01*
X156249974Y-74230000D01*
X156579147Y-74010054D01*
X156901054Y-73528285D01*
X157014093Y-72960000D01*
X156901054Y-72391715D01*
X156579147Y-71909946D01*
X156249974Y-71690000D01*
X156579147Y-71470054D01*
X156901054Y-70988285D01*
X157014093Y-70420000D01*
X156901054Y-69851715D01*
X156579147Y-69369946D01*
X156535223Y-69340597D01*
X156709698Y-69268327D01*
X156888327Y-69089699D01*
X156985000Y-68856310D01*
X156985000Y-68165750D01*
X156826250Y-68007000D01*
X155627000Y-68007000D01*
X155627000Y-68027000D01*
X155373000Y-68027000D01*
X155373000Y-68007000D01*
X154173750Y-68007000D01*
X154015000Y-68165750D01*
X154015000Y-68856310D01*
X154111673Y-69089699D01*
X154290302Y-69268327D01*
X154464777Y-69340597D01*
X154420853Y-69369946D01*
X154343977Y-69485000D01*
X154080000Y-69485000D01*
X153722191Y-69556173D01*
X153418855Y-69758855D01*
X150838855Y-72338855D01*
X150636173Y-72642191D01*
X150565000Y-73000000D01*
X150565000Y-83999184D01*
X150564838Y-84185167D01*
X150706883Y-84528943D01*
X150969673Y-84792192D01*
X151313201Y-84934838D01*
X151685167Y-84935162D01*
X151764990Y-84902180D01*
X151764990Y-85831374D01*
X151836163Y-86189183D01*
X152038845Y-86492519D01*
X152048886Y-86502560D01*
X151500000Y-86502560D01*
X151396329Y-86522067D01*
X151300000Y-86502560D01*
X150700000Y-86502560D01*
X150596329Y-86522067D01*
X150500000Y-86502560D01*
X149969730Y-86502560D01*
X150161145Y-86311145D01*
X150363827Y-86007809D01*
X150435000Y-85650000D01*
X150435000Y-70500000D01*
X150363827Y-70142191D01*
X150161145Y-69838855D01*
X147581145Y-67258855D01*
X147277809Y-67056173D01*
X146920000Y-66985000D01*
X143656023Y-66985000D01*
X143601694Y-66903690D01*
X154015000Y-66903690D01*
X154015000Y-67594250D01*
X154173750Y-67753000D01*
X155373000Y-67753000D01*
X155373000Y-66553750D01*
X155627000Y-66553750D01*
X155627000Y-67753000D01*
X156826250Y-67753000D01*
X156985000Y-67594250D01*
X156985000Y-66903690D01*
X156888327Y-66670301D01*
X156709698Y-66491673D01*
X156476309Y-66395000D01*
X155785750Y-66395000D01*
X155627000Y-66553750D01*
X155373000Y-66553750D01*
X155214250Y-66395000D01*
X154523691Y-66395000D01*
X154290302Y-66491673D01*
X154111673Y-66670301D01*
X154015000Y-66903690D01*
X143601694Y-66903690D01*
X143579147Y-66869946D01*
X143535223Y-66840597D01*
X143709698Y-66768327D01*
X143888327Y-66589699D01*
X143985000Y-66356310D01*
X143985000Y-65665750D01*
X143826250Y-65507000D01*
X142627000Y-65507000D01*
X142627000Y-65527000D01*
X142373000Y-65527000D01*
X142373000Y-65507000D01*
X141173750Y-65507000D01*
X141015000Y-65665750D01*
X141015000Y-66356310D01*
X141111673Y-66589699D01*
X141290302Y-66768327D01*
X141464777Y-66840597D01*
X141420853Y-66869946D01*
X141098946Y-67351715D01*
X140985907Y-67920000D01*
X141098946Y-68488285D01*
X141420853Y-68970054D01*
X141750026Y-69190000D01*
X141420853Y-69409946D01*
X141098946Y-69891715D01*
X140985907Y-70460000D01*
X141098946Y-71028285D01*
X141420853Y-71510054D01*
X141750026Y-71730000D01*
X141420853Y-71949946D01*
X141098946Y-72431715D01*
X140985907Y-73000000D01*
X141098946Y-73568285D01*
X141420853Y-74050054D01*
X141750026Y-74270000D01*
X141420853Y-74489946D01*
X141098946Y-74971715D01*
X140985907Y-75540000D01*
X141098946Y-76108285D01*
X141420853Y-76590054D01*
X141750026Y-76810000D01*
X141420853Y-77029946D01*
X141098946Y-77511715D01*
X140985907Y-78080000D01*
X141098946Y-78648285D01*
X141420853Y-79130054D01*
X141902622Y-79451961D01*
X142470907Y-79565000D01*
X142529093Y-79565000D01*
X143097378Y-79451961D01*
X143579147Y-79130054D01*
X143901054Y-78648285D01*
X144014093Y-78080000D01*
X143901054Y-77511715D01*
X143579147Y-77029946D01*
X143249974Y-76810000D01*
X143579147Y-76590054D01*
X143901054Y-76108285D01*
X144014093Y-75540000D01*
X143901054Y-74971715D01*
X143579147Y-74489946D01*
X143249974Y-74270000D01*
X143579147Y-74050054D01*
X143656023Y-73935000D01*
X144612710Y-73935000D01*
X146565000Y-75887290D01*
X146565000Y-81265000D01*
X146285750Y-81265000D01*
X146127000Y-81423750D01*
X146127000Y-82523000D01*
X146147000Y-82523000D01*
X146147000Y-82777000D01*
X146127000Y-82777000D01*
X146127000Y-82797000D01*
X145873000Y-82797000D01*
X145873000Y-82777000D01*
X144873750Y-82777000D01*
X144715000Y-82935750D01*
X144715000Y-83526309D01*
X144811673Y-83759698D01*
X144990301Y-83938327D01*
X145126287Y-83994654D01*
X145114683Y-83996838D01*
X144898559Y-84135910D01*
X144753569Y-84348110D01*
X144702560Y-84600000D01*
X144702560Y-86100000D01*
X144746838Y-86335317D01*
X144885910Y-86551441D01*
X145098110Y-86696431D01*
X145350000Y-86747440D01*
X145404535Y-86747440D01*
X145361673Y-86790302D01*
X145265000Y-87023691D01*
X145265000Y-87464250D01*
X145423750Y-87623000D01*
X146052560Y-87623000D01*
X146052560Y-87877000D01*
X145423750Y-87877000D01*
X145265000Y-88035750D01*
X145265000Y-88252560D01*
X144824850Y-88252560D01*
X143916300Y-87344010D01*
X143935000Y-87250000D01*
X143935000Y-86555105D01*
X144076441Y-86464090D01*
X144221431Y-86251890D01*
X144272440Y-86000000D01*
X144272440Y-84500000D01*
X144228162Y-84264683D01*
X144089090Y-84048559D01*
X144020994Y-84002031D01*
X144163327Y-83859698D01*
X144260000Y-83626309D01*
X144260000Y-83035750D01*
X144101250Y-82877000D01*
X143127000Y-82877000D01*
X143127000Y-82897000D01*
X142873000Y-82897000D01*
X142873000Y-82877000D01*
X141898750Y-82877000D01*
X141740000Y-83035750D01*
X141740000Y-83626309D01*
X141836673Y-83859698D01*
X141977910Y-84000936D01*
X141923559Y-84035910D01*
X141778569Y-84248110D01*
X141727560Y-84500000D01*
X141727560Y-85188252D01*
X141661145Y-85088855D01*
X140647440Y-84075150D01*
X140647440Y-83375000D01*
X140603162Y-83139683D01*
X140464090Y-82923559D01*
X140251890Y-82778569D01*
X140000000Y-82727560D01*
X138500000Y-82727560D01*
X138264683Y-82771838D01*
X138048559Y-82910910D01*
X138002031Y-82979006D01*
X137859698Y-82836673D01*
X137626309Y-82740000D01*
X137035750Y-82740000D01*
X136877000Y-82898750D01*
X136877000Y-83873000D01*
X136897000Y-83873000D01*
X136897000Y-84127000D01*
X136877000Y-84127000D01*
X136877000Y-85101250D01*
X137035750Y-85260000D01*
X137626309Y-85260000D01*
X137859698Y-85163327D01*
X138000936Y-85022090D01*
X138035910Y-85076441D01*
X138248110Y-85221431D01*
X138500000Y-85272440D01*
X139200150Y-85272440D01*
X140065000Y-86137290D01*
X140065000Y-86329636D01*
X140038355Y-86356235D01*
X139865197Y-86773244D01*
X139864803Y-87224775D01*
X140037233Y-87642086D01*
X140344867Y-87950257D01*
X140038355Y-88256235D01*
X139943827Y-88483883D01*
X138075150Y-90352560D01*
X137375000Y-90352560D01*
X137139683Y-90396838D01*
X136923559Y-90535910D01*
X136852334Y-90640151D01*
X136660327Y-90447808D01*
X136316799Y-90305162D01*
X135944833Y-90304838D01*
X135944441Y-90305000D01*
X135918674Y-90305000D01*
X135065000Y-89451326D01*
X135065000Y-84285750D01*
X135365000Y-84285750D01*
X135365000Y-84751310D01*
X135461673Y-84984699D01*
X135640302Y-85163327D01*
X135873691Y-85260000D01*
X136464250Y-85260000D01*
X136623000Y-85101250D01*
X136623000Y-84127000D01*
X135523750Y-84127000D01*
X135365000Y-84285750D01*
X135065000Y-84285750D01*
X135065000Y-83248690D01*
X135365000Y-83248690D01*
X135365000Y-83714250D01*
X135523750Y-83873000D01*
X136623000Y-83873000D01*
X136623000Y-82898750D01*
X136464250Y-82740000D01*
X135873691Y-82740000D01*
X135640302Y-82836673D01*
X135461673Y-83015301D01*
X135365000Y-83248690D01*
X135065000Y-83248690D01*
X135065000Y-81873691D01*
X141740000Y-81873691D01*
X141740000Y-82464250D01*
X141898750Y-82623000D01*
X142873000Y-82623000D01*
X142873000Y-81523750D01*
X143127000Y-81523750D01*
X143127000Y-82623000D01*
X144101250Y-82623000D01*
X144260000Y-82464250D01*
X144260000Y-81873691D01*
X144218579Y-81773691D01*
X144715000Y-81773691D01*
X144715000Y-82364250D01*
X144873750Y-82523000D01*
X145873000Y-82523000D01*
X145873000Y-81423750D01*
X145714250Y-81265000D01*
X145223690Y-81265000D01*
X144990301Y-81361673D01*
X144811673Y-81540302D01*
X144715000Y-81773691D01*
X144218579Y-81773691D01*
X144163327Y-81640302D01*
X143984699Y-81461673D01*
X143751310Y-81365000D01*
X143285750Y-81365000D01*
X143127000Y-81523750D01*
X142873000Y-81523750D01*
X142714250Y-81365000D01*
X142248690Y-81365000D01*
X142015301Y-81461673D01*
X141836673Y-81640302D01*
X141740000Y-81873691D01*
X135065000Y-81873691D01*
X135065000Y-80079371D01*
X137281145Y-77863226D01*
X137483827Y-77559890D01*
X137555000Y-77202081D01*
X137555000Y-76656023D01*
X137670054Y-76579147D01*
X137991961Y-76097378D01*
X138105000Y-75529093D01*
X138105000Y-75470907D01*
X137991961Y-74902622D01*
X137670054Y-74420853D01*
X137188285Y-74098946D01*
X136620000Y-73985907D01*
X136051715Y-74098946D01*
X135569946Y-74420853D01*
X135350000Y-74750026D01*
X135130054Y-74420853D01*
X134648285Y-74098946D01*
X134080000Y-73985907D01*
X133511715Y-74098946D01*
X133029946Y-74420853D01*
X132802298Y-74761553D01*
X132735183Y-74618642D01*
X132306924Y-74228355D01*
X131896890Y-74058524D01*
X131667000Y-74179845D01*
X131667000Y-75373000D01*
X131687000Y-75373000D01*
X131687000Y-75627000D01*
X131667000Y-75627000D01*
X131667000Y-76820155D01*
X131896890Y-76941476D01*
X132306924Y-76771645D01*
X132311398Y-76767568D01*
X132295001Y-76849999D01*
X132295001Y-90070001D01*
X132366174Y-90427810D01*
X132568856Y-90731146D01*
X134548564Y-92710854D01*
X134679673Y-92842192D01*
X135023201Y-92984838D01*
X135395167Y-92985162D01*
X135738943Y-92843117D01*
X136002192Y-92580327D01*
X136144838Y-92236799D01*
X136144892Y-92175014D01*
X136315167Y-92175162D01*
X136658943Y-92033117D01*
X136727560Y-91964620D01*
X136727560Y-92500000D01*
X136771838Y-92735317D01*
X136910910Y-92951441D01*
X136979006Y-92997969D01*
X136836673Y-93140302D01*
X136740000Y-93373691D01*
X136740000Y-93964250D01*
X136898750Y-94123000D01*
X137873000Y-94123000D01*
X137873000Y-94103000D01*
X138127000Y-94103000D01*
X138127000Y-94123000D01*
X139101250Y-94123000D01*
X139260000Y-93964250D01*
X139260000Y-93373691D01*
X139163327Y-93140302D01*
X139022090Y-92999064D01*
X139076441Y-92964090D01*
X139221431Y-92751890D01*
X139272440Y-92500000D01*
X139272440Y-91799850D01*
X139727560Y-91344730D01*
X139727560Y-92500000D01*
X139771838Y-92735317D01*
X139910910Y-92951441D01*
X139979006Y-92997969D01*
X139836673Y-93140302D01*
X139740000Y-93373691D01*
X139740000Y-93964250D01*
X139898750Y-94123000D01*
X140873000Y-94123000D01*
X140873000Y-94103000D01*
X141127000Y-94103000D01*
X141127000Y-94123000D01*
X142101250Y-94123000D01*
X142260000Y-93964250D01*
X142260000Y-93373691D01*
X142163327Y-93140302D01*
X142022090Y-92999064D01*
X142076441Y-92964090D01*
X142221431Y-92751890D01*
X142265352Y-92535000D01*
X143502560Y-92535000D01*
X143502560Y-92700000D01*
X143522067Y-92803671D01*
X143502560Y-92900000D01*
X143502560Y-93074436D01*
X143192191Y-93136173D01*
X142888855Y-93338855D01*
X142638855Y-93588855D01*
X142436173Y-93892191D01*
X142365000Y-94250000D01*
X142365000Y-97139158D01*
X142186799Y-97065162D01*
X141935000Y-97064943D01*
X141935000Y-97000816D01*
X141935162Y-96814833D01*
X141793117Y-96471057D01*
X141530327Y-96207808D01*
X141186799Y-96065162D01*
X140814833Y-96064838D01*
X140471057Y-96206883D01*
X140207808Y-96469673D01*
X140065162Y-96813201D01*
X140064838Y-97185167D01*
X140065000Y-97185559D01*
X140065000Y-98600000D01*
X140136173Y-98957809D01*
X140338855Y-99261145D01*
X141538865Y-100461155D01*
X141842201Y-100663837D01*
X142200010Y-100735010D01*
X147299988Y-100735010D01*
X147657797Y-100663837D01*
X147961133Y-100461155D01*
X149365000Y-99057289D01*
X149365000Y-99127002D01*
X149523748Y-99127002D01*
X149365000Y-99285750D01*
X149365000Y-99751310D01*
X149461673Y-99984699D01*
X149640302Y-100163327D01*
X149873691Y-100260000D01*
X150464250Y-100260000D01*
X150623000Y-100101250D01*
X150623000Y-99127000D01*
X150603000Y-99127000D01*
X150603000Y-98873000D01*
X150623000Y-98873000D01*
X150623000Y-97898750D01*
X150464250Y-97740000D01*
X150327043Y-97740000D01*
X150335000Y-97700000D01*
X150335000Y-97497440D01*
X150500000Y-97497440D01*
X150603671Y-97477933D01*
X150700000Y-97497440D01*
X151300000Y-97497440D01*
X151371323Y-97484020D01*
X151373690Y-97485000D01*
X151514250Y-97485000D01*
X151565529Y-97433721D01*
X151751441Y-97314090D01*
X151896431Y-97101890D01*
X151927000Y-96950936D01*
X151927000Y-97326250D01*
X152085750Y-97485000D01*
X152226310Y-97485000D01*
X152315000Y-97448263D01*
X152315000Y-97762370D01*
X152264683Y-97771838D01*
X152048559Y-97910910D01*
X152002031Y-97979006D01*
X151859698Y-97836673D01*
X151626309Y-97740000D01*
X151035750Y-97740000D01*
X150877000Y-97898750D01*
X150877000Y-98873000D01*
X150897000Y-98873000D01*
X150897000Y-99127000D01*
X150877000Y-99127000D01*
X150877000Y-100101250D01*
X151035750Y-100260000D01*
X151626309Y-100260000D01*
X151859698Y-100163327D01*
X152000936Y-100022090D01*
X152035910Y-100076441D01*
X152248110Y-100221431D01*
X152500000Y-100272440D01*
X154000000Y-100272440D01*
X154235317Y-100228162D01*
X154451441Y-100089090D01*
X154596431Y-99876890D01*
X154647440Y-99625000D01*
X154647440Y-98375000D01*
X154603162Y-98139683D01*
X154464090Y-97923559D01*
X154251890Y-97778569D01*
X154185000Y-97765023D01*
X154185000Y-95639018D01*
X154301441Y-95564090D01*
X154446431Y-95351890D01*
X154497440Y-95100000D01*
X154497440Y-94934999D01*
X154612709Y-94934999D01*
X155338564Y-95660854D01*
X155469673Y-95792192D01*
X155813201Y-95934838D01*
X156185167Y-95935162D01*
X156528943Y-95793117D01*
X156792192Y-95530327D01*
X156934838Y-95186799D01*
X156935162Y-94814833D01*
X156793117Y-94471057D01*
X156530327Y-94207808D01*
X156529935Y-94207645D01*
X155661144Y-93338854D01*
X155357808Y-93136172D01*
X154999999Y-93064999D01*
X154497440Y-93064999D01*
X154497440Y-92900000D01*
X154477933Y-92796329D01*
X154497440Y-92700000D01*
X154497440Y-92535000D01*
X156600000Y-92535000D01*
X156957809Y-92463827D01*
X157261145Y-92261145D01*
X157290000Y-92217960D01*
X157290000Y-101290000D01*
X78710000Y-101290000D01*
X78710000Y-97660000D01*
X83028275Y-97660000D01*
X83209822Y-98572700D01*
X83726825Y-99346450D01*
X84500575Y-99863453D01*
X85413275Y-100045000D01*
X85506725Y-100045000D01*
X86419425Y-99863453D01*
X87193175Y-99346450D01*
X87710178Y-98572700D01*
X87891725Y-97660000D01*
X87710178Y-96747300D01*
X87193175Y-95973550D01*
X86419425Y-95456547D01*
X85506725Y-95275000D01*
X85413275Y-95275000D01*
X84500575Y-95456547D01*
X83726825Y-95973550D01*
X83209822Y-96747300D01*
X83028275Y-97660000D01*
X78710000Y-97660000D01*
X78710000Y-91550000D01*
X93202560Y-91550000D01*
X93202560Y-93050000D01*
X93246838Y-93285317D01*
X93385910Y-93501441D01*
X93598110Y-93646431D01*
X93850000Y-93697440D01*
X93915000Y-93697440D01*
X93915000Y-95850000D01*
X93986173Y-96207809D01*
X94188855Y-96511145D01*
X94552560Y-96874850D01*
X94552560Y-97800000D01*
X94596838Y-98035317D01*
X94735910Y-98251441D01*
X94948110Y-98396431D01*
X95200000Y-98447440D01*
X96800000Y-98447440D01*
X97035317Y-98403162D01*
X97251441Y-98264090D01*
X97396431Y-98051890D01*
X97405370Y-98007745D01*
X97671861Y-98007745D01*
X97745995Y-98253864D01*
X98283223Y-98446965D01*
X98853454Y-98419778D01*
X99254005Y-98253864D01*
X99328139Y-98007745D01*
X98500000Y-97179605D01*
X97671861Y-98007745D01*
X97405370Y-98007745D01*
X97444646Y-97813799D01*
X97492255Y-97828139D01*
X98320395Y-97000000D01*
X98679605Y-97000000D01*
X99507745Y-97828139D01*
X99753864Y-97754005D01*
X99946965Y-97216777D01*
X99933539Y-96935167D01*
X102814838Y-96935167D01*
X102956883Y-97278943D01*
X103219673Y-97542192D01*
X103563201Y-97684838D01*
X103935167Y-97685162D01*
X103935559Y-97685000D01*
X104728808Y-97685000D01*
X104835910Y-97851441D01*
X105048110Y-97996431D01*
X105300000Y-98047440D01*
X106800000Y-98047440D01*
X107035317Y-98003162D01*
X107251441Y-97864090D01*
X107396431Y-97651890D01*
X107403191Y-97618510D01*
X107461673Y-97759699D01*
X107640302Y-97938327D01*
X107873691Y-98035000D01*
X108464250Y-98035000D01*
X108623000Y-97876250D01*
X108623000Y-96877000D01*
X108877000Y-96877000D01*
X108877000Y-97876250D01*
X109035750Y-98035000D01*
X109626309Y-98035000D01*
X109859698Y-97938327D01*
X110038327Y-97759699D01*
X110135000Y-97526310D01*
X110135000Y-97035750D01*
X109976250Y-96877000D01*
X108877000Y-96877000D01*
X108623000Y-96877000D01*
X108603000Y-96877000D01*
X108603000Y-96623000D01*
X108623000Y-96623000D01*
X108623000Y-95623750D01*
X108877000Y-95623750D01*
X108877000Y-96623000D01*
X109976250Y-96623000D01*
X110135000Y-96464250D01*
X110135000Y-95973690D01*
X110038327Y-95740301D01*
X109859698Y-95561673D01*
X109626309Y-95465000D01*
X109035750Y-95465000D01*
X108877000Y-95623750D01*
X108623000Y-95623750D01*
X108464250Y-95465000D01*
X107873691Y-95465000D01*
X107640302Y-95561673D01*
X107461673Y-95740301D01*
X107405346Y-95876287D01*
X107403162Y-95864683D01*
X107264090Y-95648559D01*
X107051890Y-95503569D01*
X106800000Y-95452560D01*
X105300000Y-95452560D01*
X105064683Y-95496838D01*
X104848559Y-95635910D01*
X104726192Y-95815000D01*
X103750816Y-95815000D01*
X103564833Y-95814838D01*
X103221057Y-95956883D01*
X102957808Y-96219673D01*
X102815162Y-96563201D01*
X102814838Y-96935167D01*
X99933539Y-96935167D01*
X99919778Y-96646546D01*
X99753864Y-96245995D01*
X99507745Y-96171861D01*
X98679605Y-97000000D01*
X98320395Y-97000000D01*
X97492255Y-96171861D01*
X97444833Y-96186145D01*
X97408351Y-95992255D01*
X97671861Y-95992255D01*
X98500000Y-96820395D01*
X99328139Y-95992255D01*
X99254005Y-95746136D01*
X98716777Y-95553035D01*
X98146546Y-95580222D01*
X97745995Y-95746136D01*
X97671861Y-95992255D01*
X97408351Y-95992255D01*
X97403162Y-95964683D01*
X97264090Y-95748559D01*
X97051890Y-95603569D01*
X96800000Y-95552560D01*
X95874850Y-95552560D01*
X95785000Y-95462710D01*
X95785000Y-93697440D01*
X95850000Y-93697440D01*
X96085317Y-93653162D01*
X96301441Y-93514090D01*
X96446431Y-93301890D01*
X96497440Y-93050000D01*
X96497440Y-91550000D01*
X96453162Y-91314683D01*
X96347518Y-91150508D01*
X96388327Y-91109699D01*
X96485000Y-90876310D01*
X96485000Y-90285750D01*
X99515000Y-90285750D01*
X99515000Y-92026310D01*
X99611673Y-92259699D01*
X99790302Y-92438327D01*
X100023691Y-92535000D01*
X100864250Y-92535000D01*
X101023000Y-92376250D01*
X101023000Y-90127000D01*
X101277000Y-90127000D01*
X101277000Y-92376250D01*
X101435750Y-92535000D01*
X102276309Y-92535000D01*
X102509698Y-92438327D01*
X102688327Y-92259699D01*
X102785000Y-92026310D01*
X102785000Y-91903013D01*
X109010866Y-91903013D01*
X109034407Y-92005878D01*
X109323567Y-92527829D01*
X109790458Y-92899392D01*
X110364000Y-93064000D01*
X111253000Y-93064000D01*
X111253000Y-91667000D01*
X111507000Y-91667000D01*
X111507000Y-93064000D01*
X112396000Y-93064000D01*
X112969542Y-92899392D01*
X113436433Y-92527829D01*
X113725593Y-92005878D01*
X113749134Y-91903013D01*
X113628330Y-91667000D01*
X111507000Y-91667000D01*
X111253000Y-91667000D01*
X109131670Y-91667000D01*
X109010866Y-91903013D01*
X102785000Y-91903013D01*
X102785000Y-91176987D01*
X109010866Y-91176987D01*
X109131670Y-91413000D01*
X111253000Y-91413000D01*
X111253000Y-90016000D01*
X111507000Y-90016000D01*
X111507000Y-91413000D01*
X113628330Y-91413000D01*
X113749134Y-91176987D01*
X113725593Y-91074122D01*
X113603757Y-90854200D01*
X115126760Y-90854200D01*
X115126760Y-97305800D01*
X115171038Y-97541117D01*
X115310110Y-97757241D01*
X115522310Y-97902231D01*
X115774200Y-97953240D01*
X122225800Y-97953240D01*
X122461117Y-97908962D01*
X122677241Y-97769890D01*
X122822231Y-97557690D01*
X122873240Y-97305800D01*
X122873240Y-94535750D01*
X136740000Y-94535750D01*
X136740000Y-95126309D01*
X136836673Y-95359698D01*
X137015301Y-95538327D01*
X137248690Y-95635000D01*
X137714250Y-95635000D01*
X137873000Y-95476250D01*
X137873000Y-94377000D01*
X138127000Y-94377000D01*
X138127000Y-95476250D01*
X138285750Y-95635000D01*
X138751310Y-95635000D01*
X138984699Y-95538327D01*
X139163327Y-95359698D01*
X139260000Y-95126309D01*
X139260000Y-94535750D01*
X139740000Y-94535750D01*
X139740000Y-95126309D01*
X139836673Y-95359698D01*
X140015301Y-95538327D01*
X140248690Y-95635000D01*
X140714250Y-95635000D01*
X140873000Y-95476250D01*
X140873000Y-94377000D01*
X141127000Y-94377000D01*
X141127000Y-95476250D01*
X141285750Y-95635000D01*
X141751310Y-95635000D01*
X141984699Y-95538327D01*
X142163327Y-95359698D01*
X142260000Y-95126309D01*
X142260000Y-94535750D01*
X142101250Y-94377000D01*
X141127000Y-94377000D01*
X140873000Y-94377000D01*
X139898750Y-94377000D01*
X139740000Y-94535750D01*
X139260000Y-94535750D01*
X139101250Y-94377000D01*
X138127000Y-94377000D01*
X137873000Y-94377000D01*
X136898750Y-94377000D01*
X136740000Y-94535750D01*
X122873240Y-94535750D01*
X122873240Y-91540000D01*
X124032727Y-91540000D01*
X124148735Y-92123210D01*
X124479096Y-92617631D01*
X124973517Y-92947992D01*
X125556727Y-93064000D01*
X127429273Y-93064000D01*
X128012483Y-92947992D01*
X128506904Y-92617631D01*
X128837265Y-92123210D01*
X128953273Y-91540000D01*
X128837265Y-90956790D01*
X128506904Y-90462369D01*
X128205884Y-90261234D01*
X128549433Y-89987829D01*
X128838593Y-89465878D01*
X128862134Y-89363013D01*
X128741330Y-89127000D01*
X126620000Y-89127000D01*
X126620000Y-89147000D01*
X126366000Y-89147000D01*
X126366000Y-89127000D01*
X124244670Y-89127000D01*
X124123866Y-89363013D01*
X124147407Y-89465878D01*
X124436567Y-89987829D01*
X124780116Y-90261234D01*
X124479096Y-90462369D01*
X124148735Y-90956790D01*
X124032727Y-91540000D01*
X122873240Y-91540000D01*
X122873240Y-90854200D01*
X122828962Y-90618883D01*
X122689890Y-90402759D01*
X122477690Y-90257769D01*
X122225800Y-90206760D01*
X115774200Y-90206760D01*
X115538883Y-90251038D01*
X115322759Y-90390110D01*
X115177769Y-90602310D01*
X115126760Y-90854200D01*
X113603757Y-90854200D01*
X113436433Y-90552171D01*
X112969542Y-90180608D01*
X112396000Y-90016000D01*
X111507000Y-90016000D01*
X111253000Y-90016000D01*
X110364000Y-90016000D01*
X109790458Y-90180608D01*
X109323567Y-90552171D01*
X109034407Y-91074122D01*
X109010866Y-91176987D01*
X102785000Y-91176987D01*
X102785000Y-90285750D01*
X102626250Y-90127000D01*
X101277000Y-90127000D01*
X101023000Y-90127000D01*
X99673750Y-90127000D01*
X99515000Y-90285750D01*
X96485000Y-90285750D01*
X96326250Y-90127000D01*
X94977000Y-90127000D01*
X94977000Y-90147000D01*
X94723000Y-90147000D01*
X94723000Y-90127000D01*
X93373750Y-90127000D01*
X93215000Y-90285750D01*
X93215000Y-90876310D01*
X93311673Y-91109699D01*
X93353634Y-91151660D01*
X93253569Y-91298110D01*
X93202560Y-91550000D01*
X78710000Y-91550000D01*
X78710000Y-86950000D01*
X93202560Y-86950000D01*
X93202560Y-88450000D01*
X93246838Y-88685317D01*
X93352482Y-88849492D01*
X93311673Y-88890301D01*
X93215000Y-89123690D01*
X93215000Y-89714250D01*
X93373750Y-89873000D01*
X94723000Y-89873000D01*
X94723000Y-89853000D01*
X94977000Y-89853000D01*
X94977000Y-89873000D01*
X96326250Y-89873000D01*
X96485000Y-89714250D01*
X96485000Y-89123690D01*
X96388327Y-88890301D01*
X96346366Y-88848340D01*
X96446431Y-88701890D01*
X96497440Y-88450000D01*
X96497440Y-87973690D01*
X99515000Y-87973690D01*
X99515000Y-89714250D01*
X99673750Y-89873000D01*
X101023000Y-89873000D01*
X101023000Y-87623750D01*
X101277000Y-87623750D01*
X101277000Y-89873000D01*
X102626250Y-89873000D01*
X102785000Y-89714250D01*
X102785000Y-87973690D01*
X102688327Y-87740301D01*
X102509698Y-87561673D01*
X102276309Y-87465000D01*
X101435750Y-87465000D01*
X101277000Y-87623750D01*
X101023000Y-87623750D01*
X100864250Y-87465000D01*
X100023691Y-87465000D01*
X99790302Y-87561673D01*
X99611673Y-87740301D01*
X99515000Y-87973690D01*
X96497440Y-87973690D01*
X96497440Y-87374850D01*
X97161145Y-86711145D01*
X97328954Y-86460000D01*
X108919727Y-86460000D01*
X109035735Y-87043210D01*
X109366096Y-87537631D01*
X109860517Y-87867992D01*
X110443727Y-87984000D01*
X112316273Y-87984000D01*
X112899483Y-87867992D01*
X113393904Y-87537631D01*
X113724265Y-87043210D01*
X113840273Y-86460000D01*
X113724265Y-85876790D01*
X113393904Y-85382369D01*
X112899483Y-85052008D01*
X112316273Y-84936000D01*
X110443727Y-84936000D01*
X109860517Y-85052008D01*
X109366096Y-85382369D01*
X109035735Y-85876790D01*
X108919727Y-86460000D01*
X97328954Y-86460000D01*
X97363827Y-86407809D01*
X97435000Y-86050000D01*
X97435000Y-84422038D01*
X97535317Y-84403162D01*
X97751441Y-84264090D01*
X97896431Y-84051890D01*
X97905370Y-84007745D01*
X98171861Y-84007745D01*
X98245995Y-84253864D01*
X98783223Y-84446965D01*
X99353454Y-84419778D01*
X99754005Y-84253864D01*
X99828139Y-84007745D01*
X99000000Y-83179605D01*
X98171861Y-84007745D01*
X97905370Y-84007745D01*
X97944646Y-83813799D01*
X97992255Y-83828139D01*
X98820395Y-83000000D01*
X99179605Y-83000000D01*
X100007745Y-83828139D01*
X100253864Y-83754005D01*
X100446965Y-83216777D01*
X100419778Y-82646546D01*
X100253864Y-82245995D01*
X100007745Y-82171861D01*
X99179605Y-83000000D01*
X98820395Y-83000000D01*
X97992255Y-82171861D01*
X97944833Y-82186145D01*
X97908351Y-81992255D01*
X98171861Y-81992255D01*
X99000000Y-82820395D01*
X99828139Y-81992255D01*
X99754005Y-81746136D01*
X99216777Y-81553035D01*
X98646546Y-81580222D01*
X98245995Y-81746136D01*
X98171861Y-81992255D01*
X97908351Y-81992255D01*
X97903162Y-81964683D01*
X97764090Y-81748559D01*
X97551890Y-81603569D01*
X97300000Y-81552560D01*
X95700000Y-81552560D01*
X95464683Y-81596838D01*
X95248559Y-81735910D01*
X95103569Y-81948110D01*
X95052560Y-82200000D01*
X95052560Y-83800000D01*
X95096838Y-84035317D01*
X95235910Y-84251441D01*
X95448110Y-84396431D01*
X95565000Y-84420102D01*
X95565000Y-85662710D01*
X94925150Y-86302560D01*
X93850000Y-86302560D01*
X93614683Y-86346838D01*
X93398559Y-86485910D01*
X93253569Y-86698110D01*
X93202560Y-86950000D01*
X78710000Y-86950000D01*
X78710000Y-81364740D01*
X81428964Y-81364740D01*
X81607760Y-81796417D01*
X82012424Y-82237966D01*
X82555258Y-82491046D01*
X82793000Y-82370997D01*
X82793000Y-81127000D01*
X81549622Y-81127000D01*
X81428964Y-81364740D01*
X78710000Y-81364740D01*
X78710000Y-80635260D01*
X81428964Y-80635260D01*
X81549622Y-80873000D01*
X82793000Y-80873000D01*
X82793000Y-79629003D01*
X83047000Y-79629003D01*
X83047000Y-80873000D01*
X83067000Y-80873000D01*
X83067000Y-81127000D01*
X83047000Y-81127000D01*
X83047000Y-82370997D01*
X83284742Y-82491046D01*
X83827576Y-82237966D01*
X84185499Y-81847418D01*
X84344519Y-82085409D01*
X84842509Y-82418155D01*
X85429928Y-82535000D01*
X85490072Y-82535000D01*
X86077491Y-82418155D01*
X86498026Y-82137163D01*
X86635910Y-82351441D01*
X86848110Y-82496431D01*
X87100000Y-82547440D01*
X88900000Y-82547440D01*
X89135317Y-82503162D01*
X89351441Y-82364090D01*
X89496431Y-82151890D01*
X89547440Y-81900000D01*
X89547440Y-80694200D01*
X115126760Y-80694200D01*
X115126760Y-87145800D01*
X115171038Y-87381117D01*
X115310110Y-87597241D01*
X115522310Y-87742231D01*
X115774200Y-87793240D01*
X122225800Y-87793240D01*
X122461117Y-87748962D01*
X122677241Y-87609890D01*
X122822231Y-87397690D01*
X122873240Y-87145800D01*
X122873240Y-86460000D01*
X124032727Y-86460000D01*
X124148735Y-87043210D01*
X124479096Y-87537631D01*
X124780116Y-87738766D01*
X124436567Y-88012171D01*
X124147407Y-88534122D01*
X124123866Y-88636987D01*
X124244670Y-88873000D01*
X126366000Y-88873000D01*
X126366000Y-88853000D01*
X126620000Y-88853000D01*
X126620000Y-88873000D01*
X128741330Y-88873000D01*
X128862134Y-88636987D01*
X128838593Y-88534122D01*
X128549433Y-88012171D01*
X128205884Y-87738766D01*
X128506904Y-87537631D01*
X128837265Y-87043210D01*
X128953273Y-86460000D01*
X128837265Y-85876790D01*
X128506904Y-85382369D01*
X128012483Y-85052008D01*
X127429273Y-84936000D01*
X125556727Y-84936000D01*
X124973517Y-85052008D01*
X124479096Y-85382369D01*
X124148735Y-85876790D01*
X124032727Y-86460000D01*
X122873240Y-86460000D01*
X122873240Y-80694200D01*
X122828962Y-80458883D01*
X122689890Y-80242759D01*
X122477690Y-80097769D01*
X122225800Y-80046760D01*
X115774200Y-80046760D01*
X115538883Y-80091038D01*
X115322759Y-80230110D01*
X115177769Y-80442310D01*
X115126760Y-80694200D01*
X89547440Y-80694200D01*
X89547440Y-80100000D01*
X89503162Y-79864683D01*
X89364090Y-79648559D01*
X89151890Y-79503569D01*
X88900000Y-79452560D01*
X87100000Y-79452560D01*
X86864683Y-79496838D01*
X86648559Y-79635910D01*
X86503569Y-79848110D01*
X86500281Y-79864344D01*
X86077491Y-79581845D01*
X85490072Y-79465000D01*
X85429928Y-79465000D01*
X84842509Y-79581845D01*
X84344519Y-79914591D01*
X84185499Y-80152582D01*
X83827576Y-79762034D01*
X83284742Y-79508954D01*
X83047000Y-79629003D01*
X82793000Y-79629003D01*
X82555258Y-79508954D01*
X82012424Y-79762034D01*
X81607760Y-80203583D01*
X81428964Y-80635260D01*
X78710000Y-80635260D01*
X78710000Y-74377265D01*
X82095950Y-74377265D01*
X82385358Y-75077686D01*
X82920775Y-75614039D01*
X83620690Y-75904668D01*
X84378545Y-75905330D01*
X85078966Y-75615922D01*
X85615319Y-75080505D01*
X85905948Y-74380590D01*
X85905950Y-74377265D01*
X87094670Y-74377265D01*
X87384078Y-75077686D01*
X87919495Y-75614039D01*
X88619410Y-75904668D01*
X89377265Y-75905330D01*
X90077686Y-75615922D01*
X90614039Y-75080505D01*
X90904668Y-74380590D01*
X90904670Y-74377265D01*
X92094690Y-74377265D01*
X92384098Y-75077686D01*
X92919515Y-75614039D01*
X93619430Y-75904668D01*
X94377285Y-75905330D01*
X95077706Y-75615922D01*
X95346319Y-75347777D01*
X97833108Y-75347777D01*
X97964800Y-75642657D01*
X98672316Y-75914261D01*
X99429912Y-75894436D01*
X100037760Y-75642657D01*
X100169452Y-75347777D01*
X99001280Y-74179605D01*
X97833108Y-75347777D01*
X95346319Y-75347777D01*
X95614059Y-75080505D01*
X95904688Y-74380590D01*
X95905307Y-73671036D01*
X97087019Y-73671036D01*
X97106844Y-74428632D01*
X97358623Y-75036480D01*
X97653503Y-75168172D01*
X98821675Y-74000000D01*
X99180885Y-74000000D01*
X100349057Y-75168172D01*
X100643937Y-75036480D01*
X100896999Y-74377265D01*
X102094670Y-74377265D01*
X102384078Y-75077686D01*
X102919495Y-75614039D01*
X103619410Y-75904668D01*
X104377265Y-75905330D01*
X105077686Y-75615922D01*
X105614039Y-75080505D01*
X105904668Y-74380590D01*
X105904670Y-74377265D01*
X107095950Y-74377265D01*
X107385358Y-75077686D01*
X107920775Y-75614039D01*
X108620690Y-75904668D01*
X109378545Y-75905330D01*
X110078966Y-75615922D01*
X110615319Y-75080505D01*
X110905948Y-74380590D01*
X110905950Y-74377265D01*
X112094670Y-74377265D01*
X112384078Y-75077686D01*
X112919495Y-75614039D01*
X113619410Y-75904668D01*
X114377265Y-75905330D01*
X115077686Y-75615922D01*
X115614039Y-75080505D01*
X115904668Y-74380590D01*
X115904670Y-74377265D01*
X117095950Y-74377265D01*
X117385358Y-75077686D01*
X117920775Y-75614039D01*
X118620690Y-75904668D01*
X119378545Y-75905330D01*
X120078966Y-75615922D01*
X120347579Y-75347777D01*
X122831828Y-75347777D01*
X122963520Y-75642657D01*
X123671036Y-75914261D01*
X124428632Y-75894436D01*
X125036480Y-75642657D01*
X125168172Y-75347777D01*
X124000000Y-74179605D01*
X122831828Y-75347777D01*
X120347579Y-75347777D01*
X120615319Y-75080505D01*
X120905948Y-74380590D01*
X120906567Y-73671036D01*
X122085739Y-73671036D01*
X122105564Y-74428632D01*
X122357343Y-75036480D01*
X122652223Y-75168172D01*
X123820395Y-74000000D01*
X124179605Y-74000000D01*
X125347777Y-75168172D01*
X125642657Y-75036480D01*
X125791020Y-74650000D01*
X127502560Y-74650000D01*
X127502560Y-76350000D01*
X127546838Y-76585317D01*
X127685910Y-76801441D01*
X127898110Y-76946431D01*
X128150000Y-76997440D01*
X129850000Y-76997440D01*
X130085317Y-76953162D01*
X130301441Y-76814090D01*
X130446431Y-76601890D01*
X130468301Y-76493893D01*
X130773076Y-76771645D01*
X131183110Y-76941476D01*
X131413000Y-76820155D01*
X131413000Y-75627000D01*
X131393000Y-75627000D01*
X131393000Y-75373000D01*
X131413000Y-75373000D01*
X131413000Y-74179845D01*
X131183110Y-74058524D01*
X130773076Y-74228355D01*
X130470063Y-74504501D01*
X130453162Y-74414683D01*
X130314090Y-74198559D01*
X130101890Y-74053569D01*
X129850000Y-74002560D01*
X128150000Y-74002560D01*
X127914683Y-74046838D01*
X127698559Y-74185910D01*
X127553569Y-74398110D01*
X127502560Y-74650000D01*
X125791020Y-74650000D01*
X125914261Y-74328964D01*
X125894436Y-73571368D01*
X125642657Y-72963520D01*
X125347777Y-72831828D01*
X124179605Y-74000000D01*
X123820395Y-74000000D01*
X122652223Y-72831828D01*
X122357343Y-72963520D01*
X122085739Y-73671036D01*
X120906567Y-73671036D01*
X120906610Y-73622735D01*
X120617202Y-72922314D01*
X120347583Y-72652223D01*
X122831828Y-72652223D01*
X124000000Y-73820395D01*
X125168172Y-72652223D01*
X125036480Y-72357343D01*
X124328964Y-72085739D01*
X123571368Y-72105564D01*
X122963520Y-72357343D01*
X122831828Y-72652223D01*
X120347583Y-72652223D01*
X120081785Y-72385961D01*
X119381870Y-72095332D01*
X118624015Y-72094670D01*
X117923594Y-72384078D01*
X117387241Y-72919495D01*
X117096612Y-73619410D01*
X117095950Y-74377265D01*
X115904670Y-74377265D01*
X115905330Y-73622735D01*
X115615922Y-72922314D01*
X115080505Y-72385961D01*
X114380590Y-72095332D01*
X113622735Y-72094670D01*
X112922314Y-72384078D01*
X112385961Y-72919495D01*
X112095332Y-73619410D01*
X112094670Y-74377265D01*
X110905950Y-74377265D01*
X110906610Y-73622735D01*
X110617202Y-72922314D01*
X110081785Y-72385961D01*
X109381870Y-72095332D01*
X108624015Y-72094670D01*
X107923594Y-72384078D01*
X107387241Y-72919495D01*
X107096612Y-73619410D01*
X107095950Y-74377265D01*
X105904670Y-74377265D01*
X105905330Y-73622735D01*
X105615922Y-72922314D01*
X105080505Y-72385961D01*
X104380590Y-72095332D01*
X103622735Y-72094670D01*
X102922314Y-72384078D01*
X102385961Y-72919495D01*
X102095332Y-73619410D01*
X102094670Y-74377265D01*
X100896999Y-74377265D01*
X100915541Y-74328964D01*
X100895716Y-73571368D01*
X100643937Y-72963520D01*
X100349057Y-72831828D01*
X99180885Y-74000000D01*
X98821675Y-74000000D01*
X97653503Y-72831828D01*
X97358623Y-72963520D01*
X97087019Y-73671036D01*
X95905307Y-73671036D01*
X95905350Y-73622735D01*
X95615942Y-72922314D01*
X95346323Y-72652223D01*
X97833108Y-72652223D01*
X99001280Y-73820395D01*
X100169452Y-72652223D01*
X100037760Y-72357343D01*
X99330244Y-72085739D01*
X98572648Y-72105564D01*
X97964800Y-72357343D01*
X97833108Y-72652223D01*
X95346323Y-72652223D01*
X95080525Y-72385961D01*
X94380610Y-72095332D01*
X93622755Y-72094670D01*
X92922334Y-72384078D01*
X92385981Y-72919495D01*
X92095352Y-73619410D01*
X92094690Y-74377265D01*
X90904670Y-74377265D01*
X90905330Y-73622735D01*
X90615922Y-72922314D01*
X90080505Y-72385961D01*
X89380590Y-72095332D01*
X88622735Y-72094670D01*
X87922314Y-72384078D01*
X87385961Y-72919495D01*
X87095332Y-73619410D01*
X87094670Y-74377265D01*
X85905950Y-74377265D01*
X85906610Y-73622735D01*
X85617202Y-72922314D01*
X85081785Y-72385961D01*
X84381870Y-72095332D01*
X83624015Y-72094670D01*
X82923594Y-72384078D01*
X82387241Y-72919495D01*
X82096612Y-73619410D01*
X82095950Y-74377265D01*
X78710000Y-74377265D01*
X78710000Y-64403690D01*
X141015000Y-64403690D01*
X141015000Y-65094250D01*
X141173750Y-65253000D01*
X142373000Y-65253000D01*
X142373000Y-64053750D01*
X142627000Y-64053750D01*
X142627000Y-65253000D01*
X143826250Y-65253000D01*
X143985000Y-65094250D01*
X143985000Y-64403690D01*
X143888327Y-64170301D01*
X143709698Y-63991673D01*
X143476309Y-63895000D01*
X142785750Y-63895000D01*
X142627000Y-64053750D01*
X142373000Y-64053750D01*
X142214250Y-63895000D01*
X141523691Y-63895000D01*
X141290302Y-63991673D01*
X141111673Y-64170301D01*
X141015000Y-64403690D01*
X78710000Y-64403690D01*
X78710000Y-62710000D01*
X157290000Y-62710000D01*
X157290000Y-85022029D01*
M02*
