G04 #@! TF.FileFunction,Paste,Top*
%FSLAX46Y46*%
G04 Gerber Fmt 4.6, Leading zero omitted, Abs format (unit mm)*
G04 Created by KiCad (PCBNEW 4.0.7-e2-6376~58~ubuntu16.04.1) date Mon Nov  6 19:58:44 2017*
%MOMM*%
%LPD*%
G01*
G04 APERTURE LIST*
%ADD10C,0.100000*%
%ADD11R,1.200000X0.600000*%
%ADD12R,0.600000X1.200000*%
%ADD13R,6.451600X6.451600*%
%ADD14O,3.556000X1.778000*%
%ADD15R,1.250000X1.500000*%
%ADD16R,1.500000X1.250000*%
%ADD17R,1.300000X1.500000*%
%ADD18R,2.000000X3.800000*%
%ADD19R,2.000000X1.500000*%
%ADD20C,2.540000*%
%ADD21R,1.500000X1.300000*%
G04 APERTURE END LIST*
D10*
D11*
X144750000Y-89200000D03*
X144750000Y-90000000D03*
X144750000Y-90800000D03*
X144750000Y-91600000D03*
X144750000Y-92400000D03*
X144750000Y-93200000D03*
X144750000Y-94000000D03*
X144750000Y-94800000D03*
D12*
X146200000Y-96250000D03*
X147000000Y-96250000D03*
X147800000Y-96250000D03*
X148600000Y-96250000D03*
X149400000Y-96250000D03*
X150200000Y-96250000D03*
X151000000Y-96250000D03*
X151800000Y-96250000D03*
D11*
X153250000Y-94800000D03*
X153250000Y-94000000D03*
X153250000Y-93200000D03*
X153250000Y-92400000D03*
X153250000Y-91600000D03*
X153250000Y-90800000D03*
X153250000Y-90000000D03*
X153250000Y-89200000D03*
D12*
X151800000Y-87750000D03*
X151000000Y-87750000D03*
X150200000Y-87750000D03*
X149400000Y-87750000D03*
X148600000Y-87750000D03*
X147800000Y-87750000D03*
X147000000Y-87750000D03*
X146200000Y-87750000D03*
D13*
X119000000Y-94080000D03*
X119000000Y-83920000D03*
D14*
X126493000Y-91540000D03*
X126493000Y-89000000D03*
X126493000Y-86460000D03*
X111380000Y-91540000D03*
X111380000Y-86460000D03*
D15*
X141000000Y-91750000D03*
X141000000Y-94250000D03*
D16*
X139250000Y-84000000D03*
X136750000Y-84000000D03*
D15*
X138000000Y-91750000D03*
X138000000Y-94250000D03*
X143000000Y-85250000D03*
X143000000Y-82750000D03*
D16*
X153250000Y-99000000D03*
X150750000Y-99000000D03*
D17*
X146000000Y-85350000D03*
X146000000Y-82650000D03*
D18*
X101150000Y-90000000D03*
D19*
X94850000Y-90000000D03*
X94850000Y-92300000D03*
X94850000Y-87700000D03*
D20*
X89000000Y-74000000D03*
X84001280Y-74000000D03*
X114000000Y-74000000D03*
X109001280Y-74000000D03*
X124000000Y-74000000D03*
X119001280Y-74000000D03*
X104000000Y-74000000D03*
X99001280Y-74000000D03*
X94000020Y-74000000D03*
D21*
X106050000Y-96750000D03*
X108750000Y-96750000D03*
M02*
