G04 #@! TF.FileFunction,Legend,Top*
%FSLAX46Y46*%
G04 Gerber Fmt 4.6, Leading zero omitted, Abs format (unit mm)*
G04 Created by KiCad (PCBNEW 4.0.7-e2-6376~58~ubuntu16.04.1) date Mon Nov  6 20:09:01 2017*
%MOMM*%
%LPD*%
G01*
G04 APERTURE LIST*
%ADD10C,0.100000*%
%ADD11C,0.200000*%
%ADD12C,0.300000*%
%ADD13C,0.150000*%
%ADD14C,0.120000*%
%ADD15C,0.127000*%
%ADD16C,0.101600*%
%ADD17C,0.050800*%
G04 APERTURE END LIST*
D10*
D11*
X184761905Y-87702381D02*
X185380953Y-87702381D01*
X185047619Y-88083333D01*
X185190477Y-88083333D01*
X185285715Y-88130952D01*
X185333334Y-88178571D01*
X185380953Y-88273810D01*
X185380953Y-88511905D01*
X185333334Y-88607143D01*
X185285715Y-88654762D01*
X185190477Y-88702381D01*
X184904762Y-88702381D01*
X184809524Y-88654762D01*
X184761905Y-88607143D01*
X185666667Y-87702381D02*
X186000000Y-88702381D01*
X186333334Y-87702381D01*
X186571429Y-87702381D02*
X187190477Y-87702381D01*
X186857143Y-88083333D01*
X187000001Y-88083333D01*
X187095239Y-88130952D01*
X187142858Y-88178571D01*
X187190477Y-88273810D01*
X187190477Y-88511905D01*
X187142858Y-88607143D01*
X187095239Y-88654762D01*
X187000001Y-88702381D01*
X186714286Y-88702381D01*
X186619048Y-88654762D01*
X186571429Y-88607143D01*
X184642857Y-85904762D02*
X184785714Y-85952381D01*
X185023810Y-85952381D01*
X185119048Y-85904762D01*
X185166667Y-85857143D01*
X185214286Y-85761905D01*
X185214286Y-85666667D01*
X185166667Y-85571429D01*
X185119048Y-85523810D01*
X185023810Y-85476190D01*
X184833333Y-85428571D01*
X184738095Y-85380952D01*
X184690476Y-85333333D01*
X184642857Y-85238095D01*
X184642857Y-85142857D01*
X184690476Y-85047619D01*
X184738095Y-85000000D01*
X184833333Y-84952381D01*
X185071429Y-84952381D01*
X185214286Y-85000000D01*
X185547619Y-84952381D02*
X185785714Y-85952381D01*
X185976191Y-85238095D01*
X186166667Y-85952381D01*
X186404762Y-84952381D01*
X186785714Y-85952381D02*
X186785714Y-84952381D01*
X187023809Y-84952381D01*
X187166667Y-85000000D01*
X187261905Y-85095238D01*
X187309524Y-85190476D01*
X187357143Y-85380952D01*
X187357143Y-85523810D01*
X187309524Y-85714286D01*
X187261905Y-85809524D01*
X187166667Y-85904762D01*
X187023809Y-85952381D01*
X186785714Y-85952381D01*
X184642857Y-83404762D02*
X184785714Y-83452381D01*
X185023810Y-83452381D01*
X185119048Y-83404762D01*
X185166667Y-83357143D01*
X185214286Y-83261905D01*
X185214286Y-83166667D01*
X185166667Y-83071429D01*
X185119048Y-83023810D01*
X185023810Y-82976190D01*
X184833333Y-82928571D01*
X184738095Y-82880952D01*
X184690476Y-82833333D01*
X184642857Y-82738095D01*
X184642857Y-82642857D01*
X184690476Y-82547619D01*
X184738095Y-82500000D01*
X184833333Y-82452381D01*
X185071429Y-82452381D01*
X185214286Y-82500000D01*
X185547619Y-82452381D02*
X185785714Y-83452381D01*
X185976191Y-82738095D01*
X186166667Y-83452381D01*
X186404762Y-82452381D01*
X187357143Y-83357143D02*
X187309524Y-83404762D01*
X187166667Y-83452381D01*
X187071429Y-83452381D01*
X186928571Y-83404762D01*
X186833333Y-83309524D01*
X186785714Y-83214286D01*
X186738095Y-83023810D01*
X186738095Y-82880952D01*
X186785714Y-82690476D01*
X186833333Y-82595238D01*
X186928571Y-82500000D01*
X187071429Y-82452381D01*
X187166667Y-82452381D01*
X187309524Y-82500000D01*
X187357143Y-82547619D01*
X184357143Y-80952381D02*
X184357143Y-79952381D01*
X184928572Y-80952381D01*
X184928572Y-79952381D01*
X185976191Y-80952381D02*
X185642857Y-80476190D01*
X185404762Y-80952381D02*
X185404762Y-79952381D01*
X185785715Y-79952381D01*
X185880953Y-80000000D01*
X185928572Y-80047619D01*
X185976191Y-80142857D01*
X185976191Y-80285714D01*
X185928572Y-80380952D01*
X185880953Y-80428571D01*
X185785715Y-80476190D01*
X185404762Y-80476190D01*
X186357143Y-80904762D02*
X186500000Y-80952381D01*
X186738096Y-80952381D01*
X186833334Y-80904762D01*
X186880953Y-80857143D01*
X186928572Y-80761905D01*
X186928572Y-80666667D01*
X186880953Y-80571429D01*
X186833334Y-80523810D01*
X186738096Y-80476190D01*
X186547619Y-80428571D01*
X186452381Y-80380952D01*
X186404762Y-80333333D01*
X186357143Y-80238095D01*
X186357143Y-80142857D01*
X186404762Y-80047619D01*
X186452381Y-80000000D01*
X186547619Y-79952381D01*
X186785715Y-79952381D01*
X186928572Y-80000000D01*
X187214286Y-79952381D02*
X187785715Y-79952381D01*
X187500000Y-80952381D02*
X187500000Y-79952381D01*
X185488096Y-77500000D02*
X185392858Y-77452381D01*
X185250001Y-77452381D01*
X185107143Y-77500000D01*
X185011905Y-77595238D01*
X184964286Y-77690476D01*
X184916667Y-77880952D01*
X184916667Y-78023810D01*
X184964286Y-78214286D01*
X185011905Y-78309524D01*
X185107143Y-78404762D01*
X185250001Y-78452381D01*
X185345239Y-78452381D01*
X185488096Y-78404762D01*
X185535715Y-78357143D01*
X185535715Y-78023810D01*
X185345239Y-78023810D01*
X185964286Y-78452381D02*
X185964286Y-77452381D01*
X186535715Y-78452381D01*
X186535715Y-77452381D01*
X187011905Y-78452381D02*
X187011905Y-77452381D01*
X187250000Y-77452381D01*
X187392858Y-77500000D01*
X187488096Y-77595238D01*
X187535715Y-77690476D01*
X187583334Y-77880952D01*
X187583334Y-78023810D01*
X187535715Y-78214286D01*
X187488096Y-78309524D01*
X187392858Y-78404762D01*
X187250000Y-78452381D01*
X187011905Y-78452381D01*
X187761905Y-75250000D02*
X187666667Y-75202381D01*
X187523810Y-75202381D01*
X187380952Y-75250000D01*
X187285714Y-75345238D01*
X187238095Y-75440476D01*
X187190476Y-75630952D01*
X187190476Y-75773810D01*
X187238095Y-75964286D01*
X187285714Y-76059524D01*
X187380952Y-76154762D01*
X187523810Y-76202381D01*
X187619048Y-76202381D01*
X187761905Y-76154762D01*
X187809524Y-76107143D01*
X187809524Y-75773810D01*
X187619048Y-75773810D01*
X184464286Y-75202381D02*
X185035715Y-75202381D01*
X184750000Y-76202381D02*
X184750000Y-75202381D01*
X182809524Y-76202381D02*
X182476190Y-75726190D01*
X182238095Y-76202381D02*
X182238095Y-75202381D01*
X182619048Y-75202381D01*
X182714286Y-75250000D01*
X182761905Y-75297619D01*
X182809524Y-75392857D01*
X182809524Y-75535714D01*
X182761905Y-75630952D01*
X182714286Y-75678571D01*
X182619048Y-75726190D01*
X182238095Y-75726190D01*
X180071429Y-75678571D02*
X180214286Y-75726190D01*
X180261905Y-75773810D01*
X180309524Y-75869048D01*
X180309524Y-76011905D01*
X180261905Y-76107143D01*
X180214286Y-76154762D01*
X180119048Y-76202381D01*
X179738095Y-76202381D01*
X179738095Y-75202381D01*
X180071429Y-75202381D01*
X180166667Y-75250000D01*
X180214286Y-75297619D01*
X180261905Y-75392857D01*
X180261905Y-75488095D01*
X180214286Y-75583333D01*
X180166667Y-75630952D01*
X180071429Y-75678571D01*
X179738095Y-75678571D01*
X176964286Y-76202381D02*
X176964286Y-75202381D01*
X177535715Y-76202381D01*
X177535715Y-75202381D01*
X171738095Y-75821429D02*
X172500000Y-75821429D01*
X172119048Y-76202381D02*
X172119048Y-75440476D01*
X172880952Y-75202381D02*
X173500000Y-75202381D01*
X173166666Y-75583333D01*
X173309524Y-75583333D01*
X173404762Y-75630952D01*
X173452381Y-75678571D01*
X173500000Y-75773810D01*
X173500000Y-76011905D01*
X173452381Y-76107143D01*
X173404762Y-76154762D01*
X173309524Y-76202381D01*
X173023809Y-76202381D01*
X172928571Y-76154762D01*
X172880952Y-76107143D01*
X173785714Y-75202381D02*
X174119047Y-76202381D01*
X174452381Y-75202381D01*
X174690476Y-75202381D02*
X175309524Y-75202381D01*
X174976190Y-75583333D01*
X175119048Y-75583333D01*
X175214286Y-75630952D01*
X175261905Y-75678571D01*
X175309524Y-75773810D01*
X175309524Y-76011905D01*
X175261905Y-76107143D01*
X175214286Y-76154762D01*
X175119048Y-76202381D01*
X174833333Y-76202381D01*
X174738095Y-76154762D01*
X174690476Y-76107143D01*
D12*
X168535714Y-68750000D02*
X168607143Y-68821429D01*
X168678571Y-69035715D01*
X168678571Y-69178572D01*
X168607143Y-69392857D01*
X168464286Y-69535715D01*
X168321429Y-69607143D01*
X168035714Y-69678572D01*
X167821429Y-69678572D01*
X167535714Y-69607143D01*
X167392857Y-69535715D01*
X167250000Y-69392857D01*
X167178571Y-69178572D01*
X167178571Y-69035715D01*
X167250000Y-68821429D01*
X167321429Y-68750000D01*
X167178571Y-67821429D02*
X167178571Y-67535715D01*
X167250000Y-67392857D01*
X167392857Y-67250000D01*
X167678571Y-67178572D01*
X168178571Y-67178572D01*
X168464286Y-67250000D01*
X168607143Y-67392857D01*
X168678571Y-67535715D01*
X168678571Y-67821429D01*
X168607143Y-67964286D01*
X168464286Y-68107143D01*
X168178571Y-68178572D01*
X167678571Y-68178572D01*
X167392857Y-68107143D01*
X167250000Y-67964286D01*
X167178571Y-67821429D01*
X168678571Y-66535714D02*
X167178571Y-66535714D01*
X168250000Y-66035714D01*
X167178571Y-65535714D01*
X168678571Y-65535714D01*
X168678571Y-64821428D02*
X167178571Y-64821428D01*
X168250000Y-64321428D01*
X167178571Y-63821428D01*
X168678571Y-63821428D01*
X168607143Y-63178571D02*
X168678571Y-62964285D01*
X168678571Y-62607142D01*
X168607143Y-62464285D01*
X168535714Y-62392856D01*
X168392857Y-62321428D01*
X168250000Y-62321428D01*
X168107143Y-62392856D01*
X168035714Y-62464285D01*
X167964286Y-62607142D01*
X167892857Y-62892856D01*
X167821429Y-63035714D01*
X167750000Y-63107142D01*
X167607143Y-63178571D01*
X167464286Y-63178571D01*
X167321429Y-63107142D01*
X167250000Y-63035714D01*
X167178571Y-62892856D01*
X167178571Y-62535714D01*
X167250000Y-62321428D01*
X162857143Y-69107143D02*
X162857143Y-67964286D01*
X162000000Y-66464286D02*
X161928571Y-66607143D01*
X161928571Y-66821429D01*
X162000000Y-67035714D01*
X162142857Y-67178572D01*
X162285714Y-67250000D01*
X162571429Y-67321429D01*
X162785714Y-67321429D01*
X163071429Y-67250000D01*
X163214286Y-67178572D01*
X163357143Y-67035714D01*
X163428571Y-66821429D01*
X163428571Y-66678572D01*
X163357143Y-66464286D01*
X163285714Y-66392857D01*
X162785714Y-66392857D01*
X162785714Y-66678572D01*
X163428571Y-65750000D02*
X161928571Y-65750000D01*
X163428571Y-64892857D01*
X161928571Y-64892857D01*
X163428571Y-64178571D02*
X161928571Y-64178571D01*
X161928571Y-63821428D01*
X162000000Y-63607143D01*
X162142857Y-63464285D01*
X162285714Y-63392857D01*
X162571429Y-63321428D01*
X162785714Y-63321428D01*
X163071429Y-63392857D01*
X163214286Y-63464285D01*
X163357143Y-63607143D01*
X163428571Y-63821428D01*
X163428571Y-64178571D01*
X157857143Y-68892856D02*
X157857143Y-67749999D01*
X158428571Y-68321428D02*
X157285714Y-68321428D01*
X157071429Y-67107142D02*
X157000000Y-67035713D01*
X156928571Y-66892856D01*
X156928571Y-66535713D01*
X157000000Y-66392856D01*
X157071429Y-66321427D01*
X157214286Y-66249999D01*
X157357143Y-66249999D01*
X157571429Y-66321427D01*
X158428571Y-67178570D01*
X158428571Y-66249999D01*
X157428571Y-64964285D02*
X158428571Y-64964285D01*
X156857143Y-65321428D02*
X157928571Y-65678571D01*
X157928571Y-64749999D01*
X156928571Y-64392857D02*
X158428571Y-63892857D01*
X156928571Y-63392857D01*
X152428572Y-68357143D02*
X153571429Y-68357143D01*
X153000000Y-68928571D02*
X153000000Y-67785714D01*
X147428572Y-68357143D02*
X148571429Y-68357143D01*
X148678572Y-64892857D02*
X148178572Y-64892857D01*
X148178572Y-65678571D02*
X148178572Y-64178571D01*
X148892858Y-64178571D01*
X149750000Y-64178571D02*
X150035714Y-64178571D01*
X150178572Y-64250000D01*
X150321429Y-64392857D01*
X150392857Y-64678571D01*
X150392857Y-65178571D01*
X150321429Y-65464286D01*
X150178572Y-65607143D01*
X150035714Y-65678571D01*
X149750000Y-65678571D01*
X149607143Y-65607143D01*
X149464286Y-65464286D01*
X149392857Y-65178571D01*
X149392857Y-64678571D01*
X149464286Y-64392857D01*
X149607143Y-64250000D01*
X149750000Y-64178571D01*
X151821429Y-64250000D02*
X151678572Y-64178571D01*
X151464286Y-64178571D01*
X151250001Y-64250000D01*
X151107143Y-64392857D01*
X151035715Y-64535714D01*
X150964286Y-64821429D01*
X150964286Y-65035714D01*
X151035715Y-65321429D01*
X151107143Y-65464286D01*
X151250001Y-65607143D01*
X151464286Y-65678571D01*
X151607143Y-65678571D01*
X151821429Y-65607143D01*
X151892858Y-65535714D01*
X151892858Y-65035714D01*
X151607143Y-65035714D01*
X132464286Y-64178571D02*
X132964286Y-65678571D01*
X133464286Y-64178571D01*
X133964286Y-64892857D02*
X134464286Y-64892857D01*
X134678572Y-65678571D02*
X133964286Y-65678571D01*
X133964286Y-64178571D01*
X134678572Y-64178571D01*
X135321429Y-65678571D02*
X135321429Y-64178571D01*
X136178572Y-65678571D01*
X136178572Y-64178571D01*
X136678572Y-64178571D02*
X137535715Y-64178571D01*
X137107144Y-65678571D02*
X137107144Y-64178571D01*
X115178572Y-65678571D02*
X115178572Y-64178571D01*
X115178572Y-64892857D02*
X116035715Y-64892857D01*
X116035715Y-65678571D02*
X116035715Y-64178571D01*
X116750001Y-64892857D02*
X117250001Y-64892857D01*
X117464287Y-65678571D02*
X116750001Y-65678571D01*
X116750001Y-64178571D01*
X117464287Y-64178571D01*
X118035715Y-65250000D02*
X118750001Y-65250000D01*
X117892858Y-65678571D02*
X118392858Y-64178571D01*
X118892858Y-65678571D01*
X119178572Y-64178571D02*
X120035715Y-64178571D01*
X119607144Y-65678571D02*
X119607144Y-64178571D01*
X98285714Y-65535714D02*
X98214285Y-65607143D01*
X97999999Y-65678571D01*
X97857142Y-65678571D01*
X97642857Y-65607143D01*
X97499999Y-65464286D01*
X97428571Y-65321429D01*
X97357142Y-65035714D01*
X97357142Y-64821429D01*
X97428571Y-64535714D01*
X97499999Y-64392857D01*
X97642857Y-64250000D01*
X97857142Y-64178571D01*
X97999999Y-64178571D01*
X98214285Y-64250000D01*
X98285714Y-64321429D01*
X99214285Y-64178571D02*
X99499999Y-64178571D01*
X99642857Y-64250000D01*
X99785714Y-64392857D01*
X99857142Y-64678571D01*
X99857142Y-65178571D01*
X99785714Y-65464286D01*
X99642857Y-65607143D01*
X99499999Y-65678571D01*
X99214285Y-65678571D01*
X99071428Y-65607143D01*
X98928571Y-65464286D01*
X98857142Y-65178571D01*
X98857142Y-64678571D01*
X98928571Y-64392857D01*
X99071428Y-64250000D01*
X99214285Y-64178571D01*
X100785714Y-64178571D02*
X101071428Y-64178571D01*
X101214286Y-64250000D01*
X101357143Y-64392857D01*
X101428571Y-64678571D01*
X101428571Y-65178571D01*
X101357143Y-65464286D01*
X101214286Y-65607143D01*
X101071428Y-65678571D01*
X100785714Y-65678571D01*
X100642857Y-65607143D01*
X100500000Y-65464286D01*
X100428571Y-65178571D01*
X100428571Y-64678571D01*
X100500000Y-64392857D01*
X100642857Y-64250000D01*
X100785714Y-64178571D01*
X102785715Y-65678571D02*
X102071429Y-65678571D01*
X102071429Y-64178571D01*
D13*
X174675000Y-83625000D02*
X174675000Y-83850000D01*
X181925000Y-83625000D02*
X181925000Y-83925000D01*
X181925000Y-90875000D02*
X181925000Y-90575000D01*
X174675000Y-90875000D02*
X174675000Y-90575000D01*
X174675000Y-83625000D02*
X174975000Y-83625000D01*
X174675000Y-90875000D02*
X174975000Y-90875000D01*
X181925000Y-90875000D02*
X181625000Y-90875000D01*
X181925000Y-83625000D02*
X181625000Y-83625000D01*
X174675000Y-83850000D02*
X173450000Y-83850000D01*
D14*
X163055722Y-82820277D02*
G75*
G03X158444420Y-82820000I-2305722J-1179723D01*
G01*
X163055722Y-85179723D02*
G75*
G02X158444420Y-85180000I-2305722J1179723D01*
G01*
X163055722Y-85179723D02*
G75*
G03X163055580Y-82820000I-2305722J1179723D01*
G01*
X160750000Y-81450000D02*
X160750000Y-86550000D01*
X160790000Y-81450000D02*
X160790000Y-86550000D01*
X160830000Y-81451000D02*
X160830000Y-86549000D01*
X160870000Y-81452000D02*
X160870000Y-86548000D01*
X160910000Y-81454000D02*
X160910000Y-86546000D01*
X160950000Y-81457000D02*
X160950000Y-86543000D01*
X160990000Y-81461000D02*
X160990000Y-86539000D01*
X161030000Y-81465000D02*
X161030000Y-83020000D01*
X161030000Y-84980000D02*
X161030000Y-86535000D01*
X161070000Y-81469000D02*
X161070000Y-83020000D01*
X161070000Y-84980000D02*
X161070000Y-86531000D01*
X161110000Y-81475000D02*
X161110000Y-83020000D01*
X161110000Y-84980000D02*
X161110000Y-86525000D01*
X161150000Y-81481000D02*
X161150000Y-83020000D01*
X161150000Y-84980000D02*
X161150000Y-86519000D01*
X161190000Y-81487000D02*
X161190000Y-83020000D01*
X161190000Y-84980000D02*
X161190000Y-86513000D01*
X161230000Y-81494000D02*
X161230000Y-83020000D01*
X161230000Y-84980000D02*
X161230000Y-86506000D01*
X161270000Y-81502000D02*
X161270000Y-83020000D01*
X161270000Y-84980000D02*
X161270000Y-86498000D01*
X161310000Y-81511000D02*
X161310000Y-83020000D01*
X161310000Y-84980000D02*
X161310000Y-86489000D01*
X161350000Y-81520000D02*
X161350000Y-83020000D01*
X161350000Y-84980000D02*
X161350000Y-86480000D01*
X161390000Y-81530000D02*
X161390000Y-83020000D01*
X161390000Y-84980000D02*
X161390000Y-86470000D01*
X161430000Y-81540000D02*
X161430000Y-83020000D01*
X161430000Y-84980000D02*
X161430000Y-86460000D01*
X161471000Y-81552000D02*
X161471000Y-83020000D01*
X161471000Y-84980000D02*
X161471000Y-86448000D01*
X161511000Y-81564000D02*
X161511000Y-83020000D01*
X161511000Y-84980000D02*
X161511000Y-86436000D01*
X161551000Y-81576000D02*
X161551000Y-83020000D01*
X161551000Y-84980000D02*
X161551000Y-86424000D01*
X161591000Y-81590000D02*
X161591000Y-83020000D01*
X161591000Y-84980000D02*
X161591000Y-86410000D01*
X161631000Y-81604000D02*
X161631000Y-83020000D01*
X161631000Y-84980000D02*
X161631000Y-86396000D01*
X161671000Y-81618000D02*
X161671000Y-83020000D01*
X161671000Y-84980000D02*
X161671000Y-86382000D01*
X161711000Y-81634000D02*
X161711000Y-83020000D01*
X161711000Y-84980000D02*
X161711000Y-86366000D01*
X161751000Y-81650000D02*
X161751000Y-83020000D01*
X161751000Y-84980000D02*
X161751000Y-86350000D01*
X161791000Y-81667000D02*
X161791000Y-83020000D01*
X161791000Y-84980000D02*
X161791000Y-86333000D01*
X161831000Y-81685000D02*
X161831000Y-83020000D01*
X161831000Y-84980000D02*
X161831000Y-86315000D01*
X161871000Y-81704000D02*
X161871000Y-83020000D01*
X161871000Y-84980000D02*
X161871000Y-86296000D01*
X161911000Y-81724000D02*
X161911000Y-83020000D01*
X161911000Y-84980000D02*
X161911000Y-86276000D01*
X161951000Y-81744000D02*
X161951000Y-83020000D01*
X161951000Y-84980000D02*
X161951000Y-86256000D01*
X161991000Y-81766000D02*
X161991000Y-83020000D01*
X161991000Y-84980000D02*
X161991000Y-86234000D01*
X162031000Y-81788000D02*
X162031000Y-83020000D01*
X162031000Y-84980000D02*
X162031000Y-86212000D01*
X162071000Y-81811000D02*
X162071000Y-83020000D01*
X162071000Y-84980000D02*
X162071000Y-86189000D01*
X162111000Y-81835000D02*
X162111000Y-83020000D01*
X162111000Y-84980000D02*
X162111000Y-86165000D01*
X162151000Y-81860000D02*
X162151000Y-83020000D01*
X162151000Y-84980000D02*
X162151000Y-86140000D01*
X162191000Y-81887000D02*
X162191000Y-83020000D01*
X162191000Y-84980000D02*
X162191000Y-86113000D01*
X162231000Y-81914000D02*
X162231000Y-83020000D01*
X162231000Y-84980000D02*
X162231000Y-86086000D01*
X162271000Y-81942000D02*
X162271000Y-83020000D01*
X162271000Y-84980000D02*
X162271000Y-86058000D01*
X162311000Y-81972000D02*
X162311000Y-83020000D01*
X162311000Y-84980000D02*
X162311000Y-86028000D01*
X162351000Y-82003000D02*
X162351000Y-83020000D01*
X162351000Y-84980000D02*
X162351000Y-85997000D01*
X162391000Y-82035000D02*
X162391000Y-83020000D01*
X162391000Y-84980000D02*
X162391000Y-85965000D01*
X162431000Y-82068000D02*
X162431000Y-83020000D01*
X162431000Y-84980000D02*
X162431000Y-85932000D01*
X162471000Y-82103000D02*
X162471000Y-83020000D01*
X162471000Y-84980000D02*
X162471000Y-85897000D01*
X162511000Y-82139000D02*
X162511000Y-83020000D01*
X162511000Y-84980000D02*
X162511000Y-85861000D01*
X162551000Y-82177000D02*
X162551000Y-83020000D01*
X162551000Y-84980000D02*
X162551000Y-85823000D01*
X162591000Y-82217000D02*
X162591000Y-83020000D01*
X162591000Y-84980000D02*
X162591000Y-85783000D01*
X162631000Y-82258000D02*
X162631000Y-83020000D01*
X162631000Y-84980000D02*
X162631000Y-85742000D01*
X162671000Y-82301000D02*
X162671000Y-83020000D01*
X162671000Y-84980000D02*
X162671000Y-85699000D01*
X162711000Y-82346000D02*
X162711000Y-83020000D01*
X162711000Y-84980000D02*
X162711000Y-85654000D01*
X162751000Y-82394000D02*
X162751000Y-83020000D01*
X162751000Y-84980000D02*
X162751000Y-85606000D01*
X162791000Y-82444000D02*
X162791000Y-83020000D01*
X162791000Y-84980000D02*
X162791000Y-85556000D01*
X162831000Y-82496000D02*
X162831000Y-83020000D01*
X162831000Y-84980000D02*
X162831000Y-85504000D01*
X162871000Y-82552000D02*
X162871000Y-83020000D01*
X162871000Y-84980000D02*
X162871000Y-85448000D01*
X162911000Y-82610000D02*
X162911000Y-83020000D01*
X162911000Y-84980000D02*
X162911000Y-85390000D01*
X162951000Y-82673000D02*
X162951000Y-83020000D01*
X162951000Y-84980000D02*
X162951000Y-85327000D01*
X162991000Y-82739000D02*
X162991000Y-85261000D01*
X163031000Y-82811000D02*
X163031000Y-85189000D01*
X163071000Y-82888000D02*
X163071000Y-85112000D01*
X163111000Y-82972000D02*
X163111000Y-85028000D01*
X163151000Y-83066000D02*
X163151000Y-84934000D01*
X163191000Y-83171000D02*
X163191000Y-84829000D01*
X163231000Y-83293000D02*
X163231000Y-84707000D01*
X163271000Y-83441000D02*
X163271000Y-84559000D01*
X163311000Y-83646000D02*
X163311000Y-84354000D01*
X157300000Y-84000000D02*
X158500000Y-84000000D01*
X157900000Y-83350000D02*
X157900000Y-84650000D01*
X175150000Y-68000000D02*
X175150000Y-69000000D01*
X176850000Y-69000000D02*
X176850000Y-68000000D01*
X164944278Y-85179723D02*
G75*
G03X169555580Y-85180000I2305722J1179723D01*
G01*
X164944278Y-82820277D02*
G75*
G02X169555580Y-82820000I2305722J-1179723D01*
G01*
X164944278Y-82820277D02*
G75*
G03X164944420Y-85180000I2305722J-1179723D01*
G01*
X167250000Y-86550000D02*
X167250000Y-81450000D01*
X167210000Y-86550000D02*
X167210000Y-81450000D01*
X167170000Y-86549000D02*
X167170000Y-81451000D01*
X167130000Y-86548000D02*
X167130000Y-81452000D01*
X167090000Y-86546000D02*
X167090000Y-81454000D01*
X167050000Y-86543000D02*
X167050000Y-81457000D01*
X167010000Y-86539000D02*
X167010000Y-81461000D01*
X166970000Y-86535000D02*
X166970000Y-84980000D01*
X166970000Y-83020000D02*
X166970000Y-81465000D01*
X166930000Y-86531000D02*
X166930000Y-84980000D01*
X166930000Y-83020000D02*
X166930000Y-81469000D01*
X166890000Y-86525000D02*
X166890000Y-84980000D01*
X166890000Y-83020000D02*
X166890000Y-81475000D01*
X166850000Y-86519000D02*
X166850000Y-84980000D01*
X166850000Y-83020000D02*
X166850000Y-81481000D01*
X166810000Y-86513000D02*
X166810000Y-84980000D01*
X166810000Y-83020000D02*
X166810000Y-81487000D01*
X166770000Y-86506000D02*
X166770000Y-84980000D01*
X166770000Y-83020000D02*
X166770000Y-81494000D01*
X166730000Y-86498000D02*
X166730000Y-84980000D01*
X166730000Y-83020000D02*
X166730000Y-81502000D01*
X166690000Y-86489000D02*
X166690000Y-84980000D01*
X166690000Y-83020000D02*
X166690000Y-81511000D01*
X166650000Y-86480000D02*
X166650000Y-84980000D01*
X166650000Y-83020000D02*
X166650000Y-81520000D01*
X166610000Y-86470000D02*
X166610000Y-84980000D01*
X166610000Y-83020000D02*
X166610000Y-81530000D01*
X166570000Y-86460000D02*
X166570000Y-84980000D01*
X166570000Y-83020000D02*
X166570000Y-81540000D01*
X166529000Y-86448000D02*
X166529000Y-84980000D01*
X166529000Y-83020000D02*
X166529000Y-81552000D01*
X166489000Y-86436000D02*
X166489000Y-84980000D01*
X166489000Y-83020000D02*
X166489000Y-81564000D01*
X166449000Y-86424000D02*
X166449000Y-84980000D01*
X166449000Y-83020000D02*
X166449000Y-81576000D01*
X166409000Y-86410000D02*
X166409000Y-84980000D01*
X166409000Y-83020000D02*
X166409000Y-81590000D01*
X166369000Y-86396000D02*
X166369000Y-84980000D01*
X166369000Y-83020000D02*
X166369000Y-81604000D01*
X166329000Y-86382000D02*
X166329000Y-84980000D01*
X166329000Y-83020000D02*
X166329000Y-81618000D01*
X166289000Y-86366000D02*
X166289000Y-84980000D01*
X166289000Y-83020000D02*
X166289000Y-81634000D01*
X166249000Y-86350000D02*
X166249000Y-84980000D01*
X166249000Y-83020000D02*
X166249000Y-81650000D01*
X166209000Y-86333000D02*
X166209000Y-84980000D01*
X166209000Y-83020000D02*
X166209000Y-81667000D01*
X166169000Y-86315000D02*
X166169000Y-84980000D01*
X166169000Y-83020000D02*
X166169000Y-81685000D01*
X166129000Y-86296000D02*
X166129000Y-84980000D01*
X166129000Y-83020000D02*
X166129000Y-81704000D01*
X166089000Y-86276000D02*
X166089000Y-84980000D01*
X166089000Y-83020000D02*
X166089000Y-81724000D01*
X166049000Y-86256000D02*
X166049000Y-84980000D01*
X166049000Y-83020000D02*
X166049000Y-81744000D01*
X166009000Y-86234000D02*
X166009000Y-84980000D01*
X166009000Y-83020000D02*
X166009000Y-81766000D01*
X165969000Y-86212000D02*
X165969000Y-84980000D01*
X165969000Y-83020000D02*
X165969000Y-81788000D01*
X165929000Y-86189000D02*
X165929000Y-84980000D01*
X165929000Y-83020000D02*
X165929000Y-81811000D01*
X165889000Y-86165000D02*
X165889000Y-84980000D01*
X165889000Y-83020000D02*
X165889000Y-81835000D01*
X165849000Y-86140000D02*
X165849000Y-84980000D01*
X165849000Y-83020000D02*
X165849000Y-81860000D01*
X165809000Y-86113000D02*
X165809000Y-84980000D01*
X165809000Y-83020000D02*
X165809000Y-81887000D01*
X165769000Y-86086000D02*
X165769000Y-84980000D01*
X165769000Y-83020000D02*
X165769000Y-81914000D01*
X165729000Y-86058000D02*
X165729000Y-84980000D01*
X165729000Y-83020000D02*
X165729000Y-81942000D01*
X165689000Y-86028000D02*
X165689000Y-84980000D01*
X165689000Y-83020000D02*
X165689000Y-81972000D01*
X165649000Y-85997000D02*
X165649000Y-84980000D01*
X165649000Y-83020000D02*
X165649000Y-82003000D01*
X165609000Y-85965000D02*
X165609000Y-84980000D01*
X165609000Y-83020000D02*
X165609000Y-82035000D01*
X165569000Y-85932000D02*
X165569000Y-84980000D01*
X165569000Y-83020000D02*
X165569000Y-82068000D01*
X165529000Y-85897000D02*
X165529000Y-84980000D01*
X165529000Y-83020000D02*
X165529000Y-82103000D01*
X165489000Y-85861000D02*
X165489000Y-84980000D01*
X165489000Y-83020000D02*
X165489000Y-82139000D01*
X165449000Y-85823000D02*
X165449000Y-84980000D01*
X165449000Y-83020000D02*
X165449000Y-82177000D01*
X165409000Y-85783000D02*
X165409000Y-84980000D01*
X165409000Y-83020000D02*
X165409000Y-82217000D01*
X165369000Y-85742000D02*
X165369000Y-84980000D01*
X165369000Y-83020000D02*
X165369000Y-82258000D01*
X165329000Y-85699000D02*
X165329000Y-84980000D01*
X165329000Y-83020000D02*
X165329000Y-82301000D01*
X165289000Y-85654000D02*
X165289000Y-84980000D01*
X165289000Y-83020000D02*
X165289000Y-82346000D01*
X165249000Y-85606000D02*
X165249000Y-84980000D01*
X165249000Y-83020000D02*
X165249000Y-82394000D01*
X165209000Y-85556000D02*
X165209000Y-84980000D01*
X165209000Y-83020000D02*
X165209000Y-82444000D01*
X165169000Y-85504000D02*
X165169000Y-84980000D01*
X165169000Y-83020000D02*
X165169000Y-82496000D01*
X165129000Y-85448000D02*
X165129000Y-84980000D01*
X165129000Y-83020000D02*
X165129000Y-82552000D01*
X165089000Y-85390000D02*
X165089000Y-84980000D01*
X165089000Y-83020000D02*
X165089000Y-82610000D01*
X165049000Y-85327000D02*
X165049000Y-84980000D01*
X165049000Y-83020000D02*
X165049000Y-82673000D01*
X165009000Y-85261000D02*
X165009000Y-82739000D01*
X164969000Y-85189000D02*
X164969000Y-82811000D01*
X164929000Y-85112000D02*
X164929000Y-82888000D01*
X164889000Y-85028000D02*
X164889000Y-82972000D01*
X164849000Y-84934000D02*
X164849000Y-83066000D01*
X164809000Y-84829000D02*
X164809000Y-83171000D01*
X164769000Y-84707000D02*
X164769000Y-83293000D01*
X164729000Y-84559000D02*
X164729000Y-83441000D01*
X164689000Y-84354000D02*
X164689000Y-83646000D01*
X170700000Y-84000000D02*
X169500000Y-84000000D01*
X170100000Y-84650000D02*
X170100000Y-83350000D01*
X181000000Y-96350000D02*
X182000000Y-96350000D01*
X182000000Y-94650000D02*
X181000000Y-94650000D01*
X175000000Y-78150000D02*
X174000000Y-78150000D01*
X174000000Y-79850000D02*
X175000000Y-79850000D01*
X120600000Y-99850000D02*
X120600000Y-103150000D01*
X120600000Y-103150000D02*
X126000000Y-103150000D01*
X120600000Y-99850000D02*
X126000000Y-99850000D01*
X115900000Y-103150000D02*
X115900000Y-99850000D01*
X115900000Y-99850000D02*
X110500000Y-99850000D01*
X115900000Y-103150000D02*
X110500000Y-103150000D01*
X131600000Y-99850000D02*
X131600000Y-103150000D01*
X131600000Y-103150000D02*
X137000000Y-103150000D01*
X131600000Y-99850000D02*
X137000000Y-99850000D01*
X188170000Y-89450000D02*
X190830000Y-89450000D01*
X188170000Y-79230000D02*
X188170000Y-89450000D01*
X190830000Y-79230000D02*
X190830000Y-89450000D01*
X188170000Y-79230000D02*
X190830000Y-79230000D01*
X188170000Y-77960000D02*
X188170000Y-76630000D01*
X188170000Y-76630000D02*
X189500000Y-76630000D01*
X173470000Y-72170000D02*
X173470000Y-74830000D01*
X186230000Y-72170000D02*
X173470000Y-72170000D01*
X186230000Y-74830000D02*
X173470000Y-74830000D01*
X186230000Y-72170000D02*
X186230000Y-74830000D01*
X187500000Y-72170000D02*
X188830000Y-72170000D01*
X188830000Y-72170000D02*
X188830000Y-73500000D01*
D13*
X122800000Y-98900000D02*
X122800000Y-80300000D01*
X112600000Y-98900000D02*
X112600000Y-80300000D01*
X112600000Y-98900000D02*
X122800000Y-98900000D01*
X122800000Y-80300000D02*
X112600000Y-80300000D01*
X105900000Y-98900000D02*
X105900000Y-80300000D01*
X95700000Y-98900000D02*
X95700000Y-80300000D01*
X95700000Y-98900000D02*
X105900000Y-98900000D01*
X105900000Y-80300000D02*
X95700000Y-80300000D01*
X139800000Y-98900000D02*
X139800000Y-80300000D01*
X129600000Y-98900000D02*
X129600000Y-80300000D01*
X129600000Y-98900000D02*
X139800000Y-98900000D01*
X139800000Y-80300000D02*
X129600000Y-80300000D01*
D14*
X156080000Y-90190000D02*
X145840000Y-90190000D01*
X156080000Y-106080000D02*
X145840000Y-106080000D01*
X156080000Y-106080000D02*
X156080000Y-90190000D01*
X145840000Y-106080000D02*
X145840000Y-90190000D01*
X153500000Y-90190000D02*
X153500000Y-87550000D01*
X150960000Y-90190000D02*
X150960000Y-87566000D01*
X148420000Y-90190000D02*
X148420000Y-87566000D01*
X125760000Y-107080000D02*
X125760000Y-106150000D01*
X125760000Y-103920000D02*
X125760000Y-104850000D01*
X125760000Y-103920000D02*
X123600000Y-103920000D01*
X125760000Y-107080000D02*
X124300000Y-107080000D01*
X110740000Y-104420000D02*
X110740000Y-105350000D01*
X110740000Y-107580000D02*
X110740000Y-106650000D01*
X110740000Y-107580000D02*
X112900000Y-107580000D01*
X110740000Y-104420000D02*
X112200000Y-104420000D01*
X136760000Y-107080000D02*
X136760000Y-106150000D01*
X136760000Y-103920000D02*
X136760000Y-104850000D01*
X136760000Y-103920000D02*
X134600000Y-103920000D01*
X136760000Y-107080000D02*
X135300000Y-107080000D01*
X180880000Y-67900000D02*
X180880000Y-69100000D01*
X179120000Y-69100000D02*
X179120000Y-67900000D01*
X114620000Y-106600000D02*
X114620000Y-105400000D01*
X116380000Y-105400000D02*
X116380000Y-106600000D01*
X133380000Y-104900000D02*
X133380000Y-106100000D01*
X131620000Y-106100000D02*
X131620000Y-104900000D01*
D15*
X170499340Y-70502040D02*
X170499340Y-79498720D01*
X170499340Y-79498720D02*
X155500640Y-79498720D01*
X155500640Y-79498720D02*
X155500640Y-70502040D01*
X155500640Y-70502040D02*
X157502160Y-70502040D01*
X162500880Y-70502040D02*
X163501640Y-70502040D01*
X163501640Y-70502040D02*
X167502140Y-70502040D01*
X167502140Y-70502040D02*
X168497820Y-70502040D01*
X168497820Y-70502040D02*
X170499340Y-70502040D01*
X168497820Y-70502040D02*
X168497820Y-72000640D01*
X168497820Y-72000640D02*
X167502140Y-72000640D01*
X167502140Y-72000640D02*
X167502140Y-70502040D01*
X163501640Y-70502040D02*
X163501640Y-72000640D01*
X163501640Y-72000640D02*
X162500880Y-72000640D01*
X162500880Y-72000640D02*
X162500880Y-70502040D01*
X168299700Y-72102240D02*
X168299700Y-72800740D01*
X168099040Y-72102240D02*
X168099040Y-72800740D01*
X167900920Y-72102240D02*
X167900920Y-72800740D01*
X167700260Y-72102240D02*
X167700260Y-72800740D01*
X168299700Y-72800740D02*
X167700260Y-72800740D01*
X163300980Y-72102240D02*
X163300980Y-72800740D01*
X163300980Y-72800740D02*
X163100320Y-72800740D01*
X163100320Y-72800740D02*
X163100320Y-72102240D01*
X163100320Y-72800740D02*
X162902200Y-72800740D01*
X162902200Y-72800740D02*
X162902200Y-72102240D01*
X162902200Y-72800740D02*
X162701540Y-72800740D01*
X162701540Y-72800740D02*
X162701540Y-72102240D01*
X157502160Y-70502040D02*
X158500380Y-70502040D01*
X158500380Y-70502040D02*
X162500880Y-70502040D01*
X158500380Y-70502040D02*
X158500380Y-72000640D01*
X158500380Y-72000640D02*
X157502160Y-72000640D01*
X157502160Y-72000640D02*
X157502160Y-70502040D01*
X158302260Y-72102240D02*
X158302260Y-72800740D01*
X158302260Y-72800740D02*
X158101600Y-72800740D01*
X158101600Y-72800740D02*
X158101600Y-72102240D01*
X158101600Y-72800740D02*
X157900940Y-72800740D01*
X157900940Y-72800740D02*
X157900940Y-72102240D01*
X157900940Y-72800740D02*
X157700280Y-72800740D01*
X157700280Y-72800740D02*
X157700280Y-72102240D01*
X155498080Y-70502040D02*
X155498080Y-79498720D01*
X155498080Y-79498720D02*
X145500640Y-79498720D01*
X145500640Y-79498720D02*
X145500640Y-70502040D01*
X145500640Y-70502040D02*
X147499620Y-70502040D01*
X147499620Y-70502040D02*
X148500380Y-70502040D01*
X148500380Y-70502040D02*
X152500880Y-70502040D01*
X152500880Y-70502040D02*
X153496560Y-70502040D01*
X153496560Y-70502040D02*
X155498080Y-70502040D01*
X153496560Y-70502040D02*
X153496560Y-72000640D01*
X153496560Y-72000640D02*
X152500880Y-72000640D01*
X152500880Y-72000640D02*
X152500880Y-70502040D01*
X148500380Y-70502040D02*
X148500380Y-72000640D01*
X148500380Y-72000640D02*
X147499620Y-72000640D01*
X147499620Y-72000640D02*
X147499620Y-70502040D01*
X153298440Y-72102240D02*
X153298440Y-72800740D01*
X153097780Y-72102240D02*
X153097780Y-72800740D01*
X152899660Y-72102240D02*
X152899660Y-72800740D01*
X152699000Y-72102240D02*
X152699000Y-72800740D01*
X153298440Y-72800740D02*
X152699000Y-72800740D01*
X148299720Y-72102240D02*
X148299720Y-72800740D01*
X148299720Y-72800740D02*
X148099060Y-72800740D01*
X148099060Y-72800740D02*
X148099060Y-72102240D01*
X148099060Y-72800740D02*
X147900940Y-72800740D01*
X147900940Y-72800740D02*
X147900940Y-72102240D01*
X147900940Y-72800740D02*
X147700280Y-72800740D01*
X147700280Y-72800740D02*
X147700280Y-72102240D01*
X122498080Y-70502040D02*
X122498080Y-79498720D01*
X122498080Y-79498720D02*
X112500640Y-79498720D01*
X112500640Y-79498720D02*
X112500640Y-70502040D01*
X112500640Y-70502040D02*
X114499620Y-70502040D01*
X114499620Y-70502040D02*
X115500380Y-70502040D01*
X115500380Y-70502040D02*
X119500880Y-70502040D01*
X119500880Y-70502040D02*
X120496560Y-70502040D01*
X120496560Y-70502040D02*
X122498080Y-70502040D01*
X120496560Y-70502040D02*
X120496560Y-72000640D01*
X120496560Y-72000640D02*
X119500880Y-72000640D01*
X119500880Y-72000640D02*
X119500880Y-70502040D01*
X115500380Y-70502040D02*
X115500380Y-72000640D01*
X115500380Y-72000640D02*
X114499620Y-72000640D01*
X114499620Y-72000640D02*
X114499620Y-70502040D01*
X120298440Y-72102240D02*
X120298440Y-72800740D01*
X120097780Y-72102240D02*
X120097780Y-72800740D01*
X119899660Y-72102240D02*
X119899660Y-72800740D01*
X119699000Y-72102240D02*
X119699000Y-72800740D01*
X120298440Y-72800740D02*
X119699000Y-72800740D01*
X115299720Y-72102240D02*
X115299720Y-72800740D01*
X115299720Y-72800740D02*
X115099060Y-72800740D01*
X115099060Y-72800740D02*
X115099060Y-72102240D01*
X115099060Y-72800740D02*
X114900940Y-72800740D01*
X114900940Y-72800740D02*
X114900940Y-72102240D01*
X114900940Y-72800740D02*
X114700280Y-72800740D01*
X114700280Y-72800740D02*
X114700280Y-72102240D01*
X105499360Y-70502040D02*
X105499360Y-79498720D01*
X105499360Y-79498720D02*
X95501920Y-79498720D01*
X95501920Y-79498720D02*
X95501920Y-70502040D01*
X95501920Y-70502040D02*
X97500900Y-70502040D01*
X97500900Y-70502040D02*
X98501660Y-70502040D01*
X98501660Y-70502040D02*
X102502160Y-70502040D01*
X102502160Y-70502040D02*
X103497840Y-70502040D01*
X103497840Y-70502040D02*
X105499360Y-70502040D01*
X103497840Y-70502040D02*
X103497840Y-72000640D01*
X103497840Y-72000640D02*
X102502160Y-72000640D01*
X102502160Y-72000640D02*
X102502160Y-70502040D01*
X98501660Y-70502040D02*
X98501660Y-72000640D01*
X98501660Y-72000640D02*
X97500900Y-72000640D01*
X97500900Y-72000640D02*
X97500900Y-70502040D01*
X103299720Y-72102240D02*
X103299720Y-72800740D01*
X103099060Y-72102240D02*
X103099060Y-72800740D01*
X102900940Y-72102240D02*
X102900940Y-72800740D01*
X102700280Y-72102240D02*
X102700280Y-72800740D01*
X103299720Y-72800740D02*
X102700280Y-72800740D01*
X98301000Y-72102240D02*
X98301000Y-72800740D01*
X98301000Y-72800740D02*
X98100340Y-72800740D01*
X98100340Y-72800740D02*
X98100340Y-72102240D01*
X98100340Y-72800740D02*
X97902220Y-72800740D01*
X97902220Y-72800740D02*
X97902220Y-72102240D01*
X97902220Y-72800740D02*
X97701560Y-72800740D01*
X97701560Y-72800740D02*
X97701560Y-72102240D01*
X139498080Y-70502040D02*
X139498080Y-79498720D01*
X139498080Y-79498720D02*
X129500640Y-79498720D01*
X129500640Y-79498720D02*
X129500640Y-70502040D01*
X129500640Y-70502040D02*
X131499620Y-70502040D01*
X131499620Y-70502040D02*
X132500380Y-70502040D01*
X132500380Y-70502040D02*
X136500880Y-70502040D01*
X136500880Y-70502040D02*
X137496560Y-70502040D01*
X137496560Y-70502040D02*
X139498080Y-70502040D01*
X137496560Y-70502040D02*
X137496560Y-72000640D01*
X137496560Y-72000640D02*
X136500880Y-72000640D01*
X136500880Y-72000640D02*
X136500880Y-70502040D01*
X132500380Y-70502040D02*
X132500380Y-72000640D01*
X132500380Y-72000640D02*
X131499620Y-72000640D01*
X131499620Y-72000640D02*
X131499620Y-70502040D01*
X137298440Y-72102240D02*
X137298440Y-72800740D01*
X137097780Y-72102240D02*
X137097780Y-72800740D01*
X136899660Y-72102240D02*
X136899660Y-72800740D01*
X136699000Y-72102240D02*
X136699000Y-72800740D01*
X137298440Y-72800740D02*
X136699000Y-72800740D01*
X132299720Y-72102240D02*
X132299720Y-72800740D01*
X132299720Y-72800740D02*
X132099060Y-72800740D01*
X132099060Y-72800740D02*
X132099060Y-72102240D01*
X132099060Y-72800740D02*
X131900940Y-72800740D01*
X131900940Y-72800740D02*
X131900940Y-72102240D01*
X131900940Y-72800740D02*
X131700280Y-72800740D01*
X131700280Y-72800740D02*
X131700280Y-72102240D01*
D14*
X165410000Y-90740000D02*
X164150000Y-90740000D01*
X158590000Y-90740000D02*
X159850000Y-90740000D01*
X165410000Y-94500000D02*
X165410000Y-90740000D01*
X158590000Y-96750000D02*
X158590000Y-90740000D01*
X151650000Y-83380000D02*
X150450000Y-83380000D01*
X150450000Y-81620000D02*
X151650000Y-81620000D01*
X122380000Y-104900000D02*
X122380000Y-106100000D01*
X120620000Y-106100000D02*
X120620000Y-104900000D01*
D13*
X177538095Y-80852381D02*
X177538095Y-81661905D01*
X177585714Y-81757143D01*
X177633333Y-81804762D01*
X177728571Y-81852381D01*
X177919048Y-81852381D01*
X178014286Y-81804762D01*
X178061905Y-81757143D01*
X178109524Y-81661905D01*
X178109524Y-80852381D01*
X178538095Y-80947619D02*
X178585714Y-80900000D01*
X178680952Y-80852381D01*
X178919048Y-80852381D01*
X179014286Y-80900000D01*
X179061905Y-80947619D01*
X179109524Y-81042857D01*
X179109524Y-81138095D01*
X179061905Y-81280952D01*
X178490476Y-81852381D01*
X179109524Y-81852381D01*
X157833334Y-87357143D02*
X157785715Y-87404762D01*
X157642858Y-87452381D01*
X157547620Y-87452381D01*
X157404762Y-87404762D01*
X157309524Y-87309524D01*
X157261905Y-87214286D01*
X157214286Y-87023810D01*
X157214286Y-86880952D01*
X157261905Y-86690476D01*
X157309524Y-86595238D01*
X157404762Y-86500000D01*
X157547620Y-86452381D01*
X157642858Y-86452381D01*
X157785715Y-86500000D01*
X157833334Y-86547619D01*
X158785715Y-87452381D02*
X158214286Y-87452381D01*
X158500000Y-87452381D02*
X158500000Y-86452381D01*
X158404762Y-86595238D01*
X158309524Y-86690476D01*
X158214286Y-86738095D01*
X174607143Y-68666666D02*
X174654762Y-68714285D01*
X174702381Y-68857142D01*
X174702381Y-68952380D01*
X174654762Y-69095238D01*
X174559524Y-69190476D01*
X174464286Y-69238095D01*
X174273810Y-69285714D01*
X174130952Y-69285714D01*
X173940476Y-69238095D01*
X173845238Y-69190476D01*
X173750000Y-69095238D01*
X173702381Y-68952380D01*
X173702381Y-68857142D01*
X173750000Y-68714285D01*
X173797619Y-68666666D01*
X173797619Y-68285714D02*
X173750000Y-68238095D01*
X173702381Y-68142857D01*
X173702381Y-67904761D01*
X173750000Y-67809523D01*
X173797619Y-67761904D01*
X173892857Y-67714285D01*
X173988095Y-67714285D01*
X174130952Y-67761904D01*
X174702381Y-68333333D01*
X174702381Y-67714285D01*
X167083334Y-88167143D02*
X167035715Y-88214762D01*
X166892858Y-88262381D01*
X166797620Y-88262381D01*
X166654762Y-88214762D01*
X166559524Y-88119524D01*
X166511905Y-88024286D01*
X166464286Y-87833810D01*
X166464286Y-87690952D01*
X166511905Y-87500476D01*
X166559524Y-87405238D01*
X166654762Y-87310000D01*
X166797620Y-87262381D01*
X166892858Y-87262381D01*
X167035715Y-87310000D01*
X167083334Y-87357619D01*
X167988096Y-87262381D02*
X167511905Y-87262381D01*
X167464286Y-87738571D01*
X167511905Y-87690952D01*
X167607143Y-87643333D01*
X167845239Y-87643333D01*
X167940477Y-87690952D01*
X167988096Y-87738571D01*
X168035715Y-87833810D01*
X168035715Y-88071905D01*
X167988096Y-88167143D01*
X167940477Y-88214762D01*
X167845239Y-88262381D01*
X167607143Y-88262381D01*
X167511905Y-88214762D01*
X167464286Y-88167143D01*
X181333334Y-97607143D02*
X181285715Y-97654762D01*
X181142858Y-97702381D01*
X181047620Y-97702381D01*
X180904762Y-97654762D01*
X180809524Y-97559524D01*
X180761905Y-97464286D01*
X180714286Y-97273810D01*
X180714286Y-97130952D01*
X180761905Y-96940476D01*
X180809524Y-96845238D01*
X180904762Y-96750000D01*
X181047620Y-96702381D01*
X181142858Y-96702381D01*
X181285715Y-96750000D01*
X181333334Y-96797619D01*
X182190477Y-96702381D02*
X182000000Y-96702381D01*
X181904762Y-96750000D01*
X181857143Y-96797619D01*
X181761905Y-96940476D01*
X181714286Y-97130952D01*
X181714286Y-97511905D01*
X181761905Y-97607143D01*
X181809524Y-97654762D01*
X181904762Y-97702381D01*
X182095239Y-97702381D01*
X182190477Y-97654762D01*
X182238096Y-97607143D01*
X182285715Y-97511905D01*
X182285715Y-97273810D01*
X182238096Y-97178571D01*
X182190477Y-97130952D01*
X182095239Y-97083333D01*
X181904762Y-97083333D01*
X181809524Y-97130952D01*
X181761905Y-97178571D01*
X181714286Y-97273810D01*
X174333334Y-77607143D02*
X174285715Y-77654762D01*
X174142858Y-77702381D01*
X174047620Y-77702381D01*
X173904762Y-77654762D01*
X173809524Y-77559524D01*
X173761905Y-77464286D01*
X173714286Y-77273810D01*
X173714286Y-77130952D01*
X173761905Y-76940476D01*
X173809524Y-76845238D01*
X173904762Y-76750000D01*
X174047620Y-76702381D01*
X174142858Y-76702381D01*
X174285715Y-76750000D01*
X174333334Y-76797619D01*
X174666667Y-76702381D02*
X175333334Y-76702381D01*
X174904762Y-77702381D01*
X123261905Y-99452381D02*
X123261905Y-98452381D01*
X123500000Y-98452381D01*
X123642858Y-98500000D01*
X123738096Y-98595238D01*
X123785715Y-98690476D01*
X123833334Y-98880952D01*
X123833334Y-99023810D01*
X123785715Y-99214286D01*
X123738096Y-99309524D01*
X123642858Y-99404762D01*
X123500000Y-99452381D01*
X123261905Y-99452381D01*
X124785715Y-99452381D02*
X124214286Y-99452381D01*
X124500000Y-99452381D02*
X124500000Y-98452381D01*
X124404762Y-98595238D01*
X124309524Y-98690476D01*
X124214286Y-98738095D01*
X106261905Y-101952381D02*
X106261905Y-100952381D01*
X106500000Y-100952381D01*
X106642858Y-101000000D01*
X106738096Y-101095238D01*
X106785715Y-101190476D01*
X106833334Y-101380952D01*
X106833334Y-101523810D01*
X106785715Y-101714286D01*
X106738096Y-101809524D01*
X106642858Y-101904762D01*
X106500000Y-101952381D01*
X106261905Y-101952381D01*
X107214286Y-101047619D02*
X107261905Y-101000000D01*
X107357143Y-100952381D01*
X107595239Y-100952381D01*
X107690477Y-101000000D01*
X107738096Y-101047619D01*
X107785715Y-101142857D01*
X107785715Y-101238095D01*
X107738096Y-101380952D01*
X107166667Y-101952381D01*
X107785715Y-101952381D01*
X134261905Y-99452381D02*
X134261905Y-98452381D01*
X134500000Y-98452381D01*
X134642858Y-98500000D01*
X134738096Y-98595238D01*
X134785715Y-98690476D01*
X134833334Y-98880952D01*
X134833334Y-99023810D01*
X134785715Y-99214286D01*
X134738096Y-99309524D01*
X134642858Y-99404762D01*
X134500000Y-99452381D01*
X134261905Y-99452381D01*
X135166667Y-98452381D02*
X135785715Y-98452381D01*
X135452381Y-98833333D01*
X135595239Y-98833333D01*
X135690477Y-98880952D01*
X135738096Y-98928571D01*
X135785715Y-99023810D01*
X135785715Y-99261905D01*
X135738096Y-99357143D01*
X135690477Y-99404762D01*
X135595239Y-99452381D01*
X135309524Y-99452381D01*
X135214286Y-99404762D01*
X135166667Y-99357143D01*
X189916667Y-74952381D02*
X189916667Y-75666667D01*
X189869047Y-75809524D01*
X189773809Y-75904762D01*
X189630952Y-75952381D01*
X189535714Y-75952381D01*
X190297619Y-74952381D02*
X190916667Y-74952381D01*
X190583333Y-75333333D01*
X190726191Y-75333333D01*
X190821429Y-75380952D01*
X190869048Y-75428571D01*
X190916667Y-75523810D01*
X190916667Y-75761905D01*
X190869048Y-75857143D01*
X190821429Y-75904762D01*
X190726191Y-75952381D01*
X190440476Y-75952381D01*
X190345238Y-75904762D01*
X190297619Y-75857143D01*
X184416667Y-70702381D02*
X184416667Y-71416667D01*
X184369047Y-71559524D01*
X184273809Y-71654762D01*
X184130952Y-71702381D01*
X184035714Y-71702381D01*
X185321429Y-71035714D02*
X185321429Y-71702381D01*
X185083333Y-70654762D02*
X184845238Y-71369048D01*
X185464286Y-71369048D01*
X124452381Y-97638095D02*
X123452381Y-97638095D01*
X124452381Y-97066666D02*
X123880952Y-97495238D01*
X123452381Y-97066666D02*
X124023810Y-97638095D01*
X124452381Y-96114285D02*
X124452381Y-96685714D01*
X124452381Y-96400000D02*
X123452381Y-96400000D01*
X123595238Y-96495238D01*
X123690476Y-96590476D01*
X123738095Y-96685714D01*
X107552381Y-97638095D02*
X106552381Y-97638095D01*
X107552381Y-97066666D02*
X106980952Y-97495238D01*
X106552381Y-97066666D02*
X107123810Y-97638095D01*
X106647619Y-96685714D02*
X106600000Y-96638095D01*
X106552381Y-96542857D01*
X106552381Y-96304761D01*
X106600000Y-96209523D01*
X106647619Y-96161904D01*
X106742857Y-96114285D01*
X106838095Y-96114285D01*
X106980952Y-96161904D01*
X107552381Y-96733333D01*
X107552381Y-96114285D01*
X141452381Y-97638095D02*
X140452381Y-97638095D01*
X141452381Y-97066666D02*
X140880952Y-97495238D01*
X140452381Y-97066666D02*
X141023810Y-97638095D01*
X140452381Y-96733333D02*
X140452381Y-96114285D01*
X140833333Y-96447619D01*
X140833333Y-96304761D01*
X140880952Y-96209523D01*
X140928571Y-96161904D01*
X141023810Y-96114285D01*
X141261905Y-96114285D01*
X141357143Y-96161904D01*
X141404762Y-96209523D01*
X141452381Y-96304761D01*
X141452381Y-96590476D01*
X141404762Y-96685714D01*
X141357143Y-96733333D01*
X150864762Y-107627619D02*
X150769524Y-107580000D01*
X150674286Y-107484762D01*
X150531429Y-107341905D01*
X150436190Y-107294286D01*
X150340952Y-107294286D01*
X150388571Y-107532381D02*
X150293333Y-107484762D01*
X150198095Y-107389524D01*
X150150476Y-107199048D01*
X150150476Y-106865714D01*
X150198095Y-106675238D01*
X150293333Y-106580000D01*
X150388571Y-106532381D01*
X150579048Y-106532381D01*
X150674286Y-106580000D01*
X150769524Y-106675238D01*
X150817143Y-106865714D01*
X150817143Y-107199048D01*
X150769524Y-107389524D01*
X150674286Y-107484762D01*
X150579048Y-107532381D01*
X150388571Y-107532381D01*
X151769524Y-107532381D02*
X151198095Y-107532381D01*
X151483809Y-107532381D02*
X151483809Y-106532381D01*
X151388571Y-106675238D01*
X151293333Y-106770476D01*
X151198095Y-106818095D01*
X124904762Y-103547619D02*
X124809524Y-103500000D01*
X124714286Y-103404762D01*
X124571429Y-103261905D01*
X124476190Y-103214286D01*
X124380952Y-103214286D01*
X124428571Y-103452381D02*
X124333333Y-103404762D01*
X124238095Y-103309524D01*
X124190476Y-103119048D01*
X124190476Y-102785714D01*
X124238095Y-102595238D01*
X124333333Y-102500000D01*
X124428571Y-102452381D01*
X124619048Y-102452381D01*
X124714286Y-102500000D01*
X124809524Y-102595238D01*
X124857143Y-102785714D01*
X124857143Y-103119048D01*
X124809524Y-103309524D01*
X124714286Y-103404762D01*
X124619048Y-103452381D01*
X124428571Y-103452381D01*
X125238095Y-102547619D02*
X125285714Y-102500000D01*
X125380952Y-102452381D01*
X125619048Y-102452381D01*
X125714286Y-102500000D01*
X125761905Y-102547619D01*
X125809524Y-102642857D01*
X125809524Y-102738095D01*
X125761905Y-102880952D01*
X125190476Y-103452381D01*
X125809524Y-103452381D01*
X108404762Y-106547619D02*
X108309524Y-106500000D01*
X108214286Y-106404762D01*
X108071429Y-106261905D01*
X107976190Y-106214286D01*
X107880952Y-106214286D01*
X107928571Y-106452381D02*
X107833333Y-106404762D01*
X107738095Y-106309524D01*
X107690476Y-106119048D01*
X107690476Y-105785714D01*
X107738095Y-105595238D01*
X107833333Y-105500000D01*
X107928571Y-105452381D01*
X108119048Y-105452381D01*
X108214286Y-105500000D01*
X108309524Y-105595238D01*
X108357143Y-105785714D01*
X108357143Y-106119048D01*
X108309524Y-106309524D01*
X108214286Y-106404762D01*
X108119048Y-106452381D01*
X107928571Y-106452381D01*
X108690476Y-105452381D02*
X109309524Y-105452381D01*
X108976190Y-105833333D01*
X109119048Y-105833333D01*
X109214286Y-105880952D01*
X109261905Y-105928571D01*
X109309524Y-106023810D01*
X109309524Y-106261905D01*
X109261905Y-106357143D01*
X109214286Y-106404762D01*
X109119048Y-106452381D01*
X108833333Y-106452381D01*
X108738095Y-106404762D01*
X108690476Y-106357143D01*
X135904762Y-103547619D02*
X135809524Y-103500000D01*
X135714286Y-103404762D01*
X135571429Y-103261905D01*
X135476190Y-103214286D01*
X135380952Y-103214286D01*
X135428571Y-103452381D02*
X135333333Y-103404762D01*
X135238095Y-103309524D01*
X135190476Y-103119048D01*
X135190476Y-102785714D01*
X135238095Y-102595238D01*
X135333333Y-102500000D01*
X135428571Y-102452381D01*
X135619048Y-102452381D01*
X135714286Y-102500000D01*
X135809524Y-102595238D01*
X135857143Y-102785714D01*
X135857143Y-103119048D01*
X135809524Y-103309524D01*
X135714286Y-103404762D01*
X135619048Y-103452381D01*
X135428571Y-103452381D01*
X136714286Y-102785714D02*
X136714286Y-103452381D01*
X136476190Y-102404762D02*
X136238095Y-103119048D01*
X136857143Y-103119048D01*
X178752381Y-68666666D02*
X178276190Y-69000000D01*
X178752381Y-69238095D02*
X177752381Y-69238095D01*
X177752381Y-68857142D01*
X177800000Y-68761904D01*
X177847619Y-68714285D01*
X177942857Y-68666666D01*
X178085714Y-68666666D01*
X178180952Y-68714285D01*
X178228571Y-68761904D01*
X178276190Y-68857142D01*
X178276190Y-69238095D01*
X178752381Y-67714285D02*
X178752381Y-68285714D01*
X178752381Y-68000000D02*
X177752381Y-68000000D01*
X177895238Y-68095238D01*
X177990476Y-68190476D01*
X178038095Y-68285714D01*
X117952381Y-106166666D02*
X117476190Y-106500000D01*
X117952381Y-106738095D02*
X116952381Y-106738095D01*
X116952381Y-106357142D01*
X117000000Y-106261904D01*
X117047619Y-106214285D01*
X117142857Y-106166666D01*
X117285714Y-106166666D01*
X117380952Y-106214285D01*
X117428571Y-106261904D01*
X117476190Y-106357142D01*
X117476190Y-106738095D01*
X116952381Y-105833333D02*
X116952381Y-105214285D01*
X117333333Y-105547619D01*
X117333333Y-105404761D01*
X117380952Y-105309523D01*
X117428571Y-105261904D01*
X117523810Y-105214285D01*
X117761905Y-105214285D01*
X117857143Y-105261904D01*
X117904762Y-105309523D01*
X117952381Y-105404761D01*
X117952381Y-105690476D01*
X117904762Y-105785714D01*
X117857143Y-105833333D01*
X131302381Y-105666666D02*
X130826190Y-106000000D01*
X131302381Y-106238095D02*
X130302381Y-106238095D01*
X130302381Y-105857142D01*
X130350000Y-105761904D01*
X130397619Y-105714285D01*
X130492857Y-105666666D01*
X130635714Y-105666666D01*
X130730952Y-105714285D01*
X130778571Y-105761904D01*
X130826190Y-105857142D01*
X130826190Y-106238095D01*
X130635714Y-104809523D02*
X131302381Y-104809523D01*
X130254762Y-105047619D02*
X130969048Y-105285714D01*
X130969048Y-104666666D01*
D16*
X170032381Y-68804524D02*
X170758096Y-68804524D01*
X170395239Y-70074524D02*
X170395239Y-68804524D01*
X171846667Y-70074524D02*
X171120953Y-70074524D01*
X171483810Y-70074524D02*
X171483810Y-68804524D01*
X171362858Y-68985952D01*
X171241905Y-69106905D01*
X171120953Y-69167381D01*
D17*
X164377215Y-71222674D02*
X164348186Y-71251703D01*
X164261100Y-71280731D01*
X164203043Y-71280731D01*
X164115958Y-71251703D01*
X164057900Y-71193646D01*
X164028872Y-71135589D01*
X163999843Y-71019474D01*
X163999843Y-70932389D01*
X164028872Y-70816274D01*
X164057900Y-70758217D01*
X164115958Y-70700160D01*
X164203043Y-70671131D01*
X164261100Y-70671131D01*
X164348186Y-70700160D01*
X164377215Y-70729189D01*
X164609443Y-71106560D02*
X164899729Y-71106560D01*
X164551386Y-71280731D02*
X164754586Y-70671131D01*
X164957786Y-71280731D01*
X165364186Y-70961417D02*
X165451272Y-70990446D01*
X165480300Y-71019474D01*
X165509329Y-71077531D01*
X165509329Y-71164617D01*
X165480300Y-71222674D01*
X165451272Y-71251703D01*
X165393214Y-71280731D01*
X165160986Y-71280731D01*
X165160986Y-70671131D01*
X165364186Y-70671131D01*
X165422243Y-70700160D01*
X165451272Y-70729189D01*
X165480300Y-70787246D01*
X165480300Y-70845303D01*
X165451272Y-70903360D01*
X165422243Y-70932389D01*
X165364186Y-70961417D01*
X165160986Y-70961417D01*
X166060872Y-71280731D02*
X165770586Y-71280731D01*
X165770586Y-70671131D01*
X166264072Y-70961417D02*
X166467272Y-70961417D01*
X166554358Y-71280731D02*
X166264072Y-71280731D01*
X166264072Y-70671131D01*
X166554358Y-70671131D01*
X159281974Y-71353303D02*
X159369060Y-71382331D01*
X159514203Y-71382331D01*
X159572260Y-71353303D01*
X159601289Y-71324274D01*
X159630317Y-71266217D01*
X159630317Y-71208160D01*
X159601289Y-71150103D01*
X159572260Y-71121074D01*
X159514203Y-71092046D01*
X159398089Y-71063017D01*
X159340031Y-71033989D01*
X159311003Y-71004960D01*
X159281974Y-70946903D01*
X159281974Y-70888846D01*
X159311003Y-70830789D01*
X159340031Y-70801760D01*
X159398089Y-70772731D01*
X159543231Y-70772731D01*
X159630317Y-70801760D01*
X159891574Y-71382331D02*
X159891574Y-70772731D01*
X160181860Y-71382331D02*
X160181860Y-70772731D01*
X160327003Y-70772731D01*
X160414088Y-70801760D01*
X160472146Y-70859817D01*
X160501174Y-70917874D01*
X160530203Y-71033989D01*
X160530203Y-71121074D01*
X160501174Y-71237189D01*
X160472146Y-71295246D01*
X160414088Y-71353303D01*
X160327003Y-71382331D01*
X160181860Y-71382331D01*
X160791460Y-71063017D02*
X160994660Y-71063017D01*
X161081746Y-71382331D02*
X160791460Y-71382331D01*
X160791460Y-70772731D01*
X161081746Y-70772731D01*
D16*
X168362837Y-78249524D02*
X167637123Y-78249524D01*
X167999980Y-78249524D02*
X167999980Y-76979524D01*
X167879028Y-77160952D01*
X167758075Y-77281905D01*
X167637123Y-77342381D01*
X162557123Y-77100476D02*
X162617599Y-77040000D01*
X162738551Y-76979524D01*
X163040932Y-76979524D01*
X163161885Y-77040000D01*
X163222361Y-77100476D01*
X163282837Y-77221429D01*
X163282837Y-77342381D01*
X163222361Y-77523810D01*
X162496647Y-78249524D01*
X163282837Y-78249524D01*
X157497927Y-76979524D02*
X158284117Y-76979524D01*
X157860784Y-77463333D01*
X158042212Y-77463333D01*
X158163165Y-77523810D01*
X158223641Y-77584286D01*
X158284117Y-77705238D01*
X158284117Y-78007619D01*
X158223641Y-78128571D01*
X158163165Y-78189048D01*
X158042212Y-78249524D01*
X157679355Y-78249524D01*
X157558403Y-78189048D01*
X157497927Y-78128571D01*
X143032381Y-73804524D02*
X143758096Y-73804524D01*
X143395239Y-75074524D02*
X143395239Y-73804524D01*
X144120953Y-73925476D02*
X144181429Y-73865000D01*
X144302381Y-73804524D01*
X144604762Y-73804524D01*
X144725715Y-73865000D01*
X144786191Y-73925476D01*
X144846667Y-74046429D01*
X144846667Y-74167381D01*
X144786191Y-74348810D01*
X144060477Y-75074524D01*
X144846667Y-75074524D01*
D17*
X149375955Y-72223434D02*
X149346926Y-72252463D01*
X149259840Y-72281491D01*
X149201783Y-72281491D01*
X149114698Y-72252463D01*
X149056640Y-72194406D01*
X149027612Y-72136349D01*
X148998583Y-72020234D01*
X148998583Y-71933149D01*
X149027612Y-71817034D01*
X149056640Y-71758977D01*
X149114698Y-71700920D01*
X149201783Y-71671891D01*
X149259840Y-71671891D01*
X149346926Y-71700920D01*
X149375955Y-71729949D01*
X149608183Y-72107320D02*
X149898469Y-72107320D01*
X149550126Y-72281491D02*
X149753326Y-71671891D01*
X149956526Y-72281491D01*
X150362926Y-71962177D02*
X150450012Y-71991206D01*
X150479040Y-72020234D01*
X150508069Y-72078291D01*
X150508069Y-72165377D01*
X150479040Y-72223434D01*
X150450012Y-72252463D01*
X150391954Y-72281491D01*
X150159726Y-72281491D01*
X150159726Y-71671891D01*
X150362926Y-71671891D01*
X150420983Y-71700920D01*
X150450012Y-71729949D01*
X150479040Y-71788006D01*
X150479040Y-71846063D01*
X150450012Y-71904120D01*
X150420983Y-71933149D01*
X150362926Y-71962177D01*
X150159726Y-71962177D01*
X151059612Y-72281491D02*
X150769326Y-72281491D01*
X150769326Y-71671891D01*
X151262812Y-71962177D02*
X151466012Y-71962177D01*
X151553098Y-72281491D02*
X151262812Y-72281491D01*
X151262812Y-71671891D01*
X151553098Y-71671891D01*
X149281974Y-71353303D02*
X149369060Y-71382331D01*
X149514203Y-71382331D01*
X149572260Y-71353303D01*
X149601289Y-71324274D01*
X149630317Y-71266217D01*
X149630317Y-71208160D01*
X149601289Y-71150103D01*
X149572260Y-71121074D01*
X149514203Y-71092046D01*
X149398089Y-71063017D01*
X149340031Y-71033989D01*
X149311003Y-71004960D01*
X149281974Y-70946903D01*
X149281974Y-70888846D01*
X149311003Y-70830789D01*
X149340031Y-70801760D01*
X149398089Y-70772731D01*
X149543231Y-70772731D01*
X149630317Y-70801760D01*
X149891574Y-71382331D02*
X149891574Y-70772731D01*
X150181860Y-71382331D02*
X150181860Y-70772731D01*
X150327003Y-70772731D01*
X150414088Y-70801760D01*
X150472146Y-70859817D01*
X150501174Y-70917874D01*
X150530203Y-71033989D01*
X150530203Y-71121074D01*
X150501174Y-71237189D01*
X150472146Y-71295246D01*
X150414088Y-71353303D01*
X150327003Y-71382331D01*
X150181860Y-71382331D01*
X150791460Y-71063017D02*
X150994660Y-71063017D01*
X151081746Y-71382331D02*
X150791460Y-71382331D01*
X150791460Y-70772731D01*
X151081746Y-70772731D01*
D16*
X153361577Y-78249524D02*
X152635863Y-78249524D01*
X152998720Y-78249524D02*
X152998720Y-76979524D01*
X152877768Y-77160952D01*
X152756815Y-77281905D01*
X152635863Y-77342381D01*
X147555863Y-77100476D02*
X147616339Y-77040000D01*
X147737291Y-76979524D01*
X148039672Y-76979524D01*
X148160625Y-77040000D01*
X148221101Y-77100476D01*
X148281577Y-77221429D01*
X148281577Y-77342381D01*
X148221101Y-77523810D01*
X147495387Y-78249524D01*
X148281577Y-78249524D01*
X110032381Y-73804524D02*
X110758096Y-73804524D01*
X110395239Y-75074524D02*
X110395239Y-73804524D01*
X111060477Y-73804524D02*
X111846667Y-73804524D01*
X111423334Y-74288333D01*
X111604762Y-74288333D01*
X111725715Y-74348810D01*
X111786191Y-74409286D01*
X111846667Y-74530238D01*
X111846667Y-74832619D01*
X111786191Y-74953571D01*
X111725715Y-75014048D01*
X111604762Y-75074524D01*
X111241905Y-75074524D01*
X111120953Y-75014048D01*
X111060477Y-74953571D01*
D17*
X116375955Y-72223434D02*
X116346926Y-72252463D01*
X116259840Y-72281491D01*
X116201783Y-72281491D01*
X116114698Y-72252463D01*
X116056640Y-72194406D01*
X116027612Y-72136349D01*
X115998583Y-72020234D01*
X115998583Y-71933149D01*
X116027612Y-71817034D01*
X116056640Y-71758977D01*
X116114698Y-71700920D01*
X116201783Y-71671891D01*
X116259840Y-71671891D01*
X116346926Y-71700920D01*
X116375955Y-71729949D01*
X116608183Y-72107320D02*
X116898469Y-72107320D01*
X116550126Y-72281491D02*
X116753326Y-71671891D01*
X116956526Y-72281491D01*
X117362926Y-71962177D02*
X117450012Y-71991206D01*
X117479040Y-72020234D01*
X117508069Y-72078291D01*
X117508069Y-72165377D01*
X117479040Y-72223434D01*
X117450012Y-72252463D01*
X117391954Y-72281491D01*
X117159726Y-72281491D01*
X117159726Y-71671891D01*
X117362926Y-71671891D01*
X117420983Y-71700920D01*
X117450012Y-71729949D01*
X117479040Y-71788006D01*
X117479040Y-71846063D01*
X117450012Y-71904120D01*
X117420983Y-71933149D01*
X117362926Y-71962177D01*
X117159726Y-71962177D01*
X118059612Y-72281491D02*
X117769326Y-72281491D01*
X117769326Y-71671891D01*
X118262812Y-71962177D02*
X118466012Y-71962177D01*
X118553098Y-72281491D02*
X118262812Y-72281491D01*
X118262812Y-71671891D01*
X118553098Y-71671891D01*
X116281974Y-71353303D02*
X116369060Y-71382331D01*
X116514203Y-71382331D01*
X116572260Y-71353303D01*
X116601289Y-71324274D01*
X116630317Y-71266217D01*
X116630317Y-71208160D01*
X116601289Y-71150103D01*
X116572260Y-71121074D01*
X116514203Y-71092046D01*
X116398089Y-71063017D01*
X116340031Y-71033989D01*
X116311003Y-71004960D01*
X116281974Y-70946903D01*
X116281974Y-70888846D01*
X116311003Y-70830789D01*
X116340031Y-70801760D01*
X116398089Y-70772731D01*
X116543231Y-70772731D01*
X116630317Y-70801760D01*
X116891574Y-71382331D02*
X116891574Y-70772731D01*
X117181860Y-71382331D02*
X117181860Y-70772731D01*
X117327003Y-70772731D01*
X117414088Y-70801760D01*
X117472146Y-70859817D01*
X117501174Y-70917874D01*
X117530203Y-71033989D01*
X117530203Y-71121074D01*
X117501174Y-71237189D01*
X117472146Y-71295246D01*
X117414088Y-71353303D01*
X117327003Y-71382331D01*
X117181860Y-71382331D01*
X117791460Y-71063017D02*
X117994660Y-71063017D01*
X118081746Y-71382331D02*
X117791460Y-71382331D01*
X117791460Y-70772731D01*
X118081746Y-70772731D01*
D16*
X120361577Y-78249524D02*
X119635863Y-78249524D01*
X119998720Y-78249524D02*
X119998720Y-76979524D01*
X119877768Y-77160952D01*
X119756815Y-77281905D01*
X119635863Y-77342381D01*
X114555863Y-77100476D02*
X114616339Y-77040000D01*
X114737291Y-76979524D01*
X115039672Y-76979524D01*
X115160625Y-77040000D01*
X115221101Y-77100476D01*
X115281577Y-77221429D01*
X115281577Y-77342381D01*
X115221101Y-77523810D01*
X114495387Y-78249524D01*
X115281577Y-78249524D01*
X93032381Y-73804524D02*
X93758096Y-73804524D01*
X93395239Y-75074524D02*
X93395239Y-73804524D01*
X94725715Y-74227857D02*
X94725715Y-75074524D01*
X94423334Y-73744048D02*
X94120953Y-74651190D01*
X94907143Y-74651190D01*
D17*
X99377235Y-72223434D02*
X99348206Y-72252463D01*
X99261120Y-72281491D01*
X99203063Y-72281491D01*
X99115978Y-72252463D01*
X99057920Y-72194406D01*
X99028892Y-72136349D01*
X98999863Y-72020234D01*
X98999863Y-71933149D01*
X99028892Y-71817034D01*
X99057920Y-71758977D01*
X99115978Y-71700920D01*
X99203063Y-71671891D01*
X99261120Y-71671891D01*
X99348206Y-71700920D01*
X99377235Y-71729949D01*
X99609463Y-72107320D02*
X99899749Y-72107320D01*
X99551406Y-72281491D02*
X99754606Y-71671891D01*
X99957806Y-72281491D01*
X100364206Y-71962177D02*
X100451292Y-71991206D01*
X100480320Y-72020234D01*
X100509349Y-72078291D01*
X100509349Y-72165377D01*
X100480320Y-72223434D01*
X100451292Y-72252463D01*
X100393234Y-72281491D01*
X100161006Y-72281491D01*
X100161006Y-71671891D01*
X100364206Y-71671891D01*
X100422263Y-71700920D01*
X100451292Y-71729949D01*
X100480320Y-71788006D01*
X100480320Y-71846063D01*
X100451292Y-71904120D01*
X100422263Y-71933149D01*
X100364206Y-71962177D01*
X100161006Y-71962177D01*
X101060892Y-72281491D02*
X100770606Y-72281491D01*
X100770606Y-71671891D01*
X101264092Y-71962177D02*
X101467292Y-71962177D01*
X101554378Y-72281491D02*
X101264092Y-72281491D01*
X101264092Y-71671891D01*
X101554378Y-71671891D01*
X99283254Y-71353303D02*
X99370340Y-71382331D01*
X99515483Y-71382331D01*
X99573540Y-71353303D01*
X99602569Y-71324274D01*
X99631597Y-71266217D01*
X99631597Y-71208160D01*
X99602569Y-71150103D01*
X99573540Y-71121074D01*
X99515483Y-71092046D01*
X99399369Y-71063017D01*
X99341311Y-71033989D01*
X99312283Y-71004960D01*
X99283254Y-70946903D01*
X99283254Y-70888846D01*
X99312283Y-70830789D01*
X99341311Y-70801760D01*
X99399369Y-70772731D01*
X99544511Y-70772731D01*
X99631597Y-70801760D01*
X99892854Y-71382331D02*
X99892854Y-70772731D01*
X100183140Y-71382331D02*
X100183140Y-70772731D01*
X100328283Y-70772731D01*
X100415368Y-70801760D01*
X100473426Y-70859817D01*
X100502454Y-70917874D01*
X100531483Y-71033989D01*
X100531483Y-71121074D01*
X100502454Y-71237189D01*
X100473426Y-71295246D01*
X100415368Y-71353303D01*
X100328283Y-71382331D01*
X100183140Y-71382331D01*
X100792740Y-71063017D02*
X100995940Y-71063017D01*
X101083026Y-71382331D02*
X100792740Y-71382331D01*
X100792740Y-70772731D01*
X101083026Y-70772731D01*
D16*
X103362857Y-78249524D02*
X102637143Y-78249524D01*
X103000000Y-78249524D02*
X103000000Y-76979524D01*
X102879048Y-77160952D01*
X102758095Y-77281905D01*
X102637143Y-77342381D01*
X97557143Y-77100476D02*
X97617619Y-77040000D01*
X97738571Y-76979524D01*
X98040952Y-76979524D01*
X98161905Y-77040000D01*
X98222381Y-77100476D01*
X98282857Y-77221429D01*
X98282857Y-77342381D01*
X98222381Y-77523810D01*
X97496667Y-78249524D01*
X98282857Y-78249524D01*
X127032381Y-73804524D02*
X127758096Y-73804524D01*
X127395239Y-75074524D02*
X127395239Y-73804524D01*
X128786191Y-73804524D02*
X128181429Y-73804524D01*
X128120953Y-74409286D01*
X128181429Y-74348810D01*
X128302381Y-74288333D01*
X128604762Y-74288333D01*
X128725715Y-74348810D01*
X128786191Y-74409286D01*
X128846667Y-74530238D01*
X128846667Y-74832619D01*
X128786191Y-74953571D01*
X128725715Y-75014048D01*
X128604762Y-75074524D01*
X128302381Y-75074524D01*
X128181429Y-75014048D01*
X128120953Y-74953571D01*
D17*
X133375955Y-72223434D02*
X133346926Y-72252463D01*
X133259840Y-72281491D01*
X133201783Y-72281491D01*
X133114698Y-72252463D01*
X133056640Y-72194406D01*
X133027612Y-72136349D01*
X132998583Y-72020234D01*
X132998583Y-71933149D01*
X133027612Y-71817034D01*
X133056640Y-71758977D01*
X133114698Y-71700920D01*
X133201783Y-71671891D01*
X133259840Y-71671891D01*
X133346926Y-71700920D01*
X133375955Y-71729949D01*
X133608183Y-72107320D02*
X133898469Y-72107320D01*
X133550126Y-72281491D02*
X133753326Y-71671891D01*
X133956526Y-72281491D01*
X134362926Y-71962177D02*
X134450012Y-71991206D01*
X134479040Y-72020234D01*
X134508069Y-72078291D01*
X134508069Y-72165377D01*
X134479040Y-72223434D01*
X134450012Y-72252463D01*
X134391954Y-72281491D01*
X134159726Y-72281491D01*
X134159726Y-71671891D01*
X134362926Y-71671891D01*
X134420983Y-71700920D01*
X134450012Y-71729949D01*
X134479040Y-71788006D01*
X134479040Y-71846063D01*
X134450012Y-71904120D01*
X134420983Y-71933149D01*
X134362926Y-71962177D01*
X134159726Y-71962177D01*
X135059612Y-72281491D02*
X134769326Y-72281491D01*
X134769326Y-71671891D01*
X135262812Y-71962177D02*
X135466012Y-71962177D01*
X135553098Y-72281491D02*
X135262812Y-72281491D01*
X135262812Y-71671891D01*
X135553098Y-71671891D01*
X133281974Y-71353303D02*
X133369060Y-71382331D01*
X133514203Y-71382331D01*
X133572260Y-71353303D01*
X133601289Y-71324274D01*
X133630317Y-71266217D01*
X133630317Y-71208160D01*
X133601289Y-71150103D01*
X133572260Y-71121074D01*
X133514203Y-71092046D01*
X133398089Y-71063017D01*
X133340031Y-71033989D01*
X133311003Y-71004960D01*
X133281974Y-70946903D01*
X133281974Y-70888846D01*
X133311003Y-70830789D01*
X133340031Y-70801760D01*
X133398089Y-70772731D01*
X133543231Y-70772731D01*
X133630317Y-70801760D01*
X133891574Y-71382331D02*
X133891574Y-70772731D01*
X134181860Y-71382331D02*
X134181860Y-70772731D01*
X134327003Y-70772731D01*
X134414088Y-70801760D01*
X134472146Y-70859817D01*
X134501174Y-70917874D01*
X134530203Y-71033989D01*
X134530203Y-71121074D01*
X134501174Y-71237189D01*
X134472146Y-71295246D01*
X134414088Y-71353303D01*
X134327003Y-71382331D01*
X134181860Y-71382331D01*
X134791460Y-71063017D02*
X134994660Y-71063017D01*
X135081746Y-71382331D02*
X134791460Y-71382331D01*
X134791460Y-70772731D01*
X135081746Y-70772731D01*
D16*
X137361577Y-78249524D02*
X136635863Y-78249524D01*
X136998720Y-78249524D02*
X136998720Y-76979524D01*
X136877768Y-77160952D01*
X136756815Y-77281905D01*
X136635863Y-77342381D01*
X131555863Y-77100476D02*
X131616339Y-77040000D01*
X131737291Y-76979524D01*
X132039672Y-76979524D01*
X132160625Y-77040000D01*
X132221101Y-77100476D01*
X132281577Y-77221429D01*
X132281577Y-77342381D01*
X132221101Y-77523810D01*
X131495387Y-78249524D01*
X132281577Y-78249524D01*
D13*
X156952381Y-93411905D02*
X157761905Y-93411905D01*
X157857143Y-93364286D01*
X157904762Y-93316667D01*
X157952381Y-93221429D01*
X157952381Y-93030952D01*
X157904762Y-92935714D01*
X157857143Y-92888095D01*
X157761905Y-92840476D01*
X156952381Y-92840476D01*
X157952381Y-91840476D02*
X157952381Y-92411905D01*
X157952381Y-92126191D02*
X156952381Y-92126191D01*
X157095238Y-92221429D01*
X157190476Y-92316667D01*
X157238095Y-92411905D01*
X150883334Y-81302381D02*
X150550000Y-80826190D01*
X150311905Y-81302381D02*
X150311905Y-80302381D01*
X150692858Y-80302381D01*
X150788096Y-80350000D01*
X150835715Y-80397619D01*
X150883334Y-80492857D01*
X150883334Y-80635714D01*
X150835715Y-80730952D01*
X150788096Y-80778571D01*
X150692858Y-80826190D01*
X150311905Y-80826190D01*
X151788096Y-80302381D02*
X151311905Y-80302381D01*
X151264286Y-80778571D01*
X151311905Y-80730952D01*
X151407143Y-80683333D01*
X151645239Y-80683333D01*
X151740477Y-80730952D01*
X151788096Y-80778571D01*
X151835715Y-80873810D01*
X151835715Y-81111905D01*
X151788096Y-81207143D01*
X151740477Y-81254762D01*
X151645239Y-81302381D01*
X151407143Y-81302381D01*
X151311905Y-81254762D01*
X151264286Y-81207143D01*
X120302381Y-105666666D02*
X119826190Y-106000000D01*
X120302381Y-106238095D02*
X119302381Y-106238095D01*
X119302381Y-105857142D01*
X119350000Y-105761904D01*
X119397619Y-105714285D01*
X119492857Y-105666666D01*
X119635714Y-105666666D01*
X119730952Y-105714285D01*
X119778571Y-105761904D01*
X119826190Y-105857142D01*
X119826190Y-106238095D01*
X119397619Y-105285714D02*
X119350000Y-105238095D01*
X119302381Y-105142857D01*
X119302381Y-104904761D01*
X119350000Y-104809523D01*
X119397619Y-104761904D01*
X119492857Y-104714285D01*
X119588095Y-104714285D01*
X119730952Y-104761904D01*
X120302381Y-105333333D01*
X120302381Y-104714285D01*
M02*
