G04 #@! TF.FileFunction,Soldermask,Top*
%FSLAX46Y46*%
G04 Gerber Fmt 4.6, Leading zero omitted, Abs format (unit mm)*
G04 Created by KiCad (PCBNEW 4.0.7-e2-6376~58~ubuntu16.04.1) date Mon Nov  6 20:09:01 2017*
%MOMM*%
%LPD*%
G01*
G04 APERTURE LIST*
%ADD10C,0.100000*%
%ADD11R,1.600000X1.000000*%
%ADD12R,1.000000X1.600000*%
%ADD13R,2.000000X2.000000*%
%ADD14C,2.000000*%
%ADD15R,1.650000X1.900000*%
%ADD16R,1.900000X1.650000*%
%ADD17R,2.900000X2.200000*%
%ADD18R,2.100000X2.100000*%
%ADD19O,2.100000X2.100000*%
%ADD20C,3.400000*%
%ADD21O,3.900000X3.900000*%
%ADD22R,2.200000X2.200000*%
%ADD23O,2.200000X2.200000*%
%ADD24R,1.300000X1.200000*%
%ADD25R,1.700000X1.900000*%
%ADD26R,1.700000X1.100000*%
%ADD27C,2.940000*%
%ADD28R,4.200000X2.400000*%
%ADD29R,1.900000X2.400000*%
%ADD30R,1.100000X1.700000*%
G04 APERTURE END LIST*
D10*
D11*
X174050000Y-84450000D03*
X174050000Y-85250000D03*
X174050000Y-86050000D03*
X174050000Y-86850000D03*
X174050000Y-87650000D03*
X174050000Y-88450000D03*
X174050000Y-89250000D03*
X174050000Y-90050000D03*
D12*
X175500000Y-91500000D03*
X176300000Y-91500000D03*
X177100000Y-91500000D03*
X177900000Y-91500000D03*
X178700000Y-91500000D03*
X179500000Y-91500000D03*
X180300000Y-91500000D03*
X181100000Y-91500000D03*
D11*
X182550000Y-90050000D03*
X182550000Y-89250000D03*
X182550000Y-88450000D03*
X182550000Y-87650000D03*
X182550000Y-86850000D03*
X182550000Y-86050000D03*
X182550000Y-85250000D03*
X182550000Y-84450000D03*
D12*
X181100000Y-83000000D03*
X180300000Y-83000000D03*
X179500000Y-83000000D03*
X178700000Y-83000000D03*
X177900000Y-83000000D03*
X177100000Y-83000000D03*
X176300000Y-83000000D03*
X175500000Y-83000000D03*
D13*
X159500000Y-84000000D03*
D14*
X162000000Y-84000000D03*
D15*
X176000000Y-69750000D03*
X176000000Y-67250000D03*
D13*
X168500000Y-84000000D03*
D14*
X166000000Y-84000000D03*
D16*
X182750000Y-95500000D03*
X180250000Y-95500000D03*
X173250000Y-79000000D03*
X175750000Y-79000000D03*
D17*
X122000000Y-101500000D03*
X126000000Y-101500000D03*
X114500000Y-101500000D03*
X110500000Y-101500000D03*
X133000000Y-101500000D03*
X137000000Y-101500000D03*
D18*
X189500000Y-77960000D03*
D19*
X189500000Y-80500000D03*
X189500000Y-83040000D03*
X189500000Y-85580000D03*
X189500000Y-88120000D03*
D18*
X187500000Y-73500000D03*
D19*
X184960000Y-73500000D03*
X182420000Y-73500000D03*
X179880000Y-73500000D03*
X177340000Y-73500000D03*
X174800000Y-73500000D03*
D20*
X121500000Y-97200000D03*
X121500000Y-84500000D03*
X113900000Y-82000000D03*
X113900000Y-97200000D03*
X104600000Y-97200000D03*
X104600000Y-84500000D03*
X97000000Y-82000000D03*
X97000000Y-97200000D03*
X138500000Y-97200000D03*
X138500000Y-84500000D03*
X130900000Y-82000000D03*
X130900000Y-97200000D03*
D21*
X150960000Y-103160000D03*
D22*
X153500000Y-86500000D03*
D23*
X150960000Y-86500000D03*
X148420000Y-86500000D03*
D24*
X124000000Y-104550000D03*
X124000000Y-106450000D03*
X126000000Y-105500000D03*
X112500000Y-106950000D03*
X112500000Y-105050000D03*
X110500000Y-106000000D03*
X135000000Y-104550000D03*
X135000000Y-106450000D03*
X137000000Y-105500000D03*
D25*
X180000000Y-69850000D03*
X180000000Y-67150000D03*
D26*
X115500000Y-105050000D03*
X115500000Y-106950000D03*
X132500000Y-106450000D03*
X132500000Y-104550000D03*
D27*
X167999980Y-74500000D03*
X163001260Y-74500000D03*
X158000000Y-74500000D03*
X152998720Y-74500000D03*
X148000000Y-74500000D03*
X119998720Y-74500000D03*
X115000000Y-74500000D03*
X103000000Y-74500000D03*
X98001280Y-74500000D03*
X136998720Y-74500000D03*
X132000000Y-74500000D03*
D28*
X162000000Y-89500000D03*
D29*
X162000000Y-95800000D03*
X164300000Y-95800000D03*
X159700000Y-95800000D03*
D30*
X150100000Y-82500000D03*
X152000000Y-82500000D03*
D26*
X121500000Y-106450000D03*
X121500000Y-104550000D03*
M02*
