G04 #@! TF.FileFunction,Soldermask,Bot*
%FSLAX46Y46*%
G04 Gerber Fmt 4.6, Leading zero omitted, Abs format (unit mm)*
G04 Created by KiCad (PCBNEW 4.0.7-e2-6376~58~ubuntu16.04.1) date Mon Nov  6 20:09:01 2017*
%MOMM*%
%LPD*%
G01*
G04 APERTURE LIST*
%ADD10C,0.100000*%
%ADD11R,2.000000X2.000000*%
%ADD12C,2.000000*%
%ADD13R,2.100000X2.100000*%
%ADD14O,2.100000X2.100000*%
%ADD15C,3.400000*%
%ADD16O,3.900000X3.900000*%
%ADD17R,2.200000X2.200000*%
%ADD18O,2.200000X2.200000*%
%ADD19C,2.940000*%
G04 APERTURE END LIST*
D10*
D11*
X159500000Y-84000000D03*
D12*
X162000000Y-84000000D03*
D11*
X168500000Y-84000000D03*
D12*
X166000000Y-84000000D03*
D13*
X189500000Y-77960000D03*
D14*
X189500000Y-80500000D03*
X189500000Y-83040000D03*
X189500000Y-85580000D03*
X189500000Y-88120000D03*
D13*
X187500000Y-73500000D03*
D14*
X184960000Y-73500000D03*
X182420000Y-73500000D03*
X179880000Y-73500000D03*
X177340000Y-73500000D03*
X174800000Y-73500000D03*
D15*
X121500000Y-97200000D03*
X121500000Y-84500000D03*
X113900000Y-82000000D03*
X113900000Y-97200000D03*
X104600000Y-97200000D03*
X104600000Y-84500000D03*
X97000000Y-82000000D03*
X97000000Y-97200000D03*
X138500000Y-97200000D03*
X138500000Y-84500000D03*
X130900000Y-82000000D03*
X130900000Y-97200000D03*
D16*
X150960000Y-103160000D03*
D17*
X153500000Y-86500000D03*
D18*
X150960000Y-86500000D03*
X148420000Y-86500000D03*
D19*
X167999980Y-74500000D03*
X163001260Y-74500000D03*
X158000000Y-74500000D03*
X152998720Y-74500000D03*
X148000000Y-74500000D03*
X119998720Y-74500000D03*
X115000000Y-74500000D03*
X103000000Y-74500000D03*
X98001280Y-74500000D03*
X136998720Y-74500000D03*
X132000000Y-74500000D03*
M02*
