G04 #@! TF.FileFunction,Copper,L2,Bot,Signal*
%FSLAX46Y46*%
G04 Gerber Fmt 4.6, Leading zero omitted, Abs format (unit mm)*
G04 Created by KiCad (PCBNEW 4.0.7-e2-6376~58~ubuntu16.04.1) date Mon Nov  6 20:09:01 2017*
%MOMM*%
%LPD*%
G01*
G04 APERTURE LIST*
%ADD10C,0.100000*%
%ADD11R,1.600000X1.600000*%
%ADD12C,1.600000*%
%ADD13R,1.700000X1.700000*%
%ADD14O,1.700000X1.700000*%
%ADD15C,3.000000*%
%ADD16R,1.800000X1.800000*%
%ADD17O,1.800000X1.800000*%
%ADD18C,2.540000*%
%ADD19C,0.600000*%
%ADD20C,0.500000*%
%ADD21C,2.000000*%
%ADD22C,0.254000*%
G04 APERTURE END LIST*
D10*
D11*
X159500000Y-84000000D03*
D12*
X162000000Y-84000000D03*
D11*
X168500000Y-84000000D03*
D12*
X166000000Y-84000000D03*
D13*
X189500000Y-77960000D03*
D14*
X189500000Y-80500000D03*
X189500000Y-83040000D03*
X189500000Y-85580000D03*
X189500000Y-88120000D03*
D13*
X187500000Y-73500000D03*
D14*
X184960000Y-73500000D03*
X182420000Y-73500000D03*
X179880000Y-73500000D03*
X177340000Y-73500000D03*
X174800000Y-73500000D03*
D15*
X121500000Y-97200000D03*
X121500000Y-84500000D03*
X113900000Y-82000000D03*
X113900000Y-97200000D03*
X104600000Y-97200000D03*
X104600000Y-84500000D03*
X97000000Y-82000000D03*
X97000000Y-97200000D03*
X138500000Y-97200000D03*
X138500000Y-84500000D03*
X130900000Y-82000000D03*
X130900000Y-97200000D03*
D16*
X153500000Y-86500000D03*
D17*
X150960000Y-86500000D03*
X148420000Y-86500000D03*
D18*
X167999980Y-74500000D03*
X163001260Y-74500000D03*
X158000000Y-74500000D03*
X152998720Y-74500000D03*
X148000000Y-74500000D03*
X119998720Y-74500000D03*
X115000000Y-74500000D03*
X103000000Y-74500000D03*
X98001280Y-74500000D03*
X136998720Y-74500000D03*
X132000000Y-74500000D03*
D19*
X167900000Y-95749990D03*
X181100000Y-81000000D03*
X174900000Y-81000000D03*
X171800000Y-86900000D03*
X158000000Y-95750000D03*
X119250000Y-104500000D03*
X177500000Y-93750000D03*
X117500000Y-107000000D03*
X178750000Y-94250000D03*
X130280333Y-104530343D03*
X184700000Y-88200000D03*
X173400000Y-94100000D03*
D20*
X168500000Y-84000000D02*
X168500000Y-95149990D01*
X168199999Y-95449991D02*
X167900000Y-95749990D01*
X168500000Y-95149990D02*
X168199999Y-95449991D01*
X174900000Y-81000000D02*
X181100000Y-81000000D01*
X177340000Y-73500000D02*
X184000000Y-80160000D01*
X189500000Y-80500000D02*
X184340000Y-80500000D01*
X184340000Y-80500000D02*
X184000000Y-80160000D01*
X177340000Y-73500000D02*
X171800000Y-79040000D01*
X171800000Y-79040000D02*
X171800000Y-86900000D01*
X159500000Y-84000000D02*
X159500000Y-94250000D01*
X159500000Y-94250000D02*
X158000000Y-95750000D01*
D21*
X121500000Y-84500000D02*
X121500000Y-76001280D01*
X121500000Y-76001280D02*
X119998720Y-74500000D01*
X113900000Y-82000000D02*
X113900000Y-75600000D01*
X113900000Y-75600000D02*
X115000000Y-74500000D01*
X104600000Y-84500000D02*
X104600000Y-76100000D01*
X104600000Y-76100000D02*
X103000000Y-74500000D01*
X97000000Y-82000000D02*
X97000000Y-75501280D01*
X97000000Y-75501280D02*
X98001280Y-74500000D01*
X138500000Y-84500000D02*
X138500000Y-76001280D01*
X138500000Y-76001280D02*
X136998720Y-74500000D01*
X130900000Y-82000000D02*
X130900000Y-75600000D01*
X130900000Y-75600000D02*
X132000000Y-74500000D01*
X148000000Y-76750000D02*
X148000000Y-74500000D01*
X150960000Y-79710000D02*
X148000000Y-76750000D01*
X150960000Y-86500000D02*
X150960000Y-79710000D01*
D20*
X129750000Y-103000000D02*
X128250000Y-104500000D01*
X128250000Y-104500000D02*
X119250000Y-104500000D01*
X138250000Y-103000000D02*
X129750000Y-103000000D01*
X144250000Y-97000000D02*
X138250000Y-103000000D01*
X174250000Y-97000000D02*
X144250000Y-97000000D01*
X177200001Y-94049999D02*
X174250000Y-97000000D01*
X177500000Y-93750000D02*
X177200001Y-94049999D01*
X130000000Y-103750000D02*
X126750000Y-107000000D01*
X126750000Y-107000000D02*
X117500000Y-107000000D01*
X138500000Y-103750000D02*
X130000000Y-103750000D01*
X144500000Y-97750000D02*
X138500000Y-103750000D01*
X175250000Y-97750000D02*
X144500000Y-97750000D01*
X178750000Y-94250000D02*
X175250000Y-97750000D01*
X144799989Y-98450011D02*
X138719657Y-104530343D01*
X176039954Y-98450011D02*
X144799989Y-98450011D01*
X184700000Y-88200000D02*
X184700000Y-89789965D01*
X130704597Y-104530343D02*
X130280333Y-104530343D01*
X184700000Y-89789965D02*
X176039954Y-98450011D01*
X138719657Y-104530343D02*
X130704597Y-104530343D01*
X170900000Y-91600000D02*
X173400000Y-94100000D01*
X170900000Y-77400020D02*
X170900000Y-91600000D01*
X167999980Y-74500000D02*
X170900000Y-77400020D01*
D22*
G36*
X172421877Y-54687217D02*
X173168563Y-55186137D01*
X173667483Y-55932825D01*
X173869262Y-56947237D01*
X174325985Y-59243338D01*
X174368352Y-59345619D01*
X174428266Y-59490267D01*
X175728903Y-61436807D01*
X175823398Y-61531302D01*
X175917893Y-61625798D01*
X177864434Y-62926434D01*
X178039039Y-62998757D01*
X178111362Y-63028715D01*
X180407463Y-63485438D01*
X180474930Y-63485438D01*
X180541100Y-63498600D01*
X189473633Y-63498600D01*
X190421877Y-63687217D01*
X191168563Y-64186137D01*
X191667483Y-64932825D01*
X191856100Y-65881067D01*
X191856100Y-96746133D01*
X191667483Y-97694375D01*
X191168563Y-98441063D01*
X190421877Y-98939983D01*
X189407463Y-99141762D01*
X187111362Y-99598485D01*
X187039039Y-99628443D01*
X186864434Y-99700766D01*
X184917893Y-101001402D01*
X184823398Y-101095898D01*
X184728903Y-101190393D01*
X183428266Y-103136933D01*
X183368352Y-103281581D01*
X183325985Y-103383862D01*
X182869262Y-105679963D01*
X182667483Y-106694375D01*
X182168563Y-107441063D01*
X181421877Y-107939983D01*
X180473633Y-108128600D01*
X108608567Y-108128600D01*
X107660325Y-107939983D01*
X106913637Y-107441063D01*
X106742653Y-107185167D01*
X116564838Y-107185167D01*
X116706883Y-107528943D01*
X116969673Y-107792192D01*
X117313201Y-107934838D01*
X117685167Y-107935162D01*
X117806569Y-107885000D01*
X126749995Y-107885000D01*
X126750000Y-107885001D01*
X127032484Y-107828810D01*
X127088675Y-107817633D01*
X127375790Y-107625790D01*
X129714556Y-105287023D01*
X129750006Y-105322535D01*
X130093534Y-105465181D01*
X130465500Y-105465505D01*
X130586902Y-105415343D01*
X138719652Y-105415343D01*
X138719657Y-105415344D01*
X139002141Y-105359153D01*
X139058332Y-105347976D01*
X139345447Y-105156133D01*
X141341579Y-103160000D01*
X148528275Y-103160000D01*
X148709822Y-104072700D01*
X149226825Y-104846450D01*
X150000575Y-105363453D01*
X150913275Y-105545000D01*
X151006725Y-105545000D01*
X151919425Y-105363453D01*
X152693175Y-104846450D01*
X153210178Y-104072700D01*
X153391725Y-103160000D01*
X153210178Y-102247300D01*
X152693175Y-101473550D01*
X151919425Y-100956547D01*
X151006725Y-100775000D01*
X150913275Y-100775000D01*
X150000575Y-100956547D01*
X149226825Y-101473550D01*
X148709822Y-102247300D01*
X148528275Y-103160000D01*
X141341579Y-103160000D01*
X145166568Y-99335011D01*
X176039949Y-99335011D01*
X176039954Y-99335012D01*
X176322438Y-99278821D01*
X176378629Y-99267644D01*
X176665744Y-99075801D01*
X176665745Y-99075800D01*
X180427944Y-95313600D01*
X185256100Y-95313600D01*
X185430035Y-96188032D01*
X185925361Y-96929339D01*
X186666668Y-97424665D01*
X187541100Y-97598600D01*
X188415532Y-97424665D01*
X189156839Y-96929339D01*
X189652165Y-96188032D01*
X189826100Y-95313600D01*
X189652165Y-94439168D01*
X189156839Y-93697861D01*
X188415532Y-93202535D01*
X187541100Y-93028600D01*
X186666668Y-93202535D01*
X185925361Y-93697861D01*
X185430035Y-94439168D01*
X185256100Y-95313600D01*
X180427944Y-95313600D01*
X185325787Y-90415757D01*
X185325790Y-90415755D01*
X185517633Y-90128640D01*
X185517634Y-90128639D01*
X185585001Y-89789965D01*
X185585000Y-89789960D01*
X185585000Y-88506822D01*
X185634838Y-88386799D01*
X185635162Y-88014833D01*
X185493117Y-87671057D01*
X185230327Y-87407808D01*
X184886799Y-87265162D01*
X184514833Y-87264838D01*
X184171057Y-87406883D01*
X183907808Y-87669673D01*
X183765162Y-88013201D01*
X183764838Y-88385167D01*
X183815000Y-88506569D01*
X183815000Y-89423386D01*
X179530234Y-93708151D01*
X179280327Y-93457808D01*
X178936799Y-93315162D01*
X178564833Y-93314838D01*
X178365840Y-93397060D01*
X178293117Y-93221057D01*
X178030327Y-92957808D01*
X177686799Y-92815162D01*
X177314833Y-92814838D01*
X176971057Y-92956883D01*
X176707808Y-93219673D01*
X176657434Y-93340986D01*
X176574211Y-93424209D01*
X176574209Y-93424212D01*
X173883420Y-96115000D01*
X168786569Y-96115000D01*
X168825786Y-96075783D01*
X168825789Y-96075781D01*
X169125787Y-95775782D01*
X169125790Y-95775780D01*
X169317633Y-95488665D01*
X169385000Y-95149990D01*
X169385000Y-85431446D01*
X169535317Y-85403162D01*
X169751441Y-85264090D01*
X169896431Y-85051890D01*
X169947440Y-84800000D01*
X169947440Y-83200000D01*
X169903162Y-82964683D01*
X169764090Y-82748559D01*
X169551890Y-82603569D01*
X169300000Y-82552560D01*
X167700000Y-82552560D01*
X167464683Y-82596838D01*
X167248559Y-82735910D01*
X167103569Y-82948110D01*
X167082320Y-83053041D01*
X166813923Y-82784176D01*
X166286691Y-82565250D01*
X165715813Y-82564752D01*
X165188200Y-82782757D01*
X164784176Y-83186077D01*
X164565250Y-83713309D01*
X164564752Y-84284187D01*
X164782757Y-84811800D01*
X165186077Y-85215824D01*
X165713309Y-85434750D01*
X166284187Y-85435248D01*
X166811800Y-85217243D01*
X167080583Y-84948928D01*
X167096838Y-85035317D01*
X167235910Y-85251441D01*
X167448110Y-85396431D01*
X167615000Y-85430227D01*
X167615000Y-94783410D01*
X167574209Y-94824201D01*
X167574207Y-94824204D01*
X167491165Y-94907245D01*
X167371057Y-94956873D01*
X167107808Y-95219663D01*
X166965162Y-95563191D01*
X166964838Y-95935157D01*
X167039147Y-96115000D01*
X144250000Y-96115000D01*
X143911325Y-96182367D01*
X143624210Y-96374210D01*
X143624208Y-96374213D01*
X137883420Y-102115000D01*
X129750000Y-102115000D01*
X129411325Y-102182367D01*
X129124210Y-102374210D01*
X129124208Y-102374213D01*
X127883420Y-103615000D01*
X119556822Y-103615000D01*
X119436799Y-103565162D01*
X119064833Y-103564838D01*
X118721057Y-103706883D01*
X118457808Y-103969673D01*
X118315162Y-104313201D01*
X118314838Y-104685167D01*
X118456883Y-105028943D01*
X118719673Y-105292192D01*
X119063201Y-105434838D01*
X119435167Y-105435162D01*
X119556569Y-105385000D01*
X127113420Y-105385000D01*
X126383420Y-106115000D01*
X117806822Y-106115000D01*
X117686799Y-106065162D01*
X117314833Y-106064838D01*
X116971057Y-106206883D01*
X116707808Y-106469673D01*
X116565162Y-106813201D01*
X116564838Y-107185167D01*
X106742653Y-107185167D01*
X106414717Y-106694377D01*
X106212938Y-105679963D01*
X105756215Y-103383862D01*
X105726257Y-103311539D01*
X105653934Y-103136934D01*
X104353298Y-101190393D01*
X104258802Y-101095898D01*
X104164307Y-101001403D01*
X102217767Y-99700766D01*
X102073119Y-99640852D01*
X101970838Y-99598485D01*
X99674737Y-99141762D01*
X99607270Y-99141762D01*
X99541100Y-99128600D01*
X97943153Y-99128600D01*
X98174582Y-99032739D01*
X98334365Y-98713970D01*
X97000000Y-97379605D01*
X95665635Y-98713970D01*
X95825418Y-99032739D01*
X96069959Y-99128600D01*
X90608567Y-99128600D01*
X89660325Y-98939983D01*
X88913637Y-98441063D01*
X88414717Y-97694377D01*
X88226100Y-96746133D01*
X88226100Y-95313600D01*
X90256100Y-95313600D01*
X90430035Y-96188032D01*
X90925361Y-96929339D01*
X91666668Y-97424665D01*
X92541100Y-97598600D01*
X93415532Y-97424665D01*
X94156839Y-96929339D01*
X94232444Y-96816187D01*
X94857277Y-96816187D01*
X94873503Y-97665387D01*
X95167261Y-98374582D01*
X95486030Y-98534365D01*
X96820395Y-97200000D01*
X97179605Y-97200000D01*
X98513970Y-98534365D01*
X98832739Y-98374582D01*
X99127434Y-97622815D01*
X102464630Y-97622815D01*
X102788980Y-98407800D01*
X103389041Y-99008909D01*
X104173459Y-99334628D01*
X105022815Y-99335370D01*
X105807800Y-99011020D01*
X106105368Y-98713970D01*
X112565635Y-98713970D01*
X112725418Y-99032739D01*
X113516187Y-99342723D01*
X114365387Y-99326497D01*
X115074582Y-99032739D01*
X115234365Y-98713970D01*
X113900000Y-97379605D01*
X112565635Y-98713970D01*
X106105368Y-98713970D01*
X106408909Y-98410959D01*
X106734628Y-97626541D01*
X106735335Y-96816187D01*
X111757277Y-96816187D01*
X111773503Y-97665387D01*
X112067261Y-98374582D01*
X112386030Y-98534365D01*
X113720395Y-97200000D01*
X114079605Y-97200000D01*
X115413970Y-98534365D01*
X115732739Y-98374582D01*
X116027434Y-97622815D01*
X119364630Y-97622815D01*
X119688980Y-98407800D01*
X120289041Y-99008909D01*
X121073459Y-99334628D01*
X121922815Y-99335370D01*
X122707800Y-99011020D01*
X123005368Y-98713970D01*
X129565635Y-98713970D01*
X129725418Y-99032739D01*
X130516187Y-99342723D01*
X131365387Y-99326497D01*
X132074582Y-99032739D01*
X132234365Y-98713970D01*
X130900000Y-97379605D01*
X129565635Y-98713970D01*
X123005368Y-98713970D01*
X123308909Y-98410959D01*
X123634628Y-97626541D01*
X123635335Y-96816187D01*
X128757277Y-96816187D01*
X128773503Y-97665387D01*
X129067261Y-98374582D01*
X129386030Y-98534365D01*
X130720395Y-97200000D01*
X131079605Y-97200000D01*
X132413970Y-98534365D01*
X132732739Y-98374582D01*
X133027434Y-97622815D01*
X136364630Y-97622815D01*
X136688980Y-98407800D01*
X137289041Y-99008909D01*
X138073459Y-99334628D01*
X138922815Y-99335370D01*
X139707800Y-99011020D01*
X140308909Y-98410959D01*
X140634628Y-97626541D01*
X140635370Y-96777185D01*
X140311020Y-95992200D01*
X139710959Y-95391091D01*
X138926541Y-95065372D01*
X138077185Y-95064630D01*
X137292200Y-95388980D01*
X136691091Y-95989041D01*
X136365372Y-96773459D01*
X136364630Y-97622815D01*
X133027434Y-97622815D01*
X133042723Y-97583813D01*
X133026497Y-96734613D01*
X132732739Y-96025418D01*
X132413970Y-95865635D01*
X131079605Y-97200000D01*
X130720395Y-97200000D01*
X129386030Y-95865635D01*
X129067261Y-96025418D01*
X128757277Y-96816187D01*
X123635335Y-96816187D01*
X123635370Y-96777185D01*
X123311020Y-95992200D01*
X123005384Y-95686030D01*
X129565635Y-95686030D01*
X130900000Y-97020395D01*
X132234365Y-95686030D01*
X132074582Y-95367261D01*
X131283813Y-95057277D01*
X130434613Y-95073503D01*
X129725418Y-95367261D01*
X129565635Y-95686030D01*
X123005384Y-95686030D01*
X122710959Y-95391091D01*
X121926541Y-95065372D01*
X121077185Y-95064630D01*
X120292200Y-95388980D01*
X119691091Y-95989041D01*
X119365372Y-96773459D01*
X119364630Y-97622815D01*
X116027434Y-97622815D01*
X116042723Y-97583813D01*
X116026497Y-96734613D01*
X115732739Y-96025418D01*
X115413970Y-95865635D01*
X114079605Y-97200000D01*
X113720395Y-97200000D01*
X112386030Y-95865635D01*
X112067261Y-96025418D01*
X111757277Y-96816187D01*
X106735335Y-96816187D01*
X106735370Y-96777185D01*
X106411020Y-95992200D01*
X106105384Y-95686030D01*
X112565635Y-95686030D01*
X113900000Y-97020395D01*
X115234365Y-95686030D01*
X115074582Y-95367261D01*
X114283813Y-95057277D01*
X113434613Y-95073503D01*
X112725418Y-95367261D01*
X112565635Y-95686030D01*
X106105384Y-95686030D01*
X105810959Y-95391091D01*
X105026541Y-95065372D01*
X104177185Y-95064630D01*
X103392200Y-95388980D01*
X102791091Y-95989041D01*
X102465372Y-96773459D01*
X102464630Y-97622815D01*
X99127434Y-97622815D01*
X99142723Y-97583813D01*
X99126497Y-96734613D01*
X98832739Y-96025418D01*
X98513970Y-95865635D01*
X97179605Y-97200000D01*
X96820395Y-97200000D01*
X95486030Y-95865635D01*
X95167261Y-96025418D01*
X94857277Y-96816187D01*
X94232444Y-96816187D01*
X94652165Y-96188032D01*
X94752019Y-95686030D01*
X95665635Y-95686030D01*
X97000000Y-97020395D01*
X98334365Y-95686030D01*
X98174582Y-95367261D01*
X97383813Y-95057277D01*
X96534613Y-95073503D01*
X95825418Y-95367261D01*
X95665635Y-95686030D01*
X94752019Y-95686030D01*
X94826100Y-95313600D01*
X94652165Y-94439168D01*
X94156839Y-93697861D01*
X93415532Y-93202535D01*
X92541100Y-93028600D01*
X91666668Y-93202535D01*
X90925361Y-93697861D01*
X90430035Y-94439168D01*
X90256100Y-95313600D01*
X88226100Y-95313600D01*
X88226100Y-92127000D01*
X146000000Y-92127000D01*
X146049410Y-92116994D01*
X146091035Y-92088553D01*
X146118315Y-92046159D01*
X146127000Y-92000000D01*
X146127000Y-74955510D01*
X146365000Y-75531514D01*
X146365000Y-76749995D01*
X146364999Y-76750000D01*
X146489457Y-77375688D01*
X146843880Y-77906120D01*
X149325000Y-80387239D01*
X149325000Y-85273952D01*
X149037491Y-85081845D01*
X148450072Y-84965000D01*
X148389928Y-84965000D01*
X147802509Y-85081845D01*
X147304519Y-85414591D01*
X146971773Y-85912581D01*
X146854928Y-86500000D01*
X146971773Y-87087419D01*
X147304519Y-87585409D01*
X147802509Y-87918155D01*
X148389928Y-88035000D01*
X148450072Y-88035000D01*
X149037491Y-87918155D01*
X149535481Y-87585409D01*
X149646057Y-87419920D01*
X149803880Y-87656120D01*
X150334313Y-88010543D01*
X150960000Y-88135000D01*
X151585687Y-88010543D01*
X152042065Y-87705602D01*
X152135910Y-87851441D01*
X152348110Y-87996431D01*
X152600000Y-88047440D01*
X154400000Y-88047440D01*
X154635317Y-88003162D01*
X154851441Y-87864090D01*
X154996431Y-87651890D01*
X155047440Y-87400000D01*
X155047440Y-85600000D01*
X155003162Y-85364683D01*
X154864090Y-85148559D01*
X154651890Y-85003569D01*
X154400000Y-84952560D01*
X152600000Y-84952560D01*
X152595000Y-84953501D01*
X152595000Y-84285750D01*
X158065000Y-84285750D01*
X158065000Y-84926310D01*
X158161673Y-85159699D01*
X158340302Y-85338327D01*
X158573691Y-85435000D01*
X159214250Y-85435000D01*
X159373000Y-85276250D01*
X159373000Y-84127000D01*
X158223750Y-84127000D01*
X158065000Y-84285750D01*
X152595000Y-84285750D01*
X152595000Y-83073690D01*
X158065000Y-83073690D01*
X158065000Y-83714250D01*
X158223750Y-83873000D01*
X159373000Y-83873000D01*
X159373000Y-82723750D01*
X159627000Y-82723750D01*
X159627000Y-83873000D01*
X159647000Y-83873000D01*
X159647000Y-84127000D01*
X159627000Y-84127000D01*
X159627000Y-85276250D01*
X159785750Y-85435000D01*
X160426309Y-85435000D01*
X160659698Y-85338327D01*
X160838327Y-85159699D01*
X160923876Y-84953165D01*
X161186077Y-85215824D01*
X161713309Y-85434750D01*
X162284187Y-85435248D01*
X162811800Y-85217243D01*
X163215824Y-84813923D01*
X163434750Y-84286691D01*
X163435248Y-83715813D01*
X163217243Y-83188200D01*
X162813923Y-82784176D01*
X162286691Y-82565250D01*
X161715813Y-82564752D01*
X161188200Y-82782757D01*
X160923813Y-83046683D01*
X160838327Y-82840301D01*
X160659698Y-82661673D01*
X160426309Y-82565000D01*
X159785750Y-82565000D01*
X159627000Y-82723750D01*
X159373000Y-82723750D01*
X159214250Y-82565000D01*
X158573691Y-82565000D01*
X158340302Y-82661673D01*
X158161673Y-82840301D01*
X158065000Y-83073690D01*
X152595000Y-83073690D01*
X152595000Y-79710000D01*
X152470543Y-79084313D01*
X152470543Y-79084312D01*
X152287253Y-78810000D01*
X152116120Y-78553880D01*
X152116117Y-78553878D01*
X149635000Y-76072760D01*
X149635000Y-75847777D01*
X151830548Y-75847777D01*
X151962240Y-76142657D01*
X152669756Y-76414261D01*
X153427352Y-76394436D01*
X154035200Y-76142657D01*
X154166892Y-75847777D01*
X156831828Y-75847777D01*
X156963520Y-76142657D01*
X157671036Y-76414261D01*
X158428632Y-76394436D01*
X159036480Y-76142657D01*
X159168172Y-75847777D01*
X158000000Y-74679605D01*
X156831828Y-75847777D01*
X154166892Y-75847777D01*
X152998720Y-74679605D01*
X151830548Y-75847777D01*
X149635000Y-75847777D01*
X149635000Y-75530025D01*
X149904668Y-74880590D01*
X149905287Y-74171036D01*
X151084459Y-74171036D01*
X151104284Y-74928632D01*
X151356063Y-75536480D01*
X151650943Y-75668172D01*
X152819115Y-74500000D01*
X153178325Y-74500000D01*
X154346497Y-75668172D01*
X154641377Y-75536480D01*
X154912981Y-74828964D01*
X154895765Y-74171036D01*
X156085739Y-74171036D01*
X156105564Y-74928632D01*
X156357343Y-75536480D01*
X156652223Y-75668172D01*
X157820395Y-74500000D01*
X158179605Y-74500000D01*
X159347777Y-75668172D01*
X159642657Y-75536480D01*
X159895719Y-74877265D01*
X161095930Y-74877265D01*
X161385338Y-75577686D01*
X161920755Y-76114039D01*
X162620670Y-76404668D01*
X163378525Y-76405330D01*
X164078946Y-76115922D01*
X164615299Y-75580505D01*
X164905928Y-74880590D01*
X164905930Y-74877265D01*
X166094650Y-74877265D01*
X166384058Y-75577686D01*
X166919475Y-76114039D01*
X167619390Y-76404668D01*
X168377245Y-76405330D01*
X168572891Y-76324491D01*
X170015000Y-77766599D01*
X170015000Y-91599995D01*
X170014999Y-91600000D01*
X170071190Y-91882484D01*
X170082367Y-91938675D01*
X170274210Y-92225790D01*
X172557255Y-94508834D01*
X172606883Y-94628943D01*
X172869673Y-94892192D01*
X173213201Y-95034838D01*
X173585167Y-95035162D01*
X173928943Y-94893117D01*
X174192192Y-94630327D01*
X174334838Y-94286799D01*
X174335162Y-93914833D01*
X174193117Y-93571057D01*
X173930327Y-93307808D01*
X173809013Y-93257434D01*
X171785000Y-91233420D01*
X171785000Y-87834988D01*
X171985167Y-87835162D01*
X172328943Y-87693117D01*
X172592192Y-87430327D01*
X172734838Y-87086799D01*
X172735162Y-86714833D01*
X172685000Y-86593431D01*
X172685000Y-81185167D01*
X173964838Y-81185167D01*
X174106883Y-81528943D01*
X174369673Y-81792192D01*
X174713201Y-81934838D01*
X175085167Y-81935162D01*
X175206569Y-81885000D01*
X180793178Y-81885000D01*
X180913201Y-81934838D01*
X181285167Y-81935162D01*
X181628943Y-81793117D01*
X181892192Y-81530327D01*
X182034838Y-81186799D01*
X182035162Y-80814833D01*
X181893117Y-80471057D01*
X181630327Y-80207808D01*
X181286799Y-80065162D01*
X180914833Y-80064838D01*
X180793431Y-80115000D01*
X175206822Y-80115000D01*
X175086799Y-80065162D01*
X174714833Y-80064838D01*
X174371057Y-80206883D01*
X174107808Y-80469673D01*
X173965162Y-80813201D01*
X173964838Y-81185167D01*
X172685000Y-81185167D01*
X172685000Y-79406580D01*
X177121040Y-74970539D01*
X177340000Y-75014093D01*
X177558959Y-74970539D01*
X183374208Y-80785787D01*
X183374210Y-80785790D01*
X183714208Y-81125787D01*
X183714210Y-81125790D01*
X183805517Y-81186799D01*
X184001326Y-81317634D01*
X184340000Y-81385001D01*
X184340005Y-81385000D01*
X188310568Y-81385000D01*
X188420853Y-81550054D01*
X188750026Y-81770000D01*
X188420853Y-81989946D01*
X188098946Y-82471715D01*
X187985907Y-83040000D01*
X188098946Y-83608285D01*
X188420853Y-84090054D01*
X188750026Y-84310000D01*
X188420853Y-84529946D01*
X188098946Y-85011715D01*
X187985907Y-85580000D01*
X188098946Y-86148285D01*
X188420853Y-86630054D01*
X188750026Y-86850000D01*
X188420853Y-87069946D01*
X188098946Y-87551715D01*
X187985907Y-88120000D01*
X188098946Y-88688285D01*
X188420853Y-89170054D01*
X188902622Y-89491961D01*
X189470907Y-89605000D01*
X189529093Y-89605000D01*
X190097378Y-89491961D01*
X190579147Y-89170054D01*
X190901054Y-88688285D01*
X191014093Y-88120000D01*
X190901054Y-87551715D01*
X190579147Y-87069946D01*
X190249974Y-86850000D01*
X190579147Y-86630054D01*
X190901054Y-86148285D01*
X191014093Y-85580000D01*
X190901054Y-85011715D01*
X190579147Y-84529946D01*
X190249974Y-84310000D01*
X190579147Y-84090054D01*
X190901054Y-83608285D01*
X191014093Y-83040000D01*
X190901054Y-82471715D01*
X190579147Y-81989946D01*
X190249974Y-81770000D01*
X190579147Y-81550054D01*
X190901054Y-81068285D01*
X191014093Y-80500000D01*
X190901054Y-79931715D01*
X190579147Y-79449946D01*
X190537548Y-79422150D01*
X190585317Y-79413162D01*
X190801441Y-79274090D01*
X190946431Y-79061890D01*
X190997440Y-78810000D01*
X190997440Y-77110000D01*
X190953162Y-76874683D01*
X190814090Y-76658559D01*
X190601890Y-76513569D01*
X190350000Y-76462560D01*
X188650000Y-76462560D01*
X188414683Y-76506838D01*
X188198559Y-76645910D01*
X188053569Y-76858110D01*
X188002560Y-77110000D01*
X188002560Y-78810000D01*
X188046838Y-79045317D01*
X188185910Y-79261441D01*
X188398110Y-79406431D01*
X188465541Y-79420086D01*
X188420853Y-79449946D01*
X188310568Y-79615000D01*
X184706580Y-79615000D01*
X184625790Y-79534210D01*
X184625787Y-79534208D01*
X180068231Y-74976651D01*
X180448285Y-74901054D01*
X180930054Y-74579147D01*
X181150000Y-74249974D01*
X181369946Y-74579147D01*
X181851715Y-74901054D01*
X182420000Y-75014093D01*
X182988285Y-74901054D01*
X183470054Y-74579147D01*
X183690000Y-74249974D01*
X183909946Y-74579147D01*
X184391715Y-74901054D01*
X184960000Y-75014093D01*
X185528285Y-74901054D01*
X186010054Y-74579147D01*
X186037850Y-74537548D01*
X186046838Y-74585317D01*
X186185910Y-74801441D01*
X186398110Y-74946431D01*
X186650000Y-74997440D01*
X188350000Y-74997440D01*
X188585317Y-74953162D01*
X188801441Y-74814090D01*
X188946431Y-74601890D01*
X188997440Y-74350000D01*
X188997440Y-72650000D01*
X188953162Y-72414683D01*
X188814090Y-72198559D01*
X188601890Y-72053569D01*
X188350000Y-72002560D01*
X186650000Y-72002560D01*
X186414683Y-72046838D01*
X186198559Y-72185910D01*
X186053569Y-72398110D01*
X186039914Y-72465541D01*
X186010054Y-72420853D01*
X185528285Y-72098946D01*
X184960000Y-71985907D01*
X184391715Y-72098946D01*
X183909946Y-72420853D01*
X183690000Y-72750026D01*
X183470054Y-72420853D01*
X182988285Y-72098946D01*
X182420000Y-71985907D01*
X181851715Y-72098946D01*
X181369946Y-72420853D01*
X181150000Y-72750026D01*
X180930054Y-72420853D01*
X180448285Y-72098946D01*
X179880000Y-71985907D01*
X179311715Y-72098946D01*
X178829946Y-72420853D01*
X178610000Y-72750026D01*
X178390054Y-72420853D01*
X177908285Y-72098946D01*
X177340000Y-71985907D01*
X176771715Y-72098946D01*
X176289946Y-72420853D01*
X176070000Y-72750026D01*
X175850054Y-72420853D01*
X175368285Y-72098946D01*
X174800000Y-71985907D01*
X174231715Y-72098946D01*
X173749946Y-72420853D01*
X173428039Y-72902622D01*
X173315000Y-73470907D01*
X173315000Y-73529093D01*
X173428039Y-74097378D01*
X173749946Y-74579147D01*
X174231715Y-74901054D01*
X174611769Y-74976652D01*
X171785000Y-77803420D01*
X171785000Y-77400025D01*
X171785001Y-77400020D01*
X171717634Y-77061346D01*
X171581836Y-76858110D01*
X171525790Y-76774230D01*
X171525787Y-76774228D01*
X169824696Y-75073136D01*
X169904648Y-74880590D01*
X169905310Y-74122735D01*
X169615902Y-73422314D01*
X169080485Y-72885961D01*
X168380570Y-72595332D01*
X167622715Y-72594670D01*
X166922294Y-72884078D01*
X166385941Y-73419495D01*
X166095312Y-74119410D01*
X166094650Y-74877265D01*
X164905930Y-74877265D01*
X164906590Y-74122735D01*
X164617182Y-73422314D01*
X164081765Y-72885961D01*
X163381850Y-72595332D01*
X162623995Y-72594670D01*
X161923574Y-72884078D01*
X161387221Y-73419495D01*
X161096592Y-74119410D01*
X161095930Y-74877265D01*
X159895719Y-74877265D01*
X159914261Y-74828964D01*
X159894436Y-74071368D01*
X159642657Y-73463520D01*
X159347777Y-73331828D01*
X158179605Y-74500000D01*
X157820395Y-74500000D01*
X156652223Y-73331828D01*
X156357343Y-73463520D01*
X156085739Y-74171036D01*
X154895765Y-74171036D01*
X154893156Y-74071368D01*
X154641377Y-73463520D01*
X154346497Y-73331828D01*
X153178325Y-74500000D01*
X152819115Y-74500000D01*
X151650943Y-73331828D01*
X151356063Y-73463520D01*
X151084459Y-74171036D01*
X149905287Y-74171036D01*
X149905330Y-74122735D01*
X149615922Y-73422314D01*
X149346303Y-73152223D01*
X151830548Y-73152223D01*
X152998720Y-74320395D01*
X154166892Y-73152223D01*
X156831828Y-73152223D01*
X158000000Y-74320395D01*
X159168172Y-73152223D01*
X159036480Y-72857343D01*
X158328964Y-72585739D01*
X157571368Y-72605564D01*
X156963520Y-72857343D01*
X156831828Y-73152223D01*
X154166892Y-73152223D01*
X154035200Y-72857343D01*
X153327684Y-72585739D01*
X152570088Y-72605564D01*
X151962240Y-72857343D01*
X151830548Y-73152223D01*
X149346303Y-73152223D01*
X149080505Y-72885961D01*
X148380590Y-72595332D01*
X147622735Y-72594670D01*
X146922314Y-72884078D01*
X146385961Y-73419495D01*
X146127000Y-74043145D01*
X146127000Y-67313600D01*
X185256100Y-67313600D01*
X185430035Y-68188032D01*
X185925361Y-68929339D01*
X186666668Y-69424665D01*
X187541100Y-69598600D01*
X188415532Y-69424665D01*
X189156839Y-68929339D01*
X189652165Y-68188032D01*
X189826100Y-67313600D01*
X189652165Y-66439168D01*
X189156839Y-65697861D01*
X188415532Y-65202535D01*
X187541100Y-65028600D01*
X186666668Y-65202535D01*
X185925361Y-65697861D01*
X185430035Y-66439168D01*
X185256100Y-67313600D01*
X146127000Y-67313600D01*
X146127000Y-54498600D01*
X171473633Y-54498600D01*
X172421877Y-54687217D01*
X172421877Y-54687217D01*
G37*
X172421877Y-54687217D02*
X173168563Y-55186137D01*
X173667483Y-55932825D01*
X173869262Y-56947237D01*
X174325985Y-59243338D01*
X174368352Y-59345619D01*
X174428266Y-59490267D01*
X175728903Y-61436807D01*
X175823398Y-61531302D01*
X175917893Y-61625798D01*
X177864434Y-62926434D01*
X178039039Y-62998757D01*
X178111362Y-63028715D01*
X180407463Y-63485438D01*
X180474930Y-63485438D01*
X180541100Y-63498600D01*
X189473633Y-63498600D01*
X190421877Y-63687217D01*
X191168563Y-64186137D01*
X191667483Y-64932825D01*
X191856100Y-65881067D01*
X191856100Y-96746133D01*
X191667483Y-97694375D01*
X191168563Y-98441063D01*
X190421877Y-98939983D01*
X189407463Y-99141762D01*
X187111362Y-99598485D01*
X187039039Y-99628443D01*
X186864434Y-99700766D01*
X184917893Y-101001402D01*
X184823398Y-101095898D01*
X184728903Y-101190393D01*
X183428266Y-103136933D01*
X183368352Y-103281581D01*
X183325985Y-103383862D01*
X182869262Y-105679963D01*
X182667483Y-106694375D01*
X182168563Y-107441063D01*
X181421877Y-107939983D01*
X180473633Y-108128600D01*
X108608567Y-108128600D01*
X107660325Y-107939983D01*
X106913637Y-107441063D01*
X106742653Y-107185167D01*
X116564838Y-107185167D01*
X116706883Y-107528943D01*
X116969673Y-107792192D01*
X117313201Y-107934838D01*
X117685167Y-107935162D01*
X117806569Y-107885000D01*
X126749995Y-107885000D01*
X126750000Y-107885001D01*
X127032484Y-107828810D01*
X127088675Y-107817633D01*
X127375790Y-107625790D01*
X129714556Y-105287023D01*
X129750006Y-105322535D01*
X130093534Y-105465181D01*
X130465500Y-105465505D01*
X130586902Y-105415343D01*
X138719652Y-105415343D01*
X138719657Y-105415344D01*
X139002141Y-105359153D01*
X139058332Y-105347976D01*
X139345447Y-105156133D01*
X141341579Y-103160000D01*
X148528275Y-103160000D01*
X148709822Y-104072700D01*
X149226825Y-104846450D01*
X150000575Y-105363453D01*
X150913275Y-105545000D01*
X151006725Y-105545000D01*
X151919425Y-105363453D01*
X152693175Y-104846450D01*
X153210178Y-104072700D01*
X153391725Y-103160000D01*
X153210178Y-102247300D01*
X152693175Y-101473550D01*
X151919425Y-100956547D01*
X151006725Y-100775000D01*
X150913275Y-100775000D01*
X150000575Y-100956547D01*
X149226825Y-101473550D01*
X148709822Y-102247300D01*
X148528275Y-103160000D01*
X141341579Y-103160000D01*
X145166568Y-99335011D01*
X176039949Y-99335011D01*
X176039954Y-99335012D01*
X176322438Y-99278821D01*
X176378629Y-99267644D01*
X176665744Y-99075801D01*
X176665745Y-99075800D01*
X180427944Y-95313600D01*
X185256100Y-95313600D01*
X185430035Y-96188032D01*
X185925361Y-96929339D01*
X186666668Y-97424665D01*
X187541100Y-97598600D01*
X188415532Y-97424665D01*
X189156839Y-96929339D01*
X189652165Y-96188032D01*
X189826100Y-95313600D01*
X189652165Y-94439168D01*
X189156839Y-93697861D01*
X188415532Y-93202535D01*
X187541100Y-93028600D01*
X186666668Y-93202535D01*
X185925361Y-93697861D01*
X185430035Y-94439168D01*
X185256100Y-95313600D01*
X180427944Y-95313600D01*
X185325787Y-90415757D01*
X185325790Y-90415755D01*
X185517633Y-90128640D01*
X185517634Y-90128639D01*
X185585001Y-89789965D01*
X185585000Y-89789960D01*
X185585000Y-88506822D01*
X185634838Y-88386799D01*
X185635162Y-88014833D01*
X185493117Y-87671057D01*
X185230327Y-87407808D01*
X184886799Y-87265162D01*
X184514833Y-87264838D01*
X184171057Y-87406883D01*
X183907808Y-87669673D01*
X183765162Y-88013201D01*
X183764838Y-88385167D01*
X183815000Y-88506569D01*
X183815000Y-89423386D01*
X179530234Y-93708151D01*
X179280327Y-93457808D01*
X178936799Y-93315162D01*
X178564833Y-93314838D01*
X178365840Y-93397060D01*
X178293117Y-93221057D01*
X178030327Y-92957808D01*
X177686799Y-92815162D01*
X177314833Y-92814838D01*
X176971057Y-92956883D01*
X176707808Y-93219673D01*
X176657434Y-93340986D01*
X176574211Y-93424209D01*
X176574209Y-93424212D01*
X173883420Y-96115000D01*
X168786569Y-96115000D01*
X168825786Y-96075783D01*
X168825789Y-96075781D01*
X169125787Y-95775782D01*
X169125790Y-95775780D01*
X169317633Y-95488665D01*
X169385000Y-95149990D01*
X169385000Y-85431446D01*
X169535317Y-85403162D01*
X169751441Y-85264090D01*
X169896431Y-85051890D01*
X169947440Y-84800000D01*
X169947440Y-83200000D01*
X169903162Y-82964683D01*
X169764090Y-82748559D01*
X169551890Y-82603569D01*
X169300000Y-82552560D01*
X167700000Y-82552560D01*
X167464683Y-82596838D01*
X167248559Y-82735910D01*
X167103569Y-82948110D01*
X167082320Y-83053041D01*
X166813923Y-82784176D01*
X166286691Y-82565250D01*
X165715813Y-82564752D01*
X165188200Y-82782757D01*
X164784176Y-83186077D01*
X164565250Y-83713309D01*
X164564752Y-84284187D01*
X164782757Y-84811800D01*
X165186077Y-85215824D01*
X165713309Y-85434750D01*
X166284187Y-85435248D01*
X166811800Y-85217243D01*
X167080583Y-84948928D01*
X167096838Y-85035317D01*
X167235910Y-85251441D01*
X167448110Y-85396431D01*
X167615000Y-85430227D01*
X167615000Y-94783410D01*
X167574209Y-94824201D01*
X167574207Y-94824204D01*
X167491165Y-94907245D01*
X167371057Y-94956873D01*
X167107808Y-95219663D01*
X166965162Y-95563191D01*
X166964838Y-95935157D01*
X167039147Y-96115000D01*
X144250000Y-96115000D01*
X143911325Y-96182367D01*
X143624210Y-96374210D01*
X143624208Y-96374213D01*
X137883420Y-102115000D01*
X129750000Y-102115000D01*
X129411325Y-102182367D01*
X129124210Y-102374210D01*
X129124208Y-102374213D01*
X127883420Y-103615000D01*
X119556822Y-103615000D01*
X119436799Y-103565162D01*
X119064833Y-103564838D01*
X118721057Y-103706883D01*
X118457808Y-103969673D01*
X118315162Y-104313201D01*
X118314838Y-104685167D01*
X118456883Y-105028943D01*
X118719673Y-105292192D01*
X119063201Y-105434838D01*
X119435167Y-105435162D01*
X119556569Y-105385000D01*
X127113420Y-105385000D01*
X126383420Y-106115000D01*
X117806822Y-106115000D01*
X117686799Y-106065162D01*
X117314833Y-106064838D01*
X116971057Y-106206883D01*
X116707808Y-106469673D01*
X116565162Y-106813201D01*
X116564838Y-107185167D01*
X106742653Y-107185167D01*
X106414717Y-106694377D01*
X106212938Y-105679963D01*
X105756215Y-103383862D01*
X105726257Y-103311539D01*
X105653934Y-103136934D01*
X104353298Y-101190393D01*
X104258802Y-101095898D01*
X104164307Y-101001403D01*
X102217767Y-99700766D01*
X102073119Y-99640852D01*
X101970838Y-99598485D01*
X99674737Y-99141762D01*
X99607270Y-99141762D01*
X99541100Y-99128600D01*
X97943153Y-99128600D01*
X98174582Y-99032739D01*
X98334365Y-98713970D01*
X97000000Y-97379605D01*
X95665635Y-98713970D01*
X95825418Y-99032739D01*
X96069959Y-99128600D01*
X90608567Y-99128600D01*
X89660325Y-98939983D01*
X88913637Y-98441063D01*
X88414717Y-97694377D01*
X88226100Y-96746133D01*
X88226100Y-95313600D01*
X90256100Y-95313600D01*
X90430035Y-96188032D01*
X90925361Y-96929339D01*
X91666668Y-97424665D01*
X92541100Y-97598600D01*
X93415532Y-97424665D01*
X94156839Y-96929339D01*
X94232444Y-96816187D01*
X94857277Y-96816187D01*
X94873503Y-97665387D01*
X95167261Y-98374582D01*
X95486030Y-98534365D01*
X96820395Y-97200000D01*
X97179605Y-97200000D01*
X98513970Y-98534365D01*
X98832739Y-98374582D01*
X99127434Y-97622815D01*
X102464630Y-97622815D01*
X102788980Y-98407800D01*
X103389041Y-99008909D01*
X104173459Y-99334628D01*
X105022815Y-99335370D01*
X105807800Y-99011020D01*
X106105368Y-98713970D01*
X112565635Y-98713970D01*
X112725418Y-99032739D01*
X113516187Y-99342723D01*
X114365387Y-99326497D01*
X115074582Y-99032739D01*
X115234365Y-98713970D01*
X113900000Y-97379605D01*
X112565635Y-98713970D01*
X106105368Y-98713970D01*
X106408909Y-98410959D01*
X106734628Y-97626541D01*
X106735335Y-96816187D01*
X111757277Y-96816187D01*
X111773503Y-97665387D01*
X112067261Y-98374582D01*
X112386030Y-98534365D01*
X113720395Y-97200000D01*
X114079605Y-97200000D01*
X115413970Y-98534365D01*
X115732739Y-98374582D01*
X116027434Y-97622815D01*
X119364630Y-97622815D01*
X119688980Y-98407800D01*
X120289041Y-99008909D01*
X121073459Y-99334628D01*
X121922815Y-99335370D01*
X122707800Y-99011020D01*
X123005368Y-98713970D01*
X129565635Y-98713970D01*
X129725418Y-99032739D01*
X130516187Y-99342723D01*
X131365387Y-99326497D01*
X132074582Y-99032739D01*
X132234365Y-98713970D01*
X130900000Y-97379605D01*
X129565635Y-98713970D01*
X123005368Y-98713970D01*
X123308909Y-98410959D01*
X123634628Y-97626541D01*
X123635335Y-96816187D01*
X128757277Y-96816187D01*
X128773503Y-97665387D01*
X129067261Y-98374582D01*
X129386030Y-98534365D01*
X130720395Y-97200000D01*
X131079605Y-97200000D01*
X132413970Y-98534365D01*
X132732739Y-98374582D01*
X133027434Y-97622815D01*
X136364630Y-97622815D01*
X136688980Y-98407800D01*
X137289041Y-99008909D01*
X138073459Y-99334628D01*
X138922815Y-99335370D01*
X139707800Y-99011020D01*
X140308909Y-98410959D01*
X140634628Y-97626541D01*
X140635370Y-96777185D01*
X140311020Y-95992200D01*
X139710959Y-95391091D01*
X138926541Y-95065372D01*
X138077185Y-95064630D01*
X137292200Y-95388980D01*
X136691091Y-95989041D01*
X136365372Y-96773459D01*
X136364630Y-97622815D01*
X133027434Y-97622815D01*
X133042723Y-97583813D01*
X133026497Y-96734613D01*
X132732739Y-96025418D01*
X132413970Y-95865635D01*
X131079605Y-97200000D01*
X130720395Y-97200000D01*
X129386030Y-95865635D01*
X129067261Y-96025418D01*
X128757277Y-96816187D01*
X123635335Y-96816187D01*
X123635370Y-96777185D01*
X123311020Y-95992200D01*
X123005384Y-95686030D01*
X129565635Y-95686030D01*
X130900000Y-97020395D01*
X132234365Y-95686030D01*
X132074582Y-95367261D01*
X131283813Y-95057277D01*
X130434613Y-95073503D01*
X129725418Y-95367261D01*
X129565635Y-95686030D01*
X123005384Y-95686030D01*
X122710959Y-95391091D01*
X121926541Y-95065372D01*
X121077185Y-95064630D01*
X120292200Y-95388980D01*
X119691091Y-95989041D01*
X119365372Y-96773459D01*
X119364630Y-97622815D01*
X116027434Y-97622815D01*
X116042723Y-97583813D01*
X116026497Y-96734613D01*
X115732739Y-96025418D01*
X115413970Y-95865635D01*
X114079605Y-97200000D01*
X113720395Y-97200000D01*
X112386030Y-95865635D01*
X112067261Y-96025418D01*
X111757277Y-96816187D01*
X106735335Y-96816187D01*
X106735370Y-96777185D01*
X106411020Y-95992200D01*
X106105384Y-95686030D01*
X112565635Y-95686030D01*
X113900000Y-97020395D01*
X115234365Y-95686030D01*
X115074582Y-95367261D01*
X114283813Y-95057277D01*
X113434613Y-95073503D01*
X112725418Y-95367261D01*
X112565635Y-95686030D01*
X106105384Y-95686030D01*
X105810959Y-95391091D01*
X105026541Y-95065372D01*
X104177185Y-95064630D01*
X103392200Y-95388980D01*
X102791091Y-95989041D01*
X102465372Y-96773459D01*
X102464630Y-97622815D01*
X99127434Y-97622815D01*
X99142723Y-97583813D01*
X99126497Y-96734613D01*
X98832739Y-96025418D01*
X98513970Y-95865635D01*
X97179605Y-97200000D01*
X96820395Y-97200000D01*
X95486030Y-95865635D01*
X95167261Y-96025418D01*
X94857277Y-96816187D01*
X94232444Y-96816187D01*
X94652165Y-96188032D01*
X94752019Y-95686030D01*
X95665635Y-95686030D01*
X97000000Y-97020395D01*
X98334365Y-95686030D01*
X98174582Y-95367261D01*
X97383813Y-95057277D01*
X96534613Y-95073503D01*
X95825418Y-95367261D01*
X95665635Y-95686030D01*
X94752019Y-95686030D01*
X94826100Y-95313600D01*
X94652165Y-94439168D01*
X94156839Y-93697861D01*
X93415532Y-93202535D01*
X92541100Y-93028600D01*
X91666668Y-93202535D01*
X90925361Y-93697861D01*
X90430035Y-94439168D01*
X90256100Y-95313600D01*
X88226100Y-95313600D01*
X88226100Y-92127000D01*
X146000000Y-92127000D01*
X146049410Y-92116994D01*
X146091035Y-92088553D01*
X146118315Y-92046159D01*
X146127000Y-92000000D01*
X146127000Y-74955510D01*
X146365000Y-75531514D01*
X146365000Y-76749995D01*
X146364999Y-76750000D01*
X146489457Y-77375688D01*
X146843880Y-77906120D01*
X149325000Y-80387239D01*
X149325000Y-85273952D01*
X149037491Y-85081845D01*
X148450072Y-84965000D01*
X148389928Y-84965000D01*
X147802509Y-85081845D01*
X147304519Y-85414591D01*
X146971773Y-85912581D01*
X146854928Y-86500000D01*
X146971773Y-87087419D01*
X147304519Y-87585409D01*
X147802509Y-87918155D01*
X148389928Y-88035000D01*
X148450072Y-88035000D01*
X149037491Y-87918155D01*
X149535481Y-87585409D01*
X149646057Y-87419920D01*
X149803880Y-87656120D01*
X150334313Y-88010543D01*
X150960000Y-88135000D01*
X151585687Y-88010543D01*
X152042065Y-87705602D01*
X152135910Y-87851441D01*
X152348110Y-87996431D01*
X152600000Y-88047440D01*
X154400000Y-88047440D01*
X154635317Y-88003162D01*
X154851441Y-87864090D01*
X154996431Y-87651890D01*
X155047440Y-87400000D01*
X155047440Y-85600000D01*
X155003162Y-85364683D01*
X154864090Y-85148559D01*
X154651890Y-85003569D01*
X154400000Y-84952560D01*
X152600000Y-84952560D01*
X152595000Y-84953501D01*
X152595000Y-84285750D01*
X158065000Y-84285750D01*
X158065000Y-84926310D01*
X158161673Y-85159699D01*
X158340302Y-85338327D01*
X158573691Y-85435000D01*
X159214250Y-85435000D01*
X159373000Y-85276250D01*
X159373000Y-84127000D01*
X158223750Y-84127000D01*
X158065000Y-84285750D01*
X152595000Y-84285750D01*
X152595000Y-83073690D01*
X158065000Y-83073690D01*
X158065000Y-83714250D01*
X158223750Y-83873000D01*
X159373000Y-83873000D01*
X159373000Y-82723750D01*
X159627000Y-82723750D01*
X159627000Y-83873000D01*
X159647000Y-83873000D01*
X159647000Y-84127000D01*
X159627000Y-84127000D01*
X159627000Y-85276250D01*
X159785750Y-85435000D01*
X160426309Y-85435000D01*
X160659698Y-85338327D01*
X160838327Y-85159699D01*
X160923876Y-84953165D01*
X161186077Y-85215824D01*
X161713309Y-85434750D01*
X162284187Y-85435248D01*
X162811800Y-85217243D01*
X163215824Y-84813923D01*
X163434750Y-84286691D01*
X163435248Y-83715813D01*
X163217243Y-83188200D01*
X162813923Y-82784176D01*
X162286691Y-82565250D01*
X161715813Y-82564752D01*
X161188200Y-82782757D01*
X160923813Y-83046683D01*
X160838327Y-82840301D01*
X160659698Y-82661673D01*
X160426309Y-82565000D01*
X159785750Y-82565000D01*
X159627000Y-82723750D01*
X159373000Y-82723750D01*
X159214250Y-82565000D01*
X158573691Y-82565000D01*
X158340302Y-82661673D01*
X158161673Y-82840301D01*
X158065000Y-83073690D01*
X152595000Y-83073690D01*
X152595000Y-79710000D01*
X152470543Y-79084313D01*
X152470543Y-79084312D01*
X152287253Y-78810000D01*
X152116120Y-78553880D01*
X152116117Y-78553878D01*
X149635000Y-76072760D01*
X149635000Y-75847777D01*
X151830548Y-75847777D01*
X151962240Y-76142657D01*
X152669756Y-76414261D01*
X153427352Y-76394436D01*
X154035200Y-76142657D01*
X154166892Y-75847777D01*
X156831828Y-75847777D01*
X156963520Y-76142657D01*
X157671036Y-76414261D01*
X158428632Y-76394436D01*
X159036480Y-76142657D01*
X159168172Y-75847777D01*
X158000000Y-74679605D01*
X156831828Y-75847777D01*
X154166892Y-75847777D01*
X152998720Y-74679605D01*
X151830548Y-75847777D01*
X149635000Y-75847777D01*
X149635000Y-75530025D01*
X149904668Y-74880590D01*
X149905287Y-74171036D01*
X151084459Y-74171036D01*
X151104284Y-74928632D01*
X151356063Y-75536480D01*
X151650943Y-75668172D01*
X152819115Y-74500000D01*
X153178325Y-74500000D01*
X154346497Y-75668172D01*
X154641377Y-75536480D01*
X154912981Y-74828964D01*
X154895765Y-74171036D01*
X156085739Y-74171036D01*
X156105564Y-74928632D01*
X156357343Y-75536480D01*
X156652223Y-75668172D01*
X157820395Y-74500000D01*
X158179605Y-74500000D01*
X159347777Y-75668172D01*
X159642657Y-75536480D01*
X159895719Y-74877265D01*
X161095930Y-74877265D01*
X161385338Y-75577686D01*
X161920755Y-76114039D01*
X162620670Y-76404668D01*
X163378525Y-76405330D01*
X164078946Y-76115922D01*
X164615299Y-75580505D01*
X164905928Y-74880590D01*
X164905930Y-74877265D01*
X166094650Y-74877265D01*
X166384058Y-75577686D01*
X166919475Y-76114039D01*
X167619390Y-76404668D01*
X168377245Y-76405330D01*
X168572891Y-76324491D01*
X170015000Y-77766599D01*
X170015000Y-91599995D01*
X170014999Y-91600000D01*
X170071190Y-91882484D01*
X170082367Y-91938675D01*
X170274210Y-92225790D01*
X172557255Y-94508834D01*
X172606883Y-94628943D01*
X172869673Y-94892192D01*
X173213201Y-95034838D01*
X173585167Y-95035162D01*
X173928943Y-94893117D01*
X174192192Y-94630327D01*
X174334838Y-94286799D01*
X174335162Y-93914833D01*
X174193117Y-93571057D01*
X173930327Y-93307808D01*
X173809013Y-93257434D01*
X171785000Y-91233420D01*
X171785000Y-87834988D01*
X171985167Y-87835162D01*
X172328943Y-87693117D01*
X172592192Y-87430327D01*
X172734838Y-87086799D01*
X172735162Y-86714833D01*
X172685000Y-86593431D01*
X172685000Y-81185167D01*
X173964838Y-81185167D01*
X174106883Y-81528943D01*
X174369673Y-81792192D01*
X174713201Y-81934838D01*
X175085167Y-81935162D01*
X175206569Y-81885000D01*
X180793178Y-81885000D01*
X180913201Y-81934838D01*
X181285167Y-81935162D01*
X181628943Y-81793117D01*
X181892192Y-81530327D01*
X182034838Y-81186799D01*
X182035162Y-80814833D01*
X181893117Y-80471057D01*
X181630327Y-80207808D01*
X181286799Y-80065162D01*
X180914833Y-80064838D01*
X180793431Y-80115000D01*
X175206822Y-80115000D01*
X175086799Y-80065162D01*
X174714833Y-80064838D01*
X174371057Y-80206883D01*
X174107808Y-80469673D01*
X173965162Y-80813201D01*
X173964838Y-81185167D01*
X172685000Y-81185167D01*
X172685000Y-79406580D01*
X177121040Y-74970539D01*
X177340000Y-75014093D01*
X177558959Y-74970539D01*
X183374208Y-80785787D01*
X183374210Y-80785790D01*
X183714208Y-81125787D01*
X183714210Y-81125790D01*
X183805517Y-81186799D01*
X184001326Y-81317634D01*
X184340000Y-81385001D01*
X184340005Y-81385000D01*
X188310568Y-81385000D01*
X188420853Y-81550054D01*
X188750026Y-81770000D01*
X188420853Y-81989946D01*
X188098946Y-82471715D01*
X187985907Y-83040000D01*
X188098946Y-83608285D01*
X188420853Y-84090054D01*
X188750026Y-84310000D01*
X188420853Y-84529946D01*
X188098946Y-85011715D01*
X187985907Y-85580000D01*
X188098946Y-86148285D01*
X188420853Y-86630054D01*
X188750026Y-86850000D01*
X188420853Y-87069946D01*
X188098946Y-87551715D01*
X187985907Y-88120000D01*
X188098946Y-88688285D01*
X188420853Y-89170054D01*
X188902622Y-89491961D01*
X189470907Y-89605000D01*
X189529093Y-89605000D01*
X190097378Y-89491961D01*
X190579147Y-89170054D01*
X190901054Y-88688285D01*
X191014093Y-88120000D01*
X190901054Y-87551715D01*
X190579147Y-87069946D01*
X190249974Y-86850000D01*
X190579147Y-86630054D01*
X190901054Y-86148285D01*
X191014093Y-85580000D01*
X190901054Y-85011715D01*
X190579147Y-84529946D01*
X190249974Y-84310000D01*
X190579147Y-84090054D01*
X190901054Y-83608285D01*
X191014093Y-83040000D01*
X190901054Y-82471715D01*
X190579147Y-81989946D01*
X190249974Y-81770000D01*
X190579147Y-81550054D01*
X190901054Y-81068285D01*
X191014093Y-80500000D01*
X190901054Y-79931715D01*
X190579147Y-79449946D01*
X190537548Y-79422150D01*
X190585317Y-79413162D01*
X190801441Y-79274090D01*
X190946431Y-79061890D01*
X190997440Y-78810000D01*
X190997440Y-77110000D01*
X190953162Y-76874683D01*
X190814090Y-76658559D01*
X190601890Y-76513569D01*
X190350000Y-76462560D01*
X188650000Y-76462560D01*
X188414683Y-76506838D01*
X188198559Y-76645910D01*
X188053569Y-76858110D01*
X188002560Y-77110000D01*
X188002560Y-78810000D01*
X188046838Y-79045317D01*
X188185910Y-79261441D01*
X188398110Y-79406431D01*
X188465541Y-79420086D01*
X188420853Y-79449946D01*
X188310568Y-79615000D01*
X184706580Y-79615000D01*
X184625790Y-79534210D01*
X184625787Y-79534208D01*
X180068231Y-74976651D01*
X180448285Y-74901054D01*
X180930054Y-74579147D01*
X181150000Y-74249974D01*
X181369946Y-74579147D01*
X181851715Y-74901054D01*
X182420000Y-75014093D01*
X182988285Y-74901054D01*
X183470054Y-74579147D01*
X183690000Y-74249974D01*
X183909946Y-74579147D01*
X184391715Y-74901054D01*
X184960000Y-75014093D01*
X185528285Y-74901054D01*
X186010054Y-74579147D01*
X186037850Y-74537548D01*
X186046838Y-74585317D01*
X186185910Y-74801441D01*
X186398110Y-74946431D01*
X186650000Y-74997440D01*
X188350000Y-74997440D01*
X188585317Y-74953162D01*
X188801441Y-74814090D01*
X188946431Y-74601890D01*
X188997440Y-74350000D01*
X188997440Y-72650000D01*
X188953162Y-72414683D01*
X188814090Y-72198559D01*
X188601890Y-72053569D01*
X188350000Y-72002560D01*
X186650000Y-72002560D01*
X186414683Y-72046838D01*
X186198559Y-72185910D01*
X186053569Y-72398110D01*
X186039914Y-72465541D01*
X186010054Y-72420853D01*
X185528285Y-72098946D01*
X184960000Y-71985907D01*
X184391715Y-72098946D01*
X183909946Y-72420853D01*
X183690000Y-72750026D01*
X183470054Y-72420853D01*
X182988285Y-72098946D01*
X182420000Y-71985907D01*
X181851715Y-72098946D01*
X181369946Y-72420853D01*
X181150000Y-72750026D01*
X180930054Y-72420853D01*
X180448285Y-72098946D01*
X179880000Y-71985907D01*
X179311715Y-72098946D01*
X178829946Y-72420853D01*
X178610000Y-72750026D01*
X178390054Y-72420853D01*
X177908285Y-72098946D01*
X177340000Y-71985907D01*
X176771715Y-72098946D01*
X176289946Y-72420853D01*
X176070000Y-72750026D01*
X175850054Y-72420853D01*
X175368285Y-72098946D01*
X174800000Y-71985907D01*
X174231715Y-72098946D01*
X173749946Y-72420853D01*
X173428039Y-72902622D01*
X173315000Y-73470907D01*
X173315000Y-73529093D01*
X173428039Y-74097378D01*
X173749946Y-74579147D01*
X174231715Y-74901054D01*
X174611769Y-74976652D01*
X171785000Y-77803420D01*
X171785000Y-77400025D01*
X171785001Y-77400020D01*
X171717634Y-77061346D01*
X171581836Y-76858110D01*
X171525790Y-76774230D01*
X171525787Y-76774228D01*
X169824696Y-75073136D01*
X169904648Y-74880590D01*
X169905310Y-74122735D01*
X169615902Y-73422314D01*
X169080485Y-72885961D01*
X168380570Y-72595332D01*
X167622715Y-72594670D01*
X166922294Y-72884078D01*
X166385941Y-73419495D01*
X166095312Y-74119410D01*
X166094650Y-74877265D01*
X164905930Y-74877265D01*
X164906590Y-74122735D01*
X164617182Y-73422314D01*
X164081765Y-72885961D01*
X163381850Y-72595332D01*
X162623995Y-72594670D01*
X161923574Y-72884078D01*
X161387221Y-73419495D01*
X161096592Y-74119410D01*
X161095930Y-74877265D01*
X159895719Y-74877265D01*
X159914261Y-74828964D01*
X159894436Y-74071368D01*
X159642657Y-73463520D01*
X159347777Y-73331828D01*
X158179605Y-74500000D01*
X157820395Y-74500000D01*
X156652223Y-73331828D01*
X156357343Y-73463520D01*
X156085739Y-74171036D01*
X154895765Y-74171036D01*
X154893156Y-74071368D01*
X154641377Y-73463520D01*
X154346497Y-73331828D01*
X153178325Y-74500000D01*
X152819115Y-74500000D01*
X151650943Y-73331828D01*
X151356063Y-73463520D01*
X151084459Y-74171036D01*
X149905287Y-74171036D01*
X149905330Y-74122735D01*
X149615922Y-73422314D01*
X149346303Y-73152223D01*
X151830548Y-73152223D01*
X152998720Y-74320395D01*
X154166892Y-73152223D01*
X156831828Y-73152223D01*
X158000000Y-74320395D01*
X159168172Y-73152223D01*
X159036480Y-72857343D01*
X158328964Y-72585739D01*
X157571368Y-72605564D01*
X156963520Y-72857343D01*
X156831828Y-73152223D01*
X154166892Y-73152223D01*
X154035200Y-72857343D01*
X153327684Y-72585739D01*
X152570088Y-72605564D01*
X151962240Y-72857343D01*
X151830548Y-73152223D01*
X149346303Y-73152223D01*
X149080505Y-72885961D01*
X148380590Y-72595332D01*
X147622735Y-72594670D01*
X146922314Y-72884078D01*
X146385961Y-73419495D01*
X146127000Y-74043145D01*
X146127000Y-67313600D01*
X185256100Y-67313600D01*
X185430035Y-68188032D01*
X185925361Y-68929339D01*
X186666668Y-69424665D01*
X187541100Y-69598600D01*
X188415532Y-69424665D01*
X189156839Y-68929339D01*
X189652165Y-68188032D01*
X189826100Y-67313600D01*
X189652165Y-66439168D01*
X189156839Y-65697861D01*
X188415532Y-65202535D01*
X187541100Y-65028600D01*
X186666668Y-65202535D01*
X185925361Y-65697861D01*
X185430035Y-66439168D01*
X185256100Y-67313600D01*
X146127000Y-67313600D01*
X146127000Y-54498600D01*
X171473633Y-54498600D01*
X172421877Y-54687217D01*
M02*
