G04 #@! TF.FileFunction,Profile,NP*
%FSLAX46Y46*%
G04 Gerber Fmt 4.6, Leading zero omitted, Abs format (unit mm)*
G04 Created by KiCad (PCBNEW 4.0.7-e2-6376~58~ubuntu16.04.1) date Mon Nov  6 20:09:01 2017*
%MOMM*%
%LPD*%
G01*
G04 APERTURE LIST*
%ADD10C,0.100000*%
G04 APERTURE END LIST*
D10*
X189141100Y-95313600D02*
G75*
G03X189141100Y-95313600I-1600000J0D01*
G01*
X189141100Y-67313600D02*
G75*
G03X189141100Y-67313600I-1600000J0D01*
G01*
X94141100Y-67313600D02*
G75*
G03X94141100Y-67313600I-1600000J0D01*
G01*
X94141100Y-95313600D02*
G75*
G03X94141100Y-95313600I-1600000J0D01*
G01*
X180541100Y-108813600D02*
X108541100Y-108813600D01*
X183541100Y-105813600D02*
G75*
G02X180541100Y-108813600I-3000000J0D01*
G01*
X180541100Y-62813600D02*
G75*
G02X174541100Y-56813600I0J6000000D01*
G01*
X192541100Y-96813600D02*
X192541100Y-65813600D01*
X192541100Y-96813600D02*
G75*
G02X189541100Y-99813600I-3000000J0D01*
G01*
X183541100Y-105813600D02*
G75*
G02X189541100Y-99813600I6000000J0D01*
G01*
X189541100Y-62813600D02*
G75*
G02X192541100Y-65813600I0J-3000000D01*
G01*
X180541100Y-62813600D02*
X189541100Y-62813600D01*
X171541100Y-53813600D02*
G75*
G02X174541100Y-56813600I0J-3000000D01*
G01*
X99541100Y-53813600D02*
X171541100Y-53813600D01*
X96541100Y-56813600D02*
G75*
G02X99541100Y-53813600I3000000J0D01*
G01*
X99541100Y-99813600D02*
G75*
G02X105541100Y-105813600I0J-6000000D01*
G01*
X87541100Y-65813600D02*
X87541100Y-96813600D01*
X87541100Y-65813600D02*
G75*
G02X90541100Y-62813600I3000000J0D01*
G01*
X96541100Y-56813600D02*
G75*
G02X90541100Y-62813600I-6000000J0D01*
G01*
X90541100Y-99813600D02*
G75*
G02X87541100Y-96813600I0J3000000D01*
G01*
X99541100Y-99813600D02*
X90541100Y-99813600D01*
X108541100Y-108813600D02*
G75*
G02X105541100Y-105813600I0J3000000D01*
G01*
M02*
