M48
METRIC,TZ
T1C0.400
T2C0.800
T3C1.000
T4C1.298
T5C1.500
%
G90
G05
T1
X117500Y-107000
X119250Y-104500
X130280Y-104530
X158000Y-95750
X167900Y-95750
X171800Y-86900
X173400Y-94100
X174900Y-81000
X177500Y-93750
X178750Y-94250
X181100Y-81000
X184700Y-88200
T2
X159500Y-84000
X162000Y-84000
X166000Y-84000
X168500Y-84000
T3
X148420Y-86500
X150960Y-86500
X153500Y-86500
X174800Y-73500
X177340Y-73500
X179880Y-73500
X182420Y-73500
X184960Y-73500
X187500Y-73500
X189500Y-77960
X189500Y-80500
X189500Y-83040
X189500Y-85580
X189500Y-88120
T4
X98001Y-74500
X103000Y-74500
X115000Y-74500
X119999Y-74500
X132000Y-74500
X136999Y-74500
X148000Y-74500
X152999Y-74500
X158000Y-74500
X163001Y-74500
X168000Y-74500
T5
X97000Y-82000
X97000Y-97200
X104600Y-84500
X104600Y-97200
X113900Y-82000
X113900Y-97200
X121500Y-84500
X121500Y-97200
X130900Y-82000
X130900Y-97200
X138500Y-84500
X138500Y-97200
T0
M30
