M48
; DRILL file {KiCad 5.1.10} date Wed Nov 10 17:43:05 2021
; FORMAT={-:-/ absolute / inch / decimal}
; #@! TF.CreationDate,2021-11-10T17:43:05+10:00
; #@! TF.GenerationSoftware,Kicad,Pcbnew,5.1.10
; #@! TF.FileFunction,Plated,1,2,PTH
FMAT,2
INCH
T1C0.0315
T2C0.0394
T3C0.0472
T4C0.0512
T5C0.1260
%
G90
G05
T1
X5.2087Y-2.4803
X5.2087Y-2.5803
X5.2087Y-2.6803
X5.2087Y-2.7803
X5.2087Y-2.8803
X5.2087Y-2.9803
X5.2087Y-3.0803
X5.2087Y-3.1803
X5.2087Y-3.2803
X5.2087Y-3.3803
X5.2087Y-3.4803
X5.2087Y-3.5803
X5.2087Y-3.6803
X5.2087Y-3.7803
X5.2087Y-3.8803
X5.2087Y-3.9803
X5.2087Y-4.0803
X5.2087Y-4.1803
X6.2087Y-2.4803
X6.2087Y-2.5803
X6.2087Y-2.6803
X6.2087Y-2.7803
X6.2087Y-2.8803
X6.2087Y-2.9803
X6.2087Y-3.0803
X6.2087Y-3.1803
X6.2087Y-3.2803
X6.2087Y-3.3803
X6.2087Y-3.4803
X6.2087Y-3.5803
X6.2087Y-3.6803
X6.2087Y-3.7803
X6.2087Y-3.8803
X6.2087Y-3.9803
X6.2087Y-4.0803
X6.2087Y-4.1803
T2
X5.4724Y-2.4803
X5.4724Y-2.5803
X5.4724Y-2.6803
X5.4724Y-2.7803
X5.4724Y-2.8803
X5.4724Y-2.9803
X5.4724Y-3.0803
X5.4724Y-3.1803
X5.4724Y-3.2803
X5.4724Y-3.3803
X5.4724Y-3.4803
X5.4724Y-3.5803
X5.4724Y-3.6803
X5.4724Y-3.7803
X5.4724Y-3.8803
X5.4724Y-3.9803
X5.4724Y-4.0803
X5.4724Y-4.1803
X5.9843Y-2.4803
X5.9843Y-2.5803
X5.9843Y-2.6803
X5.9843Y-2.7803
X5.9843Y-2.8803
X5.9843Y-2.9803
X5.9843Y-3.0803
X5.9843Y-3.1803
X5.9843Y-3.2803
X5.9843Y-3.3803
X5.9843Y-3.4803
X5.9843Y-3.5803
X5.9843Y-3.6803
X5.9843Y-3.7803
X5.9843Y-3.8803
X5.9843Y-3.9803
X5.9843Y-4.0803
X5.9843Y-4.1803
T3
X2.9528Y-2.5984
X2.9528Y-2.8937
X3.3858Y-1.8504
X3.3858Y-2.5197
X4.9409Y-1.8504
X4.9409Y-2.5197
T4
X3.3465Y-4.6457
X3.5433Y-4.6457
X3.7402Y-4.6457
X3.9371Y-4.6457
X4.1339Y-4.6457
X4.3308Y-4.6457
X4.5276Y-4.6457
X4.7245Y-4.6457
X4.9213Y-4.6457
T5
X3.1102Y-1.9685
X3.1102Y-4.6457
X6.1417Y-1.9685
X6.1417Y-4.6457
T0
M30
