G04 #@! TF.GenerationSoftware,KiCad,Pcbnew,5.1.10*
G04 #@! TF.CreationDate,2021-11-10T17:43:12+10:00*
G04 #@! TF.ProjectId,wifi_unit,77696669-5f75-46e6-9974-2e6b69636164,rev?*
G04 #@! TF.SameCoordinates,Original*
G04 #@! TF.FileFunction,Soldermask,Top*
G04 #@! TF.FilePolarity,Negative*
%FSLAX46Y46*%
G04 Gerber Fmt 4.6, Leading zero omitted, Abs format (unit mm)*
G04 Created by KiCad (PCBNEW 5.1.10) date 2021-11-10 17:43:12*
%MOMM*%
%LPD*%
G01*
G04 APERTURE LIST*
%ADD10C,3.600000*%
%ADD11C,2.800000*%
%ADD12C,2.940000*%
%ADD13C,6.400000*%
%ADD14O,2.800000X2.000000*%
%ADD15O,2.100000X2.100000*%
G04 APERTURE END LIST*
D10*
X156000000Y-118000000D03*
X79000000Y-118000000D03*
X79000000Y-50000000D03*
X156000000Y-50000000D03*
D11*
X75000000Y-73500000D03*
G36*
G01*
X73800000Y-64600000D02*
X76200000Y-64600000D01*
G75*
G02*
X76400000Y-64800000I0J-200000D01*
G01*
X76400000Y-67200000D01*
G75*
G02*
X76200000Y-67400000I-200000J0D01*
G01*
X73800000Y-67400000D01*
G75*
G02*
X73600000Y-67200000I0J200000D01*
G01*
X73600000Y-64800000D01*
G75*
G02*
X73800000Y-64600000I200000J0D01*
G01*
G37*
D12*
X110001280Y-118000000D03*
X115000000Y-118000000D03*
X120001280Y-118000000D03*
X125000000Y-118000000D03*
X95000020Y-118000000D03*
X100001280Y-118000000D03*
X105000000Y-118000000D03*
D13*
X133000000Y-111102590D03*
X157000000Y-111102590D03*
X157000000Y-58102590D03*
X133000000Y-58102590D03*
D14*
X157700000Y-103640000D03*
X157700000Y-101100000D03*
X132300000Y-65540000D03*
X157700000Y-98560000D03*
X132300000Y-68080000D03*
X132300000Y-98560000D03*
X157700000Y-65540000D03*
X132300000Y-101100000D03*
G36*
G01*
X156300000Y-63800000D02*
X156300000Y-62200000D01*
G75*
G02*
X156500000Y-62000000I200000J0D01*
G01*
X158900000Y-62000000D01*
G75*
G02*
X159100000Y-62200000I0J-200000D01*
G01*
X159100000Y-63800000D01*
G75*
G02*
X158900000Y-64000000I-200000J0D01*
G01*
X156500000Y-64000000D01*
G75*
G02*
X156300000Y-63800000I0J200000D01*
G01*
G37*
X132300000Y-103640000D03*
X132300000Y-106180000D03*
X157700000Y-106180000D03*
X132300000Y-85860000D03*
X157700000Y-78240000D03*
X132300000Y-88400000D03*
X157700000Y-75700000D03*
X132300000Y-90940000D03*
X157700000Y-73160000D03*
X132300000Y-93480000D03*
X157700000Y-70620000D03*
X132300000Y-96020000D03*
X157700000Y-68080000D03*
G36*
G01*
X130900000Y-63800000D02*
X130900000Y-62200000D01*
G75*
G02*
X131100000Y-62000000I200000J0D01*
G01*
X133500000Y-62000000D01*
G75*
G02*
X133700000Y-62200000I0J-200000D01*
G01*
X133700000Y-63800000D01*
G75*
G02*
X133500000Y-64000000I-200000J0D01*
G01*
X131100000Y-64000000D01*
G75*
G02*
X130900000Y-63800000I0J200000D01*
G01*
G37*
X157700000Y-90940000D03*
X132300000Y-75700000D03*
X157700000Y-88400000D03*
X132300000Y-78240000D03*
X157700000Y-85860000D03*
X132300000Y-80780000D03*
X157700000Y-83320000D03*
X132300000Y-83320000D03*
X157700000Y-80780000D03*
X157700000Y-96020000D03*
X132300000Y-70620000D03*
X157700000Y-93480000D03*
X132300000Y-73160000D03*
D11*
X125500000Y-47000000D03*
X125500000Y-64000000D03*
X86000000Y-64000000D03*
X86000000Y-47000000D03*
D12*
X85001280Y-118000000D03*
X90000000Y-118000000D03*
D15*
X152000000Y-63000000D03*
X152000000Y-65540000D03*
X152000000Y-68080000D03*
X152000000Y-70620000D03*
X152000000Y-73160000D03*
X152000000Y-75700000D03*
X152000000Y-78240000D03*
X152000000Y-80780000D03*
X152000000Y-83320000D03*
X152000000Y-85860000D03*
X152000000Y-88400000D03*
X152000000Y-90940000D03*
X152000000Y-93480000D03*
X152000000Y-96020000D03*
X152000000Y-98560000D03*
X152000000Y-101100000D03*
X152000000Y-103640000D03*
G36*
G01*
X153050000Y-105330000D02*
X153050000Y-107030000D01*
G75*
G02*
X152850000Y-107230000I-200000J0D01*
G01*
X151150000Y-107230000D01*
G75*
G02*
X150950000Y-107030000I0J200000D01*
G01*
X150950000Y-105330000D01*
G75*
G02*
X151150000Y-105130000I200000J0D01*
G01*
X152850000Y-105130000D01*
G75*
G02*
X153050000Y-105330000I0J-200000D01*
G01*
G37*
X139000000Y-106180000D03*
X139000000Y-103640000D03*
X139000000Y-101100000D03*
X139000000Y-98560000D03*
X139000000Y-96020000D03*
X139000000Y-93480000D03*
X139000000Y-90940000D03*
X139000000Y-88400000D03*
X139000000Y-85860000D03*
X139000000Y-83320000D03*
X139000000Y-80780000D03*
X139000000Y-78240000D03*
X139000000Y-75700000D03*
X139000000Y-73160000D03*
X139000000Y-70620000D03*
X139000000Y-68080000D03*
X139000000Y-65540000D03*
G36*
G01*
X137950000Y-63850000D02*
X137950000Y-62150000D01*
G75*
G02*
X138150000Y-61950000I200000J0D01*
G01*
X139850000Y-61950000D01*
G75*
G02*
X140050000Y-62150000I0J-200000D01*
G01*
X140050000Y-63850000D01*
G75*
G02*
X139850000Y-64050000I-200000J0D01*
G01*
X138150000Y-64050000D01*
G75*
G02*
X137950000Y-63850000I0J200000D01*
G01*
G37*
G36*
G01*
X74300000Y-87350000D02*
X74300000Y-88650000D01*
G75*
G02*
X74100000Y-88850000I-200000J0D01*
G01*
X72600000Y-88850000D01*
G75*
G02*
X72400000Y-88650000I0J200000D01*
G01*
X72400000Y-87350000D01*
G75*
G02*
X72600000Y-87150000I200000J0D01*
G01*
X74100000Y-87150000D01*
G75*
G02*
X74300000Y-87350000I0J-200000D01*
G01*
G37*
G36*
G01*
X71600000Y-87350000D02*
X71600000Y-88650000D01*
G75*
G02*
X71400000Y-88850000I-200000J0D01*
G01*
X69900000Y-88850000D01*
G75*
G02*
X69700000Y-88650000I0J200000D01*
G01*
X69700000Y-87350000D01*
G75*
G02*
X69900000Y-87150000I200000J0D01*
G01*
X71400000Y-87150000D01*
G75*
G02*
X71600000Y-87350000I0J-200000D01*
G01*
G37*
G36*
G01*
X73680000Y-92400000D02*
X74880000Y-92400000D01*
G75*
G02*
X75080000Y-92600000I0J-200000D01*
G01*
X75080000Y-94800000D01*
G75*
G02*
X74880000Y-95000000I-200000J0D01*
G01*
X73680000Y-95000000D01*
G75*
G02*
X73480000Y-94800000I0J200000D01*
G01*
X73480000Y-92600000D01*
G75*
G02*
X73680000Y-92400000I200000J0D01*
G01*
G37*
G36*
G01*
X69120000Y-92400000D02*
X70320000Y-92400000D01*
G75*
G02*
X70520000Y-92600000I0J-200000D01*
G01*
X70520000Y-94800000D01*
G75*
G02*
X70320000Y-95000000I-200000J0D01*
G01*
X69120000Y-95000000D01*
G75*
G02*
X68920000Y-94800000I0J200000D01*
G01*
X68920000Y-92600000D01*
G75*
G02*
X69120000Y-92400000I200000J0D01*
G01*
G37*
G36*
G01*
X69100000Y-96600000D02*
X74900000Y-96600000D01*
G75*
G02*
X75100000Y-96800000I0J-200000D01*
G01*
X75100000Y-103200000D01*
G75*
G02*
X74900000Y-103400000I-200000J0D01*
G01*
X69100000Y-103400000D01*
G75*
G02*
X68900000Y-103200000I0J200000D01*
G01*
X68900000Y-96800000D01*
G75*
G02*
X69100000Y-96600000I200000J0D01*
G01*
G37*
M02*
