G04 #@! TF.GenerationSoftware,KiCad,Pcbnew,5.1.10*
G04 #@! TF.CreationDate,2021-11-10T17:43:12+10:00*
G04 #@! TF.ProjectId,wifi_unit,77696669-5f75-46e6-9974-2e6b69636164,rev?*
G04 #@! TF.SameCoordinates,Original*
G04 #@! TF.FileFunction,Legend,Top*
G04 #@! TF.FilePolarity,Positive*
%FSLAX46Y46*%
G04 Gerber Fmt 4.6, Leading zero omitted, Abs format (unit mm)*
G04 Created by KiCad (PCBNEW 5.1.10) date 2021-11-10 17:43:12*
%MOMM*%
%LPD*%
G01*
G04 APERTURE LIST*
%ADD10C,0.300000*%
%ADD11C,0.120000*%
%ADD12C,0.127000*%
%ADD13C,0.150000*%
%ADD14C,0.101600*%
%ADD15C,0.050800*%
G04 APERTURE END LIST*
D10*
X92785714Y-91207142D02*
X93500000Y-94207142D01*
X94071428Y-92064285D01*
X94642857Y-94207142D01*
X95357142Y-91207142D01*
X96500000Y-94207142D02*
X96500000Y-92207142D01*
X96500000Y-91207142D02*
X96357142Y-91350000D01*
X96500000Y-91492857D01*
X96642857Y-91350000D01*
X96500000Y-91207142D01*
X96500000Y-91492857D01*
X97928571Y-93064285D02*
X100214285Y-93064285D01*
X101500000Y-94064285D02*
X101928571Y-94207142D01*
X102642857Y-94207142D01*
X102928571Y-94064285D01*
X103071428Y-93921428D01*
X103214285Y-93635714D01*
X103214285Y-93350000D01*
X103071428Y-93064285D01*
X102928571Y-92921428D01*
X102642857Y-92778571D01*
X102071428Y-92635714D01*
X101785714Y-92492857D01*
X101642857Y-92350000D01*
X101500000Y-92064285D01*
X101500000Y-91778571D01*
X101642857Y-91492857D01*
X101785714Y-91350000D01*
X102071428Y-91207142D01*
X102785714Y-91207142D01*
X103214285Y-91350000D01*
X104500000Y-94207142D02*
X104500000Y-91207142D01*
X104500000Y-92635714D02*
X106214285Y-92635714D01*
X106214285Y-94207142D02*
X106214285Y-91207142D01*
X109357142Y-94207142D02*
X108357142Y-92778571D01*
X107642857Y-94207142D02*
X107642857Y-91207142D01*
X108785714Y-91207142D01*
X109071428Y-91350000D01*
X109214285Y-91492857D01*
X109357142Y-91778571D01*
X109357142Y-92207142D01*
X109214285Y-92492857D01*
X109071428Y-92635714D01*
X108785714Y-92778571D01*
X107642857Y-92778571D01*
X111214285Y-91207142D02*
X111785714Y-91207142D01*
X112071428Y-91350000D01*
X112357142Y-91635714D01*
X112500000Y-92207142D01*
X112500000Y-93207142D01*
X112357142Y-93778571D01*
X112071428Y-94064285D01*
X111785714Y-94207142D01*
X111214285Y-94207142D01*
X110928571Y-94064285D01*
X110642857Y-93778571D01*
X110500000Y-93207142D01*
X110500000Y-92207142D01*
X110642857Y-91635714D01*
X110928571Y-91350000D01*
X111214285Y-91207142D01*
X114357142Y-91207142D02*
X114928571Y-91207142D01*
X115214285Y-91350000D01*
X115500000Y-91635714D01*
X115642857Y-92207142D01*
X115642857Y-93207142D01*
X115500000Y-93778571D01*
X115214285Y-94064285D01*
X114928571Y-94207142D01*
X114357142Y-94207142D01*
X114071428Y-94064285D01*
X113785714Y-93778571D01*
X113642857Y-93207142D01*
X113642857Y-92207142D01*
X113785714Y-91635714D01*
X114071428Y-91350000D01*
X114357142Y-91207142D01*
X116928571Y-94207142D02*
X116928571Y-91207142D01*
X117928571Y-93350000D01*
X118928571Y-91207142D01*
X118928571Y-94207142D01*
X103571428Y-96007142D02*
X104571428Y-99007142D01*
X105571428Y-96007142D01*
X107142857Y-96007142D02*
X107428571Y-96007142D01*
X107714285Y-96150000D01*
X107857142Y-96292857D01*
X108000000Y-96578571D01*
X108142857Y-97150000D01*
X108142857Y-97864285D01*
X108000000Y-98435714D01*
X107857142Y-98721428D01*
X107714285Y-98864285D01*
X107428571Y-99007142D01*
X107142857Y-99007142D01*
X106857142Y-98864285D01*
X106714285Y-98721428D01*
X106571428Y-98435714D01*
X106428571Y-97864285D01*
X106428571Y-97150000D01*
X106571428Y-96578571D01*
X106714285Y-96292857D01*
X106857142Y-96150000D01*
X107142857Y-96007142D01*
X113357142Y-108607142D02*
X113571428Y-108678571D01*
X113928571Y-108678571D01*
X114071428Y-108607142D01*
X114142857Y-108535714D01*
X114214285Y-108392857D01*
X114214285Y-108250000D01*
X114142857Y-108107142D01*
X114071428Y-108035714D01*
X113928571Y-107964285D01*
X113642857Y-107892857D01*
X113500000Y-107821428D01*
X113428571Y-107750000D01*
X113357142Y-107607142D01*
X113357142Y-107464285D01*
X113428571Y-107321428D01*
X113500000Y-107250000D01*
X113642857Y-107178571D01*
X114000000Y-107178571D01*
X114214285Y-107250000D01*
X114857142Y-107892857D02*
X115357142Y-107892857D01*
X115571428Y-108678571D02*
X114857142Y-108678571D01*
X114857142Y-107178571D01*
X115571428Y-107178571D01*
X116214285Y-108678571D02*
X116214285Y-107178571D01*
X117071428Y-108678571D01*
X117071428Y-107178571D01*
X117714285Y-108607142D02*
X117928571Y-108678571D01*
X118285714Y-108678571D01*
X118428571Y-108607142D01*
X118500000Y-108535714D01*
X118571428Y-108392857D01*
X118571428Y-108250000D01*
X118500000Y-108107142D01*
X118428571Y-108035714D01*
X118285714Y-107964285D01*
X118000000Y-107892857D01*
X117857142Y-107821428D01*
X117785714Y-107750000D01*
X117714285Y-107607142D01*
X117714285Y-107464285D01*
X117785714Y-107321428D01*
X117857142Y-107250000D01*
X118000000Y-107178571D01*
X118357142Y-107178571D01*
X118571428Y-107250000D01*
X119500000Y-107178571D02*
X119785714Y-107178571D01*
X119928571Y-107250000D01*
X120071428Y-107392857D01*
X120142857Y-107678571D01*
X120142857Y-108178571D01*
X120071428Y-108464285D01*
X119928571Y-108607142D01*
X119785714Y-108678571D01*
X119500000Y-108678571D01*
X119357142Y-108607142D01*
X119214285Y-108464285D01*
X119142857Y-108178571D01*
X119142857Y-107678571D01*
X119214285Y-107392857D01*
X119357142Y-107250000D01*
X119500000Y-107178571D01*
X121642857Y-108678571D02*
X121142857Y-107964285D01*
X120785714Y-108678571D02*
X120785714Y-107178571D01*
X121357142Y-107178571D01*
X121500000Y-107250000D01*
X121571428Y-107321428D01*
X121642857Y-107464285D01*
X121642857Y-107678571D01*
X121571428Y-107821428D01*
X121500000Y-107892857D01*
X121357142Y-107964285D01*
X120785714Y-107964285D01*
X124428571Y-112607142D02*
X125571428Y-112607142D01*
X119428571Y-112607142D02*
X120571428Y-112607142D01*
X120000000Y-113178571D02*
X120000000Y-112035714D01*
X113964285Y-113178571D02*
X113964285Y-111678571D01*
X114321428Y-111678571D01*
X114535714Y-111750000D01*
X114678571Y-111892857D01*
X114750000Y-112035714D01*
X114821428Y-112321428D01*
X114821428Y-112535714D01*
X114750000Y-112821428D01*
X114678571Y-112964285D01*
X114535714Y-113107142D01*
X114321428Y-113178571D01*
X113964285Y-113178571D01*
X115392857Y-112750000D02*
X116107142Y-112750000D01*
X115250000Y-113178571D02*
X115750000Y-111678571D01*
X116250000Y-113178571D01*
X109857142Y-113035714D02*
X109785714Y-113107142D01*
X109571428Y-113178571D01*
X109428571Y-113178571D01*
X109214285Y-113107142D01*
X109071428Y-112964285D01*
X109000000Y-112821428D01*
X108928571Y-112535714D01*
X108928571Y-112321428D01*
X109000000Y-112035714D01*
X109071428Y-111892857D01*
X109214285Y-111750000D01*
X109428571Y-111678571D01*
X109571428Y-111678571D01*
X109785714Y-111750000D01*
X109857142Y-111821428D01*
X111214285Y-113178571D02*
X110500000Y-113178571D01*
X110500000Y-111678571D01*
X100678571Y-112428571D02*
X99178571Y-112428571D01*
X99178571Y-111857142D01*
X99250000Y-111714285D01*
X99321428Y-111642857D01*
X99464285Y-111571428D01*
X99678571Y-111571428D01*
X99821428Y-111642857D01*
X99892857Y-111714285D01*
X99964285Y-111857142D01*
X99964285Y-112428571D01*
X99178571Y-111071428D02*
X100678571Y-110714285D01*
X99607142Y-110428571D01*
X100678571Y-110142857D01*
X99178571Y-109785714D01*
X100678571Y-108357142D02*
X99964285Y-108857142D01*
X100678571Y-109214285D02*
X99178571Y-109214285D01*
X99178571Y-108642857D01*
X99250000Y-108500000D01*
X99321428Y-108428571D01*
X99464285Y-108357142D01*
X99678571Y-108357142D01*
X99821428Y-108428571D01*
X99892857Y-108500000D01*
X99964285Y-108642857D01*
X99964285Y-109214285D01*
X100107142Y-107714285D02*
X100107142Y-106571428D01*
X105535714Y-111392857D02*
X105607142Y-111464285D01*
X105678571Y-111678571D01*
X105678571Y-111821428D01*
X105607142Y-112035714D01*
X105464285Y-112178571D01*
X105321428Y-112250000D01*
X105035714Y-112321428D01*
X104821428Y-112321428D01*
X104535714Y-112250000D01*
X104392857Y-112178571D01*
X104250000Y-112035714D01*
X104178571Y-111821428D01*
X104178571Y-111678571D01*
X104250000Y-111464285D01*
X104321428Y-111392857D01*
X104178571Y-110464285D02*
X104178571Y-110178571D01*
X104250000Y-110035714D01*
X104392857Y-109892857D01*
X104678571Y-109821428D01*
X105178571Y-109821428D01*
X105464285Y-109892857D01*
X105607142Y-110035714D01*
X105678571Y-110178571D01*
X105678571Y-110464285D01*
X105607142Y-110607142D01*
X105464285Y-110750000D01*
X105178571Y-110821428D01*
X104678571Y-110821428D01*
X104392857Y-110750000D01*
X104250000Y-110607142D01*
X104178571Y-110464285D01*
X105678571Y-109178571D02*
X104178571Y-109178571D01*
X105250000Y-108678571D01*
X104178571Y-108178571D01*
X105678571Y-108178571D01*
X105607142Y-107535714D02*
X105678571Y-107321428D01*
X105678571Y-106964285D01*
X105607142Y-106821428D01*
X105535714Y-106750000D01*
X105392857Y-106678571D01*
X105250000Y-106678571D01*
X105107142Y-106750000D01*
X105035714Y-106821428D01*
X104964285Y-106964285D01*
X104892857Y-107250000D01*
X104821428Y-107392857D01*
X104750000Y-107464285D01*
X104607142Y-107535714D01*
X104464285Y-107535714D01*
X104321428Y-107464285D01*
X104250000Y-107392857D01*
X104178571Y-107250000D01*
X104178571Y-106892857D01*
X104250000Y-106678571D01*
X95678571Y-112428571D02*
X94178571Y-112428571D01*
X94178571Y-111857142D01*
X94250000Y-111714285D01*
X94321428Y-111642857D01*
X94464285Y-111571428D01*
X94678571Y-111571428D01*
X94821428Y-111642857D01*
X94892857Y-111714285D01*
X94964285Y-111857142D01*
X94964285Y-112428571D01*
X94178571Y-111071428D02*
X95678571Y-110714285D01*
X94607142Y-110428571D01*
X95678571Y-110142857D01*
X94178571Y-109785714D01*
X95678571Y-108357142D02*
X94964285Y-108857142D01*
X95678571Y-109214285D02*
X94178571Y-109214285D01*
X94178571Y-108642857D01*
X94250000Y-108500000D01*
X94321428Y-108428571D01*
X94464285Y-108357142D01*
X94678571Y-108357142D01*
X94821428Y-108428571D01*
X94892857Y-108500000D01*
X94964285Y-108642857D01*
X94964285Y-109214285D01*
X95107142Y-107714285D02*
X95107142Y-106571428D01*
X95678571Y-107142857D02*
X94535714Y-107142857D01*
X84428571Y-112107142D02*
X85571428Y-112107142D01*
X89428571Y-112107142D02*
X90571428Y-112107142D01*
X90000000Y-112678571D02*
X90000000Y-111535714D01*
X86535714Y-109178571D02*
X85821428Y-109178571D01*
X85821428Y-107678571D01*
X87035714Y-108392857D02*
X87535714Y-108392857D01*
X87750000Y-109178571D02*
X87035714Y-109178571D01*
X87035714Y-107678571D01*
X87750000Y-107678571D01*
X88392857Y-109178571D02*
X88392857Y-107678571D01*
X88750000Y-107678571D01*
X88964285Y-107750000D01*
X89107142Y-107892857D01*
X89178571Y-108035714D01*
X89250000Y-108321428D01*
X89250000Y-108535714D01*
X89178571Y-108821428D01*
X89107142Y-108964285D01*
X88964285Y-109107142D01*
X88750000Y-109178571D01*
X88392857Y-109178571D01*
D11*
X83120000Y-69750000D02*
G75*
G03*
X83120000Y-69750000I-8120000J0D01*
G01*
X83081000Y-69750000D02*
X66919000Y-69750000D01*
X83080000Y-69790000D02*
X66920000Y-69790000D01*
X83080000Y-69830000D02*
X66920000Y-69830000D01*
X83080000Y-69870000D02*
X66920000Y-69870000D01*
X83079000Y-69910000D02*
X66921000Y-69910000D01*
X83078000Y-69950000D02*
X66922000Y-69950000D01*
X83077000Y-69990000D02*
X66923000Y-69990000D01*
X83076000Y-70030000D02*
X66924000Y-70030000D01*
X83074000Y-70070000D02*
X66926000Y-70070000D01*
X83073000Y-70110000D02*
X66927000Y-70110000D01*
X83071000Y-70150000D02*
X66929000Y-70150000D01*
X83069000Y-70190000D02*
X66931000Y-70190000D01*
X83066000Y-70230000D02*
X66934000Y-70230000D01*
X83064000Y-70270000D02*
X66936000Y-70270000D01*
X83061000Y-70310000D02*
X66939000Y-70310000D01*
X83058000Y-70350000D02*
X66942000Y-70350000D01*
X83055000Y-70390000D02*
X66945000Y-70390000D01*
X83052000Y-70430000D02*
X66948000Y-70430000D01*
X83049000Y-70471000D02*
X66951000Y-70471000D01*
X83045000Y-70511000D02*
X66955000Y-70511000D01*
X83041000Y-70551000D02*
X66959000Y-70551000D01*
X83037000Y-70591000D02*
X66963000Y-70591000D01*
X83033000Y-70631000D02*
X66967000Y-70631000D01*
X83028000Y-70671000D02*
X66972000Y-70671000D01*
X83024000Y-70711000D02*
X66976000Y-70711000D01*
X83019000Y-70751000D02*
X66981000Y-70751000D01*
X83014000Y-70791000D02*
X66986000Y-70791000D01*
X83008000Y-70831000D02*
X66992000Y-70831000D01*
X83003000Y-70871000D02*
X66997000Y-70871000D01*
X82997000Y-70911000D02*
X67003000Y-70911000D01*
X82991000Y-70951000D02*
X67009000Y-70951000D01*
X82985000Y-70991000D02*
X67015000Y-70991000D01*
X82979000Y-71031000D02*
X67021000Y-71031000D01*
X82972000Y-71071000D02*
X67028000Y-71071000D01*
X82966000Y-71111000D02*
X67034000Y-71111000D01*
X82959000Y-71151000D02*
X67041000Y-71151000D01*
X82952000Y-71191000D02*
X67048000Y-71191000D01*
X82944000Y-71231000D02*
X67056000Y-71231000D01*
X82937000Y-71271000D02*
X67063000Y-71271000D01*
X82929000Y-71311000D02*
X67071000Y-71311000D01*
X82921000Y-71351000D02*
X67079000Y-71351000D01*
X82913000Y-71391000D02*
X67087000Y-71391000D01*
X82905000Y-71431000D02*
X67095000Y-71431000D01*
X82896000Y-71471000D02*
X67104000Y-71471000D01*
X82887000Y-71511000D02*
X67113000Y-71511000D01*
X82878000Y-71551000D02*
X67122000Y-71551000D01*
X82869000Y-71591000D02*
X67131000Y-71591000D01*
X82860000Y-71631000D02*
X67140000Y-71631000D01*
X82850000Y-71671000D02*
X67150000Y-71671000D01*
X82840000Y-71711000D02*
X67160000Y-71711000D01*
X82830000Y-71751000D02*
X67170000Y-71751000D01*
X82820000Y-71791000D02*
X67180000Y-71791000D01*
X82810000Y-71831000D02*
X67190000Y-71831000D01*
X82799000Y-71871000D02*
X67201000Y-71871000D01*
X82788000Y-71911000D02*
X67212000Y-71911000D01*
X82777000Y-71951000D02*
X67223000Y-71951000D01*
X82765000Y-71991000D02*
X67235000Y-71991000D01*
X82754000Y-72031000D02*
X67246000Y-72031000D01*
X82742000Y-72071000D02*
X76440000Y-72071000D01*
X73560000Y-72071000D02*
X67258000Y-72071000D01*
X82730000Y-72111000D02*
X76440000Y-72111000D01*
X73560000Y-72111000D02*
X67270000Y-72111000D01*
X82718000Y-72151000D02*
X76440000Y-72151000D01*
X73560000Y-72151000D02*
X67282000Y-72151000D01*
X82705000Y-72191000D02*
X76440000Y-72191000D01*
X73560000Y-72191000D02*
X67295000Y-72191000D01*
X82693000Y-72231000D02*
X76440000Y-72231000D01*
X73560000Y-72231000D02*
X67307000Y-72231000D01*
X82680000Y-72271000D02*
X76440000Y-72271000D01*
X73560000Y-72271000D02*
X67320000Y-72271000D01*
X82666000Y-72311000D02*
X76440000Y-72311000D01*
X73560000Y-72311000D02*
X67334000Y-72311000D01*
X82653000Y-72351000D02*
X76440000Y-72351000D01*
X73560000Y-72351000D02*
X67347000Y-72351000D01*
X82639000Y-72391000D02*
X76440000Y-72391000D01*
X73560000Y-72391000D02*
X67361000Y-72391000D01*
X82625000Y-72431000D02*
X76440000Y-72431000D01*
X73560000Y-72431000D02*
X67375000Y-72431000D01*
X82611000Y-72471000D02*
X76440000Y-72471000D01*
X73560000Y-72471000D02*
X67389000Y-72471000D01*
X82597000Y-72511000D02*
X76440000Y-72511000D01*
X73560000Y-72511000D02*
X67403000Y-72511000D01*
X82582000Y-72551000D02*
X76440000Y-72551000D01*
X73560000Y-72551000D02*
X67418000Y-72551000D01*
X82568000Y-72591000D02*
X76440000Y-72591000D01*
X73560000Y-72591000D02*
X67432000Y-72591000D01*
X82553000Y-72631000D02*
X76440000Y-72631000D01*
X73560000Y-72631000D02*
X67447000Y-72631000D01*
X82537000Y-72671000D02*
X76440000Y-72671000D01*
X73560000Y-72671000D02*
X67463000Y-72671000D01*
X82522000Y-72711000D02*
X76440000Y-72711000D01*
X73560000Y-72711000D02*
X67478000Y-72711000D01*
X82506000Y-72751000D02*
X76440000Y-72751000D01*
X73560000Y-72751000D02*
X67494000Y-72751000D01*
X82490000Y-72791000D02*
X76440000Y-72791000D01*
X73560000Y-72791000D02*
X67510000Y-72791000D01*
X82474000Y-72831000D02*
X76440000Y-72831000D01*
X73560000Y-72831000D02*
X67526000Y-72831000D01*
X82457000Y-72871000D02*
X76440000Y-72871000D01*
X73560000Y-72871000D02*
X67543000Y-72871000D01*
X82440000Y-72911000D02*
X76440000Y-72911000D01*
X73560000Y-72911000D02*
X67560000Y-72911000D01*
X82423000Y-72951000D02*
X76440000Y-72951000D01*
X73560000Y-72951000D02*
X67577000Y-72951000D01*
X82406000Y-72991000D02*
X76440000Y-72991000D01*
X73560000Y-72991000D02*
X67594000Y-72991000D01*
X82389000Y-73031000D02*
X76440000Y-73031000D01*
X73560000Y-73031000D02*
X67611000Y-73031000D01*
X82371000Y-73071000D02*
X76440000Y-73071000D01*
X73560000Y-73071000D02*
X67629000Y-73071000D01*
X82353000Y-73111000D02*
X76440000Y-73111000D01*
X73560000Y-73111000D02*
X67647000Y-73111000D01*
X82334000Y-73151000D02*
X76440000Y-73151000D01*
X73560000Y-73151000D02*
X67666000Y-73151000D01*
X82316000Y-73191000D02*
X76440000Y-73191000D01*
X73560000Y-73191000D02*
X67684000Y-73191000D01*
X82297000Y-73231000D02*
X76440000Y-73231000D01*
X73560000Y-73231000D02*
X67703000Y-73231000D01*
X82278000Y-73271000D02*
X76440000Y-73271000D01*
X73560000Y-73271000D02*
X67722000Y-73271000D01*
X82258000Y-73311000D02*
X76440000Y-73311000D01*
X73560000Y-73311000D02*
X67742000Y-73311000D01*
X82239000Y-73351000D02*
X76440000Y-73351000D01*
X73560000Y-73351000D02*
X67761000Y-73351000D01*
X82219000Y-73391000D02*
X76440000Y-73391000D01*
X73560000Y-73391000D02*
X67781000Y-73391000D01*
X82199000Y-73431000D02*
X76440000Y-73431000D01*
X73560000Y-73431000D02*
X67801000Y-73431000D01*
X82178000Y-73471000D02*
X76440000Y-73471000D01*
X73560000Y-73471000D02*
X67822000Y-73471000D01*
X82157000Y-73511000D02*
X76440000Y-73511000D01*
X73560000Y-73511000D02*
X67843000Y-73511000D01*
X82136000Y-73551000D02*
X76440000Y-73551000D01*
X73560000Y-73551000D02*
X67864000Y-73551000D01*
X82115000Y-73591000D02*
X76440000Y-73591000D01*
X73560000Y-73591000D02*
X67885000Y-73591000D01*
X82094000Y-73631000D02*
X76440000Y-73631000D01*
X73560000Y-73631000D02*
X67906000Y-73631000D01*
X82072000Y-73671000D02*
X76440000Y-73671000D01*
X73560000Y-73671000D02*
X67928000Y-73671000D01*
X82049000Y-73711000D02*
X76440000Y-73711000D01*
X73560000Y-73711000D02*
X67951000Y-73711000D01*
X82027000Y-73751000D02*
X76440000Y-73751000D01*
X73560000Y-73751000D02*
X67973000Y-73751000D01*
X82004000Y-73791000D02*
X76440000Y-73791000D01*
X73560000Y-73791000D02*
X67996000Y-73791000D01*
X81981000Y-73831000D02*
X76440000Y-73831000D01*
X73560000Y-73831000D02*
X68019000Y-73831000D01*
X81958000Y-73871000D02*
X76440000Y-73871000D01*
X73560000Y-73871000D02*
X68042000Y-73871000D01*
X81934000Y-73911000D02*
X76440000Y-73911000D01*
X73560000Y-73911000D02*
X68066000Y-73911000D01*
X81910000Y-73951000D02*
X76440000Y-73951000D01*
X73560000Y-73951000D02*
X68090000Y-73951000D01*
X81886000Y-73991000D02*
X76440000Y-73991000D01*
X73560000Y-73991000D02*
X68114000Y-73991000D01*
X81861000Y-74031000D02*
X76440000Y-74031000D01*
X73560000Y-74031000D02*
X68139000Y-74031000D01*
X81836000Y-74071000D02*
X76440000Y-74071000D01*
X73560000Y-74071000D02*
X68164000Y-74071000D01*
X81811000Y-74111000D02*
X76440000Y-74111000D01*
X73560000Y-74111000D02*
X68189000Y-74111000D01*
X81785000Y-74151000D02*
X76440000Y-74151000D01*
X73560000Y-74151000D02*
X68215000Y-74151000D01*
X81759000Y-74191000D02*
X76440000Y-74191000D01*
X73560000Y-74191000D02*
X68241000Y-74191000D01*
X81733000Y-74231000D02*
X76440000Y-74231000D01*
X73560000Y-74231000D02*
X68267000Y-74231000D01*
X81706000Y-74271000D02*
X76440000Y-74271000D01*
X73560000Y-74271000D02*
X68294000Y-74271000D01*
X81679000Y-74311000D02*
X76440000Y-74311000D01*
X73560000Y-74311000D02*
X68321000Y-74311000D01*
X81652000Y-74351000D02*
X76440000Y-74351000D01*
X73560000Y-74351000D02*
X68348000Y-74351000D01*
X81624000Y-74391000D02*
X76440000Y-74391000D01*
X73560000Y-74391000D02*
X68376000Y-74391000D01*
X81596000Y-74431000D02*
X76440000Y-74431000D01*
X73560000Y-74431000D02*
X68404000Y-74431000D01*
X81568000Y-74471000D02*
X76440000Y-74471000D01*
X73560000Y-74471000D02*
X68432000Y-74471000D01*
X81539000Y-74511000D02*
X76440000Y-74511000D01*
X73560000Y-74511000D02*
X68461000Y-74511000D01*
X81510000Y-74551000D02*
X76440000Y-74551000D01*
X73560000Y-74551000D02*
X68490000Y-74551000D01*
X81480000Y-74591000D02*
X76440000Y-74591000D01*
X73560000Y-74591000D02*
X68520000Y-74591000D01*
X81450000Y-74631000D02*
X76440000Y-74631000D01*
X73560000Y-74631000D02*
X68550000Y-74631000D01*
X81420000Y-74671000D02*
X76440000Y-74671000D01*
X73560000Y-74671000D02*
X68580000Y-74671000D01*
X81390000Y-74711000D02*
X76440000Y-74711000D01*
X73560000Y-74711000D02*
X68610000Y-74711000D01*
X81358000Y-74751000D02*
X76440000Y-74751000D01*
X73560000Y-74751000D02*
X68642000Y-74751000D01*
X81327000Y-74791000D02*
X76440000Y-74791000D01*
X73560000Y-74791000D02*
X68673000Y-74791000D01*
X81295000Y-74831000D02*
X76440000Y-74831000D01*
X73560000Y-74831000D02*
X68705000Y-74831000D01*
X81263000Y-74871000D02*
X76440000Y-74871000D01*
X73560000Y-74871000D02*
X68737000Y-74871000D01*
X81230000Y-74911000D02*
X76440000Y-74911000D01*
X73560000Y-74911000D02*
X68770000Y-74911000D01*
X81197000Y-74951000D02*
X68803000Y-74951000D01*
X81163000Y-74991000D02*
X68837000Y-74991000D01*
X81129000Y-75031000D02*
X68871000Y-75031000D01*
X81095000Y-75071000D02*
X68905000Y-75071000D01*
X81060000Y-75111000D02*
X68940000Y-75111000D01*
X81025000Y-75151000D02*
X68975000Y-75151000D01*
X80989000Y-75191000D02*
X69011000Y-75191000D01*
X80952000Y-75231000D02*
X69048000Y-75231000D01*
X80916000Y-75271000D02*
X69084000Y-75271000D01*
X80878000Y-75311000D02*
X69122000Y-75311000D01*
X80840000Y-75351000D02*
X69160000Y-75351000D01*
X80802000Y-75391000D02*
X69198000Y-75391000D01*
X80763000Y-75431000D02*
X69237000Y-75431000D01*
X80724000Y-75471000D02*
X69276000Y-75471000D01*
X80684000Y-75511000D02*
X69316000Y-75511000D01*
X80643000Y-75551000D02*
X69357000Y-75551000D01*
X80602000Y-75591000D02*
X69398000Y-75591000D01*
X80560000Y-75631000D02*
X69440000Y-75631000D01*
X80518000Y-75671000D02*
X69482000Y-75671000D01*
X80475000Y-75711000D02*
X69525000Y-75711000D01*
X80432000Y-75751000D02*
X69568000Y-75751000D01*
X80388000Y-75791000D02*
X69612000Y-75791000D01*
X80343000Y-75831000D02*
X69657000Y-75831000D01*
X80297000Y-75871000D02*
X69703000Y-75871000D01*
X80251000Y-75911000D02*
X69749000Y-75911000D01*
X80204000Y-75951000D02*
X69796000Y-75951000D01*
X80156000Y-75991000D02*
X69844000Y-75991000D01*
X80108000Y-76031000D02*
X69892000Y-76031000D01*
X80059000Y-76071000D02*
X69941000Y-76071000D01*
X80009000Y-76111000D02*
X69991000Y-76111000D01*
X79958000Y-76151000D02*
X70042000Y-76151000D01*
X79906000Y-76191000D02*
X70094000Y-76191000D01*
X79854000Y-76231000D02*
X70146000Y-76231000D01*
X79800000Y-76271000D02*
X70200000Y-76271000D01*
X79746000Y-76311000D02*
X70254000Y-76311000D01*
X79691000Y-76351000D02*
X70309000Y-76351000D01*
X79634000Y-76391000D02*
X70366000Y-76391000D01*
X79577000Y-76431000D02*
X70423000Y-76431000D01*
X79519000Y-76471000D02*
X70481000Y-76471000D01*
X79459000Y-76511000D02*
X70541000Y-76511000D01*
X79398000Y-76551000D02*
X70602000Y-76551000D01*
X79336000Y-76591000D02*
X70664000Y-76591000D01*
X79273000Y-76631000D02*
X70727000Y-76631000D01*
X79209000Y-76671000D02*
X70791000Y-76671000D01*
X79143000Y-76711000D02*
X70857000Y-76711000D01*
X79076000Y-76751000D02*
X70924000Y-76751000D01*
X79007000Y-76791000D02*
X70993000Y-76791000D01*
X78936000Y-76831000D02*
X71064000Y-76831000D01*
X78864000Y-76871000D02*
X71136000Y-76871000D01*
X78790000Y-76911000D02*
X71210000Y-76911000D01*
X78715000Y-76951000D02*
X71285000Y-76951000D01*
X78637000Y-76991000D02*
X71363000Y-76991000D01*
X78557000Y-77031000D02*
X71443000Y-77031000D01*
X78475000Y-77071000D02*
X71525000Y-77071000D01*
X78390000Y-77111000D02*
X71610000Y-77111000D01*
X78303000Y-77151000D02*
X71697000Y-77151000D01*
X78213000Y-77191000D02*
X71787000Y-77191000D01*
X78120000Y-77231000D02*
X71880000Y-77231000D01*
X78024000Y-77271000D02*
X71976000Y-77271000D01*
X77924000Y-77311000D02*
X72076000Y-77311000D01*
X77820000Y-77351000D02*
X72180000Y-77351000D01*
X77711000Y-77391000D02*
X72289000Y-77391000D01*
X77597000Y-77431000D02*
X72403000Y-77431000D01*
X77478000Y-77471000D02*
X72522000Y-77471000D01*
X77351000Y-77511000D02*
X72649000Y-77511000D01*
X77218000Y-77551000D02*
X72782000Y-77551000D01*
X77074000Y-77591000D02*
X72926000Y-77591000D01*
X76920000Y-77631000D02*
X73080000Y-77631000D01*
X76752000Y-77671000D02*
X73248000Y-77671000D01*
X76564000Y-77711000D02*
X73436000Y-77711000D01*
X76351000Y-77751000D02*
X73649000Y-77751000D01*
X76098000Y-77791000D02*
X73902000Y-77791000D01*
X75765000Y-77831000D02*
X74235000Y-77831000D01*
X79555000Y-61060509D02*
X79555000Y-62660509D01*
X80355000Y-61860509D02*
X78755000Y-61860509D01*
D12*
X117499360Y-114002040D02*
X117499360Y-122998720D01*
X117499360Y-122998720D02*
X107501920Y-122998720D01*
X107501920Y-122998720D02*
X107501920Y-114002040D01*
X107501920Y-114002040D02*
X109500900Y-114002040D01*
X109500900Y-114002040D02*
X110501660Y-114002040D01*
X110501660Y-114002040D02*
X114502160Y-114002040D01*
X114502160Y-114002040D02*
X115497840Y-114002040D01*
X115497840Y-114002040D02*
X117499360Y-114002040D01*
X115497840Y-114002040D02*
X115497840Y-115500640D01*
X115497840Y-115500640D02*
X114502160Y-115500640D01*
X114502160Y-115500640D02*
X114502160Y-114002040D01*
X110501660Y-114002040D02*
X110501660Y-115500640D01*
X110501660Y-115500640D02*
X109500900Y-115500640D01*
X109500900Y-115500640D02*
X109500900Y-114002040D01*
X115299720Y-115602240D02*
X115299720Y-116300740D01*
X115099060Y-115602240D02*
X115099060Y-116300740D01*
X114900940Y-115602240D02*
X114900940Y-116300740D01*
X114700280Y-115602240D02*
X114700280Y-116300740D01*
X115299720Y-116300740D02*
X114700280Y-116300740D01*
X110301000Y-115602240D02*
X110301000Y-116300740D01*
X110301000Y-116300740D02*
X110100340Y-116300740D01*
X110100340Y-116300740D02*
X110100340Y-115602240D01*
X110100340Y-116300740D02*
X109902220Y-116300740D01*
X109902220Y-116300740D02*
X109902220Y-115602240D01*
X109902220Y-116300740D02*
X109701560Y-116300740D01*
X109701560Y-116300740D02*
X109701560Y-115602240D01*
X127499360Y-114002040D02*
X127499360Y-122998720D01*
X127499360Y-122998720D02*
X117501920Y-122998720D01*
X117501920Y-122998720D02*
X117501920Y-114002040D01*
X117501920Y-114002040D02*
X119500900Y-114002040D01*
X119500900Y-114002040D02*
X120501660Y-114002040D01*
X120501660Y-114002040D02*
X124502160Y-114002040D01*
X124502160Y-114002040D02*
X125497840Y-114002040D01*
X125497840Y-114002040D02*
X127499360Y-114002040D01*
X125497840Y-114002040D02*
X125497840Y-115500640D01*
X125497840Y-115500640D02*
X124502160Y-115500640D01*
X124502160Y-115500640D02*
X124502160Y-114002040D01*
X120501660Y-114002040D02*
X120501660Y-115500640D01*
X120501660Y-115500640D02*
X119500900Y-115500640D01*
X119500900Y-115500640D02*
X119500900Y-114002040D01*
X125299720Y-115602240D02*
X125299720Y-116300740D01*
X125099060Y-115602240D02*
X125099060Y-116300740D01*
X124900940Y-115602240D02*
X124900940Y-116300740D01*
X124700280Y-115602240D02*
X124700280Y-116300740D01*
X125299720Y-116300740D02*
X124700280Y-116300740D01*
X120301000Y-115602240D02*
X120301000Y-116300740D01*
X120301000Y-116300740D02*
X120100340Y-116300740D01*
X120100340Y-116300740D02*
X120100340Y-115602240D01*
X120100340Y-116300740D02*
X119902220Y-116300740D01*
X119902220Y-116300740D02*
X119902220Y-115602240D01*
X119902220Y-116300740D02*
X119701560Y-116300740D01*
X119701560Y-116300740D02*
X119701560Y-115602240D01*
X107499360Y-114002040D02*
X107499360Y-122998720D01*
X107499360Y-122998720D02*
X92500660Y-122998720D01*
X92500660Y-122998720D02*
X92500660Y-114002040D01*
X92500660Y-114002040D02*
X94502180Y-114002040D01*
X99500900Y-114002040D02*
X100501660Y-114002040D01*
X100501660Y-114002040D02*
X104502160Y-114002040D01*
X104502160Y-114002040D02*
X105497840Y-114002040D01*
X105497840Y-114002040D02*
X107499360Y-114002040D01*
X105497840Y-114002040D02*
X105497840Y-115500640D01*
X105497840Y-115500640D02*
X104502160Y-115500640D01*
X104502160Y-115500640D02*
X104502160Y-114002040D01*
X100501660Y-114002040D02*
X100501660Y-115500640D01*
X100501660Y-115500640D02*
X99500900Y-115500640D01*
X99500900Y-115500640D02*
X99500900Y-114002040D01*
X105299720Y-115602240D02*
X105299720Y-116300740D01*
X105099060Y-115602240D02*
X105099060Y-116300740D01*
X104900940Y-115602240D02*
X104900940Y-116300740D01*
X104700280Y-115602240D02*
X104700280Y-116300740D01*
X105299720Y-116300740D02*
X104700280Y-116300740D01*
X100301000Y-115602240D02*
X100301000Y-116300740D01*
X100301000Y-116300740D02*
X100100340Y-116300740D01*
X100100340Y-116300740D02*
X100100340Y-115602240D01*
X100100340Y-116300740D02*
X99902220Y-116300740D01*
X99902220Y-116300740D02*
X99902220Y-115602240D01*
X99902220Y-116300740D02*
X99701560Y-116300740D01*
X99701560Y-116300740D02*
X99701560Y-115602240D01*
X94502180Y-114002040D02*
X95500400Y-114002040D01*
X95500400Y-114002040D02*
X99500900Y-114002040D01*
X95500400Y-114002040D02*
X95500400Y-115500640D01*
X95500400Y-115500640D02*
X94502180Y-115500640D01*
X94502180Y-115500640D02*
X94502180Y-114002040D01*
X95302280Y-115602240D02*
X95302280Y-116300740D01*
X95302280Y-116300740D02*
X95101620Y-116300740D01*
X95101620Y-116300740D02*
X95101620Y-115602240D01*
X95101620Y-116300740D02*
X94900960Y-116300740D01*
X94900960Y-116300740D02*
X94900960Y-115602240D01*
X94900960Y-116300740D02*
X94700300Y-116300740D01*
X94700300Y-116300740D02*
X94700300Y-115602240D01*
D11*
X130500000Y-55600000D02*
X130500000Y-113600000D01*
X159500000Y-55600000D02*
X130500000Y-55600000D01*
X159500000Y-113600000D02*
X159500000Y-55600000D01*
X130500000Y-113600000D02*
X159500000Y-113600000D01*
X127500000Y-45500000D02*
X84000000Y-45500000D01*
X127500000Y-65500000D02*
X127500000Y-45500000D01*
X84000000Y-65500000D02*
X127500000Y-65500000D01*
X84000000Y-45500000D02*
X84000000Y-65500000D01*
D12*
X92499360Y-114002040D02*
X92499360Y-122998720D01*
X92499360Y-122998720D02*
X82501920Y-122998720D01*
X82501920Y-122998720D02*
X82501920Y-114002040D01*
X82501920Y-114002040D02*
X84500900Y-114002040D01*
X84500900Y-114002040D02*
X85501660Y-114002040D01*
X85501660Y-114002040D02*
X89502160Y-114002040D01*
X89502160Y-114002040D02*
X90497840Y-114002040D01*
X90497840Y-114002040D02*
X92499360Y-114002040D01*
X90497840Y-114002040D02*
X90497840Y-115500640D01*
X90497840Y-115500640D02*
X89502160Y-115500640D01*
X89502160Y-115500640D02*
X89502160Y-114002040D01*
X85501660Y-114002040D02*
X85501660Y-115500640D01*
X85501660Y-115500640D02*
X84500900Y-115500640D01*
X84500900Y-115500640D02*
X84500900Y-114002040D01*
X90299720Y-115602240D02*
X90299720Y-116300740D01*
X90099060Y-115602240D02*
X90099060Y-116300740D01*
X89900940Y-115602240D02*
X89900940Y-116300740D01*
X89700280Y-115602240D02*
X89700280Y-116300740D01*
X90299720Y-116300740D02*
X89700280Y-116300740D01*
X85301000Y-115602240D02*
X85301000Y-116300740D01*
X85301000Y-116300740D02*
X85100340Y-116300740D01*
X85100340Y-116300740D02*
X85100340Y-115602240D01*
X85100340Y-116300740D02*
X84902220Y-116300740D01*
X84902220Y-116300740D02*
X84902220Y-115602240D01*
X84902220Y-116300740D02*
X84701560Y-116300740D01*
X84701560Y-116300740D02*
X84701560Y-115602240D01*
D11*
X153330000Y-61670000D02*
X150670000Y-61670000D01*
X153330000Y-104910000D02*
X153330000Y-61670000D01*
X150670000Y-104910000D02*
X150670000Y-61670000D01*
X153330000Y-104910000D02*
X150670000Y-104910000D01*
X153330000Y-106180000D02*
X153330000Y-107510000D01*
X153330000Y-107510000D02*
X152000000Y-107510000D01*
X137670000Y-107510000D02*
X140330000Y-107510000D01*
X137670000Y-64270000D02*
X137670000Y-107510000D01*
X140330000Y-64270000D02*
X140330000Y-107510000D01*
X137670000Y-64270000D02*
X140330000Y-64270000D01*
X137670000Y-63000000D02*
X137670000Y-61670000D01*
X137670000Y-61670000D02*
X139000000Y-61670000D01*
X71400000Y-87120000D02*
X72600000Y-87120000D01*
X72600000Y-88880000D02*
X71400000Y-88880000D01*
X75450000Y-96930000D02*
X75450000Y-95430000D01*
X75450000Y-95430000D02*
X75180000Y-95430000D01*
X75180000Y-95430000D02*
X75180000Y-92600000D01*
X68550000Y-96930000D02*
X68550000Y-95430000D01*
X68550000Y-95430000D02*
X68820000Y-95430000D01*
X68820000Y-95430000D02*
X68820000Y-94330000D01*
D13*
X76285714Y-55166666D02*
X76761904Y-55166666D01*
X76190476Y-55452380D02*
X76523809Y-54452380D01*
X76857142Y-55452380D01*
X77761904Y-55357142D02*
X77714285Y-55404761D01*
X77571428Y-55452380D01*
X77476190Y-55452380D01*
X77333333Y-55404761D01*
X77238095Y-55309523D01*
X77190476Y-55214285D01*
X77142857Y-55023809D01*
X77142857Y-54880952D01*
X77190476Y-54690476D01*
X77238095Y-54595238D01*
X77333333Y-54500000D01*
X77476190Y-54452380D01*
X77571428Y-54452380D01*
X77714285Y-54500000D01*
X77761904Y-54547619D01*
X78761904Y-55357142D02*
X78714285Y-55404761D01*
X78571428Y-55452380D01*
X78476190Y-55452380D01*
X78333333Y-55404761D01*
X78238095Y-55309523D01*
X78190476Y-55214285D01*
X78142857Y-55023809D01*
X78142857Y-54880952D01*
X78190476Y-54690476D01*
X78238095Y-54595238D01*
X78333333Y-54500000D01*
X78476190Y-54452380D01*
X78571428Y-54452380D01*
X78714285Y-54500000D01*
X78761904Y-54547619D01*
X79714285Y-55452380D02*
X79142857Y-55452380D01*
X79428571Y-55452380D02*
X79428571Y-54452380D01*
X79333333Y-54595238D01*
X79238095Y-54690476D01*
X79142857Y-54738095D01*
X84607142Y-69916666D02*
X84654761Y-69964285D01*
X84702380Y-70107142D01*
X84702380Y-70202380D01*
X84654761Y-70345238D01*
X84559523Y-70440476D01*
X84464285Y-70488095D01*
X84273809Y-70535714D01*
X84130952Y-70535714D01*
X83940476Y-70488095D01*
X83845238Y-70440476D01*
X83750000Y-70345238D01*
X83702380Y-70202380D01*
X83702380Y-70107142D01*
X83750000Y-69964285D01*
X83797619Y-69916666D01*
X84702380Y-68964285D02*
X84702380Y-69535714D01*
X84702380Y-69250000D02*
X83702380Y-69250000D01*
X83845238Y-69345238D01*
X83940476Y-69440476D01*
X83988095Y-69535714D01*
D14*
X113397380Y-123019523D02*
X114123095Y-123019523D01*
X113760238Y-124289523D02*
X113760238Y-123019523D01*
X115090714Y-123442857D02*
X115090714Y-124289523D01*
X114788333Y-122959047D02*
X114485952Y-123866190D01*
X115272142Y-123866190D01*
X109557142Y-120600476D02*
X109617619Y-120540000D01*
X109738571Y-120479523D01*
X110040952Y-120479523D01*
X110161904Y-120540000D01*
X110222380Y-120600476D01*
X110282857Y-120721428D01*
X110282857Y-120842380D01*
X110222380Y-121023809D01*
X109496666Y-121749523D01*
X110282857Y-121749523D01*
X115362857Y-121749523D02*
X114637142Y-121749523D01*
X115000000Y-121749523D02*
X115000000Y-120479523D01*
X114879047Y-120660952D01*
X114758095Y-120781904D01*
X114637142Y-120842380D01*
D15*
X111283254Y-114853302D02*
X111370340Y-114882331D01*
X111515482Y-114882331D01*
X111573540Y-114853302D01*
X111602568Y-114824274D01*
X111631597Y-114766217D01*
X111631597Y-114708160D01*
X111602568Y-114650102D01*
X111573540Y-114621074D01*
X111515482Y-114592045D01*
X111399368Y-114563017D01*
X111341311Y-114533988D01*
X111312282Y-114504960D01*
X111283254Y-114446902D01*
X111283254Y-114388845D01*
X111312282Y-114330788D01*
X111341311Y-114301760D01*
X111399368Y-114272731D01*
X111544511Y-114272731D01*
X111631597Y-114301760D01*
X111892854Y-114882331D02*
X111892854Y-114272731D01*
X112183140Y-114882331D02*
X112183140Y-114272731D01*
X112328282Y-114272731D01*
X112415368Y-114301760D01*
X112473425Y-114359817D01*
X112502454Y-114417874D01*
X112531482Y-114533988D01*
X112531482Y-114621074D01*
X112502454Y-114737188D01*
X112473425Y-114795245D01*
X112415368Y-114853302D01*
X112328282Y-114882331D01*
X112183140Y-114882331D01*
X112792740Y-114563017D02*
X112995940Y-114563017D01*
X113083025Y-114882331D02*
X112792740Y-114882331D01*
X112792740Y-114272731D01*
X113083025Y-114272731D01*
X111377234Y-115723434D02*
X111348205Y-115752462D01*
X111261120Y-115781491D01*
X111203062Y-115781491D01*
X111115977Y-115752462D01*
X111057920Y-115694405D01*
X111028891Y-115636348D01*
X110999862Y-115520234D01*
X110999862Y-115433148D01*
X111028891Y-115317034D01*
X111057920Y-115258977D01*
X111115977Y-115200920D01*
X111203062Y-115171891D01*
X111261120Y-115171891D01*
X111348205Y-115200920D01*
X111377234Y-115229948D01*
X111609462Y-115607320D02*
X111899748Y-115607320D01*
X111551405Y-115781491D02*
X111754605Y-115171891D01*
X111957805Y-115781491D01*
X112364205Y-115462177D02*
X112451291Y-115491205D01*
X112480320Y-115520234D01*
X112509348Y-115578291D01*
X112509348Y-115665377D01*
X112480320Y-115723434D01*
X112451291Y-115752462D01*
X112393234Y-115781491D01*
X112161005Y-115781491D01*
X112161005Y-115171891D01*
X112364205Y-115171891D01*
X112422262Y-115200920D01*
X112451291Y-115229948D01*
X112480320Y-115288005D01*
X112480320Y-115346062D01*
X112451291Y-115404120D01*
X112422262Y-115433148D01*
X112364205Y-115462177D01*
X112161005Y-115462177D01*
X113060891Y-115781491D02*
X112770605Y-115781491D01*
X112770605Y-115171891D01*
X113264091Y-115462177D02*
X113467291Y-115462177D01*
X113554377Y-115781491D02*
X113264091Y-115781491D01*
X113264091Y-115171891D01*
X113554377Y-115171891D01*
D14*
X123397380Y-123019523D02*
X124123095Y-123019523D01*
X123760238Y-124289523D02*
X123760238Y-123019523D01*
X124425476Y-123019523D02*
X125211666Y-123019523D01*
X124788333Y-123503333D01*
X124969761Y-123503333D01*
X125090714Y-123563809D01*
X125151190Y-123624285D01*
X125211666Y-123745238D01*
X125211666Y-124047619D01*
X125151190Y-124168571D01*
X125090714Y-124229047D01*
X124969761Y-124289523D01*
X124606904Y-124289523D01*
X124485952Y-124229047D01*
X124425476Y-124168571D01*
X119557142Y-120600476D02*
X119617619Y-120540000D01*
X119738571Y-120479523D01*
X120040952Y-120479523D01*
X120161904Y-120540000D01*
X120222380Y-120600476D01*
X120282857Y-120721428D01*
X120282857Y-120842380D01*
X120222380Y-121023809D01*
X119496666Y-121749523D01*
X120282857Y-121749523D01*
X125362857Y-121749523D02*
X124637142Y-121749523D01*
X125000000Y-121749523D02*
X125000000Y-120479523D01*
X124879047Y-120660952D01*
X124758095Y-120781904D01*
X124637142Y-120842380D01*
D15*
X121283254Y-114853302D02*
X121370340Y-114882331D01*
X121515482Y-114882331D01*
X121573540Y-114853302D01*
X121602568Y-114824274D01*
X121631597Y-114766217D01*
X121631597Y-114708160D01*
X121602568Y-114650102D01*
X121573540Y-114621074D01*
X121515482Y-114592045D01*
X121399368Y-114563017D01*
X121341311Y-114533988D01*
X121312282Y-114504960D01*
X121283254Y-114446902D01*
X121283254Y-114388845D01*
X121312282Y-114330788D01*
X121341311Y-114301760D01*
X121399368Y-114272731D01*
X121544511Y-114272731D01*
X121631597Y-114301760D01*
X121892854Y-114882331D02*
X121892854Y-114272731D01*
X122183140Y-114882331D02*
X122183140Y-114272731D01*
X122328282Y-114272731D01*
X122415368Y-114301760D01*
X122473425Y-114359817D01*
X122502454Y-114417874D01*
X122531482Y-114533988D01*
X122531482Y-114621074D01*
X122502454Y-114737188D01*
X122473425Y-114795245D01*
X122415368Y-114853302D01*
X122328282Y-114882331D01*
X122183140Y-114882331D01*
X122792740Y-114563017D02*
X122995940Y-114563017D01*
X123083025Y-114882331D02*
X122792740Y-114882331D01*
X122792740Y-114272731D01*
X123083025Y-114272731D01*
X121377234Y-115723434D02*
X121348205Y-115752462D01*
X121261120Y-115781491D01*
X121203062Y-115781491D01*
X121115977Y-115752462D01*
X121057920Y-115694405D01*
X121028891Y-115636348D01*
X120999862Y-115520234D01*
X120999862Y-115433148D01*
X121028891Y-115317034D01*
X121057920Y-115258977D01*
X121115977Y-115200920D01*
X121203062Y-115171891D01*
X121261120Y-115171891D01*
X121348205Y-115200920D01*
X121377234Y-115229948D01*
X121609462Y-115607320D02*
X121899748Y-115607320D01*
X121551405Y-115781491D02*
X121754605Y-115171891D01*
X121957805Y-115781491D01*
X122364205Y-115462177D02*
X122451291Y-115491205D01*
X122480320Y-115520234D01*
X122509348Y-115578291D01*
X122509348Y-115665377D01*
X122480320Y-115723434D01*
X122451291Y-115752462D01*
X122393234Y-115781491D01*
X122161005Y-115781491D01*
X122161005Y-115171891D01*
X122364205Y-115171891D01*
X122422262Y-115200920D01*
X122451291Y-115229948D01*
X122480320Y-115288005D01*
X122480320Y-115346062D01*
X122451291Y-115404120D01*
X122422262Y-115433148D01*
X122364205Y-115462177D01*
X122161005Y-115462177D01*
X123060891Y-115781491D02*
X122770605Y-115781491D01*
X122770605Y-115171891D01*
X123264091Y-115462177D02*
X123467291Y-115462177D01*
X123554377Y-115781491D02*
X123264091Y-115781491D01*
X123264091Y-115171891D01*
X123554377Y-115171891D01*
D14*
X103397380Y-123019523D02*
X104123095Y-123019523D01*
X103760238Y-124289523D02*
X103760238Y-123019523D01*
X105211666Y-124289523D02*
X104485952Y-124289523D01*
X104848809Y-124289523D02*
X104848809Y-123019523D01*
X104727857Y-123200952D01*
X104606904Y-123321904D01*
X104485952Y-123382380D01*
X94497946Y-120479523D02*
X95284137Y-120479523D01*
X94860803Y-120963333D01*
X95042232Y-120963333D01*
X95163184Y-121023809D01*
X95223660Y-121084285D01*
X95284137Y-121205238D01*
X95284137Y-121507619D01*
X95223660Y-121628571D01*
X95163184Y-121689047D01*
X95042232Y-121749523D01*
X94679375Y-121749523D01*
X94558422Y-121689047D01*
X94497946Y-121628571D01*
X99557142Y-120600476D02*
X99617619Y-120540000D01*
X99738571Y-120479523D01*
X100040952Y-120479523D01*
X100161904Y-120540000D01*
X100222380Y-120600476D01*
X100282857Y-120721428D01*
X100282857Y-120842380D01*
X100222380Y-121023809D01*
X99496666Y-121749523D01*
X100282857Y-121749523D01*
X105362857Y-121749523D02*
X104637142Y-121749523D01*
X105000000Y-121749523D02*
X105000000Y-120479523D01*
X104879047Y-120660952D01*
X104758095Y-120781904D01*
X104637142Y-120842380D01*
D15*
X96281994Y-114853302D02*
X96369080Y-114882331D01*
X96514222Y-114882331D01*
X96572280Y-114853302D01*
X96601308Y-114824274D01*
X96630337Y-114766217D01*
X96630337Y-114708160D01*
X96601308Y-114650102D01*
X96572280Y-114621074D01*
X96514222Y-114592045D01*
X96398108Y-114563017D01*
X96340051Y-114533988D01*
X96311022Y-114504960D01*
X96281994Y-114446902D01*
X96281994Y-114388845D01*
X96311022Y-114330788D01*
X96340051Y-114301760D01*
X96398108Y-114272731D01*
X96543251Y-114272731D01*
X96630337Y-114301760D01*
X96891594Y-114882331D02*
X96891594Y-114272731D01*
X97181880Y-114882331D02*
X97181880Y-114272731D01*
X97327022Y-114272731D01*
X97414108Y-114301760D01*
X97472165Y-114359817D01*
X97501194Y-114417874D01*
X97530222Y-114533988D01*
X97530222Y-114621074D01*
X97501194Y-114737188D01*
X97472165Y-114795245D01*
X97414108Y-114853302D01*
X97327022Y-114882331D01*
X97181880Y-114882331D01*
X97791480Y-114563017D02*
X97994680Y-114563017D01*
X98081765Y-114882331D02*
X97791480Y-114882331D01*
X97791480Y-114272731D01*
X98081765Y-114272731D01*
X101377234Y-114722674D02*
X101348205Y-114751702D01*
X101261120Y-114780731D01*
X101203062Y-114780731D01*
X101115977Y-114751702D01*
X101057920Y-114693645D01*
X101028891Y-114635588D01*
X100999862Y-114519474D01*
X100999862Y-114432388D01*
X101028891Y-114316274D01*
X101057920Y-114258217D01*
X101115977Y-114200160D01*
X101203062Y-114171131D01*
X101261120Y-114171131D01*
X101348205Y-114200160D01*
X101377234Y-114229188D01*
X101609462Y-114606560D02*
X101899748Y-114606560D01*
X101551405Y-114780731D02*
X101754605Y-114171131D01*
X101957805Y-114780731D01*
X102364205Y-114461417D02*
X102451291Y-114490445D01*
X102480320Y-114519474D01*
X102509348Y-114577531D01*
X102509348Y-114664617D01*
X102480320Y-114722674D01*
X102451291Y-114751702D01*
X102393234Y-114780731D01*
X102161005Y-114780731D01*
X102161005Y-114171131D01*
X102364205Y-114171131D01*
X102422262Y-114200160D01*
X102451291Y-114229188D01*
X102480320Y-114287245D01*
X102480320Y-114345302D01*
X102451291Y-114403360D01*
X102422262Y-114432388D01*
X102364205Y-114461417D01*
X102161005Y-114461417D01*
X103060891Y-114780731D02*
X102770605Y-114780731D01*
X102770605Y-114171131D01*
X103264091Y-114461417D02*
X103467291Y-114461417D01*
X103554377Y-114780731D02*
X103264091Y-114780731D01*
X103264091Y-114171131D01*
X103554377Y-114171131D01*
D13*
X135238095Y-53452380D02*
X135238095Y-54261904D01*
X135285714Y-54357142D01*
X135333333Y-54404761D01*
X135428571Y-54452380D01*
X135619047Y-54452380D01*
X135714285Y-54404761D01*
X135761904Y-54357142D01*
X135809523Y-54261904D01*
X135809523Y-53452380D01*
X136238095Y-53547619D02*
X136285714Y-53500000D01*
X136380952Y-53452380D01*
X136619047Y-53452380D01*
X136714285Y-53500000D01*
X136761904Y-53547619D01*
X136809523Y-53642857D01*
X136809523Y-53738095D01*
X136761904Y-53880952D01*
X136190476Y-54452380D01*
X136809523Y-54452380D01*
X105238095Y-56452380D02*
X105238095Y-57261904D01*
X105285714Y-57357142D01*
X105333333Y-57404761D01*
X105428571Y-57452380D01*
X105619047Y-57452380D01*
X105714285Y-57404761D01*
X105761904Y-57357142D01*
X105809523Y-57261904D01*
X105809523Y-56452380D01*
X106809523Y-57452380D02*
X106238095Y-57452380D01*
X106523809Y-57452380D02*
X106523809Y-56452380D01*
X106428571Y-56595238D01*
X106333333Y-56690476D01*
X106238095Y-56738095D01*
X87857142Y-62452380D02*
X87857142Y-61452380D01*
X88333333Y-62452380D02*
X88333333Y-61452380D01*
X88904761Y-62452380D01*
X88904761Y-61452380D01*
X89380952Y-62071428D02*
X90142857Y-62071428D01*
X120880952Y-61452380D02*
X121071428Y-61452380D01*
X121166666Y-61500000D01*
X121261904Y-61595238D01*
X121309523Y-61785714D01*
X121309523Y-62119047D01*
X121261904Y-62309523D01*
X121166666Y-62404761D01*
X121071428Y-62452380D01*
X120880952Y-62452380D01*
X120785714Y-62404761D01*
X120690476Y-62309523D01*
X120642857Y-62119047D01*
X120642857Y-61785714D01*
X120690476Y-61595238D01*
X120785714Y-61500000D01*
X120880952Y-61452380D01*
X121738095Y-61452380D02*
X121738095Y-62261904D01*
X121785714Y-62357142D01*
X121833333Y-62404761D01*
X121928571Y-62452380D01*
X122119047Y-62452380D01*
X122214285Y-62404761D01*
X122261904Y-62357142D01*
X122309523Y-62261904D01*
X122309523Y-61452380D01*
X122642857Y-61452380D02*
X123214285Y-61452380D01*
X122928571Y-62452380D02*
X122928571Y-61452380D01*
X123547619Y-62071428D02*
X124309523Y-62071428D01*
X120380952Y-47952380D02*
X120571428Y-47952380D01*
X120666666Y-48000000D01*
X120761904Y-48095238D01*
X120809523Y-48285714D01*
X120809523Y-48619047D01*
X120761904Y-48809523D01*
X120666666Y-48904761D01*
X120571428Y-48952380D01*
X120380952Y-48952380D01*
X120285714Y-48904761D01*
X120190476Y-48809523D01*
X120142857Y-48619047D01*
X120142857Y-48285714D01*
X120190476Y-48095238D01*
X120285714Y-48000000D01*
X120380952Y-47952380D01*
X121238095Y-47952380D02*
X121238095Y-48761904D01*
X121285714Y-48857142D01*
X121333333Y-48904761D01*
X121428571Y-48952380D01*
X121619047Y-48952380D01*
X121714285Y-48904761D01*
X121761904Y-48857142D01*
X121809523Y-48761904D01*
X121809523Y-47952380D01*
X122142857Y-47952380D02*
X122714285Y-47952380D01*
X122428571Y-48952380D02*
X122428571Y-47952380D01*
X123047619Y-48571428D02*
X123809523Y-48571428D01*
X123428571Y-48952380D02*
X123428571Y-48190476D01*
X87357142Y-49452380D02*
X87357142Y-48452380D01*
X87833333Y-49452380D02*
X87833333Y-48452380D01*
X88404761Y-49452380D01*
X88404761Y-48452380D01*
X88880952Y-49071428D02*
X89642857Y-49071428D01*
X89261904Y-49452380D02*
X89261904Y-48690476D01*
D14*
X88397380Y-123019523D02*
X89123095Y-123019523D01*
X88760238Y-124289523D02*
X88760238Y-123019523D01*
X89485952Y-123140476D02*
X89546428Y-123080000D01*
X89667380Y-123019523D01*
X89969761Y-123019523D01*
X90090714Y-123080000D01*
X90151190Y-123140476D01*
X90211666Y-123261428D01*
X90211666Y-123382380D01*
X90151190Y-123563809D01*
X89425476Y-124289523D01*
X90211666Y-124289523D01*
X84557142Y-120600476D02*
X84617619Y-120540000D01*
X84738571Y-120479523D01*
X85040952Y-120479523D01*
X85161904Y-120540000D01*
X85222380Y-120600476D01*
X85282857Y-120721428D01*
X85282857Y-120842380D01*
X85222380Y-121023809D01*
X84496666Y-121749523D01*
X85282857Y-121749523D01*
X90362857Y-121749523D02*
X89637142Y-121749523D01*
X90000000Y-121749523D02*
X90000000Y-120479523D01*
X89879047Y-120660952D01*
X89758095Y-120781904D01*
X89637142Y-120842380D01*
D15*
X86283254Y-114853302D02*
X86370340Y-114882331D01*
X86515482Y-114882331D01*
X86573540Y-114853302D01*
X86602568Y-114824274D01*
X86631597Y-114766217D01*
X86631597Y-114708160D01*
X86602568Y-114650102D01*
X86573540Y-114621074D01*
X86515482Y-114592045D01*
X86399368Y-114563017D01*
X86341311Y-114533988D01*
X86312282Y-114504960D01*
X86283254Y-114446902D01*
X86283254Y-114388845D01*
X86312282Y-114330788D01*
X86341311Y-114301760D01*
X86399368Y-114272731D01*
X86544511Y-114272731D01*
X86631597Y-114301760D01*
X86892854Y-114882331D02*
X86892854Y-114272731D01*
X87183140Y-114882331D02*
X87183140Y-114272731D01*
X87328282Y-114272731D01*
X87415368Y-114301760D01*
X87473425Y-114359817D01*
X87502454Y-114417874D01*
X87531482Y-114533988D01*
X87531482Y-114621074D01*
X87502454Y-114737188D01*
X87473425Y-114795245D01*
X87415368Y-114853302D01*
X87328282Y-114882331D01*
X87183140Y-114882331D01*
X87792740Y-114563017D02*
X87995940Y-114563017D01*
X88083025Y-114882331D02*
X87792740Y-114882331D01*
X87792740Y-114272731D01*
X88083025Y-114272731D01*
X86377234Y-115723434D02*
X86348205Y-115752462D01*
X86261120Y-115781491D01*
X86203062Y-115781491D01*
X86115977Y-115752462D01*
X86057920Y-115694405D01*
X86028891Y-115636348D01*
X85999862Y-115520234D01*
X85999862Y-115433148D01*
X86028891Y-115317034D01*
X86057920Y-115258977D01*
X86115977Y-115200920D01*
X86203062Y-115171891D01*
X86261120Y-115171891D01*
X86348205Y-115200920D01*
X86377234Y-115229948D01*
X86609462Y-115607320D02*
X86899748Y-115607320D01*
X86551405Y-115781491D02*
X86754605Y-115171891D01*
X86957805Y-115781491D01*
X87364205Y-115462177D02*
X87451291Y-115491205D01*
X87480320Y-115520234D01*
X87509348Y-115578291D01*
X87509348Y-115665377D01*
X87480320Y-115723434D01*
X87451291Y-115752462D01*
X87393234Y-115781491D01*
X87161005Y-115781491D01*
X87161005Y-115171891D01*
X87364205Y-115171891D01*
X87422262Y-115200920D01*
X87451291Y-115229948D01*
X87480320Y-115288005D01*
X87480320Y-115346062D01*
X87451291Y-115404120D01*
X87422262Y-115433148D01*
X87364205Y-115462177D01*
X87161005Y-115462177D01*
X88060891Y-115781491D02*
X87770605Y-115781491D01*
X87770605Y-115171891D01*
X88264091Y-115462177D02*
X88467291Y-115462177D01*
X88554377Y-115781491D02*
X88264091Y-115781491D01*
X88264091Y-115171891D01*
X88554377Y-115171891D01*
D13*
X151666666Y-107962380D02*
X151666666Y-108676666D01*
X151619047Y-108819523D01*
X151523809Y-108914761D01*
X151380952Y-108962380D01*
X151285714Y-108962380D01*
X152095238Y-108057619D02*
X152142857Y-108010000D01*
X152238095Y-107962380D01*
X152476190Y-107962380D01*
X152571428Y-108010000D01*
X152619047Y-108057619D01*
X152666666Y-108152857D01*
X152666666Y-108248095D01*
X152619047Y-108390952D01*
X152047619Y-108962380D01*
X152666666Y-108962380D01*
X138666666Y-60122380D02*
X138666666Y-60836666D01*
X138619047Y-60979523D01*
X138523809Y-61074761D01*
X138380952Y-61122380D01*
X138285714Y-61122380D01*
X139666666Y-61122380D02*
X139095238Y-61122380D01*
X139380952Y-61122380D02*
X139380952Y-60122380D01*
X139285714Y-60265238D01*
X139190476Y-60360476D01*
X139095238Y-60408095D01*
X71833333Y-90152380D02*
X71500000Y-89676190D01*
X71261904Y-90152380D02*
X71261904Y-89152380D01*
X71642857Y-89152380D01*
X71738095Y-89200000D01*
X71785714Y-89247619D01*
X71833333Y-89342857D01*
X71833333Y-89485714D01*
X71785714Y-89580952D01*
X71738095Y-89628571D01*
X71642857Y-89676190D01*
X71261904Y-89676190D01*
X72214285Y-89247619D02*
X72261904Y-89200000D01*
X72357142Y-89152380D01*
X72595238Y-89152380D01*
X72690476Y-89200000D01*
X72738095Y-89247619D01*
X72785714Y-89342857D01*
X72785714Y-89438095D01*
X72738095Y-89580952D01*
X72166666Y-90152380D01*
X72785714Y-90152380D01*
X77047619Y-97995238D02*
X77000000Y-98090476D01*
X76904761Y-98185714D01*
X76761904Y-98328571D01*
X76714285Y-98423809D01*
X76714285Y-98519047D01*
X76952380Y-98471428D02*
X76904761Y-98566666D01*
X76809523Y-98661904D01*
X76619047Y-98709523D01*
X76285714Y-98709523D01*
X76095238Y-98661904D01*
X76000000Y-98566666D01*
X75952380Y-98471428D01*
X75952380Y-98280952D01*
X76000000Y-98185714D01*
X76095238Y-98090476D01*
X76285714Y-98042857D01*
X76619047Y-98042857D01*
X76809523Y-98090476D01*
X76904761Y-98185714D01*
X76952380Y-98280952D01*
X76952380Y-98471428D01*
X76952380Y-97090476D02*
X76952380Y-97661904D01*
X76952380Y-97376190D02*
X75952380Y-97376190D01*
X76095238Y-97471428D01*
X76190476Y-97566666D01*
X76238095Y-97661904D01*
M02*
