G04 #@! TF.GenerationSoftware,KiCad,Pcbnew,5.1.10*
G04 #@! TF.CreationDate,2021-11-10T17:43:12+10:00*
G04 #@! TF.ProjectId,wifi_unit,77696669-5f75-46e6-9974-2e6b69636164,rev?*
G04 #@! TF.SameCoordinates,Original*
G04 #@! TF.FileFunction,Copper,L2,Bot*
G04 #@! TF.FilePolarity,Positive*
%FSLAX46Y46*%
G04 Gerber Fmt 4.6, Leading zero omitted, Abs format (unit mm)*
G04 Created by KiCad (PCBNEW 5.1.10) date 2021-11-10 17:43:12*
%MOMM*%
%LPD*%
G01*
G04 APERTURE LIST*
G04 #@! TA.AperFunction,ComponentPad*
%ADD10C,3.200000*%
G04 #@! TD*
G04 #@! TA.AperFunction,ComponentPad*
%ADD11C,2.400000*%
G04 #@! TD*
G04 #@! TA.AperFunction,ComponentPad*
%ADD12R,2.400000X2.400000*%
G04 #@! TD*
G04 #@! TA.AperFunction,ComponentPad*
%ADD13C,2.540000*%
G04 #@! TD*
G04 #@! TA.AperFunction,WasherPad*
%ADD14C,6.000000*%
G04 #@! TD*
G04 #@! TA.AperFunction,ComponentPad*
%ADD15O,2.400000X1.600000*%
G04 #@! TD*
G04 #@! TA.AperFunction,ComponentPad*
%ADD16R,2.400000X1.600000*%
G04 #@! TD*
G04 #@! TA.AperFunction,ComponentPad*
%ADD17O,1.700000X1.700000*%
G04 #@! TD*
G04 #@! TA.AperFunction,ComponentPad*
%ADD18R,1.700000X1.700000*%
G04 #@! TD*
G04 #@! TA.AperFunction,Conductor*
%ADD19C,5.000000*%
G04 #@! TD*
G04 #@! TA.AperFunction,Conductor*
%ADD20C,0.600000*%
G04 #@! TD*
G04 #@! TA.AperFunction,Conductor*
%ADD21C,0.254000*%
G04 #@! TD*
G04 #@! TA.AperFunction,Conductor*
%ADD22C,0.100000*%
G04 #@! TD*
G04 APERTURE END LIST*
D10*
X156000000Y-118000000D03*
X79000000Y-118000000D03*
X79000000Y-50000000D03*
X156000000Y-50000000D03*
D11*
X75000000Y-73500000D03*
D12*
X75000000Y-66000000D03*
D13*
X110001280Y-118000000D03*
X115000000Y-118000000D03*
X120001280Y-118000000D03*
X125000000Y-118000000D03*
X95000020Y-118000000D03*
X100001280Y-118000000D03*
X105000000Y-118000000D03*
D14*
X133000000Y-111102590D03*
X157000000Y-111102590D03*
X157000000Y-58102590D03*
X133000000Y-58102590D03*
D15*
X157700000Y-103640000D03*
X157700000Y-101100000D03*
X132300000Y-65540000D03*
X157700000Y-98560000D03*
X132300000Y-68080000D03*
X132300000Y-98560000D03*
X157700000Y-65540000D03*
X132300000Y-101100000D03*
D16*
X157700000Y-63000000D03*
D15*
X132300000Y-103640000D03*
X132300000Y-106180000D03*
X157700000Y-106180000D03*
X132300000Y-85860000D03*
X157700000Y-78240000D03*
X132300000Y-88400000D03*
X157700000Y-75700000D03*
X132300000Y-90940000D03*
X157700000Y-73160000D03*
X132300000Y-93480000D03*
X157700000Y-70620000D03*
X132300000Y-96020000D03*
X157700000Y-68080000D03*
D16*
X132300000Y-63000000D03*
D15*
X157700000Y-90940000D03*
X132300000Y-75700000D03*
X157700000Y-88400000D03*
X132300000Y-78240000D03*
X157700000Y-85860000D03*
X132300000Y-80780000D03*
X157700000Y-83320000D03*
X132300000Y-83320000D03*
X157700000Y-80780000D03*
X157700000Y-96020000D03*
X132300000Y-70620000D03*
X157700000Y-93480000D03*
X132300000Y-73160000D03*
D11*
X125500000Y-47000000D03*
X125500000Y-64000000D03*
X86000000Y-64000000D03*
X86000000Y-47000000D03*
D13*
X85001280Y-118000000D03*
X90000000Y-118000000D03*
D17*
X152000000Y-63000000D03*
X152000000Y-65540000D03*
X152000000Y-68080000D03*
X152000000Y-70620000D03*
X152000000Y-73160000D03*
X152000000Y-75700000D03*
X152000000Y-78240000D03*
X152000000Y-80780000D03*
X152000000Y-83320000D03*
X152000000Y-85860000D03*
X152000000Y-88400000D03*
X152000000Y-90940000D03*
X152000000Y-93480000D03*
X152000000Y-96020000D03*
X152000000Y-98560000D03*
X152000000Y-101100000D03*
X152000000Y-103640000D03*
D18*
X152000000Y-106180000D03*
D17*
X139000000Y-106180000D03*
X139000000Y-103640000D03*
X139000000Y-101100000D03*
X139000000Y-98560000D03*
X139000000Y-96020000D03*
X139000000Y-93480000D03*
X139000000Y-90940000D03*
X139000000Y-88400000D03*
X139000000Y-85860000D03*
X139000000Y-83320000D03*
X139000000Y-80780000D03*
X139000000Y-78240000D03*
X139000000Y-75700000D03*
X139000000Y-73160000D03*
X139000000Y-70620000D03*
X139000000Y-68080000D03*
X139000000Y-65540000D03*
D18*
X139000000Y-63000000D03*
D19*
X86000000Y-55000000D02*
X75000000Y-66000000D01*
X86000000Y-47000000D02*
X86000000Y-55000000D01*
X75000000Y-66000000D02*
X76000000Y-66000000D01*
X90000000Y-80000000D02*
X90000000Y-118000000D01*
X76000000Y-66000000D02*
X90000000Y-80000000D01*
X90000000Y-118000000D02*
X95000020Y-118000000D01*
D20*
X120001280Y-118000000D02*
X120001280Y-108998720D01*
X125360000Y-103640000D02*
X132300000Y-103640000D01*
X120001280Y-108998720D02*
X125360000Y-103640000D01*
X132300000Y-103640000D02*
X139000000Y-103640000D01*
X132300000Y-73160000D02*
X139000000Y-73160000D01*
X132300000Y-80780000D02*
X139000000Y-80780000D01*
X105000000Y-118000000D02*
X105000000Y-94000000D01*
X118220000Y-80780000D02*
X132300000Y-80780000D01*
X105000000Y-94000000D02*
X118220000Y-80780000D01*
X132300000Y-85860000D02*
X139000000Y-85860000D01*
X115000000Y-118000000D02*
X115000000Y-96000000D01*
X125140000Y-85860000D02*
X132300000Y-85860000D01*
X115000000Y-96000000D02*
X125140000Y-85860000D01*
X132300000Y-83320000D02*
X139000000Y-83320000D01*
X110001280Y-118000000D02*
X110001280Y-95998720D01*
X122680000Y-83320000D02*
X132300000Y-83320000D01*
X110001280Y-95998720D02*
X122680000Y-83320000D01*
X132300000Y-106180000D02*
X139000000Y-106180000D01*
X139000000Y-106180000D02*
X140820000Y-106180000D01*
X140820000Y-106180000D02*
X143000000Y-104000000D01*
X143000000Y-104000000D02*
X143000000Y-55000000D01*
X135000000Y-47000000D02*
X125500000Y-47000000D01*
X143000000Y-55000000D02*
X135000000Y-47000000D01*
X132300000Y-101100000D02*
X139000000Y-101100000D01*
X132300000Y-96020000D02*
X139000000Y-96020000D01*
X132300000Y-93480000D02*
X139000000Y-93480000D01*
X132300000Y-90940000D02*
X139000000Y-90940000D01*
X132300000Y-88400000D02*
X139000000Y-88400000D01*
X132300000Y-78240000D02*
X139000000Y-78240000D01*
X132300000Y-75700000D02*
X139000000Y-75700000D01*
X132300000Y-70620000D02*
X139000000Y-70620000D01*
X132300000Y-68080000D02*
X139000000Y-68080000D01*
X132300000Y-65540000D02*
X139000000Y-65540000D01*
X132300000Y-63000000D02*
X139000000Y-63000000D01*
X152000000Y-63000000D02*
X157700000Y-63000000D01*
X152000000Y-65540000D02*
X156760001Y-65540000D01*
X156760001Y-65540000D02*
X157700000Y-65540000D01*
X152000000Y-68080000D02*
X157700000Y-68080000D01*
X152000000Y-70620000D02*
X157700000Y-70620000D01*
X152000000Y-73160000D02*
X157700000Y-73160000D01*
X152000000Y-75700000D02*
X157700000Y-75700000D01*
X152000000Y-78240000D02*
X157700000Y-78240000D01*
X152000000Y-80780000D02*
X157700000Y-80780000D01*
X152000000Y-83320000D02*
X157700000Y-83320000D01*
X152000000Y-85860000D02*
X157700000Y-85860000D01*
X152000000Y-88400000D02*
X157700000Y-88400000D01*
X152000000Y-90940000D02*
X157700000Y-90940000D01*
X152000000Y-93480000D02*
X157700000Y-93480000D01*
X152000000Y-96020000D02*
X157700000Y-96020000D01*
X152000000Y-98560000D02*
X157700000Y-98560000D01*
X152000000Y-101100000D02*
X157700000Y-101100000D01*
X152000000Y-103640000D02*
X157700000Y-103640000D01*
X152000000Y-106180000D02*
X157700000Y-106180000D01*
D21*
X83772495Y-44772495D02*
X83380731Y-45249861D01*
X83089624Y-45794484D01*
X82910362Y-46385434D01*
X82865000Y-46845999D01*
X82865001Y-53701439D01*
X72892125Y-63674317D01*
X72772495Y-63772495D01*
X72380731Y-64249860D01*
X72089624Y-64794483D01*
X71910362Y-65385433D01*
X71849832Y-66000000D01*
X71910362Y-66614567D01*
X72089624Y-67205517D01*
X72380731Y-67750140D01*
X72772495Y-68227505D01*
X73249860Y-68619269D01*
X73794483Y-68910376D01*
X74385433Y-69089638D01*
X74685649Y-69119207D01*
X86865000Y-81298559D01*
X86865001Y-117604853D01*
X86833071Y-117444332D01*
X86689469Y-117097644D01*
X86480990Y-116785634D01*
X86215646Y-116520290D01*
X85903636Y-116311811D01*
X85556948Y-116168209D01*
X85188906Y-116095000D01*
X84813654Y-116095000D01*
X84445612Y-116168209D01*
X84098924Y-116311811D01*
X83786914Y-116520290D01*
X83521570Y-116785634D01*
X83313091Y-117097644D01*
X83169489Y-117444332D01*
X83096280Y-117812374D01*
X83096280Y-118187626D01*
X83169489Y-118555668D01*
X83313091Y-118902356D01*
X83521570Y-119214366D01*
X83786914Y-119479710D01*
X84098924Y-119688189D01*
X84445612Y-119831791D01*
X84813654Y-119905000D01*
X85188906Y-119905000D01*
X85556948Y-119831791D01*
X85903636Y-119688189D01*
X86215646Y-119479710D01*
X86480990Y-119214366D01*
X86689469Y-118902356D01*
X86833071Y-118555668D01*
X86880886Y-118315291D01*
X86910362Y-118614567D01*
X87089624Y-119205517D01*
X87380731Y-119750140D01*
X87772495Y-120227505D01*
X88249860Y-120619269D01*
X88794483Y-120910376D01*
X89385433Y-121089638D01*
X89845998Y-121135000D01*
X90000000Y-121150168D01*
X90154002Y-121135000D01*
X95154022Y-121135000D01*
X95614587Y-121089638D01*
X96205537Y-120910376D01*
X96750160Y-120619269D01*
X97227525Y-120227505D01*
X97619289Y-119750140D01*
X97845006Y-119327852D01*
X98853033Y-119327852D01*
X98981356Y-119619871D01*
X99316975Y-119787723D01*
X99678891Y-119886874D01*
X100053196Y-119913514D01*
X100425507Y-119866618D01*
X100781515Y-119747988D01*
X101021204Y-119619871D01*
X101149527Y-119327852D01*
X100001280Y-118179605D01*
X98853033Y-119327852D01*
X97845006Y-119327852D01*
X97910396Y-119205517D01*
X98089658Y-118614567D01*
X98119927Y-118307244D01*
X98134662Y-118424227D01*
X98253292Y-118780235D01*
X98381409Y-119019924D01*
X98673428Y-119148247D01*
X99821675Y-118000000D01*
X100180885Y-118000000D01*
X101329132Y-119148247D01*
X101621151Y-119019924D01*
X101789003Y-118684305D01*
X101888154Y-118322389D01*
X101914794Y-117948084D01*
X101867898Y-117575773D01*
X101749268Y-117219765D01*
X101621151Y-116980076D01*
X101329132Y-116851753D01*
X100180885Y-118000000D01*
X99821675Y-118000000D01*
X98673428Y-116851753D01*
X98381409Y-116980076D01*
X98213557Y-117315695D01*
X98117370Y-117666793D01*
X98089658Y-117385433D01*
X97910396Y-116794483D01*
X97845007Y-116672148D01*
X98853033Y-116672148D01*
X100001280Y-117820395D01*
X101149527Y-116672148D01*
X101021204Y-116380129D01*
X100685585Y-116212277D01*
X100323669Y-116113126D01*
X99949364Y-116086486D01*
X99577053Y-116133382D01*
X99221045Y-116252012D01*
X98981356Y-116380129D01*
X98853033Y-116672148D01*
X97845007Y-116672148D01*
X97619289Y-116249860D01*
X97227525Y-115772495D01*
X96750160Y-115380731D01*
X96205537Y-115089624D01*
X95614587Y-114910362D01*
X95154022Y-114865000D01*
X93135000Y-114865000D01*
X93135000Y-80153995D01*
X93150167Y-80000000D01*
X93135000Y-79846005D01*
X93135000Y-79845998D01*
X93089638Y-79385433D01*
X92910376Y-78794483D01*
X92619269Y-78249860D01*
X92227505Y-77772495D01*
X92107882Y-77674323D01*
X91509817Y-77076258D01*
X94291173Y-77076258D01*
X94291173Y-78423742D01*
X94460058Y-79760602D01*
X94795164Y-81065752D01*
X95291206Y-82318612D01*
X95940361Y-83499422D01*
X96732393Y-84589559D01*
X97654810Y-85571833D01*
X98693064Y-86430752D01*
X99830783Y-87152771D01*
X101050024Y-87726502D01*
X102331558Y-88142897D01*
X103655174Y-88395391D01*
X105000000Y-88480000D01*
X106344826Y-88395391D01*
X107668442Y-88142897D01*
X108949976Y-87726502D01*
X110169217Y-87152771D01*
X111142785Y-86534925D01*
X104371336Y-93306375D01*
X104335657Y-93335656D01*
X104218815Y-93478028D01*
X104217761Y-93480000D01*
X104131994Y-93640460D01*
X104078529Y-93816709D01*
X104060476Y-94000000D01*
X104065001Y-94045942D01*
X104065000Y-116333623D01*
X103785634Y-116520290D01*
X103520290Y-116785634D01*
X103311811Y-117097644D01*
X103168209Y-117444332D01*
X103095000Y-117812374D01*
X103095000Y-118187626D01*
X103168209Y-118555668D01*
X103311811Y-118902356D01*
X103520290Y-119214366D01*
X103785634Y-119479710D01*
X104097644Y-119688189D01*
X104444332Y-119831791D01*
X104812374Y-119905000D01*
X105187626Y-119905000D01*
X105555668Y-119831791D01*
X105902356Y-119688189D01*
X106214366Y-119479710D01*
X106479710Y-119214366D01*
X106688189Y-118902356D01*
X106831791Y-118555668D01*
X106905000Y-118187626D01*
X106905000Y-117812374D01*
X106831791Y-117444332D01*
X106688189Y-117097644D01*
X106479710Y-116785634D01*
X106214366Y-116520290D01*
X105935000Y-116333623D01*
X105935000Y-94387289D01*
X118607290Y-81715000D01*
X130810956Y-81715000D01*
X130880392Y-81799608D01*
X131098899Y-81978932D01*
X131231858Y-82050000D01*
X131098899Y-82121068D01*
X130880392Y-82300392D01*
X130810956Y-82385000D01*
X122725935Y-82385000D01*
X122680000Y-82380476D01*
X122496708Y-82398528D01*
X122392828Y-82430041D01*
X122320460Y-82451993D01*
X122158028Y-82538814D01*
X122015656Y-82655656D01*
X121986370Y-82691341D01*
X109372616Y-95305095D01*
X109336937Y-95334376D01*
X109220095Y-95476748D01*
X109208721Y-95498028D01*
X109133274Y-95639180D01*
X109079809Y-95815429D01*
X109061756Y-95998720D01*
X109066281Y-96044662D01*
X109066280Y-116333623D01*
X108786914Y-116520290D01*
X108521570Y-116785634D01*
X108313091Y-117097644D01*
X108169489Y-117444332D01*
X108096280Y-117812374D01*
X108096280Y-118187626D01*
X108169489Y-118555668D01*
X108313091Y-118902356D01*
X108521570Y-119214366D01*
X108786914Y-119479710D01*
X109098924Y-119688189D01*
X109445612Y-119831791D01*
X109813654Y-119905000D01*
X110188906Y-119905000D01*
X110556948Y-119831791D01*
X110903636Y-119688189D01*
X111215646Y-119479710D01*
X111480990Y-119214366D01*
X111689469Y-118902356D01*
X111833071Y-118555668D01*
X111906280Y-118187626D01*
X111906280Y-117812374D01*
X111833071Y-117444332D01*
X111689469Y-117097644D01*
X111480990Y-116785634D01*
X111215646Y-116520290D01*
X110936280Y-116333623D01*
X110936280Y-96386009D01*
X123067289Y-84255000D01*
X130810956Y-84255000D01*
X130880392Y-84339608D01*
X131098899Y-84518932D01*
X131231858Y-84590000D01*
X131098899Y-84661068D01*
X130880392Y-84840392D01*
X130810956Y-84925000D01*
X125185935Y-84925000D01*
X125140000Y-84920476D01*
X124956708Y-84938528D01*
X124780459Y-84991993D01*
X124723880Y-85022235D01*
X124618028Y-85078814D01*
X124475656Y-85195656D01*
X124446375Y-85231335D01*
X114371336Y-95306375D01*
X114335657Y-95335656D01*
X114218815Y-95478028D01*
X114208125Y-95498028D01*
X114131994Y-95640460D01*
X114078529Y-95816709D01*
X114060476Y-96000000D01*
X114065001Y-96045942D01*
X114065000Y-116333623D01*
X113785634Y-116520290D01*
X113520290Y-116785634D01*
X113311811Y-117097644D01*
X113168209Y-117444332D01*
X113095000Y-117812374D01*
X113095000Y-118187626D01*
X113168209Y-118555668D01*
X113311811Y-118902356D01*
X113520290Y-119214366D01*
X113785634Y-119479710D01*
X114097644Y-119688189D01*
X114444332Y-119831791D01*
X114812374Y-119905000D01*
X115187626Y-119905000D01*
X115555668Y-119831791D01*
X115902356Y-119688189D01*
X116214366Y-119479710D01*
X116479710Y-119214366D01*
X116688189Y-118902356D01*
X116831791Y-118555668D01*
X116905000Y-118187626D01*
X116905000Y-117812374D01*
X118096280Y-117812374D01*
X118096280Y-118187626D01*
X118169489Y-118555668D01*
X118313091Y-118902356D01*
X118521570Y-119214366D01*
X118786914Y-119479710D01*
X119098924Y-119688189D01*
X119445612Y-119831791D01*
X119813654Y-119905000D01*
X120188906Y-119905000D01*
X120556948Y-119831791D01*
X120903636Y-119688189D01*
X121215646Y-119479710D01*
X121367504Y-119327852D01*
X123851753Y-119327852D01*
X123980076Y-119619871D01*
X124315695Y-119787723D01*
X124677611Y-119886874D01*
X125051916Y-119913514D01*
X125424227Y-119866618D01*
X125780235Y-119747988D01*
X126019924Y-119619871D01*
X126148247Y-119327852D01*
X125000000Y-118179605D01*
X123851753Y-119327852D01*
X121367504Y-119327852D01*
X121480990Y-119214366D01*
X121689469Y-118902356D01*
X121833071Y-118555668D01*
X121906280Y-118187626D01*
X121906280Y-118051916D01*
X123086486Y-118051916D01*
X123133382Y-118424227D01*
X123252012Y-118780235D01*
X123380129Y-119019924D01*
X123672148Y-119148247D01*
X124820395Y-118000000D01*
X125179605Y-118000000D01*
X126327852Y-119148247D01*
X126619871Y-119019924D01*
X126787723Y-118684305D01*
X126886874Y-118322389D01*
X126913514Y-117948084D01*
X126892327Y-117779872D01*
X153765000Y-117779872D01*
X153765000Y-118220128D01*
X153850890Y-118651925D01*
X154019369Y-119058669D01*
X154263962Y-119424729D01*
X154575271Y-119736038D01*
X154941331Y-119980631D01*
X155348075Y-120149110D01*
X155779872Y-120235000D01*
X156220128Y-120235000D01*
X156651925Y-120149110D01*
X157058669Y-119980631D01*
X157424729Y-119736038D01*
X157736038Y-119424729D01*
X157980631Y-119058669D01*
X158149110Y-118651925D01*
X158235000Y-118220128D01*
X158235000Y-117779872D01*
X158149110Y-117348075D01*
X157980631Y-116941331D01*
X157736038Y-116575271D01*
X157424729Y-116263962D01*
X157058669Y-116019369D01*
X156651925Y-115850890D01*
X156220128Y-115765000D01*
X155779872Y-115765000D01*
X155348075Y-115850890D01*
X154941331Y-116019369D01*
X154575271Y-116263962D01*
X154263962Y-116575271D01*
X154019369Y-116941331D01*
X153850890Y-117348075D01*
X153765000Y-117779872D01*
X126892327Y-117779872D01*
X126866618Y-117575773D01*
X126747988Y-117219765D01*
X126619871Y-116980076D01*
X126327852Y-116851753D01*
X125179605Y-118000000D01*
X124820395Y-118000000D01*
X123672148Y-116851753D01*
X123380129Y-116980076D01*
X123212277Y-117315695D01*
X123113126Y-117677611D01*
X123086486Y-118051916D01*
X121906280Y-118051916D01*
X121906280Y-117812374D01*
X121833071Y-117444332D01*
X121689469Y-117097644D01*
X121480990Y-116785634D01*
X121367504Y-116672148D01*
X123851753Y-116672148D01*
X125000000Y-117820395D01*
X126148247Y-116672148D01*
X126019924Y-116380129D01*
X125684305Y-116212277D01*
X125322389Y-116113126D01*
X124948084Y-116086486D01*
X124575773Y-116133382D01*
X124219765Y-116252012D01*
X123980076Y-116380129D01*
X123851753Y-116672148D01*
X121367504Y-116672148D01*
X121215646Y-116520290D01*
X120936280Y-116333623D01*
X120936280Y-109386009D01*
X125747290Y-104575000D01*
X130810956Y-104575000D01*
X130880392Y-104659608D01*
X131098899Y-104838932D01*
X131231858Y-104910000D01*
X131098899Y-104981068D01*
X130880392Y-105160392D01*
X130701068Y-105378899D01*
X130567818Y-105628192D01*
X130485764Y-105898691D01*
X130458057Y-106180000D01*
X130485764Y-106461309D01*
X130567818Y-106731808D01*
X130701068Y-106981101D01*
X130880392Y-107199608D01*
X131098899Y-107378932D01*
X131348192Y-107512182D01*
X131618691Y-107594236D01*
X131829508Y-107615000D01*
X131921075Y-107615000D01*
X131278182Y-107881295D01*
X130682823Y-108279101D01*
X130176511Y-108785413D01*
X129778705Y-109380772D01*
X129504691Y-110042300D01*
X129365000Y-110744574D01*
X129365000Y-111460606D01*
X129504691Y-112162880D01*
X129778705Y-112824408D01*
X130176511Y-113419767D01*
X130682823Y-113926079D01*
X131278182Y-114323885D01*
X131939710Y-114597899D01*
X132641984Y-114737590D01*
X133358016Y-114737590D01*
X134060290Y-114597899D01*
X134721818Y-114323885D01*
X135317177Y-113926079D01*
X135823489Y-113419767D01*
X136221295Y-112824408D01*
X136495309Y-112162880D01*
X136635000Y-111460606D01*
X136635000Y-110744574D01*
X136495309Y-110042300D01*
X136221295Y-109380772D01*
X135823489Y-108785413D01*
X135317177Y-108279101D01*
X134721818Y-107881295D01*
X134060290Y-107607281D01*
X133358016Y-107467590D01*
X133335234Y-107467590D01*
X133501101Y-107378932D01*
X133719608Y-107199608D01*
X133789044Y-107115000D01*
X137838753Y-107115000D01*
X137846525Y-107126632D01*
X138053368Y-107333475D01*
X138296589Y-107495990D01*
X138566842Y-107607932D01*
X138853740Y-107665000D01*
X139146260Y-107665000D01*
X139433158Y-107607932D01*
X139703411Y-107495990D01*
X139946632Y-107333475D01*
X140153475Y-107126632D01*
X140161247Y-107115000D01*
X140774068Y-107115000D01*
X140820000Y-107119524D01*
X140865932Y-107115000D01*
X141003292Y-107101471D01*
X141179540Y-107048007D01*
X141341972Y-106961186D01*
X141484344Y-106844344D01*
X141513630Y-106808659D01*
X143628660Y-104693629D01*
X143664344Y-104664344D01*
X143781186Y-104521972D01*
X143859528Y-104375404D01*
X143868007Y-104359541D01*
X143921472Y-104183292D01*
X143939524Y-104000000D01*
X143935000Y-103954065D01*
X143935000Y-55045924D01*
X143939523Y-54999999D01*
X143935000Y-54954074D01*
X143935000Y-54954068D01*
X143921471Y-54816708D01*
X143868007Y-54640460D01*
X143781186Y-54478028D01*
X143664344Y-54335656D01*
X143628665Y-54306375D01*
X139102162Y-49779872D01*
X153765000Y-49779872D01*
X153765000Y-50220128D01*
X153850890Y-50651925D01*
X154019369Y-51058669D01*
X154263962Y-51424729D01*
X154575271Y-51736038D01*
X154941331Y-51980631D01*
X155348075Y-52149110D01*
X155779872Y-52235000D01*
X156220128Y-52235000D01*
X156651925Y-52149110D01*
X157058669Y-51980631D01*
X157424729Y-51736038D01*
X157736038Y-51424729D01*
X157980631Y-51058669D01*
X158149110Y-50651925D01*
X158235000Y-50220128D01*
X158235000Y-49779872D01*
X158149110Y-49348075D01*
X157980631Y-48941331D01*
X157736038Y-48575271D01*
X157424729Y-48263962D01*
X157058669Y-48019369D01*
X156651925Y-47850890D01*
X156220128Y-47765000D01*
X155779872Y-47765000D01*
X155348075Y-47850890D01*
X154941331Y-48019369D01*
X154575271Y-48263962D01*
X154263962Y-48575271D01*
X154019369Y-48941331D01*
X153850890Y-49348075D01*
X153765000Y-49779872D01*
X139102162Y-49779872D01*
X135693630Y-46371341D01*
X135664344Y-46335656D01*
X135521972Y-46218814D01*
X135359540Y-46131993D01*
X135183292Y-46078529D01*
X135045932Y-46065000D01*
X135000000Y-46060476D01*
X134954068Y-46065000D01*
X127082189Y-46065000D01*
X126925338Y-45830256D01*
X126669744Y-45574662D01*
X126369199Y-45373844D01*
X126035250Y-45235518D01*
X125680732Y-45165000D01*
X125319268Y-45165000D01*
X124964750Y-45235518D01*
X124630801Y-45373844D01*
X124330256Y-45574662D01*
X124074662Y-45830256D01*
X123873844Y-46130801D01*
X123735518Y-46464750D01*
X123665000Y-46819268D01*
X123665000Y-47180732D01*
X123735518Y-47535250D01*
X123873844Y-47869199D01*
X124074662Y-48169744D01*
X124330256Y-48425338D01*
X124630801Y-48626156D01*
X124964750Y-48764482D01*
X125319268Y-48835000D01*
X125680732Y-48835000D01*
X126035250Y-48764482D01*
X126369199Y-48626156D01*
X126669744Y-48425338D01*
X126925338Y-48169744D01*
X127082189Y-47935000D01*
X134612711Y-47935000D01*
X142065001Y-55387291D01*
X142065000Y-103612711D01*
X140432711Y-105245000D01*
X140161247Y-105245000D01*
X140153475Y-105233368D01*
X139946632Y-105026525D01*
X139772240Y-104910000D01*
X139946632Y-104793475D01*
X140153475Y-104586632D01*
X140315990Y-104343411D01*
X140427932Y-104073158D01*
X140485000Y-103786260D01*
X140485000Y-103493740D01*
X140427932Y-103206842D01*
X140315990Y-102936589D01*
X140153475Y-102693368D01*
X139946632Y-102486525D01*
X139772240Y-102370000D01*
X139946632Y-102253475D01*
X140153475Y-102046632D01*
X140315990Y-101803411D01*
X140427932Y-101533158D01*
X140485000Y-101246260D01*
X140485000Y-100953740D01*
X140427932Y-100666842D01*
X140315990Y-100396589D01*
X140153475Y-100153368D01*
X139946632Y-99946525D01*
X139764466Y-99824805D01*
X139881355Y-99755178D01*
X140097588Y-99560269D01*
X140271641Y-99326920D01*
X140396825Y-99064099D01*
X140441476Y-98916890D01*
X140320155Y-98687000D01*
X139127000Y-98687000D01*
X139127000Y-98707000D01*
X138873000Y-98707000D01*
X138873000Y-98687000D01*
X137679845Y-98687000D01*
X137558524Y-98916890D01*
X137603175Y-99064099D01*
X137728359Y-99326920D01*
X137902412Y-99560269D01*
X138118645Y-99755178D01*
X138235534Y-99824805D01*
X138053368Y-99946525D01*
X137846525Y-100153368D01*
X137838753Y-100165000D01*
X133789044Y-100165000D01*
X133719608Y-100080392D01*
X133501101Y-99901068D01*
X133373259Y-99832735D01*
X133602839Y-99682601D01*
X133804500Y-99484895D01*
X133963715Y-99251646D01*
X134074367Y-98991818D01*
X134091904Y-98909039D01*
X133969915Y-98687000D01*
X132427000Y-98687000D01*
X132427000Y-98707000D01*
X132173000Y-98707000D01*
X132173000Y-98687000D01*
X130630085Y-98687000D01*
X130508096Y-98909039D01*
X130525633Y-98991818D01*
X130636285Y-99251646D01*
X130795500Y-99484895D01*
X130997161Y-99682601D01*
X131226741Y-99832735D01*
X131098899Y-99901068D01*
X130880392Y-100080392D01*
X130701068Y-100298899D01*
X130567818Y-100548192D01*
X130485764Y-100818691D01*
X130458057Y-101100000D01*
X130485764Y-101381309D01*
X130567818Y-101651808D01*
X130701068Y-101901101D01*
X130880392Y-102119608D01*
X131098899Y-102298932D01*
X131231858Y-102370000D01*
X131098899Y-102441068D01*
X130880392Y-102620392D01*
X130810956Y-102705000D01*
X125405935Y-102705000D01*
X125360000Y-102700476D01*
X125176708Y-102718528D01*
X125000459Y-102771993D01*
X124943880Y-102802235D01*
X124838028Y-102858814D01*
X124695656Y-102975656D01*
X124666375Y-103011336D01*
X119372616Y-108305095D01*
X119336937Y-108334376D01*
X119220095Y-108476748D01*
X119171583Y-108567509D01*
X119133274Y-108639180D01*
X119079809Y-108815429D01*
X119061756Y-108998720D01*
X119066281Y-109044662D01*
X119066280Y-116333623D01*
X118786914Y-116520290D01*
X118521570Y-116785634D01*
X118313091Y-117097644D01*
X118169489Y-117444332D01*
X118096280Y-117812374D01*
X116905000Y-117812374D01*
X116831791Y-117444332D01*
X116688189Y-117097644D01*
X116479710Y-116785634D01*
X116214366Y-116520290D01*
X115935000Y-116333623D01*
X115935000Y-96387289D01*
X125527290Y-86795000D01*
X130810956Y-86795000D01*
X130880392Y-86879608D01*
X131098899Y-87058932D01*
X131231858Y-87130000D01*
X131098899Y-87201068D01*
X130880392Y-87380392D01*
X130701068Y-87598899D01*
X130567818Y-87848192D01*
X130485764Y-88118691D01*
X130458057Y-88400000D01*
X130485764Y-88681309D01*
X130567818Y-88951808D01*
X130701068Y-89201101D01*
X130880392Y-89419608D01*
X131098899Y-89598932D01*
X131231858Y-89670000D01*
X131098899Y-89741068D01*
X130880392Y-89920392D01*
X130701068Y-90138899D01*
X130567818Y-90388192D01*
X130485764Y-90658691D01*
X130458057Y-90940000D01*
X130485764Y-91221309D01*
X130567818Y-91491808D01*
X130701068Y-91741101D01*
X130880392Y-91959608D01*
X131098899Y-92138932D01*
X131231858Y-92210000D01*
X131098899Y-92281068D01*
X130880392Y-92460392D01*
X130701068Y-92678899D01*
X130567818Y-92928192D01*
X130485764Y-93198691D01*
X130458057Y-93480000D01*
X130485764Y-93761309D01*
X130567818Y-94031808D01*
X130701068Y-94281101D01*
X130880392Y-94499608D01*
X131098899Y-94678932D01*
X131231858Y-94750000D01*
X131098899Y-94821068D01*
X130880392Y-95000392D01*
X130701068Y-95218899D01*
X130567818Y-95468192D01*
X130485764Y-95738691D01*
X130458057Y-96020000D01*
X130485764Y-96301309D01*
X130567818Y-96571808D01*
X130701068Y-96821101D01*
X130880392Y-97039608D01*
X131098899Y-97218932D01*
X131226741Y-97287265D01*
X130997161Y-97437399D01*
X130795500Y-97635105D01*
X130636285Y-97868354D01*
X130525633Y-98128182D01*
X130508096Y-98210961D01*
X130630085Y-98433000D01*
X132173000Y-98433000D01*
X132173000Y-98413000D01*
X132427000Y-98413000D01*
X132427000Y-98433000D01*
X133969915Y-98433000D01*
X134091904Y-98210961D01*
X134074367Y-98128182D01*
X133963715Y-97868354D01*
X133804500Y-97635105D01*
X133602839Y-97437399D01*
X133373259Y-97287265D01*
X133501101Y-97218932D01*
X133719608Y-97039608D01*
X133789044Y-96955000D01*
X137838753Y-96955000D01*
X137846525Y-96966632D01*
X138053368Y-97173475D01*
X138235534Y-97295195D01*
X138118645Y-97364822D01*
X137902412Y-97559731D01*
X137728359Y-97793080D01*
X137603175Y-98055901D01*
X137558524Y-98203110D01*
X137679845Y-98433000D01*
X138873000Y-98433000D01*
X138873000Y-98413000D01*
X139127000Y-98413000D01*
X139127000Y-98433000D01*
X140320155Y-98433000D01*
X140441476Y-98203110D01*
X140396825Y-98055901D01*
X140271641Y-97793080D01*
X140097588Y-97559731D01*
X139881355Y-97364822D01*
X139764466Y-97295195D01*
X139946632Y-97173475D01*
X140153475Y-96966632D01*
X140315990Y-96723411D01*
X140427932Y-96453158D01*
X140485000Y-96166260D01*
X140485000Y-95873740D01*
X140427932Y-95586842D01*
X140315990Y-95316589D01*
X140153475Y-95073368D01*
X139946632Y-94866525D01*
X139772240Y-94750000D01*
X139946632Y-94633475D01*
X140153475Y-94426632D01*
X140315990Y-94183411D01*
X140427932Y-93913158D01*
X140485000Y-93626260D01*
X140485000Y-93333740D01*
X140427932Y-93046842D01*
X140315990Y-92776589D01*
X140153475Y-92533368D01*
X139946632Y-92326525D01*
X139772240Y-92210000D01*
X139946632Y-92093475D01*
X140153475Y-91886632D01*
X140315990Y-91643411D01*
X140427932Y-91373158D01*
X140485000Y-91086260D01*
X140485000Y-90793740D01*
X140427932Y-90506842D01*
X140315990Y-90236589D01*
X140153475Y-89993368D01*
X139946632Y-89786525D01*
X139772240Y-89670000D01*
X139946632Y-89553475D01*
X140153475Y-89346632D01*
X140315990Y-89103411D01*
X140427932Y-88833158D01*
X140485000Y-88546260D01*
X140485000Y-88253740D01*
X140427932Y-87966842D01*
X140315990Y-87696589D01*
X140153475Y-87453368D01*
X139946632Y-87246525D01*
X139772240Y-87130000D01*
X139946632Y-87013475D01*
X140153475Y-86806632D01*
X140315990Y-86563411D01*
X140427932Y-86293158D01*
X140485000Y-86006260D01*
X140485000Y-85713740D01*
X140427932Y-85426842D01*
X140315990Y-85156589D01*
X140153475Y-84913368D01*
X139946632Y-84706525D01*
X139772240Y-84590000D01*
X139946632Y-84473475D01*
X140153475Y-84266632D01*
X140315990Y-84023411D01*
X140427932Y-83753158D01*
X140485000Y-83466260D01*
X140485000Y-83173740D01*
X140427932Y-82886842D01*
X140315990Y-82616589D01*
X140153475Y-82373368D01*
X139946632Y-82166525D01*
X139772240Y-82050000D01*
X139946632Y-81933475D01*
X140153475Y-81726632D01*
X140315990Y-81483411D01*
X140427932Y-81213158D01*
X140485000Y-80926260D01*
X140485000Y-80633740D01*
X140427932Y-80346842D01*
X140315990Y-80076589D01*
X140153475Y-79833368D01*
X139946632Y-79626525D01*
X139772240Y-79510000D01*
X139946632Y-79393475D01*
X140153475Y-79186632D01*
X140315990Y-78943411D01*
X140427932Y-78673158D01*
X140485000Y-78386260D01*
X140485000Y-78093740D01*
X140427932Y-77806842D01*
X140315990Y-77536589D01*
X140153475Y-77293368D01*
X139946632Y-77086525D01*
X139772240Y-76970000D01*
X139946632Y-76853475D01*
X140153475Y-76646632D01*
X140315990Y-76403411D01*
X140427932Y-76133158D01*
X140485000Y-75846260D01*
X140485000Y-75553740D01*
X140427932Y-75266842D01*
X140315990Y-74996589D01*
X140153475Y-74753368D01*
X139946632Y-74546525D01*
X139772240Y-74430000D01*
X139946632Y-74313475D01*
X140153475Y-74106632D01*
X140315990Y-73863411D01*
X140427932Y-73593158D01*
X140485000Y-73306260D01*
X140485000Y-73013740D01*
X140427932Y-72726842D01*
X140315990Y-72456589D01*
X140153475Y-72213368D01*
X139946632Y-72006525D01*
X139772240Y-71890000D01*
X139946632Y-71773475D01*
X140153475Y-71566632D01*
X140315990Y-71323411D01*
X140427932Y-71053158D01*
X140485000Y-70766260D01*
X140485000Y-70473740D01*
X140427932Y-70186842D01*
X140315990Y-69916589D01*
X140153475Y-69673368D01*
X139946632Y-69466525D01*
X139772240Y-69350000D01*
X139946632Y-69233475D01*
X140153475Y-69026632D01*
X140315990Y-68783411D01*
X140427932Y-68513158D01*
X140485000Y-68226260D01*
X140485000Y-67933740D01*
X140427932Y-67646842D01*
X140315990Y-67376589D01*
X140153475Y-67133368D01*
X139946632Y-66926525D01*
X139772240Y-66810000D01*
X139946632Y-66693475D01*
X140153475Y-66486632D01*
X140315990Y-66243411D01*
X140427932Y-65973158D01*
X140485000Y-65686260D01*
X140485000Y-65393740D01*
X140427932Y-65106842D01*
X140315990Y-64836589D01*
X140153475Y-64593368D01*
X140021620Y-64461513D01*
X140094180Y-64439502D01*
X140204494Y-64380537D01*
X140301185Y-64301185D01*
X140380537Y-64204494D01*
X140439502Y-64094180D01*
X140475812Y-63974482D01*
X140488072Y-63850000D01*
X140488072Y-62150000D01*
X140475812Y-62025518D01*
X140439502Y-61905820D01*
X140380537Y-61795506D01*
X140301185Y-61698815D01*
X140204494Y-61619463D01*
X140094180Y-61560498D01*
X139974482Y-61524188D01*
X139850000Y-61511928D01*
X138150000Y-61511928D01*
X138025518Y-61524188D01*
X137905820Y-61560498D01*
X137795506Y-61619463D01*
X137698815Y-61698815D01*
X137619463Y-61795506D01*
X137560498Y-61905820D01*
X137524188Y-62025518D01*
X137520299Y-62065000D01*
X134122621Y-62065000D01*
X134089502Y-61955820D01*
X134030537Y-61845506D01*
X133951185Y-61748815D01*
X133854494Y-61669463D01*
X133812733Y-61647141D01*
X134060290Y-61597899D01*
X134721818Y-61323885D01*
X135317177Y-60926079D01*
X135823489Y-60419767D01*
X136221295Y-59824408D01*
X136495309Y-59162880D01*
X136635000Y-58460606D01*
X136635000Y-57744574D01*
X136495309Y-57042300D01*
X136221295Y-56380772D01*
X135823489Y-55785413D01*
X135317177Y-55279101D01*
X134721818Y-54881295D01*
X134060290Y-54607281D01*
X133358016Y-54467590D01*
X132641984Y-54467590D01*
X131939710Y-54607281D01*
X131278182Y-54881295D01*
X130682823Y-55279101D01*
X130176511Y-55785413D01*
X129778705Y-56380772D01*
X129504691Y-57042300D01*
X129365000Y-57744574D01*
X129365000Y-58460606D01*
X129504691Y-59162880D01*
X129778705Y-59824408D01*
X130176511Y-60419767D01*
X130682823Y-60926079D01*
X131278182Y-61323885D01*
X131852868Y-61561928D01*
X131100000Y-61561928D01*
X130975518Y-61574188D01*
X130855820Y-61610498D01*
X130745506Y-61669463D01*
X130648815Y-61748815D01*
X130569463Y-61845506D01*
X130510498Y-61955820D01*
X130474188Y-62075518D01*
X130461928Y-62200000D01*
X130461928Y-63800000D01*
X130474188Y-63924482D01*
X130510498Y-64044180D01*
X130569463Y-64154494D01*
X130648815Y-64251185D01*
X130745506Y-64330537D01*
X130855820Y-64389502D01*
X130975518Y-64425812D01*
X130993482Y-64427581D01*
X130880392Y-64520392D01*
X130701068Y-64738899D01*
X130567818Y-64988192D01*
X130485764Y-65258691D01*
X130458057Y-65540000D01*
X130485764Y-65821309D01*
X130567818Y-66091808D01*
X130701068Y-66341101D01*
X130880392Y-66559608D01*
X131098899Y-66738932D01*
X131231858Y-66810000D01*
X131098899Y-66881068D01*
X130880392Y-67060392D01*
X130701068Y-67278899D01*
X130567818Y-67528192D01*
X130485764Y-67798691D01*
X130458057Y-68080000D01*
X130485764Y-68361309D01*
X130567818Y-68631808D01*
X130701068Y-68881101D01*
X130880392Y-69099608D01*
X131098899Y-69278932D01*
X131231858Y-69350000D01*
X131098899Y-69421068D01*
X130880392Y-69600392D01*
X130701068Y-69818899D01*
X130567818Y-70068192D01*
X130485764Y-70338691D01*
X130458057Y-70620000D01*
X130485764Y-70901309D01*
X130567818Y-71171808D01*
X130701068Y-71421101D01*
X130880392Y-71639608D01*
X131098899Y-71818932D01*
X131231858Y-71890000D01*
X131098899Y-71961068D01*
X130880392Y-72140392D01*
X130701068Y-72358899D01*
X130567818Y-72608192D01*
X130485764Y-72878691D01*
X130458057Y-73160000D01*
X130485764Y-73441309D01*
X130567818Y-73711808D01*
X130701068Y-73961101D01*
X130880392Y-74179608D01*
X131098899Y-74358932D01*
X131231858Y-74430000D01*
X131098899Y-74501068D01*
X130880392Y-74680392D01*
X130701068Y-74898899D01*
X130567818Y-75148192D01*
X130485764Y-75418691D01*
X130458057Y-75700000D01*
X130485764Y-75981309D01*
X130567818Y-76251808D01*
X130701068Y-76501101D01*
X130880392Y-76719608D01*
X131098899Y-76898932D01*
X131231858Y-76970000D01*
X131098899Y-77041068D01*
X130880392Y-77220392D01*
X130701068Y-77438899D01*
X130567818Y-77688192D01*
X130485764Y-77958691D01*
X130458057Y-78240000D01*
X130485764Y-78521309D01*
X130567818Y-78791808D01*
X130701068Y-79041101D01*
X130880392Y-79259608D01*
X131098899Y-79438932D01*
X131231858Y-79510000D01*
X131098899Y-79581068D01*
X130880392Y-79760392D01*
X130810956Y-79845000D01*
X118265931Y-79845000D01*
X118219999Y-79840476D01*
X118036707Y-79858529D01*
X117983243Y-79874747D01*
X117860460Y-79911993D01*
X117698028Y-79998814D01*
X117555656Y-80115656D01*
X117526375Y-80151335D01*
X113744401Y-83933309D01*
X114059639Y-83499422D01*
X114708794Y-82318612D01*
X115204836Y-81065752D01*
X115539942Y-79760602D01*
X115708827Y-78423742D01*
X115708827Y-77076258D01*
X115539942Y-75739398D01*
X115204836Y-74434248D01*
X114708794Y-73181388D01*
X114059639Y-72000578D01*
X113267607Y-70910441D01*
X112345190Y-69928167D01*
X111306936Y-69069248D01*
X110169217Y-68347229D01*
X108949976Y-67773498D01*
X107668442Y-67357103D01*
X106344826Y-67104609D01*
X105000000Y-67020000D01*
X103655174Y-67104609D01*
X102331558Y-67357103D01*
X101050024Y-67773498D01*
X99830783Y-68347229D01*
X98693064Y-69069248D01*
X97654810Y-69928167D01*
X96732393Y-70910441D01*
X95940361Y-72000578D01*
X95291206Y-73181388D01*
X94795164Y-74434248D01*
X94460058Y-75739398D01*
X94291173Y-77076258D01*
X91509817Y-77076258D01*
X79933558Y-65500000D01*
X80155578Y-65277980D01*
X84901626Y-65277980D01*
X85021514Y-65562836D01*
X85345210Y-65723699D01*
X85694069Y-65818322D01*
X86054684Y-65843067D01*
X86413198Y-65796985D01*
X86755833Y-65681846D01*
X86978486Y-65562836D01*
X87098374Y-65277980D01*
X124401626Y-65277980D01*
X124521514Y-65562836D01*
X124845210Y-65723699D01*
X125194069Y-65818322D01*
X125554684Y-65843067D01*
X125913198Y-65796985D01*
X126255833Y-65681846D01*
X126478486Y-65562836D01*
X126598374Y-65277980D01*
X125500000Y-64179605D01*
X124401626Y-65277980D01*
X87098374Y-65277980D01*
X86000000Y-64179605D01*
X84901626Y-65277980D01*
X80155578Y-65277980D01*
X81378874Y-64054684D01*
X84156933Y-64054684D01*
X84203015Y-64413198D01*
X84318154Y-64755833D01*
X84437164Y-64978486D01*
X84722020Y-65098374D01*
X85820395Y-64000000D01*
X86179605Y-64000000D01*
X87277980Y-65098374D01*
X87562836Y-64978486D01*
X87723699Y-64654790D01*
X87818322Y-64305931D01*
X87835562Y-64054684D01*
X123656933Y-64054684D01*
X123703015Y-64413198D01*
X123818154Y-64755833D01*
X123937164Y-64978486D01*
X124222020Y-65098374D01*
X125320395Y-64000000D01*
X125679605Y-64000000D01*
X126777980Y-65098374D01*
X127062836Y-64978486D01*
X127223699Y-64654790D01*
X127318322Y-64305931D01*
X127343067Y-63945316D01*
X127296985Y-63586802D01*
X127181846Y-63244167D01*
X127062836Y-63021514D01*
X126777980Y-62901626D01*
X125679605Y-64000000D01*
X125320395Y-64000000D01*
X124222020Y-62901626D01*
X123937164Y-63021514D01*
X123776301Y-63345210D01*
X123681678Y-63694069D01*
X123656933Y-64054684D01*
X87835562Y-64054684D01*
X87843067Y-63945316D01*
X87796985Y-63586802D01*
X87681846Y-63244167D01*
X87562836Y-63021514D01*
X87277980Y-62901626D01*
X86179605Y-64000000D01*
X85820395Y-64000000D01*
X84722020Y-62901626D01*
X84437164Y-63021514D01*
X84276301Y-63345210D01*
X84181678Y-63694069D01*
X84156933Y-64054684D01*
X81378874Y-64054684D01*
X82711538Y-62722020D01*
X84901626Y-62722020D01*
X86000000Y-63820395D01*
X87098374Y-62722020D01*
X124401626Y-62722020D01*
X125500000Y-63820395D01*
X126598374Y-62722020D01*
X126478486Y-62437164D01*
X126154790Y-62276301D01*
X125805931Y-62181678D01*
X125445316Y-62156933D01*
X125086802Y-62203015D01*
X124744167Y-62318154D01*
X124521514Y-62437164D01*
X124401626Y-62722020D01*
X87098374Y-62722020D01*
X86978486Y-62437164D01*
X86654790Y-62276301D01*
X86305931Y-62181678D01*
X85945316Y-62156933D01*
X85586802Y-62203015D01*
X85244167Y-62318154D01*
X85021514Y-62437164D01*
X84901626Y-62722020D01*
X82711538Y-62722020D01*
X88107886Y-57325674D01*
X88227505Y-57227505D01*
X88619269Y-56750140D01*
X88910376Y-56205517D01*
X89051460Y-55740424D01*
X89089638Y-55614568D01*
X89098758Y-55521971D01*
X89135000Y-55154002D01*
X89135000Y-55153996D01*
X89150167Y-55000001D01*
X89135000Y-54846006D01*
X89135000Y-46845998D01*
X89089638Y-46385433D01*
X88910376Y-45794483D01*
X88619269Y-45249860D01*
X88227505Y-44772495D01*
X88094816Y-44663600D01*
X157968821Y-44663600D01*
X158454993Y-44711270D01*
X158891598Y-44843089D01*
X159294285Y-45057200D01*
X159647712Y-45345448D01*
X159938427Y-45696861D01*
X160155342Y-46098039D01*
X160290206Y-46533713D01*
X160341101Y-47017953D01*
X160341101Y-56670009D01*
X160221295Y-56380772D01*
X159823489Y-55785413D01*
X159317177Y-55279101D01*
X158721818Y-54881295D01*
X158060290Y-54607281D01*
X157358016Y-54467590D01*
X156641984Y-54467590D01*
X155939710Y-54607281D01*
X155278182Y-54881295D01*
X154682823Y-55279101D01*
X154176511Y-55785413D01*
X153778705Y-56380772D01*
X153504691Y-57042300D01*
X153365000Y-57744574D01*
X153365000Y-58460606D01*
X153504691Y-59162880D01*
X153778705Y-59824408D01*
X154176511Y-60419767D01*
X154682823Y-60926079D01*
X155278182Y-61323885D01*
X155939710Y-61597899D01*
X156187267Y-61647141D01*
X156145506Y-61669463D01*
X156048815Y-61748815D01*
X155969463Y-61845506D01*
X155910498Y-61955820D01*
X155877379Y-62065000D01*
X153161247Y-62065000D01*
X153153475Y-62053368D01*
X152946632Y-61846525D01*
X152703411Y-61684010D01*
X152433158Y-61572068D01*
X152146260Y-61515000D01*
X151853740Y-61515000D01*
X151566842Y-61572068D01*
X151296589Y-61684010D01*
X151053368Y-61846525D01*
X150846525Y-62053368D01*
X150684010Y-62296589D01*
X150572068Y-62566842D01*
X150515000Y-62853740D01*
X150515000Y-63146260D01*
X150572068Y-63433158D01*
X150684010Y-63703411D01*
X150846525Y-63946632D01*
X151053368Y-64153475D01*
X151227760Y-64270000D01*
X151053368Y-64386525D01*
X150846525Y-64593368D01*
X150684010Y-64836589D01*
X150572068Y-65106842D01*
X150515000Y-65393740D01*
X150515000Y-65686260D01*
X150572068Y-65973158D01*
X150684010Y-66243411D01*
X150846525Y-66486632D01*
X151053368Y-66693475D01*
X151227760Y-66810000D01*
X151053368Y-66926525D01*
X150846525Y-67133368D01*
X150684010Y-67376589D01*
X150572068Y-67646842D01*
X150515000Y-67933740D01*
X150515000Y-68226260D01*
X150572068Y-68513158D01*
X150684010Y-68783411D01*
X150846525Y-69026632D01*
X151053368Y-69233475D01*
X151227760Y-69350000D01*
X151053368Y-69466525D01*
X150846525Y-69673368D01*
X150684010Y-69916589D01*
X150572068Y-70186842D01*
X150515000Y-70473740D01*
X150515000Y-70766260D01*
X150572068Y-71053158D01*
X150684010Y-71323411D01*
X150846525Y-71566632D01*
X151053368Y-71773475D01*
X151227760Y-71890000D01*
X151053368Y-72006525D01*
X150846525Y-72213368D01*
X150684010Y-72456589D01*
X150572068Y-72726842D01*
X150515000Y-73013740D01*
X150515000Y-73306260D01*
X150572068Y-73593158D01*
X150684010Y-73863411D01*
X150846525Y-74106632D01*
X151053368Y-74313475D01*
X151227760Y-74430000D01*
X151053368Y-74546525D01*
X150846525Y-74753368D01*
X150684010Y-74996589D01*
X150572068Y-75266842D01*
X150515000Y-75553740D01*
X150515000Y-75846260D01*
X150572068Y-76133158D01*
X150684010Y-76403411D01*
X150846525Y-76646632D01*
X151053368Y-76853475D01*
X151227760Y-76970000D01*
X151053368Y-77086525D01*
X150846525Y-77293368D01*
X150684010Y-77536589D01*
X150572068Y-77806842D01*
X150515000Y-78093740D01*
X150515000Y-78386260D01*
X150572068Y-78673158D01*
X150684010Y-78943411D01*
X150846525Y-79186632D01*
X151053368Y-79393475D01*
X151227760Y-79510000D01*
X151053368Y-79626525D01*
X150846525Y-79833368D01*
X150684010Y-80076589D01*
X150572068Y-80346842D01*
X150515000Y-80633740D01*
X150515000Y-80926260D01*
X150572068Y-81213158D01*
X150684010Y-81483411D01*
X150846525Y-81726632D01*
X151053368Y-81933475D01*
X151227760Y-82050000D01*
X151053368Y-82166525D01*
X150846525Y-82373368D01*
X150684010Y-82616589D01*
X150572068Y-82886842D01*
X150515000Y-83173740D01*
X150515000Y-83466260D01*
X150572068Y-83753158D01*
X150684010Y-84023411D01*
X150846525Y-84266632D01*
X151053368Y-84473475D01*
X151227760Y-84590000D01*
X151053368Y-84706525D01*
X150846525Y-84913368D01*
X150684010Y-85156589D01*
X150572068Y-85426842D01*
X150515000Y-85713740D01*
X150515000Y-86006260D01*
X150572068Y-86293158D01*
X150684010Y-86563411D01*
X150846525Y-86806632D01*
X151053368Y-87013475D01*
X151227760Y-87130000D01*
X151053368Y-87246525D01*
X150846525Y-87453368D01*
X150684010Y-87696589D01*
X150572068Y-87966842D01*
X150515000Y-88253740D01*
X150515000Y-88546260D01*
X150572068Y-88833158D01*
X150684010Y-89103411D01*
X150846525Y-89346632D01*
X151053368Y-89553475D01*
X151227760Y-89670000D01*
X151053368Y-89786525D01*
X150846525Y-89993368D01*
X150684010Y-90236589D01*
X150572068Y-90506842D01*
X150515000Y-90793740D01*
X150515000Y-91086260D01*
X150572068Y-91373158D01*
X150684010Y-91643411D01*
X150846525Y-91886632D01*
X151053368Y-92093475D01*
X151227760Y-92210000D01*
X151053368Y-92326525D01*
X150846525Y-92533368D01*
X150684010Y-92776589D01*
X150572068Y-93046842D01*
X150515000Y-93333740D01*
X150515000Y-93626260D01*
X150572068Y-93913158D01*
X150684010Y-94183411D01*
X150846525Y-94426632D01*
X151053368Y-94633475D01*
X151227760Y-94750000D01*
X151053368Y-94866525D01*
X150846525Y-95073368D01*
X150684010Y-95316589D01*
X150572068Y-95586842D01*
X150515000Y-95873740D01*
X150515000Y-96166260D01*
X150572068Y-96453158D01*
X150684010Y-96723411D01*
X150846525Y-96966632D01*
X151053368Y-97173475D01*
X151227760Y-97290000D01*
X151053368Y-97406525D01*
X150846525Y-97613368D01*
X150684010Y-97856589D01*
X150572068Y-98126842D01*
X150515000Y-98413740D01*
X150515000Y-98706260D01*
X150572068Y-98993158D01*
X150684010Y-99263411D01*
X150846525Y-99506632D01*
X151053368Y-99713475D01*
X151227760Y-99830000D01*
X151053368Y-99946525D01*
X150846525Y-100153368D01*
X150684010Y-100396589D01*
X150572068Y-100666842D01*
X150515000Y-100953740D01*
X150515000Y-101246260D01*
X150572068Y-101533158D01*
X150684010Y-101803411D01*
X150846525Y-102046632D01*
X151053368Y-102253475D01*
X151227760Y-102370000D01*
X151053368Y-102486525D01*
X150846525Y-102693368D01*
X150684010Y-102936589D01*
X150572068Y-103206842D01*
X150515000Y-103493740D01*
X150515000Y-103786260D01*
X150572068Y-104073158D01*
X150684010Y-104343411D01*
X150846525Y-104586632D01*
X150978380Y-104718487D01*
X150905820Y-104740498D01*
X150795506Y-104799463D01*
X150698815Y-104878815D01*
X150619463Y-104975506D01*
X150560498Y-105085820D01*
X150524188Y-105205518D01*
X150511928Y-105330000D01*
X150511928Y-107030000D01*
X150524188Y-107154482D01*
X150560498Y-107274180D01*
X150619463Y-107384494D01*
X150698815Y-107481185D01*
X150795506Y-107560537D01*
X150905820Y-107619502D01*
X151025518Y-107655812D01*
X151150000Y-107668072D01*
X152850000Y-107668072D01*
X152974482Y-107655812D01*
X153094180Y-107619502D01*
X153204494Y-107560537D01*
X153301185Y-107481185D01*
X153380537Y-107384494D01*
X153439502Y-107274180D01*
X153475812Y-107154482D01*
X153479701Y-107115000D01*
X156210956Y-107115000D01*
X156280392Y-107199608D01*
X156498899Y-107378932D01*
X156664766Y-107467590D01*
X156641984Y-107467590D01*
X155939710Y-107607281D01*
X155278182Y-107881295D01*
X154682823Y-108279101D01*
X154176511Y-108785413D01*
X153778705Y-109380772D01*
X153504691Y-110042300D01*
X153365000Y-110744574D01*
X153365000Y-111460606D01*
X153504691Y-112162880D01*
X153778705Y-112824408D01*
X154176511Y-113419767D01*
X154682823Y-113926079D01*
X155278182Y-114323885D01*
X155939710Y-114597899D01*
X156641984Y-114737590D01*
X157358016Y-114737590D01*
X158060290Y-114597899D01*
X158721818Y-114323885D01*
X159317177Y-113926079D01*
X159823489Y-113419767D01*
X160221295Y-112824408D01*
X160341100Y-112535173D01*
X160341100Y-120971321D01*
X160293430Y-121457494D01*
X160161612Y-121894097D01*
X159947499Y-122296786D01*
X159659250Y-122650213D01*
X159307839Y-122940927D01*
X158906664Y-123157840D01*
X158470986Y-123292706D01*
X157986764Y-123343600D01*
X77033379Y-123343600D01*
X76547206Y-123295930D01*
X76110603Y-123164112D01*
X75707914Y-122949999D01*
X75354487Y-122661750D01*
X75063773Y-122310339D01*
X74846860Y-121909164D01*
X74711994Y-121473486D01*
X74661100Y-120989264D01*
X74661100Y-117779872D01*
X76765000Y-117779872D01*
X76765000Y-118220128D01*
X76850890Y-118651925D01*
X77019369Y-119058669D01*
X77263962Y-119424729D01*
X77575271Y-119736038D01*
X77941331Y-119980631D01*
X78348075Y-120149110D01*
X78779872Y-120235000D01*
X79220128Y-120235000D01*
X79651925Y-120149110D01*
X80058669Y-119980631D01*
X80424729Y-119736038D01*
X80736038Y-119424729D01*
X80980631Y-119058669D01*
X81149110Y-118651925D01*
X81235000Y-118220128D01*
X81235000Y-117779872D01*
X81149110Y-117348075D01*
X80980631Y-116941331D01*
X80736038Y-116575271D01*
X80424729Y-116263962D01*
X80058669Y-116019369D01*
X79651925Y-115850890D01*
X79220128Y-115765000D01*
X78779872Y-115765000D01*
X78348075Y-115850890D01*
X77941331Y-116019369D01*
X77575271Y-116263962D01*
X77263962Y-116575271D01*
X77019369Y-116941331D01*
X76850890Y-117348075D01*
X76765000Y-117779872D01*
X74661100Y-117779872D01*
X74661100Y-111971181D01*
X74659573Y-111955680D01*
X74633739Y-111407860D01*
X74629289Y-111373596D01*
X74626878Y-111339118D01*
X74624244Y-111323208D01*
X74451812Y-110355183D01*
X74440046Y-110310647D01*
X74429380Y-110265879D01*
X74424189Y-110250630D01*
X74424184Y-110250612D01*
X74424178Y-110250598D01*
X74095965Y-109323749D01*
X74077093Y-109281758D01*
X74059248Y-109239306D01*
X74051627Y-109225094D01*
X73576433Y-108364283D01*
X73550952Y-108325931D01*
X73526419Y-108286973D01*
X73516591Y-108274212D01*
X73516580Y-108274195D01*
X73516568Y-108274182D01*
X72907175Y-107502555D01*
X72875749Y-107468854D01*
X72845204Y-107434451D01*
X72833425Y-107423467D01*
X72833411Y-107423452D01*
X72833397Y-107423441D01*
X72106159Y-106761705D01*
X72069686Y-106733617D01*
X72033898Y-106704636D01*
X72020473Y-106695717D01*
X72020467Y-106695712D01*
X72020461Y-106695709D01*
X71194899Y-106161629D01*
X71154326Y-106139874D01*
X71114288Y-106117129D01*
X71099579Y-106110518D01*
X70197867Y-105718443D01*
X70154265Y-105703600D01*
X70111070Y-105687707D01*
X70095492Y-105683591D01*
X70095479Y-105683587D01*
X70095467Y-105683585D01*
X69141841Y-105444050D01*
X69096413Y-105436530D01*
X69051189Y-105427903D01*
X69035134Y-105426385D01*
X68060266Y-105346236D01*
X67547206Y-105295930D01*
X67110603Y-105164112D01*
X66707914Y-104949999D01*
X66354487Y-104661750D01*
X66063773Y-104310339D01*
X65846860Y-103909164D01*
X65711994Y-103473486D01*
X65661100Y-102989264D01*
X65661100Y-74777980D01*
X73901626Y-74777980D01*
X74021514Y-75062836D01*
X74345210Y-75223699D01*
X74694069Y-75318322D01*
X75054684Y-75343067D01*
X75413198Y-75296985D01*
X75755833Y-75181846D01*
X75978486Y-75062836D01*
X76098374Y-74777980D01*
X75000000Y-73679605D01*
X73901626Y-74777980D01*
X65661100Y-74777980D01*
X65661100Y-73554684D01*
X73156933Y-73554684D01*
X73203015Y-73913198D01*
X73318154Y-74255833D01*
X73437164Y-74478486D01*
X73722020Y-74598374D01*
X74820395Y-73500000D01*
X75179605Y-73500000D01*
X76277980Y-74598374D01*
X76562836Y-74478486D01*
X76723699Y-74154790D01*
X76818322Y-73805931D01*
X76843067Y-73445316D01*
X76796985Y-73086802D01*
X76681846Y-72744167D01*
X76562836Y-72521514D01*
X76277980Y-72401626D01*
X75179605Y-73500000D01*
X74820395Y-73500000D01*
X73722020Y-72401626D01*
X73437164Y-72521514D01*
X73276301Y-72845210D01*
X73181678Y-73194069D01*
X73156933Y-73554684D01*
X65661100Y-73554684D01*
X65661100Y-72222020D01*
X73901626Y-72222020D01*
X75000000Y-73320395D01*
X76098374Y-72222020D01*
X75978486Y-71937164D01*
X75654790Y-71776301D01*
X75305931Y-71681678D01*
X74945316Y-71656933D01*
X74586802Y-71703015D01*
X74244167Y-71818154D01*
X74021514Y-71937164D01*
X73901626Y-72222020D01*
X65661100Y-72222020D01*
X65661100Y-65035879D01*
X65708770Y-64549707D01*
X65840589Y-64113102D01*
X66054700Y-63710415D01*
X66342948Y-63356988D01*
X66694361Y-63066273D01*
X67095539Y-62849358D01*
X67531213Y-62714494D01*
X68017552Y-62663378D01*
X68032190Y-62662867D01*
X68596840Y-62636239D01*
X68631103Y-62631789D01*
X68665583Y-62629378D01*
X68681492Y-62626744D01*
X69649518Y-62454312D01*
X69694053Y-62442546D01*
X69738822Y-62431880D01*
X69754075Y-62426687D01*
X69754088Y-62426684D01*
X69754098Y-62426679D01*
X70680951Y-62098463D01*
X70722951Y-62079588D01*
X70765392Y-62061747D01*
X70779599Y-62054130D01*
X70779605Y-62054127D01*
X70779610Y-62054124D01*
X71640415Y-61578934D01*
X71678766Y-61553454D01*
X71717726Y-61528919D01*
X71730503Y-61519080D01*
X72502144Y-60909675D01*
X72535816Y-60878275D01*
X72570249Y-60847704D01*
X72581247Y-60835910D01*
X73242994Y-60108658D01*
X73271095Y-60072168D01*
X73300062Y-60036397D01*
X73308980Y-60022974D01*
X73308987Y-60022965D01*
X73308992Y-60022956D01*
X73843069Y-59197399D01*
X73864830Y-59156816D01*
X73887569Y-59116787D01*
X73894180Y-59102078D01*
X74286255Y-58200367D01*
X74301098Y-58156765D01*
X74316991Y-58113570D01*
X74321111Y-58097979D01*
X74560648Y-57144340D01*
X74568170Y-57098903D01*
X74576795Y-57053689D01*
X74578313Y-57037634D01*
X74658442Y-56063006D01*
X74661100Y-56036019D01*
X74661100Y-49779872D01*
X76765000Y-49779872D01*
X76765000Y-50220128D01*
X76850890Y-50651925D01*
X77019369Y-51058669D01*
X77263962Y-51424729D01*
X77575271Y-51736038D01*
X77941331Y-51980631D01*
X78348075Y-52149110D01*
X78779872Y-52235000D01*
X79220128Y-52235000D01*
X79651925Y-52149110D01*
X80058669Y-51980631D01*
X80424729Y-51736038D01*
X80736038Y-51424729D01*
X80980631Y-51058669D01*
X81149110Y-50651925D01*
X81235000Y-50220128D01*
X81235000Y-49779872D01*
X81149110Y-49348075D01*
X80980631Y-48941331D01*
X80736038Y-48575271D01*
X80424729Y-48263962D01*
X80058669Y-48019369D01*
X79651925Y-47850890D01*
X79220128Y-47765000D01*
X78779872Y-47765000D01*
X78348075Y-47850890D01*
X77941331Y-48019369D01*
X77575271Y-48263962D01*
X77263962Y-48575271D01*
X77019369Y-48941331D01*
X76850890Y-49348075D01*
X76765000Y-49779872D01*
X74661100Y-49779872D01*
X74661100Y-47035879D01*
X74708770Y-46549707D01*
X74840589Y-46113102D01*
X75054700Y-45710415D01*
X75342948Y-45356988D01*
X75694361Y-45066273D01*
X76095539Y-44849358D01*
X76531213Y-44714494D01*
X77015444Y-44663600D01*
X83905184Y-44663600D01*
X83772495Y-44772495D01*
G04 #@! TA.AperFunction,Conductor*
D22*
G36*
X83772495Y-44772495D02*
G01*
X83380731Y-45249861D01*
X83089624Y-45794484D01*
X82910362Y-46385434D01*
X82865000Y-46845999D01*
X82865001Y-53701439D01*
X72892125Y-63674317D01*
X72772495Y-63772495D01*
X72380731Y-64249860D01*
X72089624Y-64794483D01*
X71910362Y-65385433D01*
X71849832Y-66000000D01*
X71910362Y-66614567D01*
X72089624Y-67205517D01*
X72380731Y-67750140D01*
X72772495Y-68227505D01*
X73249860Y-68619269D01*
X73794483Y-68910376D01*
X74385433Y-69089638D01*
X74685649Y-69119207D01*
X86865000Y-81298559D01*
X86865001Y-117604853D01*
X86833071Y-117444332D01*
X86689469Y-117097644D01*
X86480990Y-116785634D01*
X86215646Y-116520290D01*
X85903636Y-116311811D01*
X85556948Y-116168209D01*
X85188906Y-116095000D01*
X84813654Y-116095000D01*
X84445612Y-116168209D01*
X84098924Y-116311811D01*
X83786914Y-116520290D01*
X83521570Y-116785634D01*
X83313091Y-117097644D01*
X83169489Y-117444332D01*
X83096280Y-117812374D01*
X83096280Y-118187626D01*
X83169489Y-118555668D01*
X83313091Y-118902356D01*
X83521570Y-119214366D01*
X83786914Y-119479710D01*
X84098924Y-119688189D01*
X84445612Y-119831791D01*
X84813654Y-119905000D01*
X85188906Y-119905000D01*
X85556948Y-119831791D01*
X85903636Y-119688189D01*
X86215646Y-119479710D01*
X86480990Y-119214366D01*
X86689469Y-118902356D01*
X86833071Y-118555668D01*
X86880886Y-118315291D01*
X86910362Y-118614567D01*
X87089624Y-119205517D01*
X87380731Y-119750140D01*
X87772495Y-120227505D01*
X88249860Y-120619269D01*
X88794483Y-120910376D01*
X89385433Y-121089638D01*
X89845998Y-121135000D01*
X90000000Y-121150168D01*
X90154002Y-121135000D01*
X95154022Y-121135000D01*
X95614587Y-121089638D01*
X96205537Y-120910376D01*
X96750160Y-120619269D01*
X97227525Y-120227505D01*
X97619289Y-119750140D01*
X97845006Y-119327852D01*
X98853033Y-119327852D01*
X98981356Y-119619871D01*
X99316975Y-119787723D01*
X99678891Y-119886874D01*
X100053196Y-119913514D01*
X100425507Y-119866618D01*
X100781515Y-119747988D01*
X101021204Y-119619871D01*
X101149527Y-119327852D01*
X100001280Y-118179605D01*
X98853033Y-119327852D01*
X97845006Y-119327852D01*
X97910396Y-119205517D01*
X98089658Y-118614567D01*
X98119927Y-118307244D01*
X98134662Y-118424227D01*
X98253292Y-118780235D01*
X98381409Y-119019924D01*
X98673428Y-119148247D01*
X99821675Y-118000000D01*
X100180885Y-118000000D01*
X101329132Y-119148247D01*
X101621151Y-119019924D01*
X101789003Y-118684305D01*
X101888154Y-118322389D01*
X101914794Y-117948084D01*
X101867898Y-117575773D01*
X101749268Y-117219765D01*
X101621151Y-116980076D01*
X101329132Y-116851753D01*
X100180885Y-118000000D01*
X99821675Y-118000000D01*
X98673428Y-116851753D01*
X98381409Y-116980076D01*
X98213557Y-117315695D01*
X98117370Y-117666793D01*
X98089658Y-117385433D01*
X97910396Y-116794483D01*
X97845007Y-116672148D01*
X98853033Y-116672148D01*
X100001280Y-117820395D01*
X101149527Y-116672148D01*
X101021204Y-116380129D01*
X100685585Y-116212277D01*
X100323669Y-116113126D01*
X99949364Y-116086486D01*
X99577053Y-116133382D01*
X99221045Y-116252012D01*
X98981356Y-116380129D01*
X98853033Y-116672148D01*
X97845007Y-116672148D01*
X97619289Y-116249860D01*
X97227525Y-115772495D01*
X96750160Y-115380731D01*
X96205537Y-115089624D01*
X95614587Y-114910362D01*
X95154022Y-114865000D01*
X93135000Y-114865000D01*
X93135000Y-80153995D01*
X93150167Y-80000000D01*
X93135000Y-79846005D01*
X93135000Y-79845998D01*
X93089638Y-79385433D01*
X92910376Y-78794483D01*
X92619269Y-78249860D01*
X92227505Y-77772495D01*
X92107882Y-77674323D01*
X91509817Y-77076258D01*
X94291173Y-77076258D01*
X94291173Y-78423742D01*
X94460058Y-79760602D01*
X94795164Y-81065752D01*
X95291206Y-82318612D01*
X95940361Y-83499422D01*
X96732393Y-84589559D01*
X97654810Y-85571833D01*
X98693064Y-86430752D01*
X99830783Y-87152771D01*
X101050024Y-87726502D01*
X102331558Y-88142897D01*
X103655174Y-88395391D01*
X105000000Y-88480000D01*
X106344826Y-88395391D01*
X107668442Y-88142897D01*
X108949976Y-87726502D01*
X110169217Y-87152771D01*
X111142785Y-86534925D01*
X104371336Y-93306375D01*
X104335657Y-93335656D01*
X104218815Y-93478028D01*
X104217761Y-93480000D01*
X104131994Y-93640460D01*
X104078529Y-93816709D01*
X104060476Y-94000000D01*
X104065001Y-94045942D01*
X104065000Y-116333623D01*
X103785634Y-116520290D01*
X103520290Y-116785634D01*
X103311811Y-117097644D01*
X103168209Y-117444332D01*
X103095000Y-117812374D01*
X103095000Y-118187626D01*
X103168209Y-118555668D01*
X103311811Y-118902356D01*
X103520290Y-119214366D01*
X103785634Y-119479710D01*
X104097644Y-119688189D01*
X104444332Y-119831791D01*
X104812374Y-119905000D01*
X105187626Y-119905000D01*
X105555668Y-119831791D01*
X105902356Y-119688189D01*
X106214366Y-119479710D01*
X106479710Y-119214366D01*
X106688189Y-118902356D01*
X106831791Y-118555668D01*
X106905000Y-118187626D01*
X106905000Y-117812374D01*
X106831791Y-117444332D01*
X106688189Y-117097644D01*
X106479710Y-116785634D01*
X106214366Y-116520290D01*
X105935000Y-116333623D01*
X105935000Y-94387289D01*
X118607290Y-81715000D01*
X130810956Y-81715000D01*
X130880392Y-81799608D01*
X131098899Y-81978932D01*
X131231858Y-82050000D01*
X131098899Y-82121068D01*
X130880392Y-82300392D01*
X130810956Y-82385000D01*
X122725935Y-82385000D01*
X122680000Y-82380476D01*
X122496708Y-82398528D01*
X122392828Y-82430041D01*
X122320460Y-82451993D01*
X122158028Y-82538814D01*
X122015656Y-82655656D01*
X121986370Y-82691341D01*
X109372616Y-95305095D01*
X109336937Y-95334376D01*
X109220095Y-95476748D01*
X109208721Y-95498028D01*
X109133274Y-95639180D01*
X109079809Y-95815429D01*
X109061756Y-95998720D01*
X109066281Y-96044662D01*
X109066280Y-116333623D01*
X108786914Y-116520290D01*
X108521570Y-116785634D01*
X108313091Y-117097644D01*
X108169489Y-117444332D01*
X108096280Y-117812374D01*
X108096280Y-118187626D01*
X108169489Y-118555668D01*
X108313091Y-118902356D01*
X108521570Y-119214366D01*
X108786914Y-119479710D01*
X109098924Y-119688189D01*
X109445612Y-119831791D01*
X109813654Y-119905000D01*
X110188906Y-119905000D01*
X110556948Y-119831791D01*
X110903636Y-119688189D01*
X111215646Y-119479710D01*
X111480990Y-119214366D01*
X111689469Y-118902356D01*
X111833071Y-118555668D01*
X111906280Y-118187626D01*
X111906280Y-117812374D01*
X111833071Y-117444332D01*
X111689469Y-117097644D01*
X111480990Y-116785634D01*
X111215646Y-116520290D01*
X110936280Y-116333623D01*
X110936280Y-96386009D01*
X123067289Y-84255000D01*
X130810956Y-84255000D01*
X130880392Y-84339608D01*
X131098899Y-84518932D01*
X131231858Y-84590000D01*
X131098899Y-84661068D01*
X130880392Y-84840392D01*
X130810956Y-84925000D01*
X125185935Y-84925000D01*
X125140000Y-84920476D01*
X124956708Y-84938528D01*
X124780459Y-84991993D01*
X124723880Y-85022235D01*
X124618028Y-85078814D01*
X124475656Y-85195656D01*
X124446375Y-85231335D01*
X114371336Y-95306375D01*
X114335657Y-95335656D01*
X114218815Y-95478028D01*
X114208125Y-95498028D01*
X114131994Y-95640460D01*
X114078529Y-95816709D01*
X114060476Y-96000000D01*
X114065001Y-96045942D01*
X114065000Y-116333623D01*
X113785634Y-116520290D01*
X113520290Y-116785634D01*
X113311811Y-117097644D01*
X113168209Y-117444332D01*
X113095000Y-117812374D01*
X113095000Y-118187626D01*
X113168209Y-118555668D01*
X113311811Y-118902356D01*
X113520290Y-119214366D01*
X113785634Y-119479710D01*
X114097644Y-119688189D01*
X114444332Y-119831791D01*
X114812374Y-119905000D01*
X115187626Y-119905000D01*
X115555668Y-119831791D01*
X115902356Y-119688189D01*
X116214366Y-119479710D01*
X116479710Y-119214366D01*
X116688189Y-118902356D01*
X116831791Y-118555668D01*
X116905000Y-118187626D01*
X116905000Y-117812374D01*
X118096280Y-117812374D01*
X118096280Y-118187626D01*
X118169489Y-118555668D01*
X118313091Y-118902356D01*
X118521570Y-119214366D01*
X118786914Y-119479710D01*
X119098924Y-119688189D01*
X119445612Y-119831791D01*
X119813654Y-119905000D01*
X120188906Y-119905000D01*
X120556948Y-119831791D01*
X120903636Y-119688189D01*
X121215646Y-119479710D01*
X121367504Y-119327852D01*
X123851753Y-119327852D01*
X123980076Y-119619871D01*
X124315695Y-119787723D01*
X124677611Y-119886874D01*
X125051916Y-119913514D01*
X125424227Y-119866618D01*
X125780235Y-119747988D01*
X126019924Y-119619871D01*
X126148247Y-119327852D01*
X125000000Y-118179605D01*
X123851753Y-119327852D01*
X121367504Y-119327852D01*
X121480990Y-119214366D01*
X121689469Y-118902356D01*
X121833071Y-118555668D01*
X121906280Y-118187626D01*
X121906280Y-118051916D01*
X123086486Y-118051916D01*
X123133382Y-118424227D01*
X123252012Y-118780235D01*
X123380129Y-119019924D01*
X123672148Y-119148247D01*
X124820395Y-118000000D01*
X125179605Y-118000000D01*
X126327852Y-119148247D01*
X126619871Y-119019924D01*
X126787723Y-118684305D01*
X126886874Y-118322389D01*
X126913514Y-117948084D01*
X126892327Y-117779872D01*
X153765000Y-117779872D01*
X153765000Y-118220128D01*
X153850890Y-118651925D01*
X154019369Y-119058669D01*
X154263962Y-119424729D01*
X154575271Y-119736038D01*
X154941331Y-119980631D01*
X155348075Y-120149110D01*
X155779872Y-120235000D01*
X156220128Y-120235000D01*
X156651925Y-120149110D01*
X157058669Y-119980631D01*
X157424729Y-119736038D01*
X157736038Y-119424729D01*
X157980631Y-119058669D01*
X158149110Y-118651925D01*
X158235000Y-118220128D01*
X158235000Y-117779872D01*
X158149110Y-117348075D01*
X157980631Y-116941331D01*
X157736038Y-116575271D01*
X157424729Y-116263962D01*
X157058669Y-116019369D01*
X156651925Y-115850890D01*
X156220128Y-115765000D01*
X155779872Y-115765000D01*
X155348075Y-115850890D01*
X154941331Y-116019369D01*
X154575271Y-116263962D01*
X154263962Y-116575271D01*
X154019369Y-116941331D01*
X153850890Y-117348075D01*
X153765000Y-117779872D01*
X126892327Y-117779872D01*
X126866618Y-117575773D01*
X126747988Y-117219765D01*
X126619871Y-116980076D01*
X126327852Y-116851753D01*
X125179605Y-118000000D01*
X124820395Y-118000000D01*
X123672148Y-116851753D01*
X123380129Y-116980076D01*
X123212277Y-117315695D01*
X123113126Y-117677611D01*
X123086486Y-118051916D01*
X121906280Y-118051916D01*
X121906280Y-117812374D01*
X121833071Y-117444332D01*
X121689469Y-117097644D01*
X121480990Y-116785634D01*
X121367504Y-116672148D01*
X123851753Y-116672148D01*
X125000000Y-117820395D01*
X126148247Y-116672148D01*
X126019924Y-116380129D01*
X125684305Y-116212277D01*
X125322389Y-116113126D01*
X124948084Y-116086486D01*
X124575773Y-116133382D01*
X124219765Y-116252012D01*
X123980076Y-116380129D01*
X123851753Y-116672148D01*
X121367504Y-116672148D01*
X121215646Y-116520290D01*
X120936280Y-116333623D01*
X120936280Y-109386009D01*
X125747290Y-104575000D01*
X130810956Y-104575000D01*
X130880392Y-104659608D01*
X131098899Y-104838932D01*
X131231858Y-104910000D01*
X131098899Y-104981068D01*
X130880392Y-105160392D01*
X130701068Y-105378899D01*
X130567818Y-105628192D01*
X130485764Y-105898691D01*
X130458057Y-106180000D01*
X130485764Y-106461309D01*
X130567818Y-106731808D01*
X130701068Y-106981101D01*
X130880392Y-107199608D01*
X131098899Y-107378932D01*
X131348192Y-107512182D01*
X131618691Y-107594236D01*
X131829508Y-107615000D01*
X131921075Y-107615000D01*
X131278182Y-107881295D01*
X130682823Y-108279101D01*
X130176511Y-108785413D01*
X129778705Y-109380772D01*
X129504691Y-110042300D01*
X129365000Y-110744574D01*
X129365000Y-111460606D01*
X129504691Y-112162880D01*
X129778705Y-112824408D01*
X130176511Y-113419767D01*
X130682823Y-113926079D01*
X131278182Y-114323885D01*
X131939710Y-114597899D01*
X132641984Y-114737590D01*
X133358016Y-114737590D01*
X134060290Y-114597899D01*
X134721818Y-114323885D01*
X135317177Y-113926079D01*
X135823489Y-113419767D01*
X136221295Y-112824408D01*
X136495309Y-112162880D01*
X136635000Y-111460606D01*
X136635000Y-110744574D01*
X136495309Y-110042300D01*
X136221295Y-109380772D01*
X135823489Y-108785413D01*
X135317177Y-108279101D01*
X134721818Y-107881295D01*
X134060290Y-107607281D01*
X133358016Y-107467590D01*
X133335234Y-107467590D01*
X133501101Y-107378932D01*
X133719608Y-107199608D01*
X133789044Y-107115000D01*
X137838753Y-107115000D01*
X137846525Y-107126632D01*
X138053368Y-107333475D01*
X138296589Y-107495990D01*
X138566842Y-107607932D01*
X138853740Y-107665000D01*
X139146260Y-107665000D01*
X139433158Y-107607932D01*
X139703411Y-107495990D01*
X139946632Y-107333475D01*
X140153475Y-107126632D01*
X140161247Y-107115000D01*
X140774068Y-107115000D01*
X140820000Y-107119524D01*
X140865932Y-107115000D01*
X141003292Y-107101471D01*
X141179540Y-107048007D01*
X141341972Y-106961186D01*
X141484344Y-106844344D01*
X141513630Y-106808659D01*
X143628660Y-104693629D01*
X143664344Y-104664344D01*
X143781186Y-104521972D01*
X143859528Y-104375404D01*
X143868007Y-104359541D01*
X143921472Y-104183292D01*
X143939524Y-104000000D01*
X143935000Y-103954065D01*
X143935000Y-55045924D01*
X143939523Y-54999999D01*
X143935000Y-54954074D01*
X143935000Y-54954068D01*
X143921471Y-54816708D01*
X143868007Y-54640460D01*
X143781186Y-54478028D01*
X143664344Y-54335656D01*
X143628665Y-54306375D01*
X139102162Y-49779872D01*
X153765000Y-49779872D01*
X153765000Y-50220128D01*
X153850890Y-50651925D01*
X154019369Y-51058669D01*
X154263962Y-51424729D01*
X154575271Y-51736038D01*
X154941331Y-51980631D01*
X155348075Y-52149110D01*
X155779872Y-52235000D01*
X156220128Y-52235000D01*
X156651925Y-52149110D01*
X157058669Y-51980631D01*
X157424729Y-51736038D01*
X157736038Y-51424729D01*
X157980631Y-51058669D01*
X158149110Y-50651925D01*
X158235000Y-50220128D01*
X158235000Y-49779872D01*
X158149110Y-49348075D01*
X157980631Y-48941331D01*
X157736038Y-48575271D01*
X157424729Y-48263962D01*
X157058669Y-48019369D01*
X156651925Y-47850890D01*
X156220128Y-47765000D01*
X155779872Y-47765000D01*
X155348075Y-47850890D01*
X154941331Y-48019369D01*
X154575271Y-48263962D01*
X154263962Y-48575271D01*
X154019369Y-48941331D01*
X153850890Y-49348075D01*
X153765000Y-49779872D01*
X139102162Y-49779872D01*
X135693630Y-46371341D01*
X135664344Y-46335656D01*
X135521972Y-46218814D01*
X135359540Y-46131993D01*
X135183292Y-46078529D01*
X135045932Y-46065000D01*
X135000000Y-46060476D01*
X134954068Y-46065000D01*
X127082189Y-46065000D01*
X126925338Y-45830256D01*
X126669744Y-45574662D01*
X126369199Y-45373844D01*
X126035250Y-45235518D01*
X125680732Y-45165000D01*
X125319268Y-45165000D01*
X124964750Y-45235518D01*
X124630801Y-45373844D01*
X124330256Y-45574662D01*
X124074662Y-45830256D01*
X123873844Y-46130801D01*
X123735518Y-46464750D01*
X123665000Y-46819268D01*
X123665000Y-47180732D01*
X123735518Y-47535250D01*
X123873844Y-47869199D01*
X124074662Y-48169744D01*
X124330256Y-48425338D01*
X124630801Y-48626156D01*
X124964750Y-48764482D01*
X125319268Y-48835000D01*
X125680732Y-48835000D01*
X126035250Y-48764482D01*
X126369199Y-48626156D01*
X126669744Y-48425338D01*
X126925338Y-48169744D01*
X127082189Y-47935000D01*
X134612711Y-47935000D01*
X142065001Y-55387291D01*
X142065000Y-103612711D01*
X140432711Y-105245000D01*
X140161247Y-105245000D01*
X140153475Y-105233368D01*
X139946632Y-105026525D01*
X139772240Y-104910000D01*
X139946632Y-104793475D01*
X140153475Y-104586632D01*
X140315990Y-104343411D01*
X140427932Y-104073158D01*
X140485000Y-103786260D01*
X140485000Y-103493740D01*
X140427932Y-103206842D01*
X140315990Y-102936589D01*
X140153475Y-102693368D01*
X139946632Y-102486525D01*
X139772240Y-102370000D01*
X139946632Y-102253475D01*
X140153475Y-102046632D01*
X140315990Y-101803411D01*
X140427932Y-101533158D01*
X140485000Y-101246260D01*
X140485000Y-100953740D01*
X140427932Y-100666842D01*
X140315990Y-100396589D01*
X140153475Y-100153368D01*
X139946632Y-99946525D01*
X139764466Y-99824805D01*
X139881355Y-99755178D01*
X140097588Y-99560269D01*
X140271641Y-99326920D01*
X140396825Y-99064099D01*
X140441476Y-98916890D01*
X140320155Y-98687000D01*
X139127000Y-98687000D01*
X139127000Y-98707000D01*
X138873000Y-98707000D01*
X138873000Y-98687000D01*
X137679845Y-98687000D01*
X137558524Y-98916890D01*
X137603175Y-99064099D01*
X137728359Y-99326920D01*
X137902412Y-99560269D01*
X138118645Y-99755178D01*
X138235534Y-99824805D01*
X138053368Y-99946525D01*
X137846525Y-100153368D01*
X137838753Y-100165000D01*
X133789044Y-100165000D01*
X133719608Y-100080392D01*
X133501101Y-99901068D01*
X133373259Y-99832735D01*
X133602839Y-99682601D01*
X133804500Y-99484895D01*
X133963715Y-99251646D01*
X134074367Y-98991818D01*
X134091904Y-98909039D01*
X133969915Y-98687000D01*
X132427000Y-98687000D01*
X132427000Y-98707000D01*
X132173000Y-98707000D01*
X132173000Y-98687000D01*
X130630085Y-98687000D01*
X130508096Y-98909039D01*
X130525633Y-98991818D01*
X130636285Y-99251646D01*
X130795500Y-99484895D01*
X130997161Y-99682601D01*
X131226741Y-99832735D01*
X131098899Y-99901068D01*
X130880392Y-100080392D01*
X130701068Y-100298899D01*
X130567818Y-100548192D01*
X130485764Y-100818691D01*
X130458057Y-101100000D01*
X130485764Y-101381309D01*
X130567818Y-101651808D01*
X130701068Y-101901101D01*
X130880392Y-102119608D01*
X131098899Y-102298932D01*
X131231858Y-102370000D01*
X131098899Y-102441068D01*
X130880392Y-102620392D01*
X130810956Y-102705000D01*
X125405935Y-102705000D01*
X125360000Y-102700476D01*
X125176708Y-102718528D01*
X125000459Y-102771993D01*
X124943880Y-102802235D01*
X124838028Y-102858814D01*
X124695656Y-102975656D01*
X124666375Y-103011336D01*
X119372616Y-108305095D01*
X119336937Y-108334376D01*
X119220095Y-108476748D01*
X119171583Y-108567509D01*
X119133274Y-108639180D01*
X119079809Y-108815429D01*
X119061756Y-108998720D01*
X119066281Y-109044662D01*
X119066280Y-116333623D01*
X118786914Y-116520290D01*
X118521570Y-116785634D01*
X118313091Y-117097644D01*
X118169489Y-117444332D01*
X118096280Y-117812374D01*
X116905000Y-117812374D01*
X116831791Y-117444332D01*
X116688189Y-117097644D01*
X116479710Y-116785634D01*
X116214366Y-116520290D01*
X115935000Y-116333623D01*
X115935000Y-96387289D01*
X125527290Y-86795000D01*
X130810956Y-86795000D01*
X130880392Y-86879608D01*
X131098899Y-87058932D01*
X131231858Y-87130000D01*
X131098899Y-87201068D01*
X130880392Y-87380392D01*
X130701068Y-87598899D01*
X130567818Y-87848192D01*
X130485764Y-88118691D01*
X130458057Y-88400000D01*
X130485764Y-88681309D01*
X130567818Y-88951808D01*
X130701068Y-89201101D01*
X130880392Y-89419608D01*
X131098899Y-89598932D01*
X131231858Y-89670000D01*
X131098899Y-89741068D01*
X130880392Y-89920392D01*
X130701068Y-90138899D01*
X130567818Y-90388192D01*
X130485764Y-90658691D01*
X130458057Y-90940000D01*
X130485764Y-91221309D01*
X130567818Y-91491808D01*
X130701068Y-91741101D01*
X130880392Y-91959608D01*
X131098899Y-92138932D01*
X131231858Y-92210000D01*
X131098899Y-92281068D01*
X130880392Y-92460392D01*
X130701068Y-92678899D01*
X130567818Y-92928192D01*
X130485764Y-93198691D01*
X130458057Y-93480000D01*
X130485764Y-93761309D01*
X130567818Y-94031808D01*
X130701068Y-94281101D01*
X130880392Y-94499608D01*
X131098899Y-94678932D01*
X131231858Y-94750000D01*
X131098899Y-94821068D01*
X130880392Y-95000392D01*
X130701068Y-95218899D01*
X130567818Y-95468192D01*
X130485764Y-95738691D01*
X130458057Y-96020000D01*
X130485764Y-96301309D01*
X130567818Y-96571808D01*
X130701068Y-96821101D01*
X130880392Y-97039608D01*
X131098899Y-97218932D01*
X131226741Y-97287265D01*
X130997161Y-97437399D01*
X130795500Y-97635105D01*
X130636285Y-97868354D01*
X130525633Y-98128182D01*
X130508096Y-98210961D01*
X130630085Y-98433000D01*
X132173000Y-98433000D01*
X132173000Y-98413000D01*
X132427000Y-98413000D01*
X132427000Y-98433000D01*
X133969915Y-98433000D01*
X134091904Y-98210961D01*
X134074367Y-98128182D01*
X133963715Y-97868354D01*
X133804500Y-97635105D01*
X133602839Y-97437399D01*
X133373259Y-97287265D01*
X133501101Y-97218932D01*
X133719608Y-97039608D01*
X133789044Y-96955000D01*
X137838753Y-96955000D01*
X137846525Y-96966632D01*
X138053368Y-97173475D01*
X138235534Y-97295195D01*
X138118645Y-97364822D01*
X137902412Y-97559731D01*
X137728359Y-97793080D01*
X137603175Y-98055901D01*
X137558524Y-98203110D01*
X137679845Y-98433000D01*
X138873000Y-98433000D01*
X138873000Y-98413000D01*
X139127000Y-98413000D01*
X139127000Y-98433000D01*
X140320155Y-98433000D01*
X140441476Y-98203110D01*
X140396825Y-98055901D01*
X140271641Y-97793080D01*
X140097588Y-97559731D01*
X139881355Y-97364822D01*
X139764466Y-97295195D01*
X139946632Y-97173475D01*
X140153475Y-96966632D01*
X140315990Y-96723411D01*
X140427932Y-96453158D01*
X140485000Y-96166260D01*
X140485000Y-95873740D01*
X140427932Y-95586842D01*
X140315990Y-95316589D01*
X140153475Y-95073368D01*
X139946632Y-94866525D01*
X139772240Y-94750000D01*
X139946632Y-94633475D01*
X140153475Y-94426632D01*
X140315990Y-94183411D01*
X140427932Y-93913158D01*
X140485000Y-93626260D01*
X140485000Y-93333740D01*
X140427932Y-93046842D01*
X140315990Y-92776589D01*
X140153475Y-92533368D01*
X139946632Y-92326525D01*
X139772240Y-92210000D01*
X139946632Y-92093475D01*
X140153475Y-91886632D01*
X140315990Y-91643411D01*
X140427932Y-91373158D01*
X140485000Y-91086260D01*
X140485000Y-90793740D01*
X140427932Y-90506842D01*
X140315990Y-90236589D01*
X140153475Y-89993368D01*
X139946632Y-89786525D01*
X139772240Y-89670000D01*
X139946632Y-89553475D01*
X140153475Y-89346632D01*
X140315990Y-89103411D01*
X140427932Y-88833158D01*
X140485000Y-88546260D01*
X140485000Y-88253740D01*
X140427932Y-87966842D01*
X140315990Y-87696589D01*
X140153475Y-87453368D01*
X139946632Y-87246525D01*
X139772240Y-87130000D01*
X139946632Y-87013475D01*
X140153475Y-86806632D01*
X140315990Y-86563411D01*
X140427932Y-86293158D01*
X140485000Y-86006260D01*
X140485000Y-85713740D01*
X140427932Y-85426842D01*
X140315990Y-85156589D01*
X140153475Y-84913368D01*
X139946632Y-84706525D01*
X139772240Y-84590000D01*
X139946632Y-84473475D01*
X140153475Y-84266632D01*
X140315990Y-84023411D01*
X140427932Y-83753158D01*
X140485000Y-83466260D01*
X140485000Y-83173740D01*
X140427932Y-82886842D01*
X140315990Y-82616589D01*
X140153475Y-82373368D01*
X139946632Y-82166525D01*
X139772240Y-82050000D01*
X139946632Y-81933475D01*
X140153475Y-81726632D01*
X140315990Y-81483411D01*
X140427932Y-81213158D01*
X140485000Y-80926260D01*
X140485000Y-80633740D01*
X140427932Y-80346842D01*
X140315990Y-80076589D01*
X140153475Y-79833368D01*
X139946632Y-79626525D01*
X139772240Y-79510000D01*
X139946632Y-79393475D01*
X140153475Y-79186632D01*
X140315990Y-78943411D01*
X140427932Y-78673158D01*
X140485000Y-78386260D01*
X140485000Y-78093740D01*
X140427932Y-77806842D01*
X140315990Y-77536589D01*
X140153475Y-77293368D01*
X139946632Y-77086525D01*
X139772240Y-76970000D01*
X139946632Y-76853475D01*
X140153475Y-76646632D01*
X140315990Y-76403411D01*
X140427932Y-76133158D01*
X140485000Y-75846260D01*
X140485000Y-75553740D01*
X140427932Y-75266842D01*
X140315990Y-74996589D01*
X140153475Y-74753368D01*
X139946632Y-74546525D01*
X139772240Y-74430000D01*
X139946632Y-74313475D01*
X140153475Y-74106632D01*
X140315990Y-73863411D01*
X140427932Y-73593158D01*
X140485000Y-73306260D01*
X140485000Y-73013740D01*
X140427932Y-72726842D01*
X140315990Y-72456589D01*
X140153475Y-72213368D01*
X139946632Y-72006525D01*
X139772240Y-71890000D01*
X139946632Y-71773475D01*
X140153475Y-71566632D01*
X140315990Y-71323411D01*
X140427932Y-71053158D01*
X140485000Y-70766260D01*
X140485000Y-70473740D01*
X140427932Y-70186842D01*
X140315990Y-69916589D01*
X140153475Y-69673368D01*
X139946632Y-69466525D01*
X139772240Y-69350000D01*
X139946632Y-69233475D01*
X140153475Y-69026632D01*
X140315990Y-68783411D01*
X140427932Y-68513158D01*
X140485000Y-68226260D01*
X140485000Y-67933740D01*
X140427932Y-67646842D01*
X140315990Y-67376589D01*
X140153475Y-67133368D01*
X139946632Y-66926525D01*
X139772240Y-66810000D01*
X139946632Y-66693475D01*
X140153475Y-66486632D01*
X140315990Y-66243411D01*
X140427932Y-65973158D01*
X140485000Y-65686260D01*
X140485000Y-65393740D01*
X140427932Y-65106842D01*
X140315990Y-64836589D01*
X140153475Y-64593368D01*
X140021620Y-64461513D01*
X140094180Y-64439502D01*
X140204494Y-64380537D01*
X140301185Y-64301185D01*
X140380537Y-64204494D01*
X140439502Y-64094180D01*
X140475812Y-63974482D01*
X140488072Y-63850000D01*
X140488072Y-62150000D01*
X140475812Y-62025518D01*
X140439502Y-61905820D01*
X140380537Y-61795506D01*
X140301185Y-61698815D01*
X140204494Y-61619463D01*
X140094180Y-61560498D01*
X139974482Y-61524188D01*
X139850000Y-61511928D01*
X138150000Y-61511928D01*
X138025518Y-61524188D01*
X137905820Y-61560498D01*
X137795506Y-61619463D01*
X137698815Y-61698815D01*
X137619463Y-61795506D01*
X137560498Y-61905820D01*
X137524188Y-62025518D01*
X137520299Y-62065000D01*
X134122621Y-62065000D01*
X134089502Y-61955820D01*
X134030537Y-61845506D01*
X133951185Y-61748815D01*
X133854494Y-61669463D01*
X133812733Y-61647141D01*
X134060290Y-61597899D01*
X134721818Y-61323885D01*
X135317177Y-60926079D01*
X135823489Y-60419767D01*
X136221295Y-59824408D01*
X136495309Y-59162880D01*
X136635000Y-58460606D01*
X136635000Y-57744574D01*
X136495309Y-57042300D01*
X136221295Y-56380772D01*
X135823489Y-55785413D01*
X135317177Y-55279101D01*
X134721818Y-54881295D01*
X134060290Y-54607281D01*
X133358016Y-54467590D01*
X132641984Y-54467590D01*
X131939710Y-54607281D01*
X131278182Y-54881295D01*
X130682823Y-55279101D01*
X130176511Y-55785413D01*
X129778705Y-56380772D01*
X129504691Y-57042300D01*
X129365000Y-57744574D01*
X129365000Y-58460606D01*
X129504691Y-59162880D01*
X129778705Y-59824408D01*
X130176511Y-60419767D01*
X130682823Y-60926079D01*
X131278182Y-61323885D01*
X131852868Y-61561928D01*
X131100000Y-61561928D01*
X130975518Y-61574188D01*
X130855820Y-61610498D01*
X130745506Y-61669463D01*
X130648815Y-61748815D01*
X130569463Y-61845506D01*
X130510498Y-61955820D01*
X130474188Y-62075518D01*
X130461928Y-62200000D01*
X130461928Y-63800000D01*
X130474188Y-63924482D01*
X130510498Y-64044180D01*
X130569463Y-64154494D01*
X130648815Y-64251185D01*
X130745506Y-64330537D01*
X130855820Y-64389502D01*
X130975518Y-64425812D01*
X130993482Y-64427581D01*
X130880392Y-64520392D01*
X130701068Y-64738899D01*
X130567818Y-64988192D01*
X130485764Y-65258691D01*
X130458057Y-65540000D01*
X130485764Y-65821309D01*
X130567818Y-66091808D01*
X130701068Y-66341101D01*
X130880392Y-66559608D01*
X131098899Y-66738932D01*
X131231858Y-66810000D01*
X131098899Y-66881068D01*
X130880392Y-67060392D01*
X130701068Y-67278899D01*
X130567818Y-67528192D01*
X130485764Y-67798691D01*
X130458057Y-68080000D01*
X130485764Y-68361309D01*
X130567818Y-68631808D01*
X130701068Y-68881101D01*
X130880392Y-69099608D01*
X131098899Y-69278932D01*
X131231858Y-69350000D01*
X131098899Y-69421068D01*
X130880392Y-69600392D01*
X130701068Y-69818899D01*
X130567818Y-70068192D01*
X130485764Y-70338691D01*
X130458057Y-70620000D01*
X130485764Y-70901309D01*
X130567818Y-71171808D01*
X130701068Y-71421101D01*
X130880392Y-71639608D01*
X131098899Y-71818932D01*
X131231858Y-71890000D01*
X131098899Y-71961068D01*
X130880392Y-72140392D01*
X130701068Y-72358899D01*
X130567818Y-72608192D01*
X130485764Y-72878691D01*
X130458057Y-73160000D01*
X130485764Y-73441309D01*
X130567818Y-73711808D01*
X130701068Y-73961101D01*
X130880392Y-74179608D01*
X131098899Y-74358932D01*
X131231858Y-74430000D01*
X131098899Y-74501068D01*
X130880392Y-74680392D01*
X130701068Y-74898899D01*
X130567818Y-75148192D01*
X130485764Y-75418691D01*
X130458057Y-75700000D01*
X130485764Y-75981309D01*
X130567818Y-76251808D01*
X130701068Y-76501101D01*
X130880392Y-76719608D01*
X131098899Y-76898932D01*
X131231858Y-76970000D01*
X131098899Y-77041068D01*
X130880392Y-77220392D01*
X130701068Y-77438899D01*
X130567818Y-77688192D01*
X130485764Y-77958691D01*
X130458057Y-78240000D01*
X130485764Y-78521309D01*
X130567818Y-78791808D01*
X130701068Y-79041101D01*
X130880392Y-79259608D01*
X131098899Y-79438932D01*
X131231858Y-79510000D01*
X131098899Y-79581068D01*
X130880392Y-79760392D01*
X130810956Y-79845000D01*
X118265931Y-79845000D01*
X118219999Y-79840476D01*
X118036707Y-79858529D01*
X117983243Y-79874747D01*
X117860460Y-79911993D01*
X117698028Y-79998814D01*
X117555656Y-80115656D01*
X117526375Y-80151335D01*
X113744401Y-83933309D01*
X114059639Y-83499422D01*
X114708794Y-82318612D01*
X115204836Y-81065752D01*
X115539942Y-79760602D01*
X115708827Y-78423742D01*
X115708827Y-77076258D01*
X115539942Y-75739398D01*
X115204836Y-74434248D01*
X114708794Y-73181388D01*
X114059639Y-72000578D01*
X113267607Y-70910441D01*
X112345190Y-69928167D01*
X111306936Y-69069248D01*
X110169217Y-68347229D01*
X108949976Y-67773498D01*
X107668442Y-67357103D01*
X106344826Y-67104609D01*
X105000000Y-67020000D01*
X103655174Y-67104609D01*
X102331558Y-67357103D01*
X101050024Y-67773498D01*
X99830783Y-68347229D01*
X98693064Y-69069248D01*
X97654810Y-69928167D01*
X96732393Y-70910441D01*
X95940361Y-72000578D01*
X95291206Y-73181388D01*
X94795164Y-74434248D01*
X94460058Y-75739398D01*
X94291173Y-77076258D01*
X91509817Y-77076258D01*
X79933558Y-65500000D01*
X80155578Y-65277980D01*
X84901626Y-65277980D01*
X85021514Y-65562836D01*
X85345210Y-65723699D01*
X85694069Y-65818322D01*
X86054684Y-65843067D01*
X86413198Y-65796985D01*
X86755833Y-65681846D01*
X86978486Y-65562836D01*
X87098374Y-65277980D01*
X124401626Y-65277980D01*
X124521514Y-65562836D01*
X124845210Y-65723699D01*
X125194069Y-65818322D01*
X125554684Y-65843067D01*
X125913198Y-65796985D01*
X126255833Y-65681846D01*
X126478486Y-65562836D01*
X126598374Y-65277980D01*
X125500000Y-64179605D01*
X124401626Y-65277980D01*
X87098374Y-65277980D01*
X86000000Y-64179605D01*
X84901626Y-65277980D01*
X80155578Y-65277980D01*
X81378874Y-64054684D01*
X84156933Y-64054684D01*
X84203015Y-64413198D01*
X84318154Y-64755833D01*
X84437164Y-64978486D01*
X84722020Y-65098374D01*
X85820395Y-64000000D01*
X86179605Y-64000000D01*
X87277980Y-65098374D01*
X87562836Y-64978486D01*
X87723699Y-64654790D01*
X87818322Y-64305931D01*
X87835562Y-64054684D01*
X123656933Y-64054684D01*
X123703015Y-64413198D01*
X123818154Y-64755833D01*
X123937164Y-64978486D01*
X124222020Y-65098374D01*
X125320395Y-64000000D01*
X125679605Y-64000000D01*
X126777980Y-65098374D01*
X127062836Y-64978486D01*
X127223699Y-64654790D01*
X127318322Y-64305931D01*
X127343067Y-63945316D01*
X127296985Y-63586802D01*
X127181846Y-63244167D01*
X127062836Y-63021514D01*
X126777980Y-62901626D01*
X125679605Y-64000000D01*
X125320395Y-64000000D01*
X124222020Y-62901626D01*
X123937164Y-63021514D01*
X123776301Y-63345210D01*
X123681678Y-63694069D01*
X123656933Y-64054684D01*
X87835562Y-64054684D01*
X87843067Y-63945316D01*
X87796985Y-63586802D01*
X87681846Y-63244167D01*
X87562836Y-63021514D01*
X87277980Y-62901626D01*
X86179605Y-64000000D01*
X85820395Y-64000000D01*
X84722020Y-62901626D01*
X84437164Y-63021514D01*
X84276301Y-63345210D01*
X84181678Y-63694069D01*
X84156933Y-64054684D01*
X81378874Y-64054684D01*
X82711538Y-62722020D01*
X84901626Y-62722020D01*
X86000000Y-63820395D01*
X87098374Y-62722020D01*
X124401626Y-62722020D01*
X125500000Y-63820395D01*
X126598374Y-62722020D01*
X126478486Y-62437164D01*
X126154790Y-62276301D01*
X125805931Y-62181678D01*
X125445316Y-62156933D01*
X125086802Y-62203015D01*
X124744167Y-62318154D01*
X124521514Y-62437164D01*
X124401626Y-62722020D01*
X87098374Y-62722020D01*
X86978486Y-62437164D01*
X86654790Y-62276301D01*
X86305931Y-62181678D01*
X85945316Y-62156933D01*
X85586802Y-62203015D01*
X85244167Y-62318154D01*
X85021514Y-62437164D01*
X84901626Y-62722020D01*
X82711538Y-62722020D01*
X88107886Y-57325674D01*
X88227505Y-57227505D01*
X88619269Y-56750140D01*
X88910376Y-56205517D01*
X89051460Y-55740424D01*
X89089638Y-55614568D01*
X89098758Y-55521971D01*
X89135000Y-55154002D01*
X89135000Y-55153996D01*
X89150167Y-55000001D01*
X89135000Y-54846006D01*
X89135000Y-46845998D01*
X89089638Y-46385433D01*
X88910376Y-45794483D01*
X88619269Y-45249860D01*
X88227505Y-44772495D01*
X88094816Y-44663600D01*
X157968821Y-44663600D01*
X158454993Y-44711270D01*
X158891598Y-44843089D01*
X159294285Y-45057200D01*
X159647712Y-45345448D01*
X159938427Y-45696861D01*
X160155342Y-46098039D01*
X160290206Y-46533713D01*
X160341101Y-47017953D01*
X160341101Y-56670009D01*
X160221295Y-56380772D01*
X159823489Y-55785413D01*
X159317177Y-55279101D01*
X158721818Y-54881295D01*
X158060290Y-54607281D01*
X157358016Y-54467590D01*
X156641984Y-54467590D01*
X155939710Y-54607281D01*
X155278182Y-54881295D01*
X154682823Y-55279101D01*
X154176511Y-55785413D01*
X153778705Y-56380772D01*
X153504691Y-57042300D01*
X153365000Y-57744574D01*
X153365000Y-58460606D01*
X153504691Y-59162880D01*
X153778705Y-59824408D01*
X154176511Y-60419767D01*
X154682823Y-60926079D01*
X155278182Y-61323885D01*
X155939710Y-61597899D01*
X156187267Y-61647141D01*
X156145506Y-61669463D01*
X156048815Y-61748815D01*
X155969463Y-61845506D01*
X155910498Y-61955820D01*
X155877379Y-62065000D01*
X153161247Y-62065000D01*
X153153475Y-62053368D01*
X152946632Y-61846525D01*
X152703411Y-61684010D01*
X152433158Y-61572068D01*
X152146260Y-61515000D01*
X151853740Y-61515000D01*
X151566842Y-61572068D01*
X151296589Y-61684010D01*
X151053368Y-61846525D01*
X150846525Y-62053368D01*
X150684010Y-62296589D01*
X150572068Y-62566842D01*
X150515000Y-62853740D01*
X150515000Y-63146260D01*
X150572068Y-63433158D01*
X150684010Y-63703411D01*
X150846525Y-63946632D01*
X151053368Y-64153475D01*
X151227760Y-64270000D01*
X151053368Y-64386525D01*
X150846525Y-64593368D01*
X150684010Y-64836589D01*
X150572068Y-65106842D01*
X150515000Y-65393740D01*
X150515000Y-65686260D01*
X150572068Y-65973158D01*
X150684010Y-66243411D01*
X150846525Y-66486632D01*
X151053368Y-66693475D01*
X151227760Y-66810000D01*
X151053368Y-66926525D01*
X150846525Y-67133368D01*
X150684010Y-67376589D01*
X150572068Y-67646842D01*
X150515000Y-67933740D01*
X150515000Y-68226260D01*
X150572068Y-68513158D01*
X150684010Y-68783411D01*
X150846525Y-69026632D01*
X151053368Y-69233475D01*
X151227760Y-69350000D01*
X151053368Y-69466525D01*
X150846525Y-69673368D01*
X150684010Y-69916589D01*
X150572068Y-70186842D01*
X150515000Y-70473740D01*
X150515000Y-70766260D01*
X150572068Y-71053158D01*
X150684010Y-71323411D01*
X150846525Y-71566632D01*
X151053368Y-71773475D01*
X151227760Y-71890000D01*
X151053368Y-72006525D01*
X150846525Y-72213368D01*
X150684010Y-72456589D01*
X150572068Y-72726842D01*
X150515000Y-73013740D01*
X150515000Y-73306260D01*
X150572068Y-73593158D01*
X150684010Y-73863411D01*
X150846525Y-74106632D01*
X151053368Y-74313475D01*
X151227760Y-74430000D01*
X151053368Y-74546525D01*
X150846525Y-74753368D01*
X150684010Y-74996589D01*
X150572068Y-75266842D01*
X150515000Y-75553740D01*
X150515000Y-75846260D01*
X150572068Y-76133158D01*
X150684010Y-76403411D01*
X150846525Y-76646632D01*
X151053368Y-76853475D01*
X151227760Y-76970000D01*
X151053368Y-77086525D01*
X150846525Y-77293368D01*
X150684010Y-77536589D01*
X150572068Y-77806842D01*
X150515000Y-78093740D01*
X150515000Y-78386260D01*
X150572068Y-78673158D01*
X150684010Y-78943411D01*
X150846525Y-79186632D01*
X151053368Y-79393475D01*
X151227760Y-79510000D01*
X151053368Y-79626525D01*
X150846525Y-79833368D01*
X150684010Y-80076589D01*
X150572068Y-80346842D01*
X150515000Y-80633740D01*
X150515000Y-80926260D01*
X150572068Y-81213158D01*
X150684010Y-81483411D01*
X150846525Y-81726632D01*
X151053368Y-81933475D01*
X151227760Y-82050000D01*
X151053368Y-82166525D01*
X150846525Y-82373368D01*
X150684010Y-82616589D01*
X150572068Y-82886842D01*
X150515000Y-83173740D01*
X150515000Y-83466260D01*
X150572068Y-83753158D01*
X150684010Y-84023411D01*
X150846525Y-84266632D01*
X151053368Y-84473475D01*
X151227760Y-84590000D01*
X151053368Y-84706525D01*
X150846525Y-84913368D01*
X150684010Y-85156589D01*
X150572068Y-85426842D01*
X150515000Y-85713740D01*
X150515000Y-86006260D01*
X150572068Y-86293158D01*
X150684010Y-86563411D01*
X150846525Y-86806632D01*
X151053368Y-87013475D01*
X151227760Y-87130000D01*
X151053368Y-87246525D01*
X150846525Y-87453368D01*
X150684010Y-87696589D01*
X150572068Y-87966842D01*
X150515000Y-88253740D01*
X150515000Y-88546260D01*
X150572068Y-88833158D01*
X150684010Y-89103411D01*
X150846525Y-89346632D01*
X151053368Y-89553475D01*
X151227760Y-89670000D01*
X151053368Y-89786525D01*
X150846525Y-89993368D01*
X150684010Y-90236589D01*
X150572068Y-90506842D01*
X150515000Y-90793740D01*
X150515000Y-91086260D01*
X150572068Y-91373158D01*
X150684010Y-91643411D01*
X150846525Y-91886632D01*
X151053368Y-92093475D01*
X151227760Y-92210000D01*
X151053368Y-92326525D01*
X150846525Y-92533368D01*
X150684010Y-92776589D01*
X150572068Y-93046842D01*
X150515000Y-93333740D01*
X150515000Y-93626260D01*
X150572068Y-93913158D01*
X150684010Y-94183411D01*
X150846525Y-94426632D01*
X151053368Y-94633475D01*
X151227760Y-94750000D01*
X151053368Y-94866525D01*
X150846525Y-95073368D01*
X150684010Y-95316589D01*
X150572068Y-95586842D01*
X150515000Y-95873740D01*
X150515000Y-96166260D01*
X150572068Y-96453158D01*
X150684010Y-96723411D01*
X150846525Y-96966632D01*
X151053368Y-97173475D01*
X151227760Y-97290000D01*
X151053368Y-97406525D01*
X150846525Y-97613368D01*
X150684010Y-97856589D01*
X150572068Y-98126842D01*
X150515000Y-98413740D01*
X150515000Y-98706260D01*
X150572068Y-98993158D01*
X150684010Y-99263411D01*
X150846525Y-99506632D01*
X151053368Y-99713475D01*
X151227760Y-99830000D01*
X151053368Y-99946525D01*
X150846525Y-100153368D01*
X150684010Y-100396589D01*
X150572068Y-100666842D01*
X150515000Y-100953740D01*
X150515000Y-101246260D01*
X150572068Y-101533158D01*
X150684010Y-101803411D01*
X150846525Y-102046632D01*
X151053368Y-102253475D01*
X151227760Y-102370000D01*
X151053368Y-102486525D01*
X150846525Y-102693368D01*
X150684010Y-102936589D01*
X150572068Y-103206842D01*
X150515000Y-103493740D01*
X150515000Y-103786260D01*
X150572068Y-104073158D01*
X150684010Y-104343411D01*
X150846525Y-104586632D01*
X150978380Y-104718487D01*
X150905820Y-104740498D01*
X150795506Y-104799463D01*
X150698815Y-104878815D01*
X150619463Y-104975506D01*
X150560498Y-105085820D01*
X150524188Y-105205518D01*
X150511928Y-105330000D01*
X150511928Y-107030000D01*
X150524188Y-107154482D01*
X150560498Y-107274180D01*
X150619463Y-107384494D01*
X150698815Y-107481185D01*
X150795506Y-107560537D01*
X150905820Y-107619502D01*
X151025518Y-107655812D01*
X151150000Y-107668072D01*
X152850000Y-107668072D01*
X152974482Y-107655812D01*
X153094180Y-107619502D01*
X153204494Y-107560537D01*
X153301185Y-107481185D01*
X153380537Y-107384494D01*
X153439502Y-107274180D01*
X153475812Y-107154482D01*
X153479701Y-107115000D01*
X156210956Y-107115000D01*
X156280392Y-107199608D01*
X156498899Y-107378932D01*
X156664766Y-107467590D01*
X156641984Y-107467590D01*
X155939710Y-107607281D01*
X155278182Y-107881295D01*
X154682823Y-108279101D01*
X154176511Y-108785413D01*
X153778705Y-109380772D01*
X153504691Y-110042300D01*
X153365000Y-110744574D01*
X153365000Y-111460606D01*
X153504691Y-112162880D01*
X153778705Y-112824408D01*
X154176511Y-113419767D01*
X154682823Y-113926079D01*
X155278182Y-114323885D01*
X155939710Y-114597899D01*
X156641984Y-114737590D01*
X157358016Y-114737590D01*
X158060290Y-114597899D01*
X158721818Y-114323885D01*
X159317177Y-113926079D01*
X159823489Y-113419767D01*
X160221295Y-112824408D01*
X160341100Y-112535173D01*
X160341100Y-120971321D01*
X160293430Y-121457494D01*
X160161612Y-121894097D01*
X159947499Y-122296786D01*
X159659250Y-122650213D01*
X159307839Y-122940927D01*
X158906664Y-123157840D01*
X158470986Y-123292706D01*
X157986764Y-123343600D01*
X77033379Y-123343600D01*
X76547206Y-123295930D01*
X76110603Y-123164112D01*
X75707914Y-122949999D01*
X75354487Y-122661750D01*
X75063773Y-122310339D01*
X74846860Y-121909164D01*
X74711994Y-121473486D01*
X74661100Y-120989264D01*
X74661100Y-117779872D01*
X76765000Y-117779872D01*
X76765000Y-118220128D01*
X76850890Y-118651925D01*
X77019369Y-119058669D01*
X77263962Y-119424729D01*
X77575271Y-119736038D01*
X77941331Y-119980631D01*
X78348075Y-120149110D01*
X78779872Y-120235000D01*
X79220128Y-120235000D01*
X79651925Y-120149110D01*
X80058669Y-119980631D01*
X80424729Y-119736038D01*
X80736038Y-119424729D01*
X80980631Y-119058669D01*
X81149110Y-118651925D01*
X81235000Y-118220128D01*
X81235000Y-117779872D01*
X81149110Y-117348075D01*
X80980631Y-116941331D01*
X80736038Y-116575271D01*
X80424729Y-116263962D01*
X80058669Y-116019369D01*
X79651925Y-115850890D01*
X79220128Y-115765000D01*
X78779872Y-115765000D01*
X78348075Y-115850890D01*
X77941331Y-116019369D01*
X77575271Y-116263962D01*
X77263962Y-116575271D01*
X77019369Y-116941331D01*
X76850890Y-117348075D01*
X76765000Y-117779872D01*
X74661100Y-117779872D01*
X74661100Y-111971181D01*
X74659573Y-111955680D01*
X74633739Y-111407860D01*
X74629289Y-111373596D01*
X74626878Y-111339118D01*
X74624244Y-111323208D01*
X74451812Y-110355183D01*
X74440046Y-110310647D01*
X74429380Y-110265879D01*
X74424189Y-110250630D01*
X74424184Y-110250612D01*
X74424178Y-110250598D01*
X74095965Y-109323749D01*
X74077093Y-109281758D01*
X74059248Y-109239306D01*
X74051627Y-109225094D01*
X73576433Y-108364283D01*
X73550952Y-108325931D01*
X73526419Y-108286973D01*
X73516591Y-108274212D01*
X73516580Y-108274195D01*
X73516568Y-108274182D01*
X72907175Y-107502555D01*
X72875749Y-107468854D01*
X72845204Y-107434451D01*
X72833425Y-107423467D01*
X72833411Y-107423452D01*
X72833397Y-107423441D01*
X72106159Y-106761705D01*
X72069686Y-106733617D01*
X72033898Y-106704636D01*
X72020473Y-106695717D01*
X72020467Y-106695712D01*
X72020461Y-106695709D01*
X71194899Y-106161629D01*
X71154326Y-106139874D01*
X71114288Y-106117129D01*
X71099579Y-106110518D01*
X70197867Y-105718443D01*
X70154265Y-105703600D01*
X70111070Y-105687707D01*
X70095492Y-105683591D01*
X70095479Y-105683587D01*
X70095467Y-105683585D01*
X69141841Y-105444050D01*
X69096413Y-105436530D01*
X69051189Y-105427903D01*
X69035134Y-105426385D01*
X68060266Y-105346236D01*
X67547206Y-105295930D01*
X67110603Y-105164112D01*
X66707914Y-104949999D01*
X66354487Y-104661750D01*
X66063773Y-104310339D01*
X65846860Y-103909164D01*
X65711994Y-103473486D01*
X65661100Y-102989264D01*
X65661100Y-74777980D01*
X73901626Y-74777980D01*
X74021514Y-75062836D01*
X74345210Y-75223699D01*
X74694069Y-75318322D01*
X75054684Y-75343067D01*
X75413198Y-75296985D01*
X75755833Y-75181846D01*
X75978486Y-75062836D01*
X76098374Y-74777980D01*
X75000000Y-73679605D01*
X73901626Y-74777980D01*
X65661100Y-74777980D01*
X65661100Y-73554684D01*
X73156933Y-73554684D01*
X73203015Y-73913198D01*
X73318154Y-74255833D01*
X73437164Y-74478486D01*
X73722020Y-74598374D01*
X74820395Y-73500000D01*
X75179605Y-73500000D01*
X76277980Y-74598374D01*
X76562836Y-74478486D01*
X76723699Y-74154790D01*
X76818322Y-73805931D01*
X76843067Y-73445316D01*
X76796985Y-73086802D01*
X76681846Y-72744167D01*
X76562836Y-72521514D01*
X76277980Y-72401626D01*
X75179605Y-73500000D01*
X74820395Y-73500000D01*
X73722020Y-72401626D01*
X73437164Y-72521514D01*
X73276301Y-72845210D01*
X73181678Y-73194069D01*
X73156933Y-73554684D01*
X65661100Y-73554684D01*
X65661100Y-72222020D01*
X73901626Y-72222020D01*
X75000000Y-73320395D01*
X76098374Y-72222020D01*
X75978486Y-71937164D01*
X75654790Y-71776301D01*
X75305931Y-71681678D01*
X74945316Y-71656933D01*
X74586802Y-71703015D01*
X74244167Y-71818154D01*
X74021514Y-71937164D01*
X73901626Y-72222020D01*
X65661100Y-72222020D01*
X65661100Y-65035879D01*
X65708770Y-64549707D01*
X65840589Y-64113102D01*
X66054700Y-63710415D01*
X66342948Y-63356988D01*
X66694361Y-63066273D01*
X67095539Y-62849358D01*
X67531213Y-62714494D01*
X68017552Y-62663378D01*
X68032190Y-62662867D01*
X68596840Y-62636239D01*
X68631103Y-62631789D01*
X68665583Y-62629378D01*
X68681492Y-62626744D01*
X69649518Y-62454312D01*
X69694053Y-62442546D01*
X69738822Y-62431880D01*
X69754075Y-62426687D01*
X69754088Y-62426684D01*
X69754098Y-62426679D01*
X70680951Y-62098463D01*
X70722951Y-62079588D01*
X70765392Y-62061747D01*
X70779599Y-62054130D01*
X70779605Y-62054127D01*
X70779610Y-62054124D01*
X71640415Y-61578934D01*
X71678766Y-61553454D01*
X71717726Y-61528919D01*
X71730503Y-61519080D01*
X72502144Y-60909675D01*
X72535816Y-60878275D01*
X72570249Y-60847704D01*
X72581247Y-60835910D01*
X73242994Y-60108658D01*
X73271095Y-60072168D01*
X73300062Y-60036397D01*
X73308980Y-60022974D01*
X73308987Y-60022965D01*
X73308992Y-60022956D01*
X73843069Y-59197399D01*
X73864830Y-59156816D01*
X73887569Y-59116787D01*
X73894180Y-59102078D01*
X74286255Y-58200367D01*
X74301098Y-58156765D01*
X74316991Y-58113570D01*
X74321111Y-58097979D01*
X74560648Y-57144340D01*
X74568170Y-57098903D01*
X74576795Y-57053689D01*
X74578313Y-57037634D01*
X74658442Y-56063006D01*
X74661100Y-56036019D01*
X74661100Y-49779872D01*
X76765000Y-49779872D01*
X76765000Y-50220128D01*
X76850890Y-50651925D01*
X77019369Y-51058669D01*
X77263962Y-51424729D01*
X77575271Y-51736038D01*
X77941331Y-51980631D01*
X78348075Y-52149110D01*
X78779872Y-52235000D01*
X79220128Y-52235000D01*
X79651925Y-52149110D01*
X80058669Y-51980631D01*
X80424729Y-51736038D01*
X80736038Y-51424729D01*
X80980631Y-51058669D01*
X81149110Y-50651925D01*
X81235000Y-50220128D01*
X81235000Y-49779872D01*
X81149110Y-49348075D01*
X80980631Y-48941331D01*
X80736038Y-48575271D01*
X80424729Y-48263962D01*
X80058669Y-48019369D01*
X79651925Y-47850890D01*
X79220128Y-47765000D01*
X78779872Y-47765000D01*
X78348075Y-47850890D01*
X77941331Y-48019369D01*
X77575271Y-48263962D01*
X77263962Y-48575271D01*
X77019369Y-48941331D01*
X76850890Y-49348075D01*
X76765000Y-49779872D01*
X74661100Y-49779872D01*
X74661100Y-47035879D01*
X74708770Y-46549707D01*
X74840589Y-46113102D01*
X75054700Y-45710415D01*
X75342948Y-45356988D01*
X75694361Y-45066273D01*
X76095539Y-44849358D01*
X76531213Y-44714494D01*
X77015444Y-44663600D01*
X83905184Y-44663600D01*
X83772495Y-44772495D01*
G37*
G04 #@! TD.AperFunction*
M02*
